999
dxflib 3.1.5.0
  0
SECTION
  2
HEADER
  9
$ACADVER
  1
AC1015
  9
$HANDSEED
  5
FFFF
  9
$ANGBASE
 50
0.0
  9
$ATTMODE
 70
1
  9
$AUNITS
 70
0
  9
$AUPREC
 70
0
  9
$CELTSCALE
 40
1.0
  9
$CHAMFERA
 40
0.0
  9
$CHAMFERB
 40
0.0
  9
$CHAMFERC
 40
0.0
  9
$CHAMFERD
 40
0.0
  9
$CMLJUST
 70
0
  9
$CMLSCALE
 40
1.0
  9
$DIMADEC
 70
0
  9
$DIMALTD
 70
2
  9
$DIMALTF
 40
25.3999999999999986
  9
$DIMALTRND
 40
0.0
  9
$DIMALTTD
 70
2
  9
$DIMALTTZ
 70
0
  9
$DIMALTU
 70
2
  9
$DIMALTZ
 70
0
  9
$DIMAPOST
  1

  9
$DIMASZ
 40
2.5
  9
$DIMATFIT
 70
3
  9
$DIMAUNIT
 70
0
  9
$DIMAZIN
 70
2
  9
$DIMCEN
 40
0.09
  9
$DIMDEC
 70
4
  9
$DIMDLE
 40
0.0
  9
$DIMDLI
 40
0.38
  9
$DIMDSEP
 70
46
  9
$DIMEXE
 40
1.25
  9
$DIMEXO
 40
0.625
  9
$DIMFRAC
 70
0
  9
$DIMGAP
 40
0.625
  9
$DIMJUST
 70
0
  9
$DIMLFAC
 40
1.0
  9
$DIMLUNIT
 70
2
  9
$DIMLWD
 70
-2
  9
$DIMLWE
 70
-2
  9
$DIMPOST
  1

  9
$DIMRND
 40
0.0
  9
$DIMSCALE
 40
1.0
  9
$DIMTAD
 70
0
  9
$DIMTDEC
 70
4
  9
$DIMTFAC
 40
1.0
  9
$DIMTM
 40
0.0
  9
$DIMTOLJ
 70
1
  9
$DIMTP
 40
0.0
  9
$DIMTSZ
 40
0.0
  9
$DIMTVP
 40
0.0
  9
$DIMTXT
 40
2.5
  9
$DIMTZIN
 70
0
  9
$DIMZIN
 70
8
  9
$ELEVATION
 40
0.0
  9
$EXTMAX
 10
-100000000000000000000.0
 20
-100000000000000000000.0
 30
-100000000000000000000.0
  9
$EXTMIN
 10
100000000000000000000.0
 20
100000000000000000000.0
 30
100000000000000000000.0
  9
$FILLETRAD
 40
0.5
  9
$INSBASE
 10
0.0
 20
0.0
 30
0.0
  9
$INSUNITS
 70
4
  9
$LIMMAX
 10
12.0
 20
9.0
  9
$LIMMIN
 10
0.0
 20
0.0
  9
$LTSCALE
 40
1.0
  9
$LUNITS
 70
2
  9
$LUPREC
 70
4
  9
$MAXACTVP
 70
64
  9
$PDMODE
 70
0
  9
$PDSIZE
 40
0.0
  9
$PELEVATION
 40
0.0
  9
$PEXTMAX
 10
-100000000000000000000.0
 20
-100000000000000000000.0
 30
-100000000000000000000.0
  9
$PEXTMIN
 10
100000000000000000000.0
 20
100000000000000000000.0
 30
100000000000000000000.0
  9
$PINSBASE
 10
0.0
 20
0.0
 30
0.0
  9
$PLIMMAX
 10
12.0
 20
9.0
  9
$PLIMMIN
 10
0.0
 20
0.0
  9
$PLINEWID
 40
0.0
  9
$PROXYGRAPHICS
 70
1
  9
$PUCSORG
 10
0.0
 20
0.0
 30
0.0
  9
$PUCSXDIR
 10
1.0
 20
0.0
 30
0.0
  9
$PUCSYDIR
 10
0.0
 20
1.0
 30
0.0
  9
$SHADEDGE
 70
3
  9
$SHADEDIF
 70
70
  9
$SKETCHINC
 40
0.1
  9
$SPLINESEGS
 70
8
  9
$SPLINETYPE
 70
6
  9
$SURFTAB1
 70
6
  9
$SURFTAB2
 70
6
  9
$SURFTYPE
 70
6
  9
$SURFU
 70
6
  9
$SURFV
 70
6
  9
$TEXTSIZE
 40
0.2
  9
$THICKNESS
 40
0.0
  9
$TRACEWID
 40
0.05
  9
$TREEDEPTH
 70
3020
  9
$UCSORG
 10
0.0
 20
0.0
 30
0.0
  9
$UCSXDIR
 10
1.0
 20
0.0
 30
0.0
  9
$UCSYDIR
 10
0.0
 20
1.0
 30
0.0
  9
$UNITMODE
 70
0
  9
$USERI1
 70
0
  9
$USERI2
 70
0
  9
$USERI3
 70
0
  9
$USERI4
 70
0
  9
$USERI5
 70
0
  9
$USERR1
 40
0.0
  9
$USERR2
 40
0.0
  9
$USERR3
 40
0.0
  9
$USERR4
 40
0.0
  9
$USERR5
 40
0.0
  0
SECTION
  2
TABLES
  0
TABLE
  2
VPORT
  5
8
100
AcDbSymbolTable
 70
1
  0
VPORT
  5
30
100
AcDbSymbolTableRecord
100
AcDbViewportTableRecord
  2
*Active
 70
0
 10
0.0
 20
0.0
 11
1.0
 21
1.0
 12
286.3055555555554861
 22
148.5
 13
0.0
 23
0.0
 14
10.0
 24
10.0
 15
10.0
 25
10.0
 16
0.0
 26
0.0
 36
1.0
 17
0.0
 27
0.0
 37
0.0
 40
297.0
 41
1.92798353909465
 42
50.0
 43
0.0
 44
0.0
 50
0.0
 51
0.0
 71
0
 72
100
 73
1
 74
3
 75
1
 76
1
 77
0
 78
0
281
0
 65
1
110
0.0
120
0.0
130
0.0
111
1.0
121
0.0
131
0.0
112
0.0
122
1.0
132
0.0
 79
0
146
0.0
  0
ENDTAB
  0
TABLE
  2
LTYPE
  5
5
100
AcDbSymbolTable
 70
21
  0
LTYPE
  5
31
100
AcDbSymbolTableRecord
100
AcDbLinetypeTableRecord
  2
CENTER2
 70
0
  3
Center (.5x) ___ _ ___ _ ___ _ ___ _ ___ _ ___
 72
65
 73
4
 40
28.5749999999999993
 49
19.0500000000000007
 74
0
 49
-3.1749999999999998
 74
0
 49
3.1749999999999998
 74
0
 49
-3.1749999999999998
 74
0
  0
LTYPE
  5
32
100
AcDbSymbolTableRecord
100
AcDbLinetypeTableRecord
  2
DIVIDEX2
 70
0
  3
Divide (2x) ________  .  .  ________  .  .  _
 72
65
 73
6
 40
63.5
 49
25.3999999999999986
 74
0
 49
-12.6999999999999993
 74
0
 49
0.0
 74
0
 49
-12.6999999999999993
 74
0
 49
0.0
 74
0
 49
-12.6999999999999993
 74
0
  0
LTYPE
  5
33
100
AcDbSymbolTableRecord
100
AcDbLinetypeTableRecord
  2
DOT2
 70
0
  3
Dot (.5x) .....................................
 72
65
 73
2
 40
3.1749999999999998
 49
0.0
 74
0
 49
-3.1749999999999998
 74
0
  0
LTYPE
  5
34
100
AcDbSymbolTableRecord
100
AcDbLinetypeTableRecord
  2
DASHDOT2
 70
0
  3
Dash dot (.5x) _._._._._._._._._._._._._._._.
 72
65
 73
4
 40
12.6999999999999993
 49
6.3499999999999996
 74
0
 49
-3.1749999999999998
 74
0
 49
0.0
 74
0
 49
-3.1749999999999998
 74
0
  0
LTYPE
  5
35
100
AcDbSymbolTableRecord
100
AcDbLinetypeTableRecord
  2
DIVIDE
 70
0
  3
Divide ____ . . ____ . . ____ . . ____ . . ____
 72
65
 73
6
 40
31.75
 49
12.6999999999999993
 74
0
 49
-6.3499999999999996
 74
0
 49
0.0
 74
0
 49
-6.3499999999999996
 74
0
 49
0.0
 74
0
 49
-6.3499999999999996
 74
0
  0
LTYPE
  5
36
100
AcDbSymbolTableRecord
100
AcDbLinetypeTableRecord
  2
DASHDOT
 70
0
  3
Dash dot __ . __ . __ . __ . __ . __ . __ . __
 72
65
 73
4
 40
25.3999999999999986
 49
12.6999999999999993
 74
0
 49
-6.3499999999999996
 74
0
 49
0.0
 74
0
 49
-6.3499999999999996
 74
0
  0
LTYPE
  5
37
100
AcDbSymbolTableRecord
100
AcDbLinetypeTableRecord
  2
BORDER
 70
0
  3
Border __ __ . __ __ . __ __ . __ __ . __ __ .
 72
65
 73
6
 40
44.4500000000000028
 49
12.6999999999999993
 74
0
 49
-6.3499999999999996
 74
0
 49
12.6999999999999993
 74
0
 49
-6.3499999999999996
 74
0
 49
0.0
 74
0
 49
-6.3499999999999996
 74
0
  0
LTYPE
  5
38
100
AcDbSymbolTableRecord
100
AcDbLinetypeTableRecord
  2
DASHDOTX2
 70
0
  3
Dash dot (2x) ____  .  ____  .  ____  .  ___
 72
65
 73
4
 40
50.7999999999999972
 49
25.3999999999999986
 74
0
 49
-12.6999999999999993
 74
0
 49
0.0
 74
0
 49
-12.6999999999999993
 74
0
  0
LTYPE
  5
39
100
AcDbSymbolTableRecord
100
AcDbLinetypeTableRecord
  2
CENTERX2
 70
0
  3
Center (2x) ________  __  ________  __  _____
 72
65
 73
4
 40
101.5999999999999943
 49
63.5
 74
0
 49
-12.6999999999999993
 74
0
 49
12.6999999999999993
 74
0
 49
-12.6999999999999993
 74
0
  0
LTYPE
  5
3A
100
AcDbSymbolTableRecord
100
AcDbLinetypeTableRecord
  2
BORDER2
 70
0
  3
Border (.5x) __.__.__.__.__.__.__.__.__.__.__.
 72
65
 73
6
 40
22.2250000000000014
 49
6.3499999999999996
 74
0
 49
-3.1749999999999998
 74
0
 49
6.3499999999999996
 74
0
 49
-3.1749999999999998
 74
0
 49
0.0
 74
0
 49
-3.1749999999999998
 74
0
  0
LTYPE
  5
3B
100
AcDbSymbolTableRecord
100
AcDbLinetypeTableRecord
  2
BORDERX2
 70
0
  3
Border (2x) ____  ____  .  ____  ____  .  ___
 72
65
 73
6
 40
88.9000000000000057
 49
25.3999999999999986
 74
0
 49
-12.6999999999999993
 74
0
 49
25.3999999999999986
 74
0
 49
-12.6999999999999993
 74
0
 49
0.0
 74
0
 49
-12.6999999999999993
 74
0
  0
LTYPE
  5
16
100
AcDbSymbolTableRecord
100
AcDbLinetypeTableRecord
  2
CONTINUOUS
 70
0
  3
Solid line
 72
65
 73
0
 40
0.0
  0
LTYPE
  5
14
100
AcDbSymbolTableRecord
100
AcDbLinetypeTableRecord
  2
BYBLOCK
 70
0
  3

 72
65
 73
0
 40
0.0
  0
LTYPE
  5
15
100
AcDbSymbolTableRecord
100
AcDbLinetypeTableRecord
  2
BYLAYER
 70
0
  3

 72
65
 73
0
 40
0.0
  0
LTYPE
  5
3C
100
AcDbSymbolTableRecord
100
AcDbLinetypeTableRecord
  2
DASHED2
 70
0
  3
Dashed (.5x) _ _ _ _ _ _ _ _ _ _ _ _ _ _ _ _ _
 72
65
 73
2
 40
9.5250000000000004
 49
6.3499999999999996
 74
0
 49
-3.1749999999999998
 74
0
  0
LTYPE
  5
3D
100
AcDbSymbolTableRecord
100
AcDbLinetypeTableRecord
  2
CENTER
 70
0
  3
Center ____ _ ____ _ ____ _ ____ _ ____ _ ____
 72
65
 73
4
 40
50.7999999999999972
 49
31.75
 74
0
 49
-6.3499999999999996
 74
0
 49
6.3499999999999996
 74
0
 49
-6.3499999999999996
 74
0
  0
LTYPE
  5
3E
100
AcDbSymbolTableRecord
100
AcDbLinetypeTableRecord
  2
DIVIDE2
 70
0
  3
Divide (.5x) __..__..__..__..__..__..__..__.._
 72
65
 73
6
 40
15.875
 49
6.3499999999999996
 74
0
 49
-3.1749999999999998
 74
0
 49
0.0
 74
0
 49
-3.1749999999999998
 74
0
 49
0.0
 74
0
 49
-3.1749999999999998
 74
0
  0
LTYPE
  5
3F
100
AcDbSymbolTableRecord
100
AcDbLinetypeTableRecord
  2
DASHED
 70
0
  3
Dashed __ __ __ __ __ __ __ __ __ __ __ __ __ _
 72
65
 73
2
 40
19.0500000000000007
 49
12.6999999999999993
 74
0
 49
-6.3499999999999996
 74
0
  0
LTYPE
  5
40
100
AcDbSymbolTableRecord
100
AcDbLinetypeTableRecord
  2
DOTX2
 70
0
  3
Dot (2x) .  .  .  .  .  .  .  .  .  .  .  .  .
 72
65
 73
2
 40
12.6999999999999993
 49
0.0
 74
0
 49
-12.6999999999999993
 74
0
  0
LTYPE
  5
41
100
AcDbSymbolTableRecord
100
AcDbLinetypeTableRecord
  2
DASHEDX2
 70
0
  3
Dashed (2x) ____  ____  ____  ____  ____  ___
 72
65
 73
2
 40
38.1000000000000014
 49
25.3999999999999986
 74
0
 49
-12.6999999999999993
 74
0
  0
LTYPE
  5
42
100
AcDbSymbolTableRecord
100
AcDbLinetypeTableRecord
  2
DOT
 70
0
  3
Dot . . . . . . . . . . . . . . . . . . . . . .
 72
65
 73
2
 40
6.3499999999999996
 49
0.0
 74
0
 49
-6.3499999999999996
 74
0
  0
ENDTAB
  0
TABLE
  2
LAYER
  5
2
100
AcDbSymbolTable
 70
2
  0
LAYER
  5
10
100
AcDbSymbolTableRecord
100
AcDbLayerTableRecord
  2
0
 70
0
 62
7
420
16777215
  6
CONTINUOUS
370
25
390
F
  0
LAYER
  5
43
100
AcDbSymbolTableRecord
100
AcDbLayerTableRecord
  2
blind sockets
 70
0
 62
1
420
16711680
  6
CONTINUOUS
370
25
390
F
  0
ENDTAB
  0
TABLE
  2
STYLE
  5
3
100
AcDbSymbolTable
 70
0
  0
ENDTAB
  0
TABLE
  2
VIEW
  5
6
100
AcDbSymbolTable
 70
0
  0
ENDTAB
  0
TABLE
  2
UCS
  5
7
100
AcDbSymbolTable
 70
0
  0
ENDTAB
  0
TABLE
  2
APPID
  5
9
100
AcDbSymbolTable
 70
1
  0
APPID
  5
44
100
AcDbSymbolTableRecord
100
AcDbRegAppTableRecord
  2
QCAD
 70
0
  0
ENDTAB
  0
TABLE
  2
DIMSTYLE
  5
A
100
AcDbSymbolTable
 70
1
100
AcDbDimStyleTable
 71
0
  0
DIMSTYLE
105
27
100
AcDbSymbolTableRecord
100
AcDbDimStyleTableRecord
  2
Standard
 41
2.5
 42
0.625
 43
3.75
 44
1.25
 70
0
 73
0
 74
0
 77
1
 78
8
140
2.5
141
2.5
143
0.03937007874016
147
0.625
171
3
172
1
271
2
272
2
274
3
278
44
283
0
284
8
340
11
  0
ENDTAB
  0
TABLE
  2
BLOCK_RECORD
  5
1
100
AcDbSymbolTable
 70
1
  0
BLOCK_RECORD
  5
1F
100
AcDbSymbolTableRecord
100
AcDbBlockTableRecord
  2
*Model_Space
340
22
  0
BLOCK_RECORD
  5
1B
100
AcDbSymbolTableRecord
100
AcDbBlockTableRecord
  2
*Paper_Space
340
1E
  0
BLOCK_RECORD
  5
23
100
AcDbSymbolTableRecord
100
AcDbBlockTableRecord
  2
*Paper_Space0
340
26
  0
BLOCK_RECORD
  5
45
100
AcDbSymbolTableRecord
100
AcDbBlockTableRecord
  2
*Model_Space
340
0
  0
BLOCK_RECORD
  5
46
100
AcDbSymbolTableRecord
100
AcDbBlockTableRecord
  2
*Paper_Space
340
0
  0
BLOCK_RECORD
  5
47
100
AcDbSymbolTableRecord
100
AcDbBlockTableRecord
  2
*Paper_Space0
340
0
  0
ENDTAB
  0
ENDSEC
  0
SECTION
  2
BLOCKS
  0
BLOCK
  5
20
100
AcDbEntity
  8
0
100
AcDbBlockBegin
  2
*Model_Space
 70
0
 10
0.0
 20
0.0
 30
0.0
  3
*Model_Space
  1

  0
BLOCK
  5
1C
100
AcDbEntity
 67
1
  8
0
100
AcDbBlockBegin
  2
*Paper_Space
 70
0
 10
0.0
 20
0.0
 30
0.0
  3
*Paper_Space
  1

  0
ENDBLK
  5
1D
100
AcDbEntity
 67
1
  8
0
100
AcDbBlockEnd
  0
BLOCK
  5
24
100
AcDbEntity
  8
0
100
AcDbBlockBegin
  2
*Paper_Space0
 70
0
 10
0.0
 20
0.0
 30
0.0
  3
*Paper_Space0
  1

  0
ENDBLK
  5
25
100
AcDbEntity
  8
0
100
AcDbBlockEnd
  0
ENDSEC
  0
SECTION
  2
ENTITIES
  0
CIRCLE
  5
48
100
AcDbEntity
100
AcDbCircle
  8
blind sockets
 62
256
370
-1
  6
BYLAYER
 10
265.0
 20
86.0
 30
0.0
 40
8.9000000000000004
  0
CIRCLE
  5
49
100
AcDbEntity
100
AcDbCircle
  8
0
 62
256
370
-1
  6
BYLAYER
 10
656.0
 20
132.0
 30
0.0
 40
9.0
  0
ARC
  5
4A
100
AcDbEntity
  8
0
 62
256
370
-1
  6
BYLAYER
100
AcDbCircle
 10
1136.0
 20
132.0
 30
0.0
 40
20.0
100
AcDbArc
 50
270.0
 51
90.0
  0
CIRCLE
  5
4B
100
AcDbEntity
100
AcDbCircle
  8
0
 62
256
370
-1
  6
BYLAYER
 10
896.0
 20
132.0
 30
0.0
 40
9.0999999999999996
  0
ARC
  5
4C
100
AcDbEntity
  8
0
 62
256
370
-1
  6
BYLAYER
100
AcDbCircle
 10
270.0
 20
86.0
 30
0.0
 40
20.0
100
AcDbArc
 50
270.0
 51
0.0
  0
LINE
  5
4D
100
AcDbEntity
100
AcDbLine
  8
0
 62
256
370
-1
  6
BYLAYER
 10
38.3918661967301205
 20
66.0
 30
0.0
 11
270.0
 21
66.0
 31
0.0
  0
LINE
  5
4E
100
AcDbEntity
100
AcDbLine
  8
0
 62
256
370
-1
  6
BYLAYER
 10
10.0
 20
106.0
 30
0.0
 11
10.0
 21
116.0
 31
0.0
  0
LINE
  5
4F
100
AcDbEntity
100
AcDbLine
  8
0
 62
256
370
-1
  6
BYLAYER
 10
40.0
 20
106.0
 30
0.0
 11
40.0
 21
116.0
 31
0.0
  0
LINE
  5
50
100
AcDbEntity
100
AcDbLine
  8
0
 62
256
370
-1
  6
BYLAYER
 10
70.0
 20
106.0
 30
0.0
 11
70.0
 21
116.0
 31
0.0
  0
LINE
  5
51
100
AcDbEntity
100
AcDbLine
  8
0
 62
256
370
-1
  6
BYLAYER
 10
100.0
 20
106.0
 30
0.0
 11
100.0
 21
116.0
 31
0.0
  0
LINE
  5
52
100
AcDbEntity
100
AcDbLine
  8
0
 62
256
370
-1
  6
BYLAYER
 10
130.0
 20
106.0
 30
0.0
 11
130.0
 21
116.0
 31
0.0
  0
LINE
  5
53
100
AcDbEntity
100
AcDbLine
  8
0
 62
256
370
-1
  6
BYLAYER
 10
160.0
 20
106.0
 30
0.0
 11
160.0
 21
116.0
 31
0.0
  0
LINE
  5
54
100
AcDbEntity
100
AcDbLine
  8
0
 62
256
370
-1
  6
BYLAYER
 10
190.0
 20
106.0
 30
0.0
 11
190.0
 21
116.0
 31
0.0
  0
LINE
  5
55
100
AcDbEntity
100
AcDbLine
  8
0
 62
256
370
-1
  6
BYLAYER
 10
220.0
 20
106.0
 30
0.0
 11
220.0
 21
116.0
 31
0.0
  0
LINE
  5
56
100
AcDbEntity
100
AcDbLine
  8
0
 62
256
370
-1
  6
BYLAYER
 10
250.0
 20
106.0
 30
0.0
 11
250.0
 21
116.0
 31
0.0
  0
LINE
  5
57
100
AcDbEntity
100
AcDbLine
  8
0
 62
256
370
-1
  6
BYLAYER
 10
280.0
 20
106.0
 30
0.0
 11
280.0
 21
116.0
 31
0.0
  0
LINE
  5
58
100
AcDbEntity
100
AcDbLine
  8
0
 62
256
370
-1
  6
BYLAYER
 10
0.0
 20
106.0
 30
0.0
 11
0.0
 21
86.0
 31
0.0
  0
LINE
  5
59
100
AcDbEntity
100
AcDbLine
  8
0
 62
256
370
-1
  6
BYLAYER
 10
40.0
 20
116.0
 30
0.0
 11
10.0
 21
116.0
 31
0.0
  0
LINE
  5
5A
100
AcDbEntity
100
AcDbLine
  8
0
 62
256
370
-1
  6
BYLAYER
 10
100.0
 20
116.0
 30
0.0
 11
70.0
 21
116.0
 31
0.0
  0
LINE
  5
5B
100
AcDbEntity
100
AcDbLine
  8
0
 62
256
370
-1
  6
BYLAYER
 10
160.0
 20
116.0
 30
0.0
 11
130.0
 21
116.0
 31
0.0
  0
LINE
  5
5C
100
AcDbEntity
100
AcDbLine
  8
0
 62
256
370
-1
  6
BYLAYER
 10
220.0
 20
116.0
 30
0.0
 11
190.0
 21
116.0
 31
0.0
  0
LINE
  5
5D
100
AcDbEntity
100
AcDbLine
  8
0
 62
256
370
-1
  6
BYLAYER
 10
280.0
 20
116.0
 30
0.0
 11
250.0
 21
116.0
 31
0.0
  0
LINE
  5
5E
100
AcDbEntity
100
AcDbLine
  8
0
 62
256
370
-1
  6
BYLAYER
 10
290.0
 20
86.0
 30
0.0
 11
290.0
 21
106.0
 31
0.0
  0
LINE
  5
5F
100
AcDbEntity
100
AcDbLine
  8
blind sockets
 62
256
370
-1
  6
BYLAYER
 10
22.8999999999999773
 20
293.8999999999999773
 30
0.0
 11
45.5
 21
293.8999999999999773
 31
0.0
  0
LINE
  5
60
100
AcDbEntity
100
AcDbLine
  8
blind sockets
 62
256
370
-1
  6
BYLAYER
 10
45.5
 20
564.0999999999999091
 30
0.0
 11
22.8999999999999773
 21
564.0999999999999091
 31
0.0
  0
LINE
  5
61
100
AcDbEntity
100
AcDbLine
  8
blind sockets
 62
256
370
-1
  6
BYLAYER
 10
22.8999999999999773
 20
324.1000000000000227
 30
0.0
 11
45.5
 21
324.1000000000000227
 31
0.0
  0
LINE
  5
62
100
AcDbEntity
100
AcDbLine
  8
blind sockets
 62
256
370
-1
  6
BYLAYER
 10
22.8999999999999773
 20
353.9000000000000909
 30
0.0
 11
45.5
 21
353.9000000000000909
 31
0.0
  0
LINE
  5
63
100
AcDbEntity
100
AcDbLine
  8
blind sockets
 62
256
370
-1
  6
BYLAYER
 10
45.5
 20
384.0999999999999091
 30
0.0
 11
22.8999999999999773
 21
384.0999999999999091
 31
0.0
  0
LINE
  5
64
100
AcDbEntity
100
AcDbLine
  8
blind sockets
 62
256
370
-1
  6
BYLAYER
 10
22.8999999999999773
 20
413.9000000000000909
 30
0.0
 11
45.5
 21
413.9000000000000909
 31
0.0
  0
LINE
  5
65
100
AcDbEntity
100
AcDbLine
  8
blind sockets
 62
256
370
-1
  6
BYLAYER
 10
45.5
 20
444.0999999999999091
 30
0.0
 11
22.8999999999999773
 21
444.0999999999999091
 31
0.0
  0
LINE
  5
66
100
AcDbEntity
100
AcDbLine
  8
blind sockets
 62
256
370
-1
  6
BYLAYER
 10
22.8999999999999773
 20
473.9000000000000909
 30
0.0
 11
45.5
 21
473.9000000000000909
 31
0.0
  0
LINE
  5
67
100
AcDbEntity
100
AcDbLine
  8
blind sockets
 62
256
370
-1
  6
BYLAYER
 10
45.5
 20
504.0999999999999091
 30
0.0
 11
22.8999999999999773
 21
504.0999999999999091
 31
0.0
  0
ARC
  5
68
100
AcDbEntity
  8
blind sockets
 62
256
370
-1
  6
BYLAYER
100
AcDbCircle
 10
22.8999999999999773
 20
561.0999999999999091
 30
0.0
 40
3.0
100
AcDbArc
 50
90.0
 51
270.0
  0
ARC
  5
69
100
AcDbEntity
  8
blind sockets
 62
256
370
-1
  6
BYLAYER
100
AcDbCircle
 10
45.5
 20
561.0999999999999091
 30
0.0
 40
3.0
100
AcDbArc
 50
270.0000000000001137
 51
90.0
  0
ARC
  5
6A
100
AcDbEntity
  8
blind sockets
 62
256
370
-1
  6
BYLAYER
100
AcDbCircle
 10
22.8999999999999773
 20
501.0999999999999091
 30
0.0
 40
3.0
100
AcDbArc
 50
90.0
 51
270.0
  0
ARC
  5
6B
100
AcDbEntity
  8
blind sockets
 62
256
370
-1
  6
BYLAYER
100
AcDbCircle
 10
45.5
 20
501.0999999999999091
 30
0.0
 40
3.0
100
AcDbArc
 50
270.0
 51
90.0
  0
ARC
  5
6C
100
AcDbEntity
  8
blind sockets
 62
256
370
-1
  6
BYLAYER
100
AcDbCircle
 10
22.8999999999999773
 20
441.0999999999999091
 30
0.0
 40
3.0
100
AcDbArc
 50
90.0
 51
270.0
  0
ARC
  5
6D
100
AcDbEntity
  8
blind sockets
 62
256
370
-1
  6
BYLAYER
100
AcDbCircle
 10
45.5
 20
441.0999999999999091
 30
0.0
 40
3.0
100
AcDbArc
 50
270.0
 51
90.0
  0
ARC
  5
6E
100
AcDbEntity
  8
blind sockets
 62
256
370
-1
  6
BYLAYER
100
AcDbCircle
 10
22.8999999999999773
 20
381.0999999999999091
 30
0.0
 40
3.0
100
AcDbArc
 50
90.0
 51
270.0
  0
ARC
  5
6F
100
AcDbEntity
  8
blind sockets
 62
256
370
-1
  6
BYLAYER
100
AcDbCircle
 10
45.5
 20
381.0999999999999091
 30
0.0
 40
3.0
100
AcDbArc
 50
269.9999999999997726
 51
90.0000000000001563
  0
ARC
  5
70
100
AcDbEntity
  8
blind sockets
 62
256
370
-1
  6
BYLAYER
100
AcDbCircle
 10
22.8999999999999773
 20
321.1000000000000227
 30
0.0
 40
3.0
100
AcDbArc
 50
90.0
 51
270.0
  0
ARC
  5
71
100
AcDbEntity
  8
blind sockets
 62
256
370
-1
  6
BYLAYER
100
AcDbCircle
 10
45.5
 20
321.1000000000000227
 30
0.0
 40
3.0
100
AcDbArc
 50
269.9999999999997726
 51
90.0000000000001563
  0
ARC
  5
72
100
AcDbEntity
  8
blind sockets
 62
256
370
-1
  6
BYLAYER
100
AcDbCircle
 10
22.8999999999999773
 20
296.8999999999999773
 30
0.0
 40
3.0
100
AcDbArc
 50
90.0
 51
270.0
  0
ARC
  5
73
100
AcDbEntity
  8
blind sockets
 62
256
370
-1
  6
BYLAYER
100
AcDbCircle
 10
45.5
 20
296.8999999999999773
 30
0.0
 40
3.0
100
AcDbArc
 50
270.0
 51
90.0
  0
LINE
  5
74
100
AcDbEntity
100
AcDbLine
  8
blind sockets
 62
256
370
-1
  6
BYLAYER
 10
22.8999999999999773
 20
318.1000000000000227
 30
0.0
 11
22.8999999999999773
 21
299.8999999999999773
 31
0.0
  0
LINE
  5
75
100
AcDbEntity
100
AcDbLine
  8
blind sockets
 62
256
370
-1
  6
BYLAYER
 10
45.5
 20
299.8999999999999773
 30
0.0
 11
45.5
 21
318.1000000000000227
 31
0.0
  0
ARC
  5
76
100
AcDbEntity
  8
blind sockets
 62
256
370
-1
  6
BYLAYER
100
AcDbCircle
 10
22.8999999999999773
 20
356.9000000000000909
 30
0.0
 40
3.0
100
AcDbArc
 50
90.0
 51
270.0
  0
ARC
  5
77
100
AcDbEntity
  8
blind sockets
 62
256
370
-1
  6
BYLAYER
100
AcDbCircle
 10
45.5
 20
356.9000000000000909
 30
0.0
 40
3.0
100
AcDbArc
 50
270.0
 51
90.0
  0
LINE
  5
78
100
AcDbEntity
100
AcDbLine
  8
blind sockets
 62
256
370
-1
  6
BYLAYER
 10
45.5
 20
359.9000000000000909
 30
0.0
 11
45.5
 21
378.0999999999999091
 31
0.0
  0
LINE
  5
79
100
AcDbEntity
100
AcDbLine
  8
blind sockets
 62
256
370
-1
  6
BYLAYER
 10
22.8999999999999773
 20
378.0999999999999091
 30
0.0
 11
22.8999999999999773
 21
359.9000000000000909
 31
0.0
  0
ARC
  5
7A
100
AcDbEntity
  8
blind sockets
 62
256
370
-1
  6
BYLAYER
100
AcDbCircle
 10
22.8999999999999773
 20
416.9000000000000909
 30
0.0
 40
3.0
100
AcDbArc
 50
90.0
 51
270.0
  0
ARC
  5
7B
100
AcDbEntity
  8
blind sockets
 62
256
370
-1
  6
BYLAYER
100
AcDbCircle
 10
45.5
 20
416.9000000000000909
 30
0.0
 40
3.0
100
AcDbArc
 50
270.0
 51
90.0
  0
LINE
  5
7C
100
AcDbEntity
100
AcDbLine
  8
blind sockets
 62
256
370
-1
  6
BYLAYER
 10
45.5
 20
419.9000000000000909
 30
0.0
 11
45.5
 21
438.0999999999999091
 31
0.0
  0
LINE
  5
7D
100
AcDbEntity
100
AcDbLine
  8
blind sockets
 62
256
370
-1
  6
BYLAYER
 10
22.8999999999999773
 20
438.0999999999999091
 30
0.0
 11
22.8999999999999773
 21
419.9000000000000909
 31
0.0
  0
ARC
  5
7E
100
AcDbEntity
  8
blind sockets
 62
256
370
-1
  6
BYLAYER
100
AcDbCircle
 10
22.8999999999999773
 20
476.9000000000000909
 30
0.0
 40
3.0
100
AcDbArc
 50
90.0
 51
270.0
  0
LINE
  5
7F
100
AcDbEntity
100
AcDbLine
  8
blind sockets
 62
256
370
-1
  6
BYLAYER
 10
22.8999999999999773
 20
498.0999999999999091
 30
0.0
 11
22.8999999999999773
 21
479.9000000000000909
 31
0.0
  0
ARC
  5
80
100
AcDbEntity
  8
blind sockets
 62
256
370
-1
  6
BYLAYER
100
AcDbCircle
 10
45.5
 20
476.9000000000000909
 30
0.0
 40
3.0
100
AcDbArc
 50
270.0
 51
90.0
  0
LINE
  5
81
100
AcDbEntity
100
AcDbLine
  8
blind sockets
 62
256
370
-1
  6
BYLAYER
 10
45.5
 20
479.9000000000000909
 30
0.0
 11
45.5
 21
498.0999999999999091
 31
0.0
  0
ARC
  5
82
100
AcDbEntity
  8
blind sockets
 62
256
370
-1
  6
BYLAYER
100
AcDbCircle
 10
22.8999999999999773
 20
536.9000000000000909
 30
0.0
 40
3.0
100
AcDbArc
 50
90.0
 51
270.0
  0
LINE
  5
83
100
AcDbEntity
100
AcDbLine
  8
blind sockets
 62
256
370
-1
  6
BYLAYER
 10
22.8999999999999773
 20
558.0999999999999091
 30
0.0
 11
22.8999999999999773
 21
539.9000000000000909
 31
0.0
  0
LINE
  5
84
100
AcDbEntity
100
AcDbLine
  8
blind sockets
 62
256
370
-1
  6
BYLAYER
 10
45.5
 20
539.9000000000000909
 30
0.0
 11
45.5
 21
558.0999999999999091
 31
0.0
  0
LINE
  5
85
100
AcDbEntity
100
AcDbLine
  8
blind sockets
 62
256
370
-1
  6
BYLAYER
 10
347.1000000000000227
 20
324.1000000000000227
 30
0.0
 11
324.4999999999998863
 21
324.1000000000000227
 31
0.0
  0
LINE
  5
86
100
AcDbEntity
100
AcDbLine
  8
blind sockets
 62
256
370
-1
  6
BYLAYER
 10
347.1000000000000227
 20
353.9000000000000909
 30
0.0
 11
324.4999999999998863
 21
353.9000000000000909
 31
0.0
  0
LINE
  5
87
100
AcDbEntity
100
AcDbLine
  8
blind sockets
 62
256
370
-1
  6
BYLAYER
 10
347.1000000000000227
 20
384.0999999999999091
 30
0.0
 11
324.4999999999998863
 21
384.0999999999999091
 31
0.0
  0
LINE
  5
88
100
AcDbEntity
100
AcDbLine
  8
blind sockets
 62
256
370
-1
  6
BYLAYER
 10
347.1000000000000227
 20
413.9000000000000909
 30
0.0
 11
324.4999999999998863
 21
413.9000000000000909
 31
0.0
  0
LINE
  5
89
100
AcDbEntity
100
AcDbLine
  8
blind sockets
 62
256
370
-1
  6
BYLAYER
 10
347.1000000000000227
 20
444.0999999999999091
 30
0.0
 11
324.4999999999998863
 21
444.0999999999999091
 31
0.0
  0
LINE
  5
8A
100
AcDbEntity
100
AcDbLine
  8
blind sockets
 62
256
370
-1
  6
BYLAYER
 10
347.1000000000000227
 20
473.9000000000000909
 30
0.0
 11
324.4999999999998863
 21
473.9000000000000909
 31
0.0
  0
LINE
  5
8B
100
AcDbEntity
100
AcDbLine
  8
blind sockets
 62
256
370
-1
  6
BYLAYER
 10
347.1000000000000227
 20
504.0999999999999091
 30
0.0
 11
324.4999999999998863
 21
504.0999999999999091
 31
0.0
  0
ARC
  5
8C
100
AcDbEntity
  8
blind sockets
 62
256
370
-1
  6
BYLAYER
100
AcDbCircle
 10
324.4999999999998863
 20
561.0999999999999091
 30
0.0
 40
3.0
100
AcDbArc
 50
90.0
 51
270.0
  0
LINE
  5
8D
100
AcDbEntity
100
AcDbLine
  8
blind sockets
 62
256
370
-1
  6
BYLAYER
 10
347.1000000000000227
 20
533.9000000000000909
 30
0.0
 11
324.4999999999998863
 21
533.9000000000000909
 31
0.0
  0
ARC
  5
8E
100
AcDbEntity
  8
blind sockets
 62
256
370
-1
  6
BYLAYER
100
AcDbCircle
 10
347.1000000000000227
 20
561.0999999999999091
 30
0.0
 40
3.0
100
AcDbArc
 50
270.0000000000001137
 51
90.0
  0
ARC
  5
8F
100
AcDbEntity
  8
blind sockets
 62
256
370
-1
  6
BYLAYER
100
AcDbCircle
 10
324.4999999999998863
 20
501.0999999999999091
 30
0.0
 40
3.0
100
AcDbArc
 50
90.0
 51
270.0
  0
ARC
  5
90
100
AcDbEntity
  8
blind sockets
 62
256
370
-1
  6
BYLAYER
100
AcDbCircle
 10
347.1000000000000227
 20
501.0999999999999091
 30
0.0
 40
3.0
100
AcDbArc
 50
270.0
 51
90.0
  0
ARC
  5
91
100
AcDbEntity
  8
blind sockets
 62
256
370
-1
  6
BYLAYER
100
AcDbCircle
 10
324.4999999999998863
 20
441.0999999999999091
 30
0.0
 40
3.0
100
AcDbArc
 50
90.0
 51
270.0
  0
ARC
  5
92
100
AcDbEntity
  8
blind sockets
 62
256
370
-1
  6
BYLAYER
100
AcDbCircle
 10
347.1000000000000227
 20
441.0999999999999091
 30
0.0
 40
3.0
100
AcDbArc
 50
270.0
 51
90.0
  0
ARC
  5
93
100
AcDbEntity
  8
blind sockets
 62
256
370
-1
  6
BYLAYER
100
AcDbCircle
 10
324.4999999999998863
 20
381.0999999999999091
 30
0.0
 40
3.0
100
AcDbArc
 50
90.0
 51
270.0
  0
ARC
  5
94
100
AcDbEntity
  8
blind sockets
 62
256
370
-1
  6
BYLAYER
100
AcDbCircle
 10
347.1000000000000227
 20
381.0999999999999091
 30
0.0
 40
3.0
100
AcDbArc
 50
269.9999999999997726
 51
90.0000000000001563
  0
ARC
  5
95
100
AcDbEntity
  8
blind sockets
 62
256
370
-1
  6
BYLAYER
100
AcDbCircle
 10
324.4999999999998863
 20
321.1000000000000227
 30
0.0
 40
3.0
100
AcDbArc
 50
90.0
 51
270.0
  0
ARC
  5
96
100
AcDbEntity
  8
blind sockets
 62
256
370
-1
  6
BYLAYER
100
AcDbCircle
 10
347.1000000000000227
 20
321.1000000000000227
 30
0.0
 40
3.0
100
AcDbArc
 50
269.9999999999997726
 51
90.0000000000001563
  0
ARC
  5
97
100
AcDbEntity
  8
blind sockets
 62
256
370
-1
  6
BYLAYER
100
AcDbCircle
 10
324.4999999999998863
 20
296.8999999999999773
 30
0.0
 40
3.0
100
AcDbArc
 50
90.0
 51
270.0
  0
ARC
  5
98
100
AcDbEntity
  8
blind sockets
 62
256
370
-1
  6
BYLAYER
100
AcDbCircle
 10
347.1000000000000227
 20
296.8999999999999773
 30
0.0
 40
3.0
100
AcDbArc
 50
270.0
 51
90.0
  0
LINE
  5
99
100
AcDbEntity
100
AcDbLine
  8
blind sockets
 62
256
370
-1
  6
BYLAYER
 10
324.4999999999998863
 20
318.1000000000000227
 30
0.0
 11
324.4999999999998863
 21
299.8999999999999773
 31
0.0
  0
LINE
  5
9A
100
AcDbEntity
100
AcDbLine
  8
blind sockets
 62
256
370
-1
  6
BYLAYER
 10
347.1000000000000227
 20
299.8999999999999773
 30
0.0
 11
347.1000000000000227
 21
318.1000000000000227
 31
0.0
  0
ARC
  5
9B
100
AcDbEntity
  8
blind sockets
 62
256
370
-1
  6
BYLAYER
100
AcDbCircle
 10
324.4999999999998863
 20
356.9000000000000909
 30
0.0
 40
3.0
100
AcDbArc
 50
90.0
 51
270.0
  0
ARC
  5
9C
100
AcDbEntity
  8
blind sockets
 62
256
370
-1
  6
BYLAYER
100
AcDbCircle
 10
347.1000000000000227
 20
356.9000000000000909
 30
0.0
 40
3.0
100
AcDbArc
 50
270.0
 51
90.0
  0
LINE
  5
9D
100
AcDbEntity
100
AcDbLine
  8
blind sockets
 62
256
370
-1
  6
BYLAYER
 10
347.1000000000000227
 20
359.9000000000000909
 30
0.0
 11
347.1000000000000227
 21
378.0999999999999091
 31
0.0
  0
LINE
  5
9E
100
AcDbEntity
100
AcDbLine
  8
blind sockets
 62
256
370
-1
  6
BYLAYER
 10
324.4999999999998863
 20
378.0999999999999091
 30
0.0
 11
324.4999999999998863
 21
359.9000000000000909
 31
0.0
  0
ARC
  5
9F
100
AcDbEntity
  8
blind sockets
 62
256
370
-1
  6
BYLAYER
100
AcDbCircle
 10
324.4999999999998863
 20
416.9000000000000909
 30
0.0
 40
3.0
100
AcDbArc
 50
90.0
 51
270.0
  0
ARC
  5
A0
100
AcDbEntity
  8
blind sockets
 62
256
370
-1
  6
BYLAYER
100
AcDbCircle
 10
347.1000000000000227
 20
416.9000000000000909
 30
0.0
 40
3.0
100
AcDbArc
 50
270.0
 51
90.0
  0
LINE
  5
A1
100
AcDbEntity
100
AcDbLine
  8
blind sockets
 62
256
370
-1
  6
BYLAYER
 10
347.1000000000000227
 20
419.9000000000000909
 30
0.0
 11
347.1000000000000227
 21
438.0999999999999091
 31
0.0
  0
LINE
  5
A2
100
AcDbEntity
100
AcDbLine
  8
blind sockets
 62
256
370
-1
  6
BYLAYER
 10
324.4999999999998863
 20
438.0999999999999091
 30
0.0
 11
324.4999999999998863
 21
419.9000000000000909
 31
0.0
  0
ARC
  5
A3
100
AcDbEntity
  8
blind sockets
 62
256
370
-1
  6
BYLAYER
100
AcDbCircle
 10
324.4999999999998863
 20
476.9000000000000909
 30
0.0
 40
3.0
100
AcDbArc
 50
90.0
 51
270.0
  0
LINE
  5
A4
100
AcDbEntity
100
AcDbLine
  8
blind sockets
 62
256
370
-1
  6
BYLAYER
 10
324.4999999999998863
 20
498.0999999999999091
 30
0.0
 11
324.4999999999998863
 21
479.9000000000000909
 31
0.0
  0
ARC
  5
A5
100
AcDbEntity
  8
blind sockets
 62
256
370
-1
  6
BYLAYER
100
AcDbCircle
 10
347.1000000000000227
 20
476.9000000000000909
 30
0.0
 40
3.0
100
AcDbArc
 50
270.0
 51
90.0
  0
LINE
  5
A6
100
AcDbEntity
100
AcDbLine
  8
blind sockets
 62
256
370
-1
  6
BYLAYER
 10
347.1000000000000227
 20
479.9000000000000909
 30
0.0
 11
347.1000000000000227
 21
498.0999999999999091
 31
0.0
  0
ARC
  5
A7
100
AcDbEntity
  8
blind sockets
 62
256
370
-1
  6
BYLAYER
100
AcDbCircle
 10
324.4999999999998863
 20
536.9000000000000909
 30
0.0
 40
3.0
100
AcDbArc
 50
90.0
 51
270.0
  0
LINE
  5
A8
100
AcDbEntity
100
AcDbLine
  8
blind sockets
 62
256
370
-1
  6
BYLAYER
 10
324.4999999999998863
 20
558.0999999999999091
 30
0.0
 11
324.4999999999998863
 21
539.9000000000000909
 31
0.0
  0
LINE
  5
A9
100
AcDbEntity
100
AcDbLine
  8
blind sockets
 62
256
370
-1
  6
BYLAYER
 10
324.4999999999998863
 20
293.8999999999999773
 30
0.0
 11
347.1000000000000227
 21
293.8999999999999773
 31
0.0
  0
ARC
  5
AA
100
AcDbEntity
  8
blind sockets
 62
256
370
-1
  6
BYLAYER
100
AcDbCircle
 10
347.1000000000000227
 20
536.9000000000000909
 30
0.0
 40
3.0
100
AcDbArc
 50
270.0
 51
90.0
  0
LINE
  5
AB
100
AcDbEntity
100
AcDbLine
  8
blind sockets
 62
256
370
-1
  6
BYLAYER
 10
347.1000000000000227
 20
539.9000000000000909
 30
0.0
 11
347.1000000000000227
 21
558.0999999999999091
 31
0.0
  0
LINE
  5
AC
100
AcDbEntity
100
AcDbLine
  8
blind sockets
 62
256
370
-1
  6
BYLAYER
 10
347.1000000000000227
 20
564.0999999999999091
 30
0.0
 11
324.4999999999998863
 21
564.0999999999999091
 31
0.0
  0
LINE
  5
AD
100
AcDbEntity
100
AcDbLine
  8
0
 62
256
370
-1
  6
BYLAYER
 10
20.0
 20
284.0
 30
0.0
 11
350.0
 21
284.0
 31
0.0
  0
ARC
  5
AE
100
AcDbEntity
  8
0
 62
256
370
-1
  6
BYLAYER
100
AcDbCircle
 10
350.0
 20
304.0
 30
0.0
 40
20.0
100
AcDbArc
 50
270.0
 51
0.0
  0
ARC
  5
AF
100
AcDbEntity
  8
0
 62
256
370
-1
  6
BYLAYER
100
AcDbCircle
 10
20.0
 20
304.0
 30
0.0
 40
20.0
100
AcDbArc
 50
180.0
 51
270.0
  0
ARC
  5
B0
100
AcDbEntity
  8
0
 62
256
370
-1
  6
BYLAYER
100
AcDbCircle
 10
656.0
 20
132.0
 30
0.0
 40
20.0
100
AcDbArc
 50
90.0
 51
270.0
  0
LINE
  5
B1
100
AcDbEntity
100
AcDbLine
  8
0
 62
256
370
-1
  6
BYLAYER
 10
656.0
 20
112.0000000000002274
 30
0.0
 11
1136.0
 21
112.0
 31
0.0
  0
LINE
  5
B2
100
AcDbEntity
100
AcDbLine
  8
0
 62
256
370
-1
  6
BYLAYER
 10
1136.0
 20
151.9999999999997726
 30
0.0
 11
656.0
 21
152.0
 31
0.0
  0
ARC
  5
B3
100
AcDbEntity
  8
0
 62
256
370
-1
  6
BYLAYER
100
AcDbCircle
 10
265.0
 20
86.0
 30
0.0
 40
231.0
100
AcDbArc
 50
180.0
 51
184.9668921777428068
  0
ARC
  5
B4
100
AcDbEntity
  8
0
 62
256
370
-1
  6
BYLAYER
100
AcDbCircle
 10
265.0
 20
86.0
 30
0.0
 40
249.0
100
AcDbArc
 50
180.0
 51
184.5469428811038028
  0
ARC
  5
B5
100
AcDbEntity
  8
0
 62
256
370
-1
  6
BYLAYER
100
AcDbCircle
 10
25.0
 20
86.0
 30
0.0
 40
9.0
100
AcDbArc
 50
0.0
 51
180.0
  0
LINE
  5
B6
100
AcDbEntity
100
AcDbLine
  8
0
 62
256
370
-1
  6
BYLAYER
 10
34.8674295107273906
 20
66.0
 30
0.0
 11
38.3918661967301205
 21
66.0
 31
0.0
  0
ARC
  5
B7
100
AcDbEntity
  8
0
 62
256
370
-1
  6
BYLAYER
100
AcDbCircle
 10
20.0
 20
86.0
 30
0.0
 40
20.0
100
AcDbArc
 50
180.0
 51
260.7457181042769889
  0
ARC
  5
B8
100
AcDbEntity
  8
0
 62
256
370
-1
  6
BYLAYER
100
AcDbCircle
 10
7.0
 20
106.0
 30
0.0
 40
3.0
100
AcDbArc
 50
180.0
 51
0.0
  0
LINE
  5
B9
100
AcDbEntity
100
AcDbLine
  8
0
 62
256
370
-1
  6
BYLAYER
 10
0.0
 20
106.0
 30
0.0
 11
4.0
 21
106.0
 31
0.0
  0
ARC
  5
BA
100
AcDbEntity
  8
0
 62
256
370
-1
  6
BYLAYER
100
AcDbCircle
 10
43.0
 20
106.0
 30
0.0
 40
3.0
100
AcDbArc
 50
180.0
 51
0.0
  0
ARC
  5
BB
100
AcDbEntity
  8
0
 62
256
370
-1
  6
BYLAYER
100
AcDbCircle
 10
67.0
 20
106.0
 30
0.0
 40
3.0
100
AcDbArc
 50
180.0
 51
0.0
  0
LINE
  5
BC
100
AcDbEntity
100
AcDbLine
  8
0
 62
256
370
-1
  6
BYLAYER
 10
46.0
 20
106.0
 30
0.0
 11
64.0
 21
106.0
 31
0.0
  0
ARC
  5
BD
100
AcDbEntity
  8
0
 62
256
370
-1
  6
BYLAYER
100
AcDbCircle
 10
103.0
 20
106.0
 30
0.0
 40
3.0
100
AcDbArc
 50
180.0
 51
0.0
  0
ARC
  5
BE
100
AcDbEntity
  8
0
 62
256
370
-1
  6
BYLAYER
100
AcDbCircle
 10
127.0
 20
106.0
 30
0.0
 40
3.0
100
AcDbArc
 50
180.0
 51
0.0
  0
LINE
  5
BF
100
AcDbEntity
100
AcDbLine
  8
0
 62
256
370
-1
  6
BYLAYER
 10
106.0
 20
106.0
 30
0.0
 11
124.0
 21
106.0
 31
0.0
  0
ARC
  5
C0
100
AcDbEntity
  8
0
 62
256
370
-1
  6
BYLAYER
100
AcDbCircle
 10
163.0
 20
106.0
 30
0.0
 40
3.0
100
AcDbArc
 50
180.0
 51
0.0
  0
ARC
  5
C1
100
AcDbEntity
  8
0
 62
256
370
-1
  6
BYLAYER
100
AcDbCircle
 10
187.0
 20
106.0
 30
0.0
 40
3.0
100
AcDbArc
 50
180.0
 51
0.0
  0
LINE
  5
C2
100
AcDbEntity
100
AcDbLine
  8
0
 62
256
370
-1
  6
BYLAYER
 10
166.0
 20
106.0
 30
0.0
 11
184.0
 21
106.0
 31
0.0
  0
ARC
  5
C3
100
AcDbEntity
  8
0
 62
256
370
-1
  6
BYLAYER
100
AcDbCircle
 10
223.0
 20
106.0
 30
0.0
 40
3.0
100
AcDbArc
 50
180.0
 51
0.0
  0
ARC
  5
C4
100
AcDbEntity
  8
0
 62
256
370
-1
  6
BYLAYER
100
AcDbCircle
 10
247.0
 20
106.0
 30
0.0
 40
3.0
100
AcDbArc
 50
180.0
 51
0.0
  0
LINE
  5
C5
100
AcDbEntity
100
AcDbLine
  8
0
 62
256
370
-1
  6
BYLAYER
 10
226.0
 20
106.0
 30
0.0
 11
244.0
 21
106.0
 31
0.0
  0
ARC
  5
C6
100
AcDbEntity
  8
0
 62
256
370
-1
  6
BYLAYER
100
AcDbCircle
 10
283.0
 20
106.0
 30
0.0
 40
3.0
100
AcDbArc
 50
180.0
 51
0.0
  0
LINE
  5
C7
100
AcDbEntity
100
AcDbLine
  8
0
 62
256
370
-1
  6
BYLAYER
 10
286.0
 20
106.0
 30
0.0
 11
290.0
 21
106.0
 31
0.0
  0
ARC
  5
C8
100
AcDbEntity
  8
0
 62
256
370
-1
  6
BYLAYER
100
AcDbCircle
 10
283.0
 20
40.0
 30
0.0
 40
3.0
100
AcDbArc
 50
180.0
 51
0.0
  0
LINE
  5
C9
100
AcDbEntity
100
AcDbLine
  8
0
 62
256
370
-1
  6
BYLAYER
 10
290.0
 20
40.0
 30
0.0
 11
286.0
 21
40.0
 31
0.0
  0
ARC
  5
CA
100
AcDbEntity
  8
0
 62
256
370
-1
  6
BYLAYER
100
AcDbCircle
 10
247.0
 20
40.0
 30
0.0
 40
3.0
100
AcDbArc
 50
180.0
 51
0.0
  0
ARC
  5
CB
100
AcDbEntity
  8
0
 62
256
370
-1
  6
BYLAYER
100
AcDbCircle
 10
223.0
 20
40.0
 30
0.0
 40
3.0
100
AcDbArc
 50
180.0
 51
0.0
  0
LINE
  5
CC
100
AcDbEntity
100
AcDbLine
  8
0
 62
256
370
-1
  6
BYLAYER
 10
244.0
 20
40.0
 30
0.0
 11
226.0
 21
40.0
 31
0.0
  0
CIRCLE
  5
CD
100
AcDbEntity
100
AcDbCircle
  8
blind sockets
 62
256
370
-1
  6
BYLAYER
 10
25.0
 20
20.0
 30
0.0
 40
8.9000000000000004
  0
ARC
  5
CE
100
AcDbEntity
  8
0
 62
256
370
-1
  6
BYLAYER
100
AcDbCircle
 10
187.0
 20
40.0
 30
0.0
 40
3.0
100
AcDbArc
 50
180.0
 51
0.0
  0
ARC
  5
CF
100
AcDbEntity
  8
0
 62
256
370
-1
  6
BYLAYER
100
AcDbCircle
 10
163.0
 20
40.0
 30
0.0
 40
3.0
100
AcDbArc
 50
180.0
 51
0.0
  0
LINE
  5
D0
100
AcDbEntity
100
AcDbLine
  8
0
 62
256
370
-1
  6
BYLAYER
 10
184.0
 20
40.0
 30
0.0
 11
166.0
 21
40.0
 31
0.0
  0
ARC
  5
D1
100
AcDbEntity
  8
0
 62
256
370
-1
  6
BYLAYER
100
AcDbCircle
 10
127.0
 20
40.0
 30
0.0
 40
3.0
100
AcDbArc
 50
180.0
 51
0.0
  0
ARC
  5
D2
100
AcDbEntity
  8
0
 62
256
370
-1
  6
BYLAYER
100
AcDbCircle
 10
103.0
 20
40.0
 30
0.0
 40
3.0
100
AcDbArc
 50
180.0
 51
0.0
  0
LINE
  5
D3
100
AcDbEntity
100
AcDbLine
  8
0
 62
256
370
-1
  6
BYLAYER
 10
124.0
 20
40.0
 30
0.0
 11
106.0
 21
40.0
 31
0.0
  0
ARC
  5
D4
100
AcDbEntity
  8
0
 62
256
370
-1
  6
BYLAYER
100
AcDbCircle
 10
20.0
 20
20.0
 30
0.0
 40
20.0
100
AcDbArc
 50
180.0
 51
270.0
  0
ARC
  5
D5
100
AcDbEntity
  8
0
 62
256
370
-1
  6
BYLAYER
100
AcDbCircle
 10
67.0
 20
40.0
 30
0.0
 40
3.0
100
AcDbArc
 50
180.0
 51
0.0
  0
LINE
  5
D6
100
AcDbEntity
100
AcDbLine
  8
0
 62
256
370
-1
  6
BYLAYER
 10
251.6081338032698795
 20
0.0
 30
0.0
 11
20.0
 21
0.0
 31
0.0
  0
ARC
  5
D7
100
AcDbEntity
  8
0
 62
256
370
-1
  6
BYLAYER
100
AcDbCircle
 10
43.0
 20
40.0
 30
0.0
 40
3.0
100
AcDbArc
 50
180.0
 51
0.0
  0
LINE
  5
D8
100
AcDbEntity
100
AcDbLine
  8
0
 62
256
370
-1
  6
BYLAYER
 10
64.0
 20
40.0
 30
0.0
 11
46.0
 21
40.0
 31
0.0
  0
ARC
  5
D9
100
AcDbEntity
  8
0
 62
256
370
-1
  6
BYLAYER
100
AcDbCircle
 10
25.0
 20
20.0
 30
0.0
 40
231.0
100
AcDbArc
 50
355.0331078222571932
 51
0.0
  0
ARC
  5
DA
100
AcDbEntity
  8
0
 62
256
370
-1
  6
BYLAYER
100
AcDbCircle
 10
7.0
 20
40.0
 30
0.0
 40
3.0
100
AcDbArc
 50
180.0
 51
0.0
  0
LINE
  5
DB
100
AcDbEntity
100
AcDbLine
  8
0
 62
256
370
-1
  6
BYLAYER
 10
280.0
 20
40.0
 30
0.0
 11
280.0
 21
49.9999999999998863
 31
0.0
  0
ARC
  5
DC
100
AcDbEntity
  8
0
 62
256
370
-1
  6
BYLAYER
100
AcDbCircle
 10
25.0
 20
20.0
 30
0.0
 40
249.0
100
AcDbArc
 50
355.4530571188961972
 51
0.0
  0
LINE
  5
DD
100
AcDbEntity
100
AcDbLine
  8
0
 62
256
370
-1
  6
BYLAYER
 10
4.0
 20
40.0
 30
0.0
 11
0.0
 21
39.9999999999998863
 31
0.0
  0
LINE
  5
DE
100
AcDbEntity
100
AcDbLine
  8
0
 62
256
370
-1
  6
BYLAYER
 10
250.0
 20
40.0
 30
0.0
 11
250.0
 21
50.0
 31
0.0
  0
LINE
  5
DF
100
AcDbEntity
100
AcDbLine
  8
0
 62
256
370
-1
  6
BYLAYER
 10
220.0
 20
40.0
 30
0.0
 11
220.0
 21
50.0
 31
0.0
  0
ARC
  5
E0
100
AcDbEntity
  8
0
 62
256
370
-1
  6
BYLAYER
100
AcDbCircle
 10
265.0
 20
19.9999999999998863
 30
0.0
 40
9.0
100
AcDbArc
 50
0.0
 51
180.0
  0
LINE
  5
E1
100
AcDbEntity
100
AcDbLine
  8
0
 62
256
370
-1
  6
BYLAYER
 10
190.0
 20
40.0
 30
0.0
 11
190.0
 21
50.0
 31
0.0
  0
LINE
  5
E2
100
AcDbEntity
100
AcDbLine
  8
0
 62
256
370
-1
  6
BYLAYER
 10
255.1325704892726662
 20
0.0
 30
0.0
 11
251.6081338032698795
 21
0.0
 31
0.0
  0
LINE
  5
E3
100
AcDbEntity
100
AcDbLine
  8
0
 62
256
370
-1
  6
BYLAYER
 10
160.0
 20
40.0
 30
0.0
 11
160.0
 21
50.0
 31
0.0
  0
ARC
  5
E4
100
AcDbEntity
  8
0
 62
256
370
-1
  6
BYLAYER
100
AcDbCircle
 10
270.0
 20
20.0
 30
0.0
 40
20.0
100
AcDbArc
 50
279.2542818957230111
 51
0.0
  0
LINE
  5
E5
100
AcDbEntity
100
AcDbLine
  8
0
 62
256
370
-1
  6
BYLAYER
 10
130.0
 20
40.0
 30
0.0
 11
130.0
 21
50.0
 31
0.0
  0
LINE
  5
E6
100
AcDbEntity
100
AcDbLine
  8
0
 62
256
370
-1
  6
BYLAYER
 10
100.0
 20
40.0
 30
0.0
 11
100.0
 21
50.0
 31
0.0
  0
LINE
  5
E7
100
AcDbEntity
100
AcDbLine
  8
0
 62
256
370
-1
  6
BYLAYER
 10
70.0
 20
40.0
 30
0.0
 11
70.0
 21
50.0
 31
0.0
  0
LINE
  5
E8
100
AcDbEntity
100
AcDbLine
  8
0
 62
256
370
-1
  6
BYLAYER
 10
40.0
 20
40.0
 30
0.0
 11
40.0
 21
50.0
 31
0.0
  0
LINE
  5
E9
100
AcDbEntity
100
AcDbLine
  8
0
 62
256
370
-1
  6
BYLAYER
 10
10.0
 20
40.0000000000001137
 30
0.0
 11
10.0
 21
50.0
 31
0.0
  0
LINE
  5
EA
100
AcDbEntity
100
AcDbLine
  8
0
 62
256
370
-1
  6
BYLAYER
 10
290.0
 20
40.0
 30
0.0
 11
290.0
 21
19.9999999999998863
 31
0.0
  0
LINE
  5
EB
100
AcDbEntity
100
AcDbLine
  8
0
 62
256
370
-1
  6
BYLAYER
 10
250.0
 20
50.0
 30
0.0
 11
280.0
 21
49.9999999999998863
 31
0.0
  0
LINE
  5
EC
100
AcDbEntity
100
AcDbLine
  8
0
 62
256
370
-1
  6
BYLAYER
 10
190.0
 20
50.0
 30
0.0
 11
220.0
 21
50.0
 31
0.0
  0
LINE
  5
ED
100
AcDbEntity
100
AcDbLine
  8
0
 62
256
370
-1
  6
BYLAYER
 10
130.0
 20
50.0
 30
0.0
 11
160.0
 21
50.0
 31
0.0
  0
LINE
  5
EE
100
AcDbEntity
100
AcDbLine
  8
0
 62
256
370
-1
  6
BYLAYER
 10
70.0
 20
50.0
 30
0.0
 11
100.0
 21
50.0
 31
0.0
  0
LINE
  5
EF
100
AcDbEntity
100
AcDbLine
  8
0
 62
256
370
-1
  6
BYLAYER
 10
10.0
 20
50.0
 30
0.0
 11
40.0
 21
50.0
 31
0.0
  0
LINE
  5
F0
100
AcDbEntity
100
AcDbLine
  8
0
 62
256
370
-1
  6
BYLAYER
 10
0.0
 20
19.9999999999998863
 30
0.0
 11
0.0
 21
39.9999999999998863
 31
0.0
  0
ARC
  5
F1
100
AcDbEntity
  8
0
 62
256
370
-1
  6
BYLAYER
100
AcDbCircle
 10
656.0
 20
188.0
 30
0.0
 40
20.0
100
AcDbArc
 50
90.0
 51
270.0
  0
LINE
  5
F2
100
AcDbEntity
100
AcDbLine
  8
0
 62
256
370
-1
  6
BYLAYER
 10
656.0
 20
168.0000000000003411
 30
0.0
 11
1136.0
 21
168.0000000000002274
 31
0.0
  0
LINE
  5
F3
100
AcDbEntity
100
AcDbLine
  8
0
 62
256
370
-1
  6
BYLAYER
 10
1136.0
 20
207.9999999999998863
 30
0.0
 11
656.0
 21
207.9999999999998863
 31
0.0
  0
CIRCLE
  5
F4
100
AcDbEntity
100
AcDbCircle
  8
0
 62
256
370
-1
  6
BYLAYER
 10
656.0
 20
188.0
 30
0.0
 40
9.0
  0
ARC
  5
F5
100
AcDbEntity
  8
0
 62
256
370
-1
  6
BYLAYER
100
AcDbCircle
 10
1136.0
 20
188.0000000000001137
 30
0.0
 40
20.0
100
AcDbArc
 50
270.0
 51
90.0
  0
CIRCLE
  5
F6
100
AcDbEntity
100
AcDbCircle
  8
0
 62
256
370
-1
  6
BYLAYER
 10
896.0
 20
188.0
 30
0.0
 40
9.0999999999999996
  0
LINE
  5
F7
100
AcDbEntity
100
AcDbLine
  8
0
 62
256
370
-1
  6
BYLAYER
 10
656.0
 20
0.0
 30
0.0
 11
1136.0
 21
-0.0000000000001137
 31
0.0
  0
LINE
  5
F8
100
AcDbEntity
100
AcDbLine
  8
0
 62
256
370
-1
  6
BYLAYER
 10
1136.0
 20
39.9999999999993179
 30
0.0
 11
656.0
 21
39.9999999999996589
 31
0.0
  0
CIRCLE
  5
F9
100
AcDbEntity
100
AcDbCircle
  8
blind sockets
 62
256
370
-1
  6
BYLAYER
 10
656.0
 20
19.9999999999997726
 30
0.0
 40
8.9000000000000004
  0
ARC
  5
FA
100
AcDbEntity
  8
0
 62
256
370
-1
  6
BYLAYER
100
AcDbCircle
 10
1136.0
 20
19.9999999999998863
 30
0.0
 40
20.0
100
AcDbArc
 50
270.0
 51
90.0
  0
CIRCLE
  5
FB
100
AcDbEntity
100
AcDbCircle
  8
blind sockets
 62
256
370
-1
  6
BYLAYER
 10
896.0
 20
19.9999999999996589
 30
0.0
 40
8.9000000000000004
  0
LINE
  5
FC
100
AcDbEntity
100
AcDbLine
  8
0
 62
256
370
-1
  6
BYLAYER
 10
655.9999999999998863
 20
56.0
 30
0.0
 11
1136.0
 21
55.9999999999995453
 31
0.0
  0
LINE
  5
FD
100
AcDbEntity
100
AcDbLine
  8
0
 62
256
370
-1
  6
BYLAYER
 10
1136.0
 20
95.9999999999994316
 30
0.0
 11
656.0
 21
95.9999999999996589
 31
0.0
  0
CIRCLE
  5
FE
100
AcDbEntity
100
AcDbCircle
  8
blind sockets
 62
256
370
-1
  6
BYLAYER
 10
656.0
 20
75.9999999999997726
 30
0.0
 40
8.9000000000000004
  0
ARC
  5
FF
100
AcDbEntity
  8
0
 62
256
370
-1
  6
BYLAYER
100
AcDbCircle
 10
1136.0
 20
75.9999999999997726
 30
0.0
 40
20.0
100
AcDbArc
 50
270.0
 51
90.0
  0
CIRCLE
  5
100
100
AcDbEntity
100
AcDbCircle
  8
blind sockets
 62
256
370
-1
  6
BYLAYER
 10
896.0
 20
75.9999999999996589
 30
0.0
 40
8.9000000000000004
  0
CIRCLE
  5
101
100
AcDbEntity
100
AcDbCircle
  8
0
 62
256
370
-1
  6
BYLAYER
 10
598.975329807123785
 20
189.9969523442522359
 30
0.0
 40
8.9000000000000004
  0
CIRCLE
  5
102
100
AcDbEntity
100
AcDbCircle
  8
0
 62
256
370
-1
  6
BYLAYER
 10
598.975329807123785
 20
189.9969523442522359
 30
0.0
 40
17.0
  0
CIRCLE
  5
103
100
AcDbEntity
100
AcDbCircle
  8
0
 62
256
370
-1
  6
BYLAYER
 10
538.2632994065969569
 20
189.8633214764957984
 30
0.0
 40
8.9000000000000004
  0
CIRCLE
  5
104
100
AcDbEntity
100
AcDbCircle
  8
0
 62
256
370
-1
  6
BYLAYER
 10
538.2632994065969569
 20
189.8633214764957984
 30
0.0
 40
17.0
  0
LINE
  5
105
100
AcDbEntity
100
AcDbLine
  8
blind sockets
 62
256
370
-1
  6
BYLAYER
 10
68.5
 20
318.1000000000000227
 30
0.0
 11
68.5
 21
299.8999999999999773
 31
0.0
  0
LINE
  5
106
100
AcDbEntity
100
AcDbLine
  8
blind sockets
 62
256
370
-1
  6
BYLAYER
 10
91.0999999999999091
 20
299.8999999999999773
 30
0.0
 11
91.0999999999999091
 21
318.1000000000000227
 31
0.0
  0
LINE
  5
107
100
AcDbEntity
100
AcDbLine
  8
blind sockets
 62
256
370
-1
  6
BYLAYER
 10
68.5
 20
293.8999999999999773
 30
0.0
 11
91.0999999999999091
 21
293.8999999999999773
 31
0.0
  0
ARC
  5
108
100
AcDbEntity
  8
blind sockets
 62
256
370
-1
  6
BYLAYER
100
AcDbCircle
 10
68.5
 20
321.1000000000000227
 30
0.0
 40
3.0
100
AcDbArc
 50
90.0
 51
270.0
  0
LINE
  5
109
100
AcDbEntity
100
AcDbLine
  8
blind sockets
 62
256
370
-1
  6
BYLAYER
 10
91.0999999999999091
 20
324.1000000000000227
 30
0.0
 11
68.5
 21
324.1000000000000227
 31
0.0
  0
ARC
  5
10A
100
AcDbEntity
  8
blind sockets
 62
256
370
-1
  6
BYLAYER
100
AcDbCircle
 10
91.0999999999999091
 20
321.1000000000000227
 30
0.0
 40
3.0
100
AcDbArc
 50
269.9999999999997726
 51
90.0000000000001563
  0
ARC
  5
10B
100
AcDbEntity
  8
blind sockets
 62
256
370
-1
  6
BYLAYER
100
AcDbCircle
 10
68.5
 20
296.8999999999999773
 30
0.0
 40
3.0
100
AcDbArc
 50
90.0
 51
270.0
  0
ARC
  5
10C
100
AcDbEntity
  8
blind sockets
 62
256
370
-1
  6
BYLAYER
100
AcDbCircle
 10
91.0999999999999091
 20
296.8999999999999773
 30
0.0
 40
3.0
100
AcDbArc
 50
270.0
 51
90.0
  0
ARC
  5
10D
100
AcDbEntity
  8
blind sockets
 62
256
370
-1
  6
BYLAYER
100
AcDbCircle
 10
278.8999999999997499
 20
321.1000000000000227
 30
0.0
 40
3.0
100
AcDbArc
 50
90.0
 51
270.0
  0
LINE
  5
10E
100
AcDbEntity
100
AcDbLine
  8
blind sockets
 62
256
370
-1
  6
BYLAYER
 10
301.4999999999998863
 20
324.1000000000000227
 30
0.0
 11
278.8999999999997499
 21
324.1000000000000227
 31
0.0
  0
ARC
  5
10F
100
AcDbEntity
  8
blind sockets
 62
256
370
-1
  6
BYLAYER
100
AcDbCircle
 10
301.4999999999998863
 20
321.1000000000000227
 30
0.0
 40
3.0
100
AcDbArc
 50
269.9999999999997726
 51
90.0000000000001563
  0
ARC
  5
110
100
AcDbEntity
  8
blind sockets
 62
256
370
-1
  6
BYLAYER
100
AcDbCircle
 10
278.8999999999997499
 20
296.8999999999999773
 30
0.0
 40
3.0
100
AcDbArc
 50
90.0
 51
270.0
  0
ARC
  5
111
100
AcDbEntity
  8
blind sockets
 62
256
370
-1
  6
BYLAYER
100
AcDbCircle
 10
301.4999999999998863
 20
296.8999999999999773
 30
0.0
 40
3.0
100
AcDbArc
 50
270.0
 51
90.0
  0
LINE
  5
112
100
AcDbEntity
100
AcDbLine
  8
blind sockets
 62
256
370
-1
  6
BYLAYER
 10
278.8999999999997499
 20
293.8999999999999773
 30
0.0
 11
301.4999999999998863
 21
293.8999999999999773
 31
0.0
  0
LINE
  5
113
100
AcDbEntity
100
AcDbLine
  8
blind sockets
 62
256
370
-1
  6
BYLAYER
 10
278.8999999999997499
 20
318.1000000000000227
 30
0.0
 11
278.8999999999997499
 21
299.8999999999999773
 31
0.0
  0
LINE
  5
114
100
AcDbEntity
100
AcDbLine
  8
blind sockets
 62
256
370
-1
  6
BYLAYER
 10
301.4999999999998863
 20
299.8999999999999773
 30
0.0
 11
301.4999999999998863
 21
318.1000000000000227
 31
0.0
  0
LINE
  5
115
100
AcDbEntity
100
AcDbLine
  8
0
 62
256
370
-1
  6
BYLAYER
 10
449.9474732956348362
 20
206.671013784188176
 30
0.0
 11
445.9474732956348362
 21
206.6710137841880623
 31
0.0
  0
LINE
  5
116
100
AcDbEntity
100
AcDbLine
  8
0
 62
256
370
-1
  6
BYLAYER
 10
485.9474732956348362
 20
206.671013784188176
 30
0.0
 11
485.9474732956348362
 21
216.671013784188176
 31
0.0
  0
LINE
  5
117
100
AcDbEntity
100
AcDbLine
  8
0
 62
256
370
-1
  6
BYLAYER
 10
455.9474732956348362
 20
206.6710137841882897
 30
0.0
 11
455.9474732956348362
 21
216.6710137841882897
 31
0.0
  0
LINE
  5
118
100
AcDbEntity
100
AcDbLine
  8
0
 62
256
370
-1
  6
BYLAYER
 10
455.9474732956348362
 20
216.6710137841882897
 30
0.0
 11
485.9474732956348362
 21
216.671013784188176
 31
0.0
  0
LINE
  5
119
100
AcDbEntity
100
AcDbLine
  8
0
 62
256
370
-1
  6
BYLAYER
 10
445.9474732956348362
 20
186.6710137841880623
 30
0.0
 11
445.9474732956348362
 21
206.6710137841880623
 31
0.0
  0
CIRCLE
  5
11A
100
AcDbEntity
100
AcDbCircle
  8
blind sockets
 62
256
370
-1
  6
BYLAYER
 10
395.0
 20
188.0
 30
0.0
 40
8.9000000000000004
  0
ARC
  5
11B
100
AcDbEntity
  8
0
 62
256
370
-1
  6
BYLAYER
100
AcDbCircle
 10
400.0
 20
188.0
 30
0.0
 40
20.0
100
AcDbArc
 50
270.0
 51
0.0
  0
LINE
  5
11C
100
AcDbEntity
100
AcDbLine
  8
0
 62
256
370
-1
  6
BYLAYER
 10
380.0
 20
208.0
 30
0.0
 11
380.0
 21
218.0
 31
0.0
  0
LINE
  5
11D
100
AcDbEntity
100
AcDbLine
  8
0
 62
256
370
-1
  6
BYLAYER
 10
410.0
 20
208.0
 30
0.0
 11
410.0
 21
218.0
 31
0.0
  0
LINE
  5
11E
100
AcDbEntity
100
AcDbLine
  8
0
 62
256
370
-1
  6
BYLAYER
 10
410.0
 20
218.0
 30
0.0
 11
380.0
 21
218.0
 31
0.0
  0
LINE
  5
11F
100
AcDbEntity
100
AcDbLine
  8
0
 62
256
370
-1
  6
BYLAYER
 10
420.0
 20
188.0
 30
0.0
 11
420.0
 21
208.0
 31
0.0
  0
ARC
  5
120
100
AcDbEntity
  8
0
 62
256
370
-1
  6
BYLAYER
100
AcDbCircle
 10
377.0
 20
208.0
 30
0.0
 40
3.0
100
AcDbArc
 50
180.0
 51
0.0
  0
ARC
  5
121
100
AcDbEntity
  8
0
 62
256
370
-1
  6
BYLAYER
100
AcDbCircle
 10
413.0
 20
208.0
 30
0.0
 40
3.0
100
AcDbArc
 50
180.0
 51
0.0
  0
LINE
  5
122
100
AcDbEntity
100
AcDbLine
  8
0
 62
256
370
-1
  6
BYLAYER
 10
416.0
 20
208.0
 30
0.0
 11
420.0
 21
208.0
 31
0.0
  0
CIRCLE
  5
123
100
AcDbEntity
100
AcDbCircle
  8
blind sockets
 62
256
370
-1
  6
BYLAYER
 10
470.9474732956348362
 20
186.671013784188176
 30
0.0
 40
8.9000000000000004
  0
ARC
  5
124
100
AcDbEntity
  8
0
 62
256
370
-1
  6
BYLAYER
100
AcDbCircle
 10
465.9474732956348362
 20
186.671013784188176
 30
0.0
 40
20.0
100
AcDbArc
 50
180.0
 51
270.0
  0
ARC
  5
125
100
AcDbEntity
  8
0
 62
256
370
-1
  6
BYLAYER
100
AcDbCircle
 10
488.9474732956348362
 20
206.671013784188176
 30
0.0
 40
3.0
100
AcDbArc
 50
180.0
 51
0.0
  0
ARC
  5
126
100
AcDbEntity
  8
0
 62
256
370
-1
  6
BYLAYER
100
AcDbCircle
 10
452.9474732956348362
 20
206.671013784188176
 30
0.0
 40
3.0
100
AcDbArc
 50
180.0
 51
0.0
  0
LINE
  5
127
100
AcDbEntity
100
AcDbLine
  8
0
 62
256
370
-1
  6
BYLAYER
 10
370.0
 20
208.0
 30
0.0
 11
374.0
 21
208.0
 31
0.0
  0
LINE
  5
128
100
AcDbEntity
100
AcDbLine
  8
0
 62
256
370
-1
  6
BYLAYER
 10
495.9474732956349499
 20
206.671013784188176
 30
0.0
 11
491.9474732956349499
 21
206.671013784188176
 31
0.0
  0
LINE
  5
129
100
AcDbEntity
100
AcDbLine
  8
0
 62
256
370
-1
  6
BYLAYER
 10
475.9474732956348362
 20
166.671013784188176
 30
0.0
 11
465.9474732956348362
 21
166.671013784188176
 31
0.0
  0
LINE
  5
12A
100
AcDbEntity
100
AcDbLine
  8
0
 62
256
370
-1
  6
BYLAYER
 10
495.9474732956349499
 20
186.671013784188176
 30
0.0
 11
495.9474732956349499
 21
206.671013784188176
 31
0.0
  0
ARC
  5
12B
100
AcDbEntity
  8
0
 62
256
370
-1
  6
BYLAYER
100
AcDbCircle
 10
475.9474732956348362
 20
186.671013784188176
 30
0.0
 40
20.0
100
AcDbArc
 50
270.0
 51
0.0
  0
LINE
  5
12C
100
AcDbEntity
100
AcDbLine
  8
0
 62
256
370
-1
  6
BYLAYER
 10
390.0
 20
168.0
 30
0.0
 11
400.0
 21
168.0
 31
0.0
  0
LINE
  5
12D
100
AcDbEntity
100
AcDbLine
  8
0
 62
256
370
-1
  6
BYLAYER
 10
370.0
 20
188.0
 30
0.0
 11
370.0
 21
208.0
 31
0.0
  0
ARC
  5
12E
100
AcDbEntity
  8
0
 62
256
370
-1
  6
BYLAYER
100
AcDbCircle
 10
390.0
 20
188.0
 30
0.0
 40
20.0
100
AcDbArc
 50
180.0
 51
270.0
  0
ARC
  5
12F
100
AcDbEntity
  8
blind sockets
 62
256
370
-1
  6
BYLAYER
100
AcDbCircle
 10
45.5
 20
536.9000000000000909
 30
0.0
 40
3.0
100
AcDbArc
 50
270.0
 51
90.0
  0
LINE
  5
130
100
AcDbEntity
100
AcDbLine
  8
blind sockets
 62
256
370
-1
  6
BYLAYER
 10
22.8999999999999773
 20
533.9000000000000909
 30
0.0
 11
45.5
 21
533.9000000000000909
 31
0.0
  0
LINE
  5
131
100
AcDbEntity
100
AcDbLine
  8
blind sockets
 62
256
370
-1
  6
BYLAYER
 10
45.5
 20
293.8999999999999773
 30
0.0
 11
45.5
 21
293.8999999999999773
 31
0.0
  0
LINE
  5
132
100
AcDbEntity
100
AcDbLine
  8
0
 62
256
370
-1
  6
BYLAYER
 10
326.0
 20
0.0
 30
0.0
 11
656.0
 21
0.0
 31
0.0
  0
ARC
  5
133
100
AcDbEntity
  8
0
 62
256
370
-1
  6
BYLAYER
100
AcDbCircle
 10
326.0
 20
20.0
 30
0.0
 40
20.0
100
AcDbArc
 50
90.0
 51
270.0
  0
LINE
  5
134
100
AcDbEntity
100
AcDbLine
  8
0
 62
256
370
-1
  6
BYLAYER
 10
656.0
 20
40.0
 30
0.0
 11
326.0
 21
40.0
 31
0.0
  0
ARC
  5
135
100
AcDbEntity
  8
0
 62
256
370
-1
  6
BYLAYER
100
AcDbCircle
 10
326.0
 20
76.0
 30
0.0
 40
20.0
100
AcDbArc
 50
90.0
 51
270.0
  0
LINE
  5
136
100
AcDbEntity
100
AcDbLine
  8
0
 62
256
370
-1
  6
BYLAYER
 10
326.0
 20
56.0
 30
0.0
 11
655.9999999999998863
 21
56.0
 31
0.0
  0
LINE
  5
137
100
AcDbEntity
100
AcDbLine
  8
0
 62
256
370
-1
  6
BYLAYER
 10
656.0000000000001137
 20
95.9999999999998863
 30
0.0
 11
326.0
 21
96.0
 31
0.0
  0
LINE
  5
138
100
AcDbEntity
100
AcDbLine
  8
0
 62
256
370
-1
  6
BYLAYER
 10
22.7999999999999545
 20
534.0
 30
0.0
 11
22.7999999999999545
 21
574.0
 31
0.0
  0
LINE
  5
139
100
AcDbEntity
100
AcDbLine
  8
0
 62
256
370
-1
  6
BYLAYER
 10
0.0
 20
534.0
 30
0.0
 11
0.0
 21
304.0
 31
0.0
  0
ARC
  5
13A
100
AcDbEntity
  8
0
 62
256
370
-1
  6
BYLAYER
100
AcDbCircle
 10
19.7999999999999545
 20
534.0
 30
0.0
 40
3.0
100
AcDbArc
 50
180.0
 51
0.0
  0
LINE
  5
13B
100
AcDbEntity
100
AcDbLine
  8
0
 62
256
370
-1
  6
BYLAYER
 10
0.0
 20
534.0
 30
0.0
 11
16.7999999999999545
 21
534.0
 31
0.0
  0
LINE
  5
13C
100
AcDbEntity
100
AcDbLine
  8
0
 62
256
370
-1
  6
BYLAYER
 10
347.2000000000000455
 20
574.0
 30
0.0
 11
347.2000000000000455
 21
534.0
 31
0.0
  0
LINE
  5
13D
100
AcDbEntity
100
AcDbLine
  8
0
 62
256
370
-1
  6
BYLAYER
 10
347.2000000000000455
 20
574.0
 30
0.0
 11
22.7999999999999545
 21
574.0
 31
0.0
  0
LINE
  5
13E
100
AcDbEntity
100
AcDbLine
  8
0
 62
256
370
-1
  6
BYLAYER
 10
370.0
 20
304.0
 30
0.0
 11
370.0
 21
534.0
 31
0.0
  0
ARC
  5
13F
100
AcDbEntity
  8
0
 62
256
370
-1
  6
BYLAYER
100
AcDbCircle
 10
350.3000000000000682
 20
534.0999999999999091
 30
0.0
 40
3.0
100
AcDbArc
 50
181.9102131717102964
 51
358.0897868282897321
  0
LINE
  5
140
100
AcDbEntity
100
AcDbLine
  8
0
 62
256
370
-1
  6
BYLAYER
 10
347.2000000000000455
 20
534.0
 30
0.0
 11
347.3016671298870506
 21
534.0
 31
0.0
  0
LINE
  5
141
100
AcDbEntity
100
AcDbLine
  8
0
 62
256
370
-1
  6
BYLAYER
 10
353.2983328701130858
 20
534.0
 30
0.0
 11
370.0
 21
534.0
 31
0.0
  0
LINE
  5
142
100
AcDbEntity
100
AcDbLine
  8
0
 62
256
370
-1
  6
BYLAYER
 10
0.0
 20
258.0
 30
0.0
 11
10.0
 21
258.0
 31
0.0
  0
LINE
  5
143
100
AcDbEntity
100
AcDbLine
  8
0
 62
256
370
-1
  6
BYLAYER
 10
334.3999999999999773
 20
258.0
 30
0.0
 11
344.3999999999999773
 21
258.0
 31
0.0
  0
LINE
  5
144
100
AcDbEntity
100
AcDbLine
  8
0
 62
256
370
-1
  6
BYLAYER
 10
0.0
 20
238.0
 30
0.0
 11
10.0
 21
238.0
 31
0.0
  0
LINE
  5
145
100
AcDbEntity
100
AcDbLine
  8
0
 62
256
370
-1
  6
BYLAYER
 10
334.3999999999999773
 20
238.0
 30
0.0
 11
344.3999999999999773
 21
238.0
 31
0.0
  0
LINE
  5
146
100
AcDbEntity
100
AcDbLine
  8
0
 62
256
370
-1
  6
BYLAYER
 10
0.0
 20
258.0
 30
0.0
 11
0.0
 21
238.0
 31
0.0
  0
LINE
  5
147
100
AcDbEntity
100
AcDbLine
  8
0
 62
256
370
-1
  6
BYLAYER
 10
334.3999999999999773
 20
268.0
 30
0.0
 11
10.0
 21
268.0
 31
0.0
  0
LINE
  5
148
100
AcDbEntity
100
AcDbLine
  8
0
 62
256
370
-1
  6
BYLAYER
 10
10.0
 20
228.0
 30
0.0
 11
334.3999999999999773
 21
228.0
 31
0.0
  0
LINE
  5
149
100
AcDbEntity
100
AcDbLine
  8
0
 62
256
370
-1
  6
BYLAYER
 10
344.3999999999999773
 20
238.0
 30
0.0
 11
344.3999999999999773
 21
258.0
 31
0.0
  0
LINE
  5
14A
100
AcDbEntity
100
AcDbLine
  8
0
 62
256
370
-1
  6
BYLAYER
 10
366.0
 20
122.0
 30
0.0
 11
376.0
 21
122.0
 31
0.0
  0
LINE
  5
14B
100
AcDbEntity
100
AcDbLine
  8
0
 62
256
370
-1
  6
BYLAYER
 10
366.0
 20
142.0
 30
0.0
 11
376.0
 21
142.0
 31
0.0
  0
LINE
  5
14C
100
AcDbEntity
100
AcDbLine
  8
0
 62
256
370
-1
  6
BYLAYER
 10
609.2000000000000455
 20
142.0
 30
0.0
 11
619.2000000000000455
 21
142.0
 31
0.0
  0
LINE
  5
14D
100
AcDbEntity
100
AcDbLine
  8
0
 62
256
370
-1
  6
BYLAYER
 10
609.2000000000000455
 20
122.0
 30
0.0
 11
619.2000000000000455
 21
122.0
 31
0.0
  0
LINE
  5
14E
100
AcDbEntity
100
AcDbLine
  8
0
 62
256
370
-1
  6
BYLAYER
 10
366.0
 20
142.0
 30
0.0
 11
366.0
 21
122.0
 31
0.0
  0
LINE
  5
14F
100
AcDbEntity
100
AcDbLine
  8
0
 62
256
370
-1
  6
BYLAYER
 10
609.2000000000000455
 20
152.0
 30
0.0
 11
376.0
 21
152.0
 31
0.0
  0
LINE
  5
150
100
AcDbEntity
100
AcDbLine
  8
0
 62
256
370
-1
  6
BYLAYER
 10
376.0
 20
112.0
 30
0.0
 11
609.2000000000000455
 21
112.0
 31
0.0
  0
LINE
  5
151
100
AcDbEntity
100
AcDbLine
  8
0
 62
256
370
-1
  6
BYLAYER
 10
619.2000000000000455
 20
122.0
 30
0.0
 11
619.2000000000000455
 21
142.0
 31
0.0
  0
LINE
  5
152
100
AcDbEntity
100
AcDbLine
  8
blind sockets
 62
256
370
-1
  6
BYLAYER
 10
1136.0
 20
143.2999999999999545
 30
0.0
 11
1116.0
 21
143.2999999999999545
 31
0.0
  0
LINE
  5
153
100
AcDbEntity
100
AcDbLine
  8
blind sockets
 62
256
370
-1
  6
BYLAYER
 10
1116.0
 20
120.6999999999998181
 30
0.0
 11
1136.0
 21
120.7000000000000455
 31
0.0
  0
LINE
  5
154
100
AcDbEntity
100
AcDbLine
  8
blind sockets
 62
256
370
-1
  6
BYLAYER
 10
1136.0
 20
199.2999999999999545
 30
0.0
 11
1116.0
 21
199.2999999999999545
 31
0.0
  0
LINE
  5
155
100
AcDbEntity
100
AcDbLine
  8
blind sockets
 62
256
370
-1
  6
BYLAYER
 10
1116.0
 20
176.6999999999999318
 30
0.0
 11
1136.0
 21
176.6999999999999318
 31
0.0
  0
LINE
  5
156
100
AcDbEntity
100
AcDbLine
  8
blind sockets
 62
256
370
-1
  6
BYLAYER
 10
1136.0
 20
31.2999999999996135
 30
0.0
 11
1116.0
 21
31.2999999999993861
 31
0.0
  0
LINE
  5
157
100
AcDbEntity
100
AcDbLine
  8
blind sockets
 62
256
370
-1
  6
BYLAYER
 10
1116.0
 20
8.699999999999477
 30
0.0
 11
1136.0
 21
8.699999999999477
 31
0.0
  0
LINE
  5
158
100
AcDbEntity
100
AcDbLine
  8
blind sockets
 62
256
370
-1
  6
BYLAYER
 10
1136.0
 20
87.2999999999994998
 30
0.0
 11
1116.0
 21
87.2999999999997272
 31
0.0
  0
LINE
  5
159
100
AcDbEntity
100
AcDbLine
  8
blind sockets
 62
256
370
-1
  6
BYLAYER
 10
1116.0
 20
64.6999999999995907
 30
0.0
 11
1136.0
 21
64.699999999999477
 31
0.0
  0
LINE
  5
15A
100
AcDbEntity
100
AcDbLine
  8
0
 62
256
370
-1
  6
BYLAYER
 10
334.4000000000000909
 20
142.0000000000034106
 30
0.0
 11
344.4000000000000909
 21
142.0000000000034106
 31
0.0
  0
LINE
  5
15B
100
AcDbEntity
100
AcDbLine
  8
0
 62
256
370
-1
  6
BYLAYER
 10
0.0
 20
162.0000000000034106
 30
0.0
 11
0.0
 21
142.0000000000034106
 31
0.0
  0
LINE
  5
15C
100
AcDbEntity
100
AcDbLine
  8
0
 62
256
370
-1
  6
BYLAYER
 10
344.4000000000000909
 20
142.0000000000034106
 30
0.0
 11
344.4000000000000909
 21
162.0000000000034106
 31
0.0
  0
LINE
  5
15D
100
AcDbEntity
100
AcDbLine
  8
0
 62
256
370
-1
  6
BYLAYER
 10
0.0
 20
162.0000000000034106
 30
0.0
 11
10.0
 21
162.0000000000034106
 31
0.0
  0
LINE
  5
15E
100
AcDbEntity
100
AcDbLine
  8
0
 62
256
370
-1
  6
BYLAYER
 10
334.4000000000000909
 20
162.0000000000034106
 30
0.0
 11
344.4000000000000909
 21
162.0000000000034106
 31
0.0
  0
LINE
  5
15F
100
AcDbEntity
100
AcDbLine
  8
0
 62
256
370
-1
  6
BYLAYER
 10
0.0
 20
142.0000000000034106
 30
0.0
 11
10.0
 21
142.0000000000034106
 31
0.0
  0
LINE
  5
160
100
AcDbEntity
100
AcDbLine
  8
0
 62
256
370
-1
  6
BYLAYER
 10
0.0
 20
182.0000000000034106
 30
0.0
 11
10.0
 21
182.0000000000034106
 31
0.0
  0
LINE
  5
161
100
AcDbEntity
100
AcDbLine
  8
0
 62
256
370
-1
  6
BYLAYER
 10
334.4000000000000909
 20
182.0000000000034106
 30
0.0
 11
344.4000000000000909
 21
182.0000000000034106
 31
0.0
  0
LINE
  5
162
100
AcDbEntity
100
AcDbLine
  8
0
 62
256
370
-1
  6
BYLAYER
 10
0.0
 20
202.0000000000034106
 30
0.0
 11
0.0
 21
182.0000000000034106
 31
0.0
  0
LINE
  5
163
100
AcDbEntity
100
AcDbLine
  8
0
 62
256
370
-1
  6
BYLAYER
 10
344.4000000000000909
 20
182.0000000000034106
 30
0.0
 11
344.4000000000000909
 21
202.0000000000034106
 31
0.0
  0
LINE
  5
164
100
AcDbEntity
100
AcDbLine
  8
0
 62
256
370
-1
  6
BYLAYER
 10
0.0
 20
202.0000000000034106
 30
0.0
 11
10.0
 21
202.0000000000034106
 31
0.0
  0
LINE
  5
165
100
AcDbEntity
100
AcDbLine
  8
0
 62
256
370
-1
  6
BYLAYER
 10
334.4000000000000909
 20
202.0000000000034106
 30
0.0
 11
344.4000000000000909
 21
202.0000000000034106
 31
0.0
  0
ARC
  5
166
100
AcDbEntity
  8
blind sockets
 62
256
370
-1
  6
BYLAYER
100
AcDbCircle
 10
1116.0
 20
123.6999999999998181
 30
0.0
 40
3.0
100
AcDbArc
 50
90.0
 51
270.0
  0
ARC
  5
167
100
AcDbEntity
  8
blind sockets
 62
256
370
-1
  6
BYLAYER
100
AcDbCircle
 10
1116.0
 20
140.2999999999999545
 30
0.0
 40
3.0
100
AcDbArc
 50
90.0
 51
270.0
  0
ARC
  5
168
100
AcDbEntity
  8
blind sockets
 62
256
370
-1
  6
BYLAYER
100
AcDbCircle
 10
1136.0
 20
140.2999999999999545
 30
0.0
 40
3.0
100
AcDbArc
 50
270.0
 51
90.0
  0
ARC
  5
169
100
AcDbEntity
  8
blind sockets
 62
256
370
-1
  6
BYLAYER
100
AcDbCircle
 10
1136.0
 20
123.6999999999998181
 30
0.0
 40
3.0
100
AcDbArc
 50
270.0
 51
90.0
  0
ARC
  5
16A
100
AcDbEntity
  8
blind sockets
 62
256
370
-1
  6
BYLAYER
100
AcDbCircle
 10
1136.0
 20
179.7000000000000455
 30
0.0
 40
3.0
100
AcDbArc
 50
270.0
 51
90.0
  0
ARC
  5
16B
100
AcDbEntity
  8
blind sockets
 62
256
370
-1
  6
BYLAYER
100
AcDbCircle
 10
1116.0
 20
179.6999999999998181
 30
0.0
 40
3.0
100
AcDbArc
 50
90.0
 51
270.0
  0
ARC
  5
16C
100
AcDbEntity
  8
blind sockets
 62
256
370
-1
  6
BYLAYER
100
AcDbCircle
 10
1116.0
 20
196.2999999999999545
 30
0.0
 40
3.0
100
AcDbArc
 50
90.0
 51
270.0
  0
ARC
  5
16D
100
AcDbEntity
  8
blind sockets
 62
256
370
-1
  6
BYLAYER
100
AcDbCircle
 10
1136.0
 20
196.3000000000000682
 30
0.0
 40
3.0
100
AcDbArc
 50
270.0
 51
90.0
  0
ARC
  5
16E
100
AcDbEntity
  8
blind sockets
 62
256
370
-1
  6
BYLAYER
100
AcDbCircle
 10
1116.0
 20
11.6999999999997044
 30
0.0
 40
3.0
100
AcDbArc
 50
90.0
 51
270.0
  0
ARC
  5
16F
100
AcDbEntity
  8
blind sockets
 62
256
370
-1
  6
BYLAYER
100
AcDbCircle
 10
1136.0
 20
11.6999999999997044
 30
0.0
 40
3.0
100
AcDbArc
 50
270.0
 51
90.0
  0
ARC
  5
170
100
AcDbEntity
  8
blind sockets
 62
256
370
-1
  6
BYLAYER
100
AcDbCircle
 10
1116.0
 20
28.2999999999996135
 30
0.0
 40
3.0
100
AcDbArc
 50
90.0
 51
270.0
  0
ARC
  5
171
100
AcDbEntity
  8
blind sockets
 62
256
370
-1
  6
BYLAYER
100
AcDbCircle
 10
1136.0
 20
28.2999999999996135
 30
0.0
 40
3.0
100
AcDbArc
 50
270.0
 51
90.0
  0
ARC
  5
172
100
AcDbEntity
  8
blind sockets
 62
256
370
-1
  6
BYLAYER
100
AcDbCircle
 10
1116.0
 20
67.6999999999997044
 30
0.0
 40
3.0
100
AcDbArc
 50
90.0
 51
270.0
  0
ARC
  5
173
100
AcDbEntity
  8
blind sockets
 62
256
370
-1
  6
BYLAYER
100
AcDbCircle
 10
1136.0
 20
67.6999999999992497
 30
0.0
 40
3.0
100
AcDbArc
 50
270.0
 51
90.0
  0
ARC
  5
174
100
AcDbEntity
  8
blind sockets
 62
256
370
-1
  6
BYLAYER
100
AcDbCircle
 10
1116.0
 20
84.2999999999993861
 30
0.0
 40
3.0
100
AcDbArc
 50
90.0
 51
270.0
  0
ARC
  5
175
100
AcDbEntity
  8
blind sockets
 62
256
370
-1
  6
BYLAYER
100
AcDbCircle
 10
1136.0
 20
84.2999999999993861
 30
0.0
 40
3.0
100
AcDbArc
 50
270.0
 51
90.0
  0
LINE
  5
176
100
AcDbEntity
100
AcDbLine
  8
blind sockets
 62
256
370
-1
  6
BYLAYER
 10
1136.0
 20
70.6999999999997044
 30
0.0
 11
1136.0
 21
81.2999999999997272
 31
0.0
  0
LINE
  5
177
100
AcDbEntity
100
AcDbLine
  8
blind sockets
 62
256
370
-1
  6
BYLAYER
 10
1116.0
 20
81.2999999999997272
 30
0.0
 11
1116.0
 21
70.6999999999993634
 31
0.0
  0
LINE
  5
178
100
AcDbEntity
100
AcDbLine
  8
blind sockets
 62
256
370
-1
  6
BYLAYER
 10
1116.0
 20
25.2999999999994998
 30
0.0
 11
1116.0
 21
14.6999999999997044
 31
0.0
  0
LINE
  5
179
100
AcDbEntity
100
AcDbLine
  8
blind sockets
 62
256
370
-1
  6
BYLAYER
 10
1136.0
 20
14.6999999999995907
 30
0.0
 11
1136.0
 21
25.2999999999992724
 31
0.0
  0
LINE
  5
17A
100
AcDbEntity
100
AcDbLine
  8
blind sockets
 62
256
370
-1
  6
BYLAYER
 10
1116.0
 20
193.2999999999998408
 30
0.0
 11
1116.0
 21
182.7000000000000455
 31
0.0
  0
LINE
  5
17B
100
AcDbEntity
100
AcDbLine
  8
blind sockets
 62
256
370
-1
  6
BYLAYER
 10
1136.0
 20
182.6999999999999318
 30
0.0
 11
1136.0
 21
193.3000000000000682
 31
0.0
  0
LINE
  5
17C
100
AcDbEntity
100
AcDbLine
  8
blind sockets
 62
256
370
-1
  6
BYLAYER
 10
1116.0
 20
137.2999999999998408
 30
0.0
 11
1116.0
 21
126.7000000000000455
 31
0.0
  0
LINE
  5
17D
100
AcDbEntity
100
AcDbLine
  8
blind sockets
 62
256
370
-1
  6
BYLAYER
 10
1136.0
 20
126.6999999999998181
 30
0.0
 11
1136.0
 21
137.2999999999999545
 31
0.0
  0
LINE
  5
17E
100
AcDbEntity
100
AcDbLine
  8
0
 62
256
370
-1
  6
BYLAYER
 10
10.0
 20
264.0
 30
0.0
 11
10.0
 21
268.0
 31
0.0
  0
ARC
  5
17F
100
AcDbEntity
  8
0
 62
256
370
-1
  6
BYLAYER
100
AcDbCircle
 10
10.0
 20
261.0
 30
0.0
 40
3.0
100
AcDbArc
 50
270.0
 51
90.0
  0
ARC
  5
180
100
AcDbEntity
  8
0
 62
256
370
-1
  6
BYLAYER
100
AcDbCircle
 10
10.0
 20
235.0
 30
0.0
 40
3.0
100
AcDbArc
 50
270.0
 51
90.0
  0
LINE
  5
181
100
AcDbEntity
100
AcDbLine
  8
0
 62
256
370
-1
  6
BYLAYER
 10
10.0
 20
228.0
 30
0.0
 11
10.0
 21
232.0
 31
0.0
  0
ARC
  5
182
100
AcDbEntity
  8
0
 62
256
370
-1
  6
BYLAYER
100
AcDbCircle
 10
10.0
 20
139.0000000000034106
 30
0.0
 40
3.0
100
AcDbArc
 50
270.0
 51
90.0
  0
LINE
  5
183
100
AcDbEntity
100
AcDbLine
  8
0
 62
256
370
-1
  6
BYLAYER
 10
10.0
 20
132.0000000000034106
 30
0.0
 11
10.0
 21
136.0000000000034106
 31
0.0
  0
ARC
  5
184
100
AcDbEntity
  8
0
 62
256
370
-1
  6
BYLAYER
100
AcDbCircle
 10
10.0
 20
165.0000000000034106
 30
0.0
 40
3.0
100
AcDbArc
 50
270.0
 51
90.0
  0
LINE
  5
185
100
AcDbEntity
100
AcDbLine
  8
0
 62
256
370
-1
  6
BYLAYER
 10
10.0
 20
168.0000000000034106
 30
0.0
 11
10.0
 21
172.0000000000034106
 31
0.0
  0
ARC
  5
186
100
AcDbEntity
  8
0
 62
256
370
-1
  6
BYLAYER
100
AcDbCircle
 10
10.0
 20
179.0000000000034106
 30
0.0
 40
3.0
100
AcDbArc
 50
270.0
 51
90.0
  0
LINE
  5
187
100
AcDbEntity
100
AcDbLine
  8
0
 62
256
370
-1
  6
BYLAYER
 10
10.0
 20
172.0000000000034106
 30
0.0
 11
10.0
 21
176.0000000000034106
 31
0.0
  0
ARC
  5
188
100
AcDbEntity
  8
0
 62
256
370
-1
  6
BYLAYER
100
AcDbCircle
 10
10.0
 20
205.0000000000034106
 30
0.0
 40
3.0
100
AcDbArc
 50
270.0
 51
90.0
  0
LINE
  5
189
100
AcDbEntity
100
AcDbLine
  8
0
 62
256
370
-1
  6
BYLAYER
 10
10.0
 20
208.0000000000034106
 30
0.0
 11
10.0
 21
212.0000000000034106
 31
0.0
  0
ARC
  5
18A
100
AcDbEntity
  8
0
 62
256
370
-1
  6
BYLAYER
100
AcDbCircle
 10
376.0
 20
119.0
 30
0.0
 40
3.0
100
AcDbArc
 50
270.0
 51
90.0
  0
LINE
  5
18B
100
AcDbEntity
100
AcDbLine
  8
0
 62
256
370
-1
  6
BYLAYER
 10
376.0
 20
112.0
 30
0.0
 11
376.0
 21
116.0
 31
0.0
  0
ARC
  5
18C
100
AcDbEntity
  8
0
 62
256
370
-1
  6
BYLAYER
100
AcDbCircle
 10
376.0
 20
145.0
 30
0.0
 40
3.0
100
AcDbArc
 50
270.0
 51
90.0
  0
LINE
  5
18D
100
AcDbEntity
100
AcDbLine
  8
0
 62
256
370
-1
  6
BYLAYER
 10
376.0
 20
148.0
 30
0.0
 11
376.0
 21
152.0
 31
0.0
  0
ARC
  5
18E
100
AcDbEntity
  8
0
 62
256
370
-1
  6
BYLAYER
100
AcDbCircle
 10
609.2000000000000455
 20
145.0
 30
0.0
 40
3.0
100
AcDbArc
 50
90.0
 51
270.0
  0
LINE
  5
18F
100
AcDbEntity
100
AcDbLine
  8
0
 62
256
370
-1
  6
BYLAYER
 10
609.2000000000000455
 20
148.0
 30
0.0
 11
609.2000000000000455
 21
152.0
 31
0.0
  0
ARC
  5
190
100
AcDbEntity
  8
0
 62
256
370
-1
  6
BYLAYER
100
AcDbCircle
 10
609.2000000000000455
 20
119.0
 30
0.0
 40
3.0
100
AcDbArc
 50
90.0
 51
270.0
  0
LINE
  5
191
100
AcDbEntity
100
AcDbLine
  8
0
 62
256
370
-1
  6
BYLAYER
 10
609.2000000000000455
 20
112.0
 30
0.0
 11
609.2000000000000455
 21
116.0
 31
0.0
  0
ARC
  5
192
100
AcDbEntity
  8
0
 62
256
370
-1
  6
BYLAYER
100
AcDbCircle
 10
334.4000000000000909
 20
205.0000000000034106
 30
0.0
 40
3.0
100
AcDbArc
 50
90.0
 51
270.0
  0
LINE
  5
193
100
AcDbEntity
100
AcDbLine
  8
0
 62
256
370
-1
  6
BYLAYER
 10
334.4000000000000909
 20
208.0000000000034106
 30
0.0
 11
334.4000000000000909
 21
212.0000000000034106
 31
0.0
  0
ARC
  5
194
100
AcDbEntity
  8
0
 62
256
370
-1
  6
BYLAYER
100
AcDbCircle
 10
334.4000000000000909
 20
179.0000000000034106
 30
0.0
 40
3.0
100
AcDbArc
 50
90.0
 51
270.0
  0
LINE
  5
195
100
AcDbEntity
100
AcDbLine
  8
0
 62
256
370
-1
  6
BYLAYER
 10
334.4000000000000909
 20
172.0000000000034106
 30
0.0
 11
334.4000000000000909
 21
176.0000000000034106
 31
0.0
  0
ARC
  5
196
100
AcDbEntity
  8
0
 62
256
370
-1
  6
BYLAYER
100
AcDbCircle
 10
334.4000000000000909
 20
165.0000000000034106
 30
0.0
 40
3.0
100
AcDbArc
 50
90.0
 51
270.0
  0
LINE
  5
197
100
AcDbEntity
100
AcDbLine
  8
0
 62
256
370
-1
  6
BYLAYER
 10
334.4000000000000909
 20
168.0000000000034106
 30
0.0
 11
334.4000000000000909
 21
172.0000000000034106
 31
0.0
  0
ARC
  5
198
100
AcDbEntity
  8
0
 62
256
370
-1
  6
BYLAYER
100
AcDbCircle
 10
334.4000000000000909
 20
139.0000000000034106
 30
0.0
 40
3.0
100
AcDbArc
 50
90.0
 51
270.0
  0
LINE
  5
199
100
AcDbEntity
100
AcDbLine
  8
0
 62
256
370
-1
  6
BYLAYER
 10
334.4000000000000909
 20
132.0000000000034106
 30
0.0
 11
334.4000000000000909
 21
136.0000000000034106
 31
0.0
  0
ARC
  5
19A
100
AcDbEntity
  8
0
 62
256
370
-1
  6
BYLAYER
100
AcDbCircle
 10
334.3999999999999773
 20
261.0
 30
0.0
 40
3.0
100
AcDbArc
 50
90.0
 51
270.0
  0
LINE
  5
19B
100
AcDbEntity
100
AcDbLine
  8
0
 62
256
370
-1
  6
BYLAYER
 10
334.3999999999999773
 20
264.0
 30
0.0
 11
334.3999999999999773
 21
268.0
 31
0.0
  0
ARC
  5
19C
100
AcDbEntity
  8
0
 62
256
370
-1
  6
BYLAYER
100
AcDbCircle
 10
334.3999999999999773
 20
235.0
 30
0.0
 40
3.0
100
AcDbArc
 50
90.0
 51
270.0
  0
LINE
  5
19D
100
AcDbEntity
100
AcDbLine
  8
0
 62
256
370
-1
  6
BYLAYER
 10
334.3999999999999773
 20
228.0
 30
0.0
 11
334.3999999999999773
 21
232.0
 31
0.0
  0
ARC
  5
19E
100
AcDbEntity
  8
0
 62
256
370
-1
  6
BYLAYER
100
AcDbCircle
 10
172.2000000000000455
 20
-1178.4419999995188846
 30
0.0
 40
1320.4419999995225226
100
AcDbArc
 50
82.9440997783043201
 51
97.0559002216956799
  0
ARC
  5
19F
100
AcDbEntity
  8
0
 62
256
370
-1
  6
BYLAYER
100
AcDbCircle
 10
172.2000000000000455
 20
1522.4419999995257058
 30
0.0
 40
1320.4419999995222952
100
AcDbArc
 50
262.9440997783042917
 51
277.0559002216957083
  0
LINE
  5
1A0
100
AcDbEntity
100
AcDbLine
  8
blind sockets
 62
256
370
-1
  6
BYLAYER
 10
346.0
 20
31.3000000000000682
 30
0.0
 11
326.0
 21
31.3000000000000682
 31
0.0
  0
LINE
  5
1A1
100
AcDbEntity
100
AcDbLine
  8
blind sockets
 62
256
370
-1
  6
BYLAYER
 10
326.0
 20
8.7000000000000455
 30
0.0
 11
346.0
 21
8.6999999999999318
 31
0.0
  0
LINE
  5
1A2
100
AcDbEntity
100
AcDbLine
  8
blind sockets
 62
256
370
-1
  6
BYLAYER
 10
346.0
 20
87.3000000000000682
 30
0.0
 11
326.0
 21
87.3000000000000682
 31
0.0
  0
LINE
  5
1A3
100
AcDbEntity
100
AcDbLine
  8
blind sockets
 62
256
370
-1
  6
BYLAYER
 10
326.0
 20
64.6999999999999318
 30
0.0
 11
346.0
 21
64.7000000000000455
 31
0.0
  0
LINE
  5
1A4
100
AcDbEntity
100
AcDbLine
  8
blind sockets
 62
256
370
-1
  6
BYLAYER
 10
386.0
 20
87.3000000000000682
 30
0.0
 11
366.0
 21
87.3000000000000682
 31
0.0
  0
LINE
  5
1A5
100
AcDbEntity
100
AcDbLine
  8
blind sockets
 62
256
370
-1
  6
BYLAYER
 10
366.0
 20
64.7000000000000455
 30
0.0
 11
386.0
 21
64.6999999999999318
 31
0.0
  0
LINE
  5
1A6
100
AcDbEntity
100
AcDbLine
  8
blind sockets
 62
256
370
-1
  6
BYLAYER
 10
386.0
 20
31.3000000000000682
 30
0.0
 11
366.0
 21
31.3000000000000682
 31
0.0
  0
LINE
  5
1A7
100
AcDbEntity
100
AcDbLine
  8
blind sockets
 62
256
370
-1
  6
BYLAYER
 10
366.0
 20
8.7000000000000455
 30
0.0
 11
386.0
 21
8.7000000000000455
 31
0.0
  0
ARC
  5
1A8
100
AcDbEntity
  8
blind sockets
 62
256
370
-1
  6
BYLAYER
100
AcDbCircle
 10
326.0000000000001137
 20
11.7000000000000455
 30
0.0
 40
3.0
100
AcDbArc
 50
90.0
 51
270.0
  0
ARC
  5
1A9
100
AcDbEntity
  8
blind sockets
 62
256
370
-1
  6
BYLAYER
100
AcDbCircle
 10
346.0000000000001137
 20
11.7000000000000455
 30
0.0
 40
3.0
100
AcDbArc
 50
270.0
 51
90.0
  0
ARC
  5
1AA
100
AcDbEntity
  8
blind sockets
 62
256
370
-1
  6
BYLAYER
100
AcDbCircle
 10
346.0000000000001137
 20
28.3000000000000682
 30
0.0
 40
3.0
100
AcDbArc
 50
270.0
 51
90.0
  0
ARC
  5
1AB
100
AcDbEntity
  8
blind sockets
 62
256
370
-1
  6
BYLAYER
100
AcDbCircle
 10
326.0000000000001137
 20
28.2999999999999545
 30
0.0
 40
3.0
100
AcDbArc
 50
90.0
 51
270.0
  0
LINE
  5
1AC
100
AcDbEntity
100
AcDbLine
  8
blind sockets
 62
256
370
-1
  6
BYLAYER
 10
326.0
 20
25.3000000000000682
 30
0.0
 11
326.0
 21
14.7000000000000455
 31
0.0
  0
LINE
  5
1AD
100
AcDbEntity
100
AcDbLine
  8
blind sockets
 62
256
370
-1
  6
BYLAYER
 10
346.0
 20
14.7000000000000455
 30
0.0
 11
346.0
 21
25.2999999999999545
 31
0.0
  0
ARC
  5
1AE
100
AcDbEntity
  8
blind sockets
 62
256
370
-1
  6
BYLAYER
100
AcDbCircle
 10
366.0000000000001137
 20
11.7000000000000455
 30
0.0
 40
3.0
100
AcDbArc
 50
90.0
 51
270.0
  0
ARC
  5
1AF
100
AcDbEntity
  8
blind sockets
 62
256
370
-1
  6
BYLAYER
100
AcDbCircle
 10
366.0000000000001137
 20
28.3000000000000682
 30
0.0
 40
3.0
100
AcDbArc
 50
90.0
 51
270.0
  0
LINE
  5
1B0
100
AcDbEntity
100
AcDbLine
  8
blind sockets
 62
256
370
-1
  6
BYLAYER
 10
366.0
 20
25.2999999999999545
 30
0.0
 11
366.0
 21
14.7000000000000455
 31
0.0
  0
ARC
  5
1B1
100
AcDbEntity
  8
blind sockets
 62
256
370
-1
  6
BYLAYER
100
AcDbCircle
 10
386.0000000000001137
 20
11.7000000000000455
 30
0.0
 40
3.0
100
AcDbArc
 50
270.0
 51
90.0
  0
ARC
  5
1B2
100
AcDbEntity
  8
blind sockets
 62
256
370
-1
  6
BYLAYER
100
AcDbCircle
 10
386.0000000000001137
 20
28.3000000000000682
 30
0.0
 40
3.0
100
AcDbArc
 50
270.0
 51
90.0
  0
LINE
  5
1B3
100
AcDbEntity
100
AcDbLine
  8
blind sockets
 62
256
370
-1
  6
BYLAYER
 10
386.0
 20
14.7000000000000455
 30
0.0
 11
386.0
 21
25.3000000000000682
 31
0.0
  0
ARC
  5
1B4
100
AcDbEntity
  8
blind sockets
 62
256
370
-1
  6
BYLAYER
100
AcDbCircle
 10
366.0
 20
67.7000000000000455
 30
0.0
 40
3.0
100
AcDbArc
 50
90.0
 51
270.0
  0
ARC
  5
1B5
100
AcDbEntity
  8
blind sockets
 62
256
370
-1
  6
BYLAYER
100
AcDbCircle
 10
385.9999999999998863
 20
67.7000000000000455
 30
0.0
 40
3.0
100
AcDbArc
 50
270.0
 51
90.0
  0
ARC
  5
1B6
100
AcDbEntity
  8
blind sockets
 62
256
370
-1
  6
BYLAYER
100
AcDbCircle
 10
385.9999999999999432
 20
84.3000000000000682
 30
0.0
 40
3.0
100
AcDbArc
 50
270.0
 51
90.0
  0
LINE
  5
1B7
100
AcDbEntity
100
AcDbLine
  8
blind sockets
 62
256
370
-1
  6
BYLAYER
 10
386.0
 20
70.7000000000000455
 30
0.0
 11
386.0
 21
81.3000000000000682
 31
0.0
  0
ARC
  5
1B8
100
AcDbEntity
  8
blind sockets
 62
256
370
-1
  6
BYLAYER
100
AcDbCircle
 10
366.0
 20
84.3000000000000682
 30
0.0
 40
3.0
100
AcDbArc
 50
90.0
 51
270.0
  0
LINE
  5
1B9
100
AcDbEntity
100
AcDbLine
  8
blind sockets
 62
256
370
-1
  6
BYLAYER
 10
366.0
 20
81.3000000000000682
 30
0.0
 11
366.0
 21
70.7000000000000455
 31
0.0
  0
ARC
  5
1BA
100
AcDbEntity
  8
blind sockets
 62
256
370
-1
  6
BYLAYER
100
AcDbCircle
 10
346.0
 20
67.7000000000000455
 30
0.0
 40
3.0
100
AcDbArc
 50
270.0
 51
90.0
  0
ARC
  5
1BB
100
AcDbEntity
  8
blind sockets
 62
256
370
-1
  6
BYLAYER
100
AcDbCircle
 10
346.0
 20
84.3000000000000682
 30
0.0
 40
3.0
100
AcDbArc
 50
270.0
 51
90.0
  0
LINE
  5
1BC
100
AcDbEntity
100
AcDbLine
  8
blind sockets
 62
256
370
-1
  6
BYLAYER
 10
346.0
 20
70.6999999999999318
 30
0.0
 11
346.0
 21
81.2999999999999545
 31
0.0
  0
ARC
  5
1BD
100
AcDbEntity
  8
blind sockets
 62
256
370
-1
  6
BYLAYER
100
AcDbCircle
 10
326.0
 20
84.3000000000000682
 30
0.0
 40
3.0
100
AcDbArc
 50
90.0
 51
270.0
  0
ARC
  5
1BE
100
AcDbEntity
  8
blind sockets
 62
256
370
-1
  6
BYLAYER
100
AcDbCircle
 10
326.0
 20
67.7000000000000455
 30
0.0
 40
3.0
100
AcDbArc
 50
90.0
 51
270.0
  0
LINE
  5
1BF
100
AcDbEntity
100
AcDbLine
  8
blind sockets
 62
256
370
-1
  6
BYLAYER
 10
326.0
 20
81.3000000000000682
 30
0.0
 11
326.0
 21
70.7000000000000455
 31
0.0
  0
ENDSEC
  0
SECTION
  2
OBJECTS
  0
DICTIONARY
  5
C
100
AcDbDictionary
280
0
281
1
  3
ACAD_GROUP
350
D
  3
ACAD_LAYOUT
350
1A
  3
ACAD_MLINESTYLE
350
17
  3
ACAD_PLOTSETTINGS
350
19
  3
ACAD_PLOTSTYLENAME
350
E
  3
AcDbVariableDictionary
350
1C0
  3
QCAD_OBJECTS
350
1C1
  0
DICTIONARY
  5
D
100
AcDbDictionary
280
0
281
1
  0
ACDBDICTIONARYWDFLT
  5
E
100
AcDbDictionary
281
1
  3
Normal
350
F
100
AcDbDictionaryWithDefault
340
F
  0
ACDBPLACEHOLDER
  5
F
  0
DICTIONARY
  5
17
100
AcDbDictionary
280
0
281
1
  3
Standard
350
18
  0
MLINESTYLE
  5
18
100
AcDbMlineStyle
  2
STANDARD
 70
0
  3

 62
256
 51
90.0
 52
90.0
 71
2
 49
0.5
 62
256
  6
BYLAYER
 49
-0.5
 62
256
  6
BYLAYER
  0
DICTIONARY
  5
19
100
AcDbDictionary
280
0
281
1
  0
DICTIONARY
  5
1A
100
AcDbDictionary
281
1
  3
Layout1
350
1E
  3
Layout2
350
26
  3
Model
350
22
  0
LAYOUT
  5
1E
100
AcDbPlotSettings
  1

  2
C:\Program Files\AutoCAD 2002\plotters\DWF ePlot (optimized for plotting).pc3
  4

  6

 40
0.0
 41
0.0
 42
0.0
 43
0.0
 44
0.0
 45
0.0
 46
0.0
 47
0.0
 48
0.0
 49
0.0
140
0.0
141
0.0
142
1.0
143
1.0
 70
688
 72
0
 73
0
 74
5
  7

 75
16
147
1.0
148
0.0
149
0.0
100
AcDbLayout
  1
Layout1
 70
1
 71
1
 10
0.0
 20
0.0
 11
420.0
 21
297.0
 12
0.0
 22
0.0
 32
0.0
 14
100000000000000000000.0
 24
100000000000000000000.0
 34
100000000000000000000.0
 15
-100000000000000000000.0
 25
-100000000000000000000.0
 35
-100000000000000000000.0
146
0.0
 13
0.0
 23
0.0
 33
0.0
 16
1.0
 26
0.0
 36
0.0
 17
0.0
 27
1.0
 37
0.0
 76
0
330
1B
  0
LAYOUT
  5
22
100
AcDbPlotSettings
  1

  2
C:\Program Files\AutoCAD 2002\plotters\DWF ePlot (optimized for plotting).pc3
  4

  6

 40
0.0
 41
0.0
 42
0.0
 43
0.0
 44
0.0
 45
0.0
 46
0.0
 47
0.0
 48
0.0
 49
0.0
140
0.0
141
0.0
142
1.0
143
1.0
 70
1712
 72
0
 73
0
 74
0
  7

 75
0
147
1.0
148
0.0
149
0.0
100
AcDbLayout
  1
Model
 70
1
 71
0
 10
0.0
 20
0.0
 11
12.0
 21
9.0
 12
0.0
 22
0.0
 32
0.0
 14
0.0
 24
0.0
 34
0.0
 15
0.0
 25
0.0
 35
0.0
146
0.0
 13
0.0
 23
0.0
 33
0.0
 16
1.0
 26
0.0
 36
0.0
 17
0.0
 27
1.0
 37
0.0
 76
0
330
1F
  0
LAYOUT
  5
26
100
AcDbPlotSettings
  1

  2
C:\Program Files\AutoCAD 2002\plotters\DWF ePlot (optimized for plotting).pc3
  4

  6

 40
0.0
 41
0.0
 42
0.0
 43
0.0
 44
0.0
 45
0.0
 46
0.0
 47
0.0
 48
0.0
 49
0.0
140
0.0
141
0.0
142
1.0
143
1.0
 70
688
 72
0
 73
0
 74
5
  7

 75
16
147
1.0
148
0.0
149
0.0
100
AcDbLayout
  1
Layout2
 70
1
 71
2
 10
0.0
 20
0.0
 11
12.0
 21
9.0
 12
0.0
 22
0.0
 32
0.0
 14
0.0
 24
0.0
 34
0.0
 15
0.0
 25
0.0
 35
0.0
146
0.0
 13
0.0
 23
0.0
 33
0.0
 16
1.0
 26
0.0
 36
0.0
 17
0.0
 27
1.0
 37
0.0
 76
0
330
23
  0
DICTIONARY
  5
1C0
100
AcDbDictionary
281
1
  3
DIMASSOC
350
1C3
  3
HIDETEXT
350
1C2
  0
DICTIONARYVAR
  5
1C2
100
DictionaryVariables
280
0
  1
2
  0
DICTIONARYVAR
  5
1C3
100
DictionaryVariables
280
0
  1
1
  0
DICTIONARY
  5
1C1
100
AcDbDictionary
281
1
  3
Grid/DisplayGrid00
350
1C4
  3
Grid/DisplayGrid01
350
1C5
  3
Grid/DisplayGrid02
350
1C6
  3
Grid/DisplayGrid03
350
1C7
  3
Grid/GridSpacingX00
350
1C8
  3
Grid/GridSpacingX01
350
1C9
  3
Grid/GridSpacingX02
350
1CA
  3
Grid/GridSpacingX03
350
1CB
  3
Grid/GridSpacingY00
350
1CC
  3
Grid/GridSpacingY01
350
1CD
  3
Grid/GridSpacingY02
350
1CE
  3
Grid/GridSpacingY03
350
1CF
  3
Grid/IsometricGrid00
350
1D0
  3
Grid/IsometricGrid01
350
1D1
  3
Grid/IsometricGrid02
350
1D2
  3
Grid/IsometricGrid03
350
1D3
  3
Grid/IsometricProjection00
350
1D4
  3
Grid/IsometricProjection01
350
1D5
  3
Grid/IsometricProjection02
350
1D6
  3
Grid/IsometricProjection03
350
1D7
  3
Grid/MetaGridSpacingX00
350
1D8
  3
Grid/MetaGridSpacingX01
350
1D9
  3
Grid/MetaGridSpacingX02
350
1DA
  3
Grid/MetaGridSpacingX03
350
1DB
  3
Grid/MetaGridSpacingY00
350
1DC
  3
Grid/MetaGridSpacingY01
350
1DD
  3
Grid/MetaGridSpacingY02
350
1DE
  3
Grid/MetaGridSpacingY03
350
1DF
  3
MultiPageSettings/Columns
350
1E0
  3
MultiPageSettings/GlueMarginsBottom
350
1E1
  3
MultiPageSettings/GlueMarginsLeft
350
1E2
  3
MultiPageSettings/GlueMarginsRight
350
1E3
  3
MultiPageSettings/GlueMarginsTop
350
1E4
  3
MultiPageSettings/PrintCropMarks
350
1E5
  3
MultiPageSettings/Rows
350
1E6
  3
PageSettings/OffsetX
350
1E7
  3
PageSettings/OffsetY
350
1E8
  3
PageSettings/PageOrientation
350
1E9
  3
PageSettings/PaperHeight
350
1EA
  3
PageSettings/PaperWidth
350
1EB
  3
PageSettings/Scale
350
1EC
  3
PageSettings/ShowPaperBorders
350
1ED
  3
UnitSettings/PaperUnit
350
1EE
  0
XRECORD
  5
1C4
330
1C1
100
AcDbXrecord
280
1
290
1
  0
XRECORD
  5
1C5
330
1C1
100
AcDbXrecord
280
1
290
1
  0
XRECORD
  5
1C6
330
1C1
100
AcDbXrecord
280
1
290
1
  0
XRECORD
  5
1C7
330
1C1
100
AcDbXrecord
280
1
290
1
  0
XRECORD
  5
1C8
330
1C1
100
AcDbXrecord
280
1
1000
auto
  0
XRECORD
  5
1C9
330
1C1
100
AcDbXrecord
280
1
1000
auto
  0
XRECORD
  5
1CA
330
1C1
100
AcDbXrecord
280
1
1000
auto
  0
XRECORD
  5
1CB
330
1C1
100
AcDbXrecord
280
1
1000
auto
  0
XRECORD
  5
1CC
330
1C1
100
AcDbXrecord
280
1
1000
auto
  0
XRECORD
  5
1CD
330
1C1
100
AcDbXrecord
280
1
1000
auto
  0
XRECORD
  5
1CE
330
1C1
100
AcDbXrecord
280
1
1000
auto
  0
XRECORD
  5
1CF
330
1C1
100
AcDbXrecord
280
1
1000
auto
  0
XRECORD
  5
1D0
330
1C1
100
AcDbXrecord
280
1
290
0
  0
XRECORD
  5
1D1
330
1C1
100
AcDbXrecord
280
1
290
0
  0
XRECORD
  5
1D2
330
1C1
100
AcDbXrecord
280
1
290
0
  0
XRECORD
  5
1D3
330
1C1
100
AcDbXrecord
280
1
290
0
  0
XRECORD
  5
1D4
330
1C1
100
AcDbXrecord
280
1
 90
0
  0
XRECORD
  5
1D5
330
1C1
100
AcDbXrecord
280
1
 90
0
  0
XRECORD
  5
1D6
330
1C1
100
AcDbXrecord
280
1
 90
0
  0
XRECORD
  5
1D7
330
1C1
100
AcDbXrecord
280
1
 90
0
  0
XRECORD
  5
1D8
330
1C1
100
AcDbXrecord
280
1
1000
auto
  0
XRECORD
  5
1D9
330
1C1
100
AcDbXrecord
280
1
1000
auto
  0
XRECORD
  5
1DA
330
1C1
100
AcDbXrecord
280
1
1000
auto
  0
XRECORD
  5
1DB
330
1C1
100
AcDbXrecord
280
1
1000
auto
  0
XRECORD
  5
1DC
330
1C1
100
AcDbXrecord
280
1
1000
auto
  0
XRECORD
  5
1DD
330
1C1
100
AcDbXrecord
280
1
1000
auto
  0
XRECORD
  5
1DE
330
1C1
100
AcDbXrecord
280
1
1000
auto
  0
XRECORD
  5
1DF
330
1C1
100
AcDbXrecord
280
1
1000
auto
  0
XRECORD
  5
1E0
330
1C1
100
AcDbXrecord
280
1
 90
1
  0
XRECORD
  5
1E1
330
1C1
100
AcDbXrecord
280
1
 40
10.0
  0
XRECORD
  5
1E2
330
1C1
100
AcDbXrecord
280
1
 40
10.0
  0
XRECORD
  5
1E3
330
1C1
100
AcDbXrecord
280
1
 40
10.0
  0
XRECORD
  5
1E4
330
1C1
100
AcDbXrecord
280
1
 40
10.0
  0
XRECORD
  5
1E5
330
1C1
100
AcDbXrecord
280
1
290
0
  0
XRECORD
  5
1E6
330
1C1
100
AcDbXrecord
280
1
 90
1
  0
XRECORD
  5
1E7
330
1C1
100
AcDbXrecord
280
1
 40
0.0
  0
XRECORD
  5
1E8
330
1C1
100
AcDbXrecord
280
1
 40
0.0
  0
XRECORD
  5
1E9
330
1C1
100
AcDbXrecord
280
1
1000
Portrait
  0
XRECORD
  5
1EA
330
1C1
100
AcDbXrecord
280
1
 40
420.0
  0
XRECORD
  5
1EB
330
1C1
100
AcDbXrecord
280
1
 40
297.0
  0
XRECORD
  5
1EC
330
1C1
100
AcDbXrecord
280
1
1000
1:1
  0
XRECORD
  5
1ED
330
1C1
100
AcDbXrecord
280
1
290
1
  0
XRECORD
  5
1EE
330
1C1
100
AcDbXrecord
280
1
 90
4
  0
ENDSEC
  0
EOF
