<?xml version="1.0" encoding="UTF-8"?>
<!-- 2015-02-16 23:56:18 Generated by QCAD SVG Exporter -->
<svg width="342mm" height="272.0000000000001mm" viewBox="0 -272 342 272.0000000000001" version="1.1" xmlns="http://www.w3.org/2000/svg" style="stroke-linecap:round;stroke-linejoin:round;fill:none" xmlns:sodipodi="http://sodipodi.sourceforge.net/DTD/sodipodi-0.dtd" xmlns:inkscape="http://www.inkscape.org/namespaces/inkscape">
    <sodipodi:namedview inkscape:document-units="mm" unitToSymbol="mm" units="mm"/>
    <g transform="scale(1,-1)">
        <!-- Arc -->
        <path d="M172.9999999999999,132 A1,1 0 0,1 171.9999999999999,131 " style="stroke:#000000;stroke-width:1e-9;"/>
        <!-- Line -->
        <path d="M171.9999999999999,131 L171.9999999999999,3.999999999999994 " style="stroke:#000000;stroke-width:1e-9;"/>
        <!-- Line -->
        <path d="M340.9999999999999,132 L282.3,132 " style="stroke:#000000;stroke-width:1e-9;"/>
        <!-- Arc -->
        <path d="M171.9999999999999,3.999999999999994 A1,1 0 0,1 172.9999999999999,2.999999999999994 " style="stroke:#000000;stroke-width:1e-9;"/>
        <!-- Line -->
        <path d="M172.9999999999999,2.999999999999994 L191.7,2.999999999999994 " style="stroke:#000000;stroke-width:1e-9;"/>
        <!-- Line -->
        <path d="M282.3,132 L282.3,134 " style="stroke:#000000;stroke-width:1e-9;"/>
        <!-- Line -->
        <path d="M203.7,132 L203.7,134 " style="stroke:#000000;stroke-width:1e-9;"/>
        <!-- Line -->
        <path d="M191.7,2.999999999999994 L191.7,0.9999999999999942 " style="stroke:#000000;stroke-width:1e-9;"/>
        <!-- Line -->
        <path d="M310.3,2.999999999999994 L310.3,0.9999999999999942 " style="stroke:#000000;stroke-width:1e-9;"/>
        <!-- Line -->
        <path d="M191.7,132 L172.9999999999999,132 " style="stroke:#000000;stroke-width:1e-9;"/>
        <!-- Line -->
        <path d="M270.3,132 L203.7,132 " style="stroke:#000000;stroke-width:1e-9;"/>
        <!-- Line -->
        <path d="M203.7,2.999999999999994 L310.3,2.999999999999994 " style="stroke:#000000;stroke-width:1e-9;"/>
        <!-- Line -->
        <path d="M322.3,2.999999999999994 L340.9999999999999,2.999999999999994 " style="stroke:#000000;stroke-width:1e-9;"/>
        <!-- Arc -->
        <path d="M202.7,-5.773159728050814e-15 A1,1 0 0,1 203.7,0.9999999999999942 " style="stroke:#000000;stroke-width:1e-9;"/>
        <!-- Line -->
        <path d="M203.7,0.9999999999999942 L203.7,2.999999999999994 " style="stroke:#000000;stroke-width:1e-9;"/>
        <!-- Arc -->
        <path d="M310.3,0.9999999999999943 A1,1 0 0,1 311.3,-5.773159728050814e-15 " style="stroke:#000000;stroke-width:1e-9;"/>
        <!-- Arc -->
        <path d="M321.3,-5.773159728050814e-15 A1,1 0 0,1 322.3,0.9999999999999942 " style="stroke:#000000;stroke-width:1e-9;"/>
        <!-- Line -->
        <path d="M311.3,-5.8e-15 L321.3,-5.8e-15 " style="stroke:#000000;stroke-width:1e-9;"/>
        <!-- Line -->
        <path d="M322.3,0.9999999999999942 L322.3,2.999999999999994 " style="stroke:#000000;stroke-width:1e-9;"/>
        <!-- Arc -->
        <path d="M192.7,135 A1,1 0 0,1 191.7,134 " style="stroke:#000000;stroke-width:1e-9;"/>
        <!-- Arc -->
        <path d="M203.7,134 A1,1 0 0,1 202.7,135 " style="stroke:#000000;stroke-width:1e-9;"/>
        <!-- Line -->
        <path d="M202.7,135 L192.7,135 " style="stroke:#000000;stroke-width:1e-9;"/>
        <!-- Line -->
        <path d="M191.7,134 L191.7,132 " style="stroke:#000000;stroke-width:1e-9;"/>
        <!-- Arc -->
        <path d="M271.3,135 A1,1 0 0,1 270.3,134 " style="stroke:#000000;stroke-width:1e-9;"/>
        <!-- Arc -->
        <path d="M282.3,134 A1,1 0 0,1 281.3,135 " style="stroke:#000000;stroke-width:1e-9;"/>
        <!-- Line -->
        <path d="M281.3,135 L271.3,135 " style="stroke:#000000;stroke-width:1e-9;"/>
        <!-- Line -->
        <path d="M270.3,134 L270.3,132 " style="stroke:#000000;stroke-width:1e-9;"/>
        <!-- Arc -->
        <path d="M191.7,0.9999999999999943 A1,1 0 0,1 192.7,-5.773159728050814e-15 " style="stroke:#000000;stroke-width:1e-9;"/>
        <!-- Line -->
        <path d="M192.7,-5.8e-15 L202.7,-5.8e-15 " style="stroke:#000000;stroke-width:1e-9;"/>
        <!-- Arc -->
        <path d="M341.9999999999999,131 A1,1 0 0,1 340.9999999999999,132 " style="stroke:#000000;stroke-width:1e-9;"/>
        <!-- Arc -->
        <path d="M340.9999999999999,87 A1,1 0 0,1 341.9999999999999,88 " style="stroke:#000000;stroke-width:1e-9;"/>
        <!-- Line -->
        <path d="M301.9999999999999,87 L340.9999999999999,87 " style="stroke:#000000;stroke-width:1e-9;"/>
        <!-- Text: SATA -->
        <g>
            <path d="M306.5651231140207,109.32505076016236 L306.5651231140207,108.66020527551359 C306.3923441202898,108.73733274055137 306.22385934131535,108.79551514048707 306.0596687770974,108.8347524753207 C305.8954782128794,108.87398981015431 305.7404654801998,108.89360847757114 305.5946305790585,108.89360847757114 C305.40096991357063,108.89360847757114 305.2578294216883,108.86700118613889 305.1652091034115,108.8137866032744 C305.0725887851347,108.76057202040991 305.02627862599627,108.67771893569683 305.02627862599627,108.56522734913518 C305.02627862599627,108.48102705979264 305.05751693334236,108.41543503439479 305.11999354803453,108.36845127294166 C305.1824701627267,108.3214675114885 305.29571955189243,108.28113557289343 305.4597417155317,108.2474554571564 L305.8052997029936,108.17773761758077 C306.15456250318647,108.10768297684778 306.40286915645765,108.00108541054011 306.5502196628071,107.85794491865778 C306.69757016915656,107.71480442677544 306.7712454223313,107.51137652772384 306.7712454223313,107.24766122150298 C306.7712454223313,106.90075602941167 306.66843686904406,106.6427663428661 306.4628197624695,106.47369216186627 C306.257202655895,106.30461798086642 305.94321977693664,106.2200808903665 305.5208711255944,106.2200808903665 C305.32148484043125,106.2200808903665 305.1215091532427,106.23902595546858 304.92094406402873,106.27691608567272 C304.7203789748148,106.31480621587687 304.5197296853115,106.37096780886836 304.3189961955189,106.44540086464717 L304.3189961955189,107.12944401526603 C304.5197296853115,107.02301484953705 304.71372715195673,106.94277197379361 304.9009885954546,106.88871538803569 C305.0882500389524,106.83465880227777 305.2689438598815,106.80763050939882 305.4430700582419,106.80763050939882 C305.61989066586125,106.80763050939882 305.7552847311241,106.8371006106687 305.8492522540304,106.89604081320849 C305.94321977693664,106.95498101574827 305.9902035383898,107.03918130509082 305.9902035383898,107.14864168123614 C305.9902035383898,107.24665081803087 305.95829162872894,107.32234687814982 305.89446780940733,107.37572986159299 C305.83064399008566,107.42911284503617 305.7032489523104,107.47685440909339 305.51228269608146,107.51895455376467 L305.1990576197272,107.5886723933403 C304.88448533874345,107.65603262481434 304.6546185488383,107.7633879937261 304.50945725001174,107.91073850007555 C304.36429595118517,108.05808900642502 304.2917153017719,108.2567174889841 304.2917153017719,108.50662394775277 C304.2917153017719,108.81951222294968 304.3927556489829,109.0601566498907 304.59483634340506,109.2285572285758 C304.7969170378272,109.39695780726089 305.087408036059,109.48115809660344 305.4663093381005,109.48115809660344 C305.63875153067397,109.48115809660344 305.8162457406081,109.46819125204469 305.9987919679027,109.44225756292718 C306.1813381951974,109.41632387380967 306.3701152439034,109.37725493955473 306.5651231140207,109.32505076016236 M309.3892008185698,106.85360386737985 L308.1216496628071,106.85360386737985 L307.9215897753292,106.2812103004292 L307.10720457680804,106.2812103004292 L308.27118937667944,109.4240703004292 L309.2376402977532,109.4240703004292 L310.4016250976247,106.2812103004292 L309.58673469736743,106.2812103004292 Z M308.32373035722924,107.43711187252372 L309.18459411546746,107.43711187252372 L308.75517263982044,108.68748616926057 Z M310.1141653098092,109.4240703004292 L313.0104868626142,109.4240703004292 L313.0104868626142,108.81176579633018 L311.9687608828682,108.81176579633018 L311.9687608828682,106.2812103004292 L311.15791209649944,106.2812103004292 L311.15791209649944,108.81176579633018 L310.1141653098092,108.81176579633018 Z M315.0151273512816,106.85360386737985 L313.7475761955189,106.85360386737985 L313.547516308041,106.2812103004292 L312.73313110951983,106.2812103004292 L313.89711590939123,109.4240703004292 L314.863566830465,109.4240703004292 L316.0275516303364,106.2812103004292 L315.2126612300792,106.2812103004292 Z M313.94965688994097,107.43711187252372 L314.8105206481792,107.43711187252372 L314.38109917253223,108.68748616926057 Z" style="fill:#ffff00;fill-rule:evenodd;"/>
        </g>
        <!-- Line -->
        <path d="M301.9999999999999,28.99999999999999 L341,28.99999999999999 " style="stroke:#000000;stroke-width:1e-9;"/>
        <!-- Line -->
        <path d="M301.9999999999999,28.99999999999999 L301.9999999999999,87 " style="stroke:#000000;stroke-width:1e-9;"/>
        <!-- Line -->
        <path d="M341.9999999999999,3.999999999999994 L341.9999999999999,27.99999999999999 " style="stroke:#000000;stroke-width:1e-9;"/>
        <!-- Arc -->
        <path d="M340.9999999999999,2.999999999999994 A1,1 0 0,1 341.9999999999999,3.999999999999994 " style="stroke:#000000;stroke-width:1e-9;"/>
        <!-- Arc -->
        <path d="M342,27.99999999999999 A1,1 0 0,1 341,28.99999999999999 " style="stroke:#000000;stroke-width:1e-9;"/>
        <!-- Line -->
        <path d="M341.9999999999999,88 L341.9999999999999,131 " style="stroke:#000000;stroke-width:1e-9;"/>
        <!-- Line -->
        <path d="M39.99999999999991,65.9999999999999 L36.99999999999991,66 " style="stroke:#ff0000;stroke-width:1e-9;"/>
        <!-- Line -->
        <path d="M36.99999999999991,66 L36.99999999999989,53.99999999999997 " style="stroke:#ff0000;stroke-width:1e-9;"/>
        <!-- Line -->
        <path d="M36.99999999999989,53.99999999999997 L39.99999999999991,53.99999999999999 " style="stroke:#ff0000;stroke-width:1e-9;"/>
        <!-- Line -->
        <path d="M39.99999999999991,53.99999999999999 L39.99999999999991,65.9999999999999 " style="stroke:#ff0000;stroke-width:1e-9;"/>
        <!-- Line -->
        <path d="M39.99999999999994,100 L36.99999999999994,100 " style="stroke:#ff0000;stroke-width:1e-9;"/>
        <!-- Line -->
        <path d="M36.99999999999994,100 L36.99999999999994,88 " style="stroke:#ff0000;stroke-width:1e-9;"/>
        <!-- Line -->
        <path d="M36.99999999999994,88 L39.99999999999994,88.00000000000001 " style="stroke:#ff0000;stroke-width:1e-9;"/>
        <!-- Line -->
        <path d="M39.99999999999994,88.00000000000001 L39.99999999999994,100 " style="stroke:#ff0000;stroke-width:1e-9;"/>
        <!-- Line -->
        <path d="M138.3,132 L31.70000000000002,132.0000000000001 " style="stroke:#000000;stroke-width:1e-9;"/>
        <!-- Line -->
        <path d="M19.69999999999996,132 L1.000000000000028,132 " style="stroke:#000000;stroke-width:1e-9;"/>
        <!-- Arc -->
        <path d="M139.3,135 A1,1 0 0,1 138.3,134 " style="stroke:#000000;stroke-width:1e-9;"/>
        <!-- Line -->
        <path d="M138.3,134 L138.3,132 " style="stroke:#000000;stroke-width:1e-9;"/>
        <!-- Arc -->
        <path d="M31.70000000000005,134.0000000000001 A1,1 0 0,1 30.70000000000005,135.0000000000001 " style="stroke:#000000;stroke-width:1e-9;"/>
        <!-- Arc -->
        <path d="M20.69999999999996,135 A1,1 0 0,1 19.69999999999996,134 " style="stroke:#000000;stroke-width:1e-9;"/>
        <!-- Line -->
        <path d="M30.70000000000005,135 L20.70000000000002,135.0000000000001 " style="stroke:#000000;stroke-width:1e-9;"/>
        <!-- Line -->
        <path d="M19.69999999999996,134 L19.69999999999996,132 " style="stroke:#000000;stroke-width:1e-9;"/>
        <!-- Arc -->
        <path d="M149.3,-1.120215031846783e-13 A1,1 0 0,1 150.3,0.999999999999888 " style="stroke:#000000;stroke-width:1e-9;"/>
        <!-- Arc -->
        <path d="M138.3,1.0000000000000013 A1,1 0 0,1 139.3,1.1102230246251565e-15 " style="stroke:#000000;stroke-width:1e-9;"/>
        <!-- Line -->
        <path d="M139.3,-2e-15 L149.3,-3.2e-15 " style="stroke:#000000;stroke-width:1e-9;"/>
        <!-- Line -->
        <path d="M150.3,0.9999999999999973 L150.3,2.999999999999881 " style="stroke:#000000;stroke-width:1e-9;"/>
        <!-- Arc -->
        <path d="M70.69999999999996,3.9968028886505635e-15 A1,1 0 0,1 71.69999999999996,1.000000000000004 " style="stroke:#000000;stroke-width:1e-9;"/>
        <!-- Arc -->
        <path d="M59.69999999999996,0.9999999999999898 A1,1 0 0,1 60.69999999999996,-1.0325074129013956e-14 " style="stroke:#000000;stroke-width:1e-9;"/>
        <!-- Line -->
        <path d="M60.69999999999996,7.6e-15 L70.69999999999996,6.4e-15 " style="stroke:#000000;stroke-width:1e-9;"/>
        <!-- Line -->
        <path d="M71.69999999999996,0.9999999999999725 L71.69999999999996,3.000000000000006 " style="stroke:#000000;stroke-width:1e-9;"/>
        <!-- Arc -->
        <path d="M150.3,134 A1,1 0 0,1 149.3,135 " style="stroke:#000000;stroke-width:1e-9;"/>
        <!-- Line -->
        <path d="M149.3,134.9999999999999 L139.3,135 " style="stroke:#000000;stroke-width:1e-9;"/>
        <!-- Arc -->
        <path d="M168.9999999999999,2.999999999999994 A1,1 0 0,1 169.9999999999999,3.999999999999994 " style="stroke:#000000;stroke-width:1e-9;"/>
        <!-- Line -->
        <path d="M170,3.999999999999881 L170,131 " style="stroke:#000000;stroke-width:1e-9;"/>
        <!-- Arc -->
        <path d="M0,3.999999999999951 A1,1 0 0,1 0.9999999999999998,2.999999999999951 " style="stroke:#000000;stroke-width:1e-9;"/>
        <!-- Line -->
        <path d="M1,3 L59.69999999999997,3.000000000000008 " style="stroke:#000000;stroke-width:1e-9;"/>
        <!-- Arc -->
        <path d="M1.000000000000028,132 A1,1 0 0,1 2.7977620220553945e-14,131 " style="stroke:#000000;stroke-width:1e-9;"/>
        <!-- Line -->
        <path d="M5.68e-14,131 L2.84e-14,4.000000000000037 " style="stroke:#000000;stroke-width:1e-9;"/>
        <!-- Arc -->
        <path d="M170.0000000000009,131 A1,1 0 0,1 169.0000000000009,132 " style="stroke:#000000;stroke-width:1e-9;"/>
        <!-- Line -->
        <path d="M169.0000000000006,131.9999999999999 L150.3,132 " style="stroke:#000000;stroke-width:1e-9;"/>
        <!-- Line -->
        <path d="M59.69999999999997,3.000000000000008 L59.69999999999996,0.9999999999999777 " style="stroke:#000000;stroke-width:1e-9;"/>
        <!-- Line -->
        <path d="M138.3,2.999999999999994 L138.3,0.9999999999999987 " style="stroke:#000000;stroke-width:1e-9;"/>
        <!-- Line -->
        <path d="M150.3,132 L150.3,134 " style="stroke:#000000;stroke-width:1e-9;"/>
        <!-- Line -->
        <path d="M31.70000000000002,132.0000000000001 L31.70000000000002,134.0000000000001 " style="stroke:#000000;stroke-width:1e-9;"/>
        <!-- Line -->
        <path d="M150.3,2.999999999999881 L169,2.999999999999994 " style="stroke:#000000;stroke-width:1e-9;"/>
        <!-- Line -->
        <path d="M71.69999999999996,3.000000000000006 L138.3,2.999999999999994 " style="stroke:#000000;stroke-width:1e-9;"/>
        <!-- Arc -->
        <path d="M321.3,137 A1,1 0 0,1 322.3,138 " style="stroke:#000000;stroke-width:1e-9;"/>
        <!-- Line -->
        <path d="M311.3,137 L321.3,137 " style="stroke:#000000;stroke-width:1e-9;"/>
        <!-- Line -->
        <path d="M322.3,138 L322.3,140 " style="stroke:#000000;stroke-width:1e-9;"/>
        <!-- Arc -->
        <path d="M192.7,272 A1,1 0 0,1 191.7,271 " style="stroke:#000000;stroke-width:1e-9;"/>
        <!-- Arc -->
        <path d="M203.7,271 A1,1 0 0,1 202.7,272 " style="stroke:#000000;stroke-width:1e-9;"/>
        <!-- Line -->
        <path d="M202.7,272 L192.7,272 " style="stroke:#000000;stroke-width:1e-9;"/>
        <!-- Line -->
        <path d="M191.7,271 L191.7,269 " style="stroke:#000000;stroke-width:1e-9;"/>
        <!-- Arc -->
        <path d="M271.3,272 A1,1 0 0,1 270.3,271 " style="stroke:#000000;stroke-width:1e-9;"/>
        <!-- Arc -->
        <path d="M282.3,271 A1,1 0 0,1 281.3,272 " style="stroke:#000000;stroke-width:1e-9;"/>
        <!-- Line -->
        <path d="M281.3,272 L271.3,272 " style="stroke:#000000;stroke-width:1e-9;"/>
        <!-- Line -->
        <path d="M270.3,271 L270.3,269 " style="stroke:#000000;stroke-width:1e-9;"/>
        <!-- Arc -->
        <path d="M191.7,138 A1,1 0 0,1 192.7,137 " style="stroke:#000000;stroke-width:1e-9;"/>
        <!-- Line -->
        <path d="M192.7,137 L202.7,137 " style="stroke:#000000;stroke-width:1e-9;"/>
        <!-- Arc -->
        <path d="M341.9999999999999,268 A1,1 0 0,1 340.9999999999999,269 " style="stroke:#000000;stroke-width:1e-9;"/>
        <!-- Arc -->
        <path d="M340.9999999999999,224 A1,1 0 0,1 341.9999999999999,225 " style="stroke:#000000;stroke-width:1e-9;"/>
        <!-- Line -->
        <path d="M301.9999999999999,224 L340.9999999999999,224 " style="stroke:#000000;stroke-width:1e-9;"/>
        <!-- Text: SATA -->
        <g>
            <path d="M306.5651231140207,246.32505076016236 L306.5651231140207,245.6602052755136 C306.3923441202898,245.73733274055135 306.22385934131535,245.79551514048705 306.0596687770974,245.8347524753207 C305.8954782128794,245.8739898101543 305.7404654801998,245.89360847757112 305.5946305790585,245.89360847757112 C305.40096991357063,245.89360847757112 305.2578294216883,245.86700118613888 305.1652091034115,245.8137866032744 C305.0725887851347,245.7605720204099 305.02627862599627,245.67771893569684 305.02627862599627,245.5652273491352 C305.02627862599627,245.48102705979264 305.05751693334236,245.4154350343948 305.11999354803453,245.36845127294166 C305.1824701627267,245.32146751148852 305.29571955189243,245.28113557289342 305.4597417155317,245.2474554571564 L305.8052997029936,245.1777376175808 C306.15456250318647,245.10768297684777 306.40286915645765,245.0010854105401 306.5502196628071,244.85794491865778 C306.69757016915656,244.71480442677543 306.7712454223313,244.51137652772385 306.7712454223313,244.24766122150297 C306.7712454223313,243.90075602941167 306.66843686904406,243.6427663428661 306.4628197624695,243.47369216186627 C306.257202655895,243.30461798086642 305.94321977693664,243.2200808903665 305.5208711255944,243.2200808903665 C305.32148484043125,243.2200808903665 305.1215091532427,243.23902595546858 304.92094406402873,243.27691608567272 C304.7203789748148,243.31480621587687 304.5197296853115,243.37096780886836 304.3189961955189,243.44540086464716 L304.3189961955189,244.12944401526605 C304.5197296853115,244.02301484953705 304.71372715195673,243.9427719737936 304.9009885954546,243.88871538803568 C305.0882500389524,243.83465880227777 305.2689438598815,243.80763050939882 305.4430700582419,243.80763050939882 C305.61989066586125,243.80763050939882 305.7552847311241,243.8371006106687 305.8492522540304,243.8960408132085 C305.94321977693664,243.95498101574827 305.9902035383898,244.03918130509084 305.9902035383898,244.14864168123614 C305.9902035383898,244.24665081803087 305.95829162872894,244.32234687814983 305.89446780940733,244.375729861593 C305.83064399008566,244.42911284503617 305.7032489523104,244.4768544090934 305.51228269608146,244.51895455376467 L305.1990576197272,244.5886723933403 C304.88448533874345,244.65603262481434 304.6546185488383,244.7633879937261 304.50945725001174,244.91073850007555 C304.36429595118517,245.058089006425 304.2917153017719,245.2567174889841 304.2917153017719,245.5066239477528 C304.2917153017719,245.8195122229497 304.3927556489829,246.0601566498907 304.59483634340506,246.2285572285758 C304.7969170378272,246.3969578072609 305.087408036059,246.48115809660345 305.4663093381005,246.48115809660345 C305.63875153067397,246.48115809660345 305.8162457406081,246.46819125204468 305.9987919679027,246.44225756292718 C306.1813381951974,246.4163238738097 306.3701152439034,246.37725493955475 306.5651231140207,246.32505076016236 M309.3892008185698,243.85360386737983 L308.1216496628071,243.85360386737983 L307.9215897753292,243.2812103004292 L307.10720457680804,243.2812103004292 L308.27118937667944,246.4240703004292 L309.2376402977532,246.4240703004292 L310.4016250976247,243.2812103004292 L309.58673469736743,243.2812103004292 Z M308.32373035722924,244.4371118725237 L309.18459411546746,244.4371118725237 L308.75517263982044,245.68748616926058 Z M310.1141653098092,246.4240703004292 L313.0104868626142,246.4240703004292 L313.0104868626142,245.81176579633018 L311.9687608828682,245.81176579633018 L311.9687608828682,243.2812103004292 L311.15791209649944,243.2812103004292 L311.15791209649944,245.81176579633018 L310.1141653098092,245.81176579633018 Z M315.0151273512816,243.85360386737983 L313.7475761955189,243.85360386737983 L313.547516308041,243.2812103004292 L312.73313110951983,243.2812103004292 L313.89711590939123,246.4240703004292 L314.863566830465,246.4240703004292 L316.0275516303364,243.2812103004292 L315.2126612300792,243.2812103004292 Z M313.94965688994097,244.4371118725237 L314.8105206481792,244.4371118725237 L314.38109917253223,245.68748616926058 Z" style="fill:#ffff00;fill-rule:evenodd;"/>
        </g>
        <!-- Line -->
        <path d="M301.9999999999999,166 L341,166 " style="stroke:#000000;stroke-width:1e-9;"/>
        <!-- Line -->
        <path d="M301.9999999999999,166 L301.9999999999999,224 " style="stroke:#000000;stroke-width:1e-9;"/>
        <!-- Line -->
        <path d="M341.9999999999999,141 L341.9999999999999,165 " style="stroke:#000000;stroke-width:1e-9;"/>
        <!-- Arc -->
        <path d="M340.9999999999999,140 A1,1 0 0,1 341.9999999999999,141 " style="stroke:#000000;stroke-width:1e-9;"/>
        <!-- Arc -->
        <path d="M342,165 A1,1 0 0,1 341,166 " style="stroke:#000000;stroke-width:1e-9;"/>
        <!-- Line -->
        <path d="M341.9999999999999,225 L341.9999999999999,268 " style="stroke:#000000;stroke-width:1e-9;"/>
        <!-- Arc -->
        <path d="M172.9999999999999,269 A1,1 0 0,1 171.9999999999999,268 " style="stroke:#000000;stroke-width:1e-9;"/>
        <!-- Line -->
        <path d="M171.9999999999999,268 L171.9999999999999,141 " style="stroke:#000000;stroke-width:1e-9;"/>
        <!-- Line -->
        <path d="M340.9999999999999,269 L282.3,269 " style="stroke:#000000;stroke-width:1e-9;"/>
        <!-- Arc -->
        <path d="M171.9999999999999,141 A1,1 0 0,1 172.9999999999999,140 " style="stroke:#000000;stroke-width:1e-9;"/>
        <!-- Line -->
        <path d="M172.9999999999999,140 L191.7,140 " style="stroke:#000000;stroke-width:1e-9;"/>
        <!-- Line -->
        <path d="M282.3,269 L282.3,271 " style="stroke:#000000;stroke-width:1e-9;"/>
        <!-- Line -->
        <path d="M203.7,269 L203.7,271 " style="stroke:#000000;stroke-width:1e-9;"/>
        <!-- Line -->
        <path d="M191.7,140 L191.7,138 " style="stroke:#000000;stroke-width:1e-9;"/>
        <!-- Line -->
        <path d="M310.3,140 L310.3,138 " style="stroke:#000000;stroke-width:1e-9;"/>
        <!-- Line -->
        <path d="M191.7,269 L172.9999999999999,269 " style="stroke:#000000;stroke-width:1e-9;"/>
        <!-- Line -->
        <path d="M270.3,269 L203.7,269 " style="stroke:#000000;stroke-width:1e-9;"/>
        <!-- Line -->
        <path d="M203.7,140 L310.3,140 " style="stroke:#000000;stroke-width:1e-9;"/>
        <!-- Line -->
        <path d="M322.3,140 L340.9999999999999,140 " style="stroke:#000000;stroke-width:1e-9;"/>
        <!-- Arc -->
        <path d="M202.7,137 A1,1 0 0,1 203.7,138 " style="stroke:#000000;stroke-width:1e-9;"/>
        <!-- Line -->
        <path d="M203.7,138 L203.7,140 " style="stroke:#000000;stroke-width:1e-9;"/>
        <!-- Arc -->
        <path d="M310.3,138 A1,1 0 0,1 311.3,137 " style="stroke:#000000;stroke-width:1e-9;"/>
        <!-- Arc -->
        <path d="M149.3,137 A1,1 0 0,1 150.3,138 " style="stroke:#000000;stroke-width:1e-9;"/>
        <!-- Line -->
        <path d="M139.3,137 L149.3,137 " style="stroke:#000000;stroke-width:1e-9;"/>
        <!-- Line -->
        <path d="M150.3,138 L150.3,140 " style="stroke:#000000;stroke-width:1e-9;"/>
        <!-- Arc -->
        <path d="M20.70000000000005,272 A1,1 0 0,1 19.70000000000005,271 " style="stroke:#000000;stroke-width:1e-9;"/>
        <!-- Arc -->
        <path d="M31.70000000000005,271 A1,1 0 0,1 30.70000000000005,272 " style="stroke:#000000;stroke-width:1e-9;"/>
        <!-- Line -->
        <path d="M30.70000000000005,272 L20.70000000000005,272 " style="stroke:#000000;stroke-width:1e-9;"/>
        <!-- Line -->
        <path d="M19.70000000000005,271 L19.70000000000005,269 " style="stroke:#000000;stroke-width:1e-9;"/>
        <!-- Arc -->
        <path d="M99.30000000000004,272 A1,1 0 0,1 98.30000000000004,271 " style="stroke:#000000;stroke-width:1e-9;"/>
        <!-- Arc -->
        <path d="M110.3,271 A1,1 0 0,1 109.3,272 " style="stroke:#000000;stroke-width:1e-9;"/>
        <!-- Line -->
        <path d="M109.3,272 L99.30000000000004,272 " style="stroke:#000000;stroke-width:1e-9;"/>
        <!-- Line -->
        <path d="M98.30000000000004,271 L98.30000000000004,269 " style="stroke:#000000;stroke-width:1e-9;"/>
        <!-- Arc -->
        <path d="M19.70000000000005,138 A1,1 0 0,1 20.70000000000005,137 " style="stroke:#000000;stroke-width:1e-9;"/>
        <!-- Line -->
        <path d="M20.70000000000005,137 L30.70000000000005,137 " style="stroke:#000000;stroke-width:1e-9;"/>
        <!-- Arc -->
        <path d="M170,268 A1,1 0 0,1 169,269 " style="stroke:#000000;stroke-width:1e-9;"/>
        <!-- Arc -->
        <path d="M169,224 A1,1 0 0,1 170,225 " style="stroke:#000000;stroke-width:1e-9;"/>
        <!-- Line -->
        <path d="M130,224 L169,224 " style="stroke:#000000;stroke-width:1e-9;"/>
        <!-- Text: SATA -->
        <g>
            <path d="M134.56512311402085,246.32505076016236 L134.56512311402085,245.6602052755136 C134.39234412028992,245.73733274055135 134.2238593413155,245.79551514048705 134.0596687770975,245.8347524753207 C133.89547821287954,245.8739898101543 133.7404654801999,245.89360847757112 133.59463057905862,245.89360847757112 C133.40096991357075,245.89360847757112 133.25782942168843,245.86700118613888 133.1652091034116,245.8137866032744 C133.0725887851348,245.7605720204099 133.0262786259964,245.67771893569684 133.0262786259964,245.5652273491352 C133.0262786259964,245.48102705979264 133.0575169333425,245.4154350343948 133.11999354803467,245.36845127294166 C133.18247016272684,245.32146751148852 133.29571955189257,245.28113557289342 133.45974171553183,245.2474554571564 L133.80529970299366,245.1777376175808 C134.15456250318655,245.10768297684777 134.40286915645774,245.0010854105401 134.5502196628072,244.85794491865778 C134.69757016915668,244.71480442677543 134.7712454223314,244.51137652772385 134.7712454223314,244.24766122150297 C134.7712454223314,243.90075602941167 134.66843686904414,243.6427663428661 134.46281976246965,243.47369216186627 C134.25720265589513,243.30461798086642 133.94321977693676,243.2200808903665 133.52087112559454,243.2200808903665 C133.32148484043137,243.2200808903665 133.1215091532428,243.23902595546858 132.92094406402887,243.27691608567272 C132.7203789748149,243.31480621587687 132.51972968531163,243.37096780886836 132.318996195519,243.44540086464716 L132.318996195519,244.12944401526605 C132.51972968531163,244.02301484953705 132.71372715195685,243.9427719737936 132.9009885954547,243.88871538803568 C133.0882500389525,243.83465880227777 133.26894385988163,243.80763050939882 133.44307005824203,243.80763050939882 C133.61989066586136,243.80763050939882 133.7552847311242,243.8371006106687 133.8492522540305,243.8960408132085 C133.94321977693676,243.95498101574827 133.99020353838992,244.03918130509084 133.99020353838992,244.14864168123614 C133.99020353838992,244.24665081803087 133.95829162872909,244.32234687814983 133.89446780940742,244.375729861593 C133.83064399008578,244.42911284503617 133.7032489523105,244.4768544090934 133.5122826960816,244.51895455376467 L133.1990576197273,244.5886723933403 C132.88448533874356,244.65603262481434 132.65461854883839,244.7633879937261 132.50945725001182,244.91073850007555 C132.36429595118528,245.058089006425 132.291715301772,245.2567174889841 132.291715301772,245.5066239477528 C132.291715301772,245.8195122229497 132.39275564898307,246.0601566498907 132.59483634340518,246.2285572285758 C132.79691703782728,246.3969578072609 133.0874080360591,246.48115809660345 133.46630933810056,246.48115809660345 C133.6387515306741,246.48115809660345 133.8162457406082,246.46819125204468 133.99879196790286,246.44225756292718 C134.1813381951975,246.4163238738097 134.37011524390348,246.37725493955475 134.56512311402085,246.32505076016236 M137.38920081856995,243.85360386737983 L136.12164966280722,243.85360386737983 L135.9215897753293,243.2812103004292 L135.10720457680816,243.2812103004292 L136.27118937667956,246.4240703004292 L137.23764029775336,246.4240703004292 L138.40162509762476,243.2812103004292 L137.58673469736758,243.2812103004292 Z M136.32373035722932,244.4371118725237 L137.18459411546755,244.4371118725237 L136.75517263982056,245.68748616926058 Z M138.1141653098093,246.4240703004292 L141.0104868626143,246.4240703004292 L141.0104868626143,245.81176579633018 L139.96876088286828,245.81176579633018 L139.96876088286828,243.2812103004292 L139.15791209649953,243.2812103004292 L139.15791209649953,245.81176579633018 L138.1141653098093,245.81176579633018 Z M143.01512735128173,243.85360386737983 L141.747576195519,243.85360386737983 L141.54751630804108,243.2812103004292 L140.73313110951995,243.2812103004292 L141.89711590939135,246.4240703004292 L142.86356683046515,246.4240703004292 L144.02755163033655,243.2812103004292 L143.21266123007933,243.2812103004292 Z M141.9496568899411,244.4371118725237 L142.81052064817933,244.4371118725237 L142.38109917253234,245.68748616926058 Z" style="fill:#ffff00;fill-rule:evenodd;"/>
        </g>
        <!-- Line -->
        <path d="M130,166 L169.0000000000001,166 " style="stroke:#000000;stroke-width:1e-9;"/>
        <!-- Line -->
        <path d="M130,166 L130,224 " style="stroke:#000000;stroke-width:1e-9;"/>
        <!-- Line -->
        <path d="M170,141 L170,165 " style="stroke:#000000;stroke-width:1e-9;"/>
        <!-- Arc -->
        <path d="M169,140 A1,1 0 0,1 170,141 " style="stroke:#000000;stroke-width:1e-9;"/>
        <!-- Arc -->
        <path d="M170.0000000000001,165 A1,1 0 0,1 169.0000000000001,166 " style="stroke:#000000;stroke-width:1e-9;"/>
        <!-- Line -->
        <path d="M170,225 L170,268 " style="stroke:#000000;stroke-width:1e-9;"/>
        <!-- Arc -->
        <path d="M1,269 A1,1 0 0,1 0,268 " style="stroke:#000000;stroke-width:1e-9;"/>
        <!-- Line -->
        <path d="M0,268 L0,141 " style="stroke:#000000;stroke-width:1e-9;"/>
        <!-- Line -->
        <path d="M169,269 L110.3,269 " style="stroke:#000000;stroke-width:1e-9;"/>
        <!-- Arc -->
        <path d="M0,141 A1,1 0 0,1 0.9999999999999998,140 " style="stroke:#000000;stroke-width:1e-9;"/>
        <!-- Line -->
        <path d="M1,140 L19.70000000000005,140 " style="stroke:#000000;stroke-width:1e-9;"/>
        <!-- Line -->
        <path d="M110.3,269 L110.3,271 " style="stroke:#000000;stroke-width:1e-9;"/>
        <!-- Line -->
        <path d="M31.70000000000005,269 L31.70000000000005,271 " style="stroke:#000000;stroke-width:1e-9;"/>
        <!-- Line -->
        <path d="M19.70000000000005,140 L19.70000000000005,138 " style="stroke:#000000;stroke-width:1e-9;"/>
        <!-- Line -->
        <path d="M138.3,140 L138.3,138 " style="stroke:#000000;stroke-width:1e-9;"/>
        <!-- Line -->
        <path d="M19.70000000000005,269 L1,269 " style="stroke:#000000;stroke-width:1e-9;"/>
        <!-- Line -->
        <path d="M98.30000000000004,269 L31.70000000000005,269 " style="stroke:#000000;stroke-width:1e-9;"/>
        <!-- Line -->
        <path d="M31.70000000000005,140 L138.3,140 " style="stroke:#000000;stroke-width:1e-9;"/>
        <!-- Line -->
        <path d="M150.3,140 L169,140 " style="stroke:#000000;stroke-width:1e-9;"/>
        <!-- Arc -->
        <path d="M30.70000000000005,137 A1,1 0 0,1 31.70000000000005,138 " style="stroke:#000000;stroke-width:1e-9;"/>
        <!-- Line -->
        <path d="M31.70000000000005,138 L31.70000000000005,140 " style="stroke:#000000;stroke-width:1e-9;"/>
        <!-- Arc -->
        <path d="M138.3,138 A1,1 0 0,1 139.3,137 " style="stroke:#000000;stroke-width:1e-9;"/>
    </g>
</svg>
