<?xml version="1.0" encoding="UTF-8"?>
<!-- 2015-02-16 23:57:10 Generated by QCAD SVG Exporter -->
<svg width="348mm" height="61mm" viewBox="0 -61 348 61" version="1.1" xmlns="http://www.w3.org/2000/svg" style="stroke-linecap:round;stroke-linejoin:round;fill:none" xmlns:sodipodi="http://sodipodi.sourceforge.net/DTD/sodipodi-0.dtd" xmlns:inkscape="http://www.inkscape.org/namespaces/inkscape">
    <sodipodi:namedview inkscape:document-units="mm" unitToSymbol="mm" units="mm"/>
    <g transform="scale(1,-1)">
        <!-- Arc -->
        <path d="M0,4 A1,1 0 0,1 0.9999999999999998,3 " style="stroke:#000000;stroke-width:1e-9;"/>
        <!-- Line -->
        <path d="M1,3 L51.7,3 " style="stroke:#000000;stroke-width:1e-9;"/>
        <!-- Line -->
        <path d="M51.7,3 L51.7,1 " style="stroke:#000000;stroke-width:1e-9;"/>
        <!-- Line -->
        <path d="M115.7,3 L169,3 " style="stroke:#000000;stroke-width:1e-9;"/>
        <!-- Arc -->
        <path d="M62.7,0 A1,1 0 0,1 63.7,1 " style="stroke:#000000;stroke-width:1e-9;"/>
        <!-- Line -->
        <path d="M63.7,1 L63.7,3 " style="stroke:#000000;stroke-width:1e-9;"/>
        <!-- Arc -->
        <path d="M51.7,1.0000000000000002 A1,1 0 0,1 52.7,0 " style="stroke:#000000;stroke-width:1e-9;"/>
        <!-- Line -->
        <path d="M52.7,0 L62.7,0 " style="stroke:#000000;stroke-width:1e-9;"/>
        <!-- Arc -->
        <path d="M169,3 A1,1 0 0,1 170,4 " style="stroke:#000000;stroke-width:1e-9;"/>
        <!-- Arc -->
        <path d="M170.0000000000001,28 A1,1 0 0,1 169.0000000000001,29 " style="stroke:#000000;stroke-width:1e-9;"/>
        <!-- Line -->
        <path d="M37,25 L41,29 " style="stroke:#000000;stroke-width:1e-9;"/>
        <!-- Line -->
        <path d="M41,29 L169.0000000000001,29 " style="stroke:#000000;stroke-width:1e-9;"/>
        <!-- Line -->
        <path d="M77.7,3 L77.7,1 " style="stroke:#000000;stroke-width:1e-9;"/>
        <!-- Arc -->
        <path d="M77.7,1.0000000000000002 A1,1 0 0,1 78.7,0 " style="stroke:#000000;stroke-width:1e-9;"/>
        <!-- Line -->
        <path d="M78.7,0 L88.7,0 " style="stroke:#000000;stroke-width:1e-9;"/>
        <!-- Arc -->
        <path d="M88.7,0 A1,1 0 0,1 89.7,1 " style="stroke:#000000;stroke-width:1e-9;"/>
        <!-- Line -->
        <path d="M89.7,1 L89.7,3 " style="stroke:#000000;stroke-width:1e-9;"/>
        <!-- Line -->
        <path d="M103.7,3 L103.7,1 " style="stroke:#000000;stroke-width:1e-9;"/>
        <!-- Arc -->
        <path d="M103.7,1.0000000000000002 A1,1 0 0,1 104.7,0 " style="stroke:#000000;stroke-width:1e-9;"/>
        <!-- Line -->
        <path d="M104.7,0 L114.7,0 " style="stroke:#000000;stroke-width:1e-9;"/>
        <!-- Arc -->
        <path d="M114.7,0 A1,1 0 0,1 115.7,1 " style="stroke:#000000;stroke-width:1e-9;"/>
        <!-- Line -->
        <path d="M115.7,1 L115.7,3 " style="stroke:#000000;stroke-width:1e-9;"/>
        <!-- Line -->
        <path d="M63.7,3 L77.7,3 " style="stroke:#000000;stroke-width:1e-9;"/>
        <!-- Line -->
        <path d="M89.7,3 L103.7,3 " style="stroke:#000000;stroke-width:1e-9;"/>
        <!-- Arc -->
        <path d="M1,25 A1,1 0 0,1 0,24 " style="stroke:#000000;stroke-width:1e-9;"/>
        <!-- Line -->
        <path d="M0,24 L0,4 " style="stroke:#000000;stroke-width:1e-9;"/>
        <!-- Line -->
        <path d="M1,25 L37,25 " style="stroke:#000000;stroke-width:1e-9;"/>
        <!-- Line -->
        <path d="M170,4 L170,10 " style="stroke:#000000;stroke-width:1e-9;"/>
        <!-- Line -->
        <path d="M170,22 L170,28 " style="stroke:#000000;stroke-width:1e-9;"/>
        <!-- Arc -->
        <path d="M171.9999999999999,10 A1,1 0 0,1 172.9999999999999,11 " style="stroke:#000000;stroke-width:1e-9;"/>
        <!-- Arc -->
        <path d="M172.9999999999999,21 A1,1 0 0,1 171.9999999999999,22 " style="stroke:#000000;stroke-width:1e-9;"/>
        <!-- Line -->
        <path d="M170,10 L171.9999999999999,10 " style="stroke:#000000;stroke-width:1e-9;"/>
        <!-- Line -->
        <path d="M171.9999999999999,22 L170,22 " style="stroke:#000000;stroke-width:1e-9;"/>
        <!-- Line -->
        <path d="M173,11 L173,21 " style="stroke:#000000;stroke-width:1e-9;"/>
        <!-- Line -->
        <path d="M41,61 L169.0000000000001,61 " style="stroke:#000000;stroke-width:1e-9;"/>
        <!-- Line -->
        <path d="M63.7,33 L63.7,35 " style="stroke:#000000;stroke-width:1e-9;"/>
        <!-- Line -->
        <path d="M77.7,35 L77.7,33 " style="stroke:#000000;stroke-width:1e-9;"/>
        <!-- Arc -->
        <path d="M77.7,33 A1,1 0 0,1 78.7,32 " style="stroke:#000000;stroke-width:1e-9;"/>
        <!-- Line -->
        <path d="M78.7,32 L88.7,32 " style="stroke:#000000;stroke-width:1e-9;"/>
        <!-- Arc -->
        <path d="M88.7,32 A1,1 0 0,1 89.7,33 " style="stroke:#000000;stroke-width:1e-9;"/>
        <!-- Line -->
        <path d="M89.7,33 L89.7,35 " style="stroke:#000000;stroke-width:1e-9;"/>
        <!-- Line -->
        <path d="M103.7,35 L103.7,33 " style="stroke:#000000;stroke-width:1e-9;"/>
        <!-- Arc -->
        <path d="M103.7,33 A1,1 0 0,1 104.7,32 " style="stroke:#000000;stroke-width:1e-9;"/>
        <!-- Line -->
        <path d="M104.7,32 L114.7,32 " style="stroke:#000000;stroke-width:1e-9;"/>
        <!-- Arc -->
        <path d="M114.7,32 A1,1 0 0,1 115.7,33 " style="stroke:#000000;stroke-width:1e-9;"/>
        <!-- Line -->
        <path d="M115.7,33 L115.7,35 " style="stroke:#000000;stroke-width:1e-9;"/>
        <!-- Line -->
        <path d="M63.7,35 L77.7,35 " style="stroke:#000000;stroke-width:1e-9;"/>
        <!-- Line -->
        <path d="M89.7,35 L103.7,35 " style="stroke:#000000;stroke-width:1e-9;"/>
        <!-- Arc -->
        <path d="M51.7,33 A1,1 0 0,1 52.7,32 " style="stroke:#000000;stroke-width:1e-9;"/>
        <!-- Line -->
        <path d="M52.7,32 L62.7,32 " style="stroke:#000000;stroke-width:1e-9;"/>
        <!-- Arc -->
        <path d="M1,57 A1,1 0 0,1 0,56 " style="stroke:#000000;stroke-width:1e-9;"/>
        <!-- Line -->
        <path d="M0,56 L0,36 " style="stroke:#000000;stroke-width:1e-9;"/>
        <!-- Line -->
        <path d="M1,57 L37,57 " style="stroke:#000000;stroke-width:1e-9;"/>
        <!-- Arc -->
        <path d="M169,35 A1,1 0 0,1 170,36 " style="stroke:#000000;stroke-width:1e-9;"/>
        <!-- Line -->
        <path d="M170,36 L170,42 " style="stroke:#000000;stroke-width:1e-9;"/>
        <!-- Arc -->
        <path d="M170.0000000000001,60 A1,1 0 0,1 169.0000000000001,61 " style="stroke:#000000;stroke-width:1e-9;"/>
        <!-- Line -->
        <path d="M170,54 L170,60 " style="stroke:#000000;stroke-width:1e-9;"/>
        <!-- Arc -->
        <path d="M0,36 A1,1 0 0,1 0.9999999999999998,35 " style="stroke:#000000;stroke-width:1e-9;"/>
        <!-- Line -->
        <path d="M1,35 L51.7,35 " style="stroke:#000000;stroke-width:1e-9;"/>
        <!-- Arc -->
        <path d="M171.9999999999999,42 A1,1 0 0,1 172.9999999999999,43 " style="stroke:#000000;stroke-width:1e-9;"/>
        <!-- Arc -->
        <path d="M172.9999999999999,53 A1,1 0 0,1 171.9999999999999,54 " style="stroke:#000000;stroke-width:1e-9;"/>
        <!-- Line -->
        <path d="M51.7,35 L51.7,33 " style="stroke:#000000;stroke-width:1e-9;"/>
        <!-- Line -->
        <path d="M170,42 L171.9999999999999,42 " style="stroke:#000000;stroke-width:1e-9;"/>
        <!-- Line -->
        <path d="M171.9999999999999,54 L170,54 " style="stroke:#000000;stroke-width:1e-9;"/>
        <!-- Line -->
        <path d="M37,57 L41,61 " style="stroke:#000000;stroke-width:1e-9;"/>
        <!-- Line -->
        <path d="M173,43 L173,53 " style="stroke:#000000;stroke-width:1e-9;"/>
        <!-- Line -->
        <path d="M115.7,35 L169,35 " style="stroke:#000000;stroke-width:1e-9;"/>
        <!-- Arc -->
        <path d="M62.7,32 A1,1 0 0,1 63.7,33 " style="stroke:#000000;stroke-width:1e-9;"/>
        <!-- Line -->
        <path d="M279.7,32 L289.7,32 " style="stroke:#000000;stroke-width:1e-9;"/>
        <!-- Arc -->
        <path d="M289.7,32 A1,1 0 0,1 290.7,33 " style="stroke:#000000;stroke-width:1e-9;"/>
        <!-- Line -->
        <path d="M290.7,33 L290.7,35 " style="stroke:#000000;stroke-width:1e-9;"/>
        <!-- Line -->
        <path d="M238.7,35 L252.7,35 " style="stroke:#000000;stroke-width:1e-9;"/>
        <!-- Line -->
        <path d="M264.7,35 L278.7,35 " style="stroke:#000000;stroke-width:1e-9;"/>
        <!-- Arc -->
        <path d="M226.7,33 A1,1 0 0,1 227.7,32 " style="stroke:#000000;stroke-width:1e-9;"/>
        <!-- Line -->
        <path d="M227.7,32 L237.7,32 " style="stroke:#000000;stroke-width:1e-9;"/>
        <!-- Arc -->
        <path d="M176,57 A1,1 0 0,1 175,56 " style="stroke:#000000;stroke-width:1e-9;"/>
        <!-- Line -->
        <path d="M175,56 L175,36 " style="stroke:#000000;stroke-width:1e-9;"/>
        <!-- Line -->
        <path d="M176,57 L212,57 " style="stroke:#000000;stroke-width:1e-9;"/>
        <!-- Arc -->
        <path d="M344,35 A1,1 0 0,1 345,36 " style="stroke:#000000;stroke-width:1e-9;"/>
        <!-- Line -->
        <path d="M345,36 L345,42 " style="stroke:#000000;stroke-width:1e-9;"/>
        <!-- Arc -->
        <path d="M345.0000000000001,60 A1,1 0 0,1 344.0000000000001,61 " style="stroke:#000000;stroke-width:1e-9;"/>
        <!-- Line -->
        <path d="M345,54 L345,60 " style="stroke:#000000;stroke-width:1e-9;"/>
        <!-- Arc -->
        <path d="M175,36 A1,1 0 0,1 176,35 " style="stroke:#000000;stroke-width:1e-9;"/>
        <!-- Line -->
        <path d="M176,35 L226.7,35 " style="stroke:#000000;stroke-width:1e-9;"/>
        <!-- Arc -->
        <path d="M346.9999999999999,42 A1,1 0 0,1 347.9999999999999,43 " style="stroke:#000000;stroke-width:1e-9;"/>
        <!-- Arc -->
        <path d="M347.9999999999999,53 A1,1 0 0,1 346.9999999999999,54 " style="stroke:#000000;stroke-width:1e-9;"/>
        <!-- Line -->
        <path d="M226.7,35 L226.7,33 " style="stroke:#000000;stroke-width:1e-9;"/>
        <!-- Line -->
        <path d="M345,42 L346.9999999999999,42 " style="stroke:#000000;stroke-width:1e-9;"/>
        <!-- Line -->
        <path d="M346.9999999999999,54 L345,54 " style="stroke:#000000;stroke-width:1e-9;"/>
        <!-- Line -->
        <path d="M212,57 L216,61 " style="stroke:#000000;stroke-width:1e-9;"/>
        <!-- Line -->
        <path d="M348,43 L348,53 " style="stroke:#000000;stroke-width:1e-9;"/>
        <!-- Line -->
        <path d="M290.7,35 L344,35 " style="stroke:#000000;stroke-width:1e-9;"/>
        <!-- Arc -->
        <path d="M237.7,32 A1,1 0 0,1 238.7,33 " style="stroke:#000000;stroke-width:1e-9;"/>
        <!-- Arc -->
        <path d="M175,4 A1,1 0 0,1 176,3 " style="stroke:#000000;stroke-width:1e-9;"/>
        <!-- Line -->
        <path d="M176,3 L226.7,3 " style="stroke:#000000;stroke-width:1e-9;"/>
        <!-- Line -->
        <path d="M226.7,3 L226.7,1 " style="stroke:#000000;stroke-width:1e-9;"/>
        <!-- Line -->
        <path d="M290.7,3 L344,3 " style="stroke:#000000;stroke-width:1e-9;"/>
        <!-- Arc -->
        <path d="M237.7,0 A1,1 0 0,1 238.7,1 " style="stroke:#000000;stroke-width:1e-9;"/>
        <!-- Line -->
        <path d="M238.7,1 L238.7,3 " style="stroke:#000000;stroke-width:1e-9;"/>
        <!-- Line -->
        <path d="M212,25 L216,29 " style="stroke:#000000;stroke-width:1e-9;"/>
        <!-- Arc -->
        <path d="M226.7,1.0000000000000002 A1,1 0 0,1 227.7,0 " style="stroke:#000000;stroke-width:1e-9;"/>
        <!-- Line -->
        <path d="M227.7,0 L237.7,0 " style="stroke:#000000;stroke-width:1e-9;"/>
        <!-- Line -->
        <path d="M216,29.00000000000001 L344.0000000000001,29 " style="stroke:#000000;stroke-width:1e-9;"/>
        <!-- Line -->
        <path d="M252.7,3 L252.7,1 " style="stroke:#000000;stroke-width:1e-9;"/>
        <!-- Arc -->
        <path d="M252.7,1.0000000000000002 A1,1 0 0,1 253.7,0 " style="stroke:#000000;stroke-width:1e-9;"/>
        <!-- Line -->
        <path d="M253.7,0 L263.7,0 " style="stroke:#000000;stroke-width:1e-9;"/>
        <!-- Arc -->
        <path d="M263.7,0 A1,1 0 0,1 264.7,1 " style="stroke:#000000;stroke-width:1e-9;"/>
        <!-- Line -->
        <path d="M264.7,1 L264.7,3 " style="stroke:#000000;stroke-width:1e-9;"/>
        <!-- Arc -->
        <path d="M344,3 A1,1 0 0,1 345,4 " style="stroke:#000000;stroke-width:1e-9;"/>
        <!-- Line -->
        <path d="M278.7,3 L278.7,1 " style="stroke:#000000;stroke-width:1e-9;"/>
        <!-- Arc -->
        <path d="M345.0000000000001,28 A1,1 0 0,1 344.0000000000001,29 " style="stroke:#000000;stroke-width:1e-9;"/>
        <!-- Arc -->
        <path d="M278.7,1.0000000000000002 A1,1 0 0,1 279.7,0 " style="stroke:#000000;stroke-width:1e-9;"/>
        <!-- Line -->
        <path d="M279.7,0 L289.7,0 " style="stroke:#000000;stroke-width:1e-9;"/>
        <!-- Arc -->
        <path d="M289.7,0 A1,1 0 0,1 290.7,1 " style="stroke:#000000;stroke-width:1e-9;"/>
        <!-- Line -->
        <path d="M290.7,1 L290.7,3 " style="stroke:#000000;stroke-width:1e-9;"/>
        <!-- Line -->
        <path d="M238.7,3 L252.7,3 " style="stroke:#000000;stroke-width:1e-9;"/>
        <!-- Line -->
        <path d="M264.7,3 L278.7,3 " style="stroke:#000000;stroke-width:1e-9;"/>
        <!-- Arc -->
        <path d="M176,25 A1,1 0 0,1 175,24 " style="stroke:#000000;stroke-width:1e-9;"/>
        <!-- Line -->
        <path d="M175,24 L175,4 " style="stroke:#000000;stroke-width:1e-9;"/>
        <!-- Line -->
        <path d="M176,25 L212,25 " style="stroke:#000000;stroke-width:1e-9;"/>
        <!-- Line -->
        <path d="M345,4 L345,10 " style="stroke:#000000;stroke-width:1e-9;"/>
        <!-- Line -->
        <path d="M345,22 L345,28 " style="stroke:#000000;stroke-width:1e-9;"/>
        <!-- Arc -->
        <path d="M346.9999999999999,10 A1,1 0 0,1 347.9999999999999,11 " style="stroke:#000000;stroke-width:1e-9;"/>
        <!-- Arc -->
        <path d="M347.9999999999999,21 A1,1 0 0,1 346.9999999999999,22 " style="stroke:#000000;stroke-width:1e-9;"/>
        <!-- Line -->
        <path d="M345,10 L346.9999999999999,10 " style="stroke:#000000;stroke-width:1e-9;"/>
        <!-- Line -->
        <path d="M346.9999999999999,22 L345,22 " style="stroke:#000000;stroke-width:1e-9;"/>
        <!-- Line -->
        <path d="M348,11 L348,21 " style="stroke:#000000;stroke-width:1e-9;"/>
        <!-- Line -->
        <path d="M216,61 L344.0000000000001,61 " style="stroke:#000000;stroke-width:1e-9;"/>
        <!-- Line -->
        <path d="M238.7,33 L238.7,35 " style="stroke:#000000;stroke-width:1e-9;"/>
        <!-- Line -->
        <path d="M252.7,35 L252.7,33 " style="stroke:#000000;stroke-width:1e-9;"/>
        <!-- Arc -->
        <path d="M252.7,33 A1,1 0 0,1 253.7,32 " style="stroke:#000000;stroke-width:1e-9;"/>
        <!-- Line -->
        <path d="M253.7,32 L263.7,32 " style="stroke:#000000;stroke-width:1e-9;"/>
        <!-- Arc -->
        <path d="M263.7,32 A1,1 0 0,1 264.7,33 " style="stroke:#000000;stroke-width:1e-9;"/>
        <!-- Line -->
        <path d="M264.7,33 L264.7,35 " style="stroke:#000000;stroke-width:1e-9;"/>
        <!-- Line -->
        <path d="M278.7,35 L278.7,33 " style="stroke:#000000;stroke-width:1e-9;"/>
        <!-- Arc -->
        <path d="M278.7,33 A1,1 0 0,1 279.7,32 " style="stroke:#000000;stroke-width:1e-9;"/>
    </g>
</svg>
