999
dxflib 3.1.5.0
  0
SECTION
  2
HEADER
  9
$ACADVER
  1
AC1015
  9
$HANDSEED
  5
FFFF
  9
$ANGBASE
 50
0.0
  9
$ATTMODE
 70
1
  9
$AUNITS
 70
0
  9
$AUPREC
 70
0
  9
$CELTSCALE
 40
1.0
  9
$CHAMFERA
 40
0.0
  9
$CHAMFERB
 40
0.0
  9
$CHAMFERC
 40
0.0
  9
$CHAMFERD
 40
0.0
  9
$CMLJUST
 70
0
  9
$CMLSCALE
 40
20.0
  9
$DIMADEC
 70
0
  9
$DIMALTD
 70
3
  9
$DIMALTF
 40
0.03937007874016
  9
$DIMALTRND
 40
0.0
  9
$DIMALTTD
 70
3
  9
$DIMALTTZ
 70
0
  9
$DIMALTU
 70
2
  9
$DIMALTZ
 70
0
  9
$DIMAPOST
  1

  9
$DIMASZ
 40
2.5
  9
$DIMATFIT
 70
3
  9
$DIMAUNIT
 70
0
  9
$DIMAZIN
 70
0
  9
$DIMCEN
 40
2.5
  9
$DIMDEC
 70
2
  9
$DIMDLE
 40
0.0
  9
$DIMDLI
 40
3.75
  9
$DIMDSEP
 70
44
  9
$DIMEXE
 40
1.25
  9
$DIMEXO
 40
0.625
  9
$DIMFRAC
 70
0
  9
$DIMGAP
 40
0.625
  9
$DIMJUST
 70
0
  9
$DIMLFAC
 40
1.0
  9
$DIMLUNIT
 70
2
  9
$DIMLWD
 70
-2
  9
$DIMLWE
 70
-2
  9
$DIMPOST
  1

  9
$DIMRND
 40
0.0
  9
$DIMSCALE
 40
1.0
  9
$DIMTAD
 70
1
  9
$DIMTDEC
 70
2
  9
$DIMTFAC
 40
1.0
  9
$DIMTM
 40
0.0
  9
$DIMTOLJ
 70
0
  9
$DIMTP
 40
0.0
  9
$DIMTSZ
 40
0.0
  9
$DIMTVP
 40
0.0
  9
$DIMTXT
 40
2.5
  9
$DIMTZIN
 70
8
  9
$DIMZIN
 70
8
  9
$ELEVATION
 40
0.0
  9
$EXTMAX
 10
350.0
 20
199.8990827291586925
 30
0.0
  9
$EXTMIN
 10
0.0
 20
0.0
 30
0.0
  9
$FILLETRAD
 40
0.0
  9
$INSBASE
 10
0.0
 20
0.0
 30
0.0
  9
$INSUNITS
 70
4
  9
$LIMMAX
 10
420.0
 20
297.0
  9
$LIMMIN
 10
0.0
 20
0.0
  9
$LTSCALE
 40
1.0
  9
$LUNITS
 70
2
  9
$LUPREC
 70
4
  9
$MAXACTVP
 70
64
  9
$PDMODE
 70
0
  9
$PDSIZE
 40
0.0
  9
$PELEVATION
 40
0.0
  9
$PEXTMAX
 10
-100000000000000000000.0
 20
-100000000000000000000.0
 30
-100000000000000000000.0
  9
$PEXTMIN
 10
100000000000000000000.0
 20
100000000000000000000.0
 30
100000000000000000000.0
  9
$PINSBASE
 10
0.0
 20
0.0
 30
0.0
  9
$PLIMMAX
 10
420.0
 20
297.0
  9
$PLIMMIN
 10
0.0
 20
0.0
  9
$PLINEWID
 40
0.0
  9
$PROXYGRAPHICS
 70
1
  9
$PUCSORG
 10
0.0
 20
0.0
 30
0.0
  9
$PUCSXDIR
 10
1.0
 20
0.0
 30
0.0
  9
$PUCSYDIR
 10
0.0
 20
1.0
 30
0.0
  9
$SHADEDGE
 70
3
  9
$SHADEDIF
 70
70
  9
$SKETCHINC
 40
1.0
  9
$SPLINESEGS
 70
8
  9
$SPLINETYPE
 70
6
  9
$SURFTAB1
 70
6
  9
$SURFTAB2
 70
6
  9
$SURFTYPE
 70
6
  9
$SURFU
 70
6
  9
$SURFV
 70
6
  9
$TEXTSIZE
 40
2.5
  9
$THICKNESS
 40
0.0
  9
$TRACEWID
 40
1.0
  9
$TREEDEPTH
 70
3020
  9
$UCSORG
 10
0.0
 20
0.0
 30
0.0
  9
$UCSXDIR
 10
1.0
 20
0.0
 30
0.0
  9
$UCSYDIR
 10
0.0
 20
1.0
 30
0.0
  9
$UNITMODE
 70
0
  9
$USERI1
 70
0
  9
$USERI2
 70
0
  9
$USERI3
 70
0
  9
$USERI4
 70
0
  9
$USERI5
 70
0
  9
$USERR1
 40
0.0
  9
$USERR2
 40
0.0
  9
$USERR3
 40
0.0
  9
$USERR4
 40
0.0
  9
$USERR5
 40
0.0
  0
SECTION
  2
TABLES
  0
TABLE
  2
VPORT
  5
8
100
AcDbSymbolTable
 70
1
  0
VPORT
  5
30
100
AcDbSymbolTableRecord
100
AcDbViewportTableRecord
  2
*Active
 70
0
 10
0.0
 20
0.0
 11
1.0
 21
1.0
 12
286.3055555555554861
 22
148.5
 13
0.0
 23
0.0
 14
10.0
 24
10.0
 15
10.0
 25
10.0
 16
0.0
 26
0.0
 36
1.0
 17
0.0
 27
0.0
 37
0.0
 40
297.0
 41
1.92798353909465
 42
50.0
 43
0.0
 44
0.0
 50
0.0
 51
0.0
 71
0
 72
100
 73
1
 74
3
 75
1
 76
1
 77
0
 78
0
281
0
 65
1
110
0.0
120
0.0
130
0.0
111
1.0
121
0.0
131
0.0
112
0.0
122
1.0
132
0.0
 79
0
146
0.0
  0
ENDTAB
  0
TABLE
  2
LTYPE
  5
5
100
AcDbSymbolTable
 70
21
  0
LTYPE
  5
31
100
AcDbSymbolTableRecord
100
AcDbLinetypeTableRecord
  2
CENTER2
 70
0
  3
Center (.5x) ___ _ ___ _ ___ _ ___ _ ___ _ ___
 72
65
 73
4
 40
28.5749999999999993
 49
19.0500000000000007
 74
0
 49
-3.1749999999999998
 74
0
 49
3.1749999999999998
 74
0
 49
-3.1749999999999998
 74
0
  0
LTYPE
  5
32
100
AcDbSymbolTableRecord
100
AcDbLinetypeTableRecord
  2
DIVIDEX2
 70
0
  3
Divide (2x) ________  .  .  ________  .  .  _
 72
65
 73
6
 40
63.5
 49
25.3999999999999986
 74
0
 49
-12.6999999999999993
 74
0
 49
0.0
 74
0
 49
-12.6999999999999993
 74
0
 49
0.0
 74
0
 49
-12.6999999999999993
 74
0
  0
LTYPE
  5
33
100
AcDbSymbolTableRecord
100
AcDbLinetypeTableRecord
  2
DOT2
 70
0
  3
Dot (.5x) .....................................
 72
65
 73
2
 40
3.1749999999999998
 49
0.0
 74
0
 49
-3.1749999999999998
 74
0
  0
LTYPE
  5
34
100
AcDbSymbolTableRecord
100
AcDbLinetypeTableRecord
  2
DASHDOT2
 70
0
  3
Dash dot (.5x) _._._._._._._._._._._._._._._.
 72
65
 73
4
 40
12.6999999999999993
 49
6.3499999999999996
 74
0
 49
-3.1749999999999998
 74
0
 49
0.0
 74
0
 49
-3.1749999999999998
 74
0
  0
LTYPE
  5
35
100
AcDbSymbolTableRecord
100
AcDbLinetypeTableRecord
  2
DIVIDE
 70
0
  3
Divide ____ . . ____ . . ____ . . ____ . . ____
 72
65
 73
6
 40
31.75
 49
12.6999999999999993
 74
0
 49
-6.3499999999999996
 74
0
 49
0.0
 74
0
 49
-6.3499999999999996
 74
0
 49
0.0
 74
0
 49
-6.3499999999999996
 74
0
  0
LTYPE
  5
36
100
AcDbSymbolTableRecord
100
AcDbLinetypeTableRecord
  2
DASHDOT
 70
0
  3
Dash dot __ . __ . __ . __ . __ . __ . __ . __
 72
65
 73
4
 40
25.3999999999999986
 49
12.6999999999999993
 74
0
 49
-6.3499999999999996
 74
0
 49
0.0
 74
0
 49
-6.3499999999999996
 74
0
  0
LTYPE
  5
37
100
AcDbSymbolTableRecord
100
AcDbLinetypeTableRecord
  2
BORDER
 70
0
  3
Border __ __ . __ __ . __ __ . __ __ . __ __ .
 72
65
 73
6
 40
44.4500000000000028
 49
12.6999999999999993
 74
0
 49
-6.3499999999999996
 74
0
 49
12.6999999999999993
 74
0
 49
-6.3499999999999996
 74
0
 49
0.0
 74
0
 49
-6.3499999999999996
 74
0
  0
LTYPE
  5
38
100
AcDbSymbolTableRecord
100
AcDbLinetypeTableRecord
  2
DASHDOTX2
 70
0
  3
Dash dot (2x) ____  .  ____  .  ____  .  ___
 72
65
 73
4
 40
50.7999999999999972
 49
25.3999999999999986
 74
0
 49
-12.6999999999999993
 74
0
 49
0.0
 74
0
 49
-12.6999999999999993
 74
0
  0
LTYPE
  5
39
100
AcDbSymbolTableRecord
100
AcDbLinetypeTableRecord
  2
CENTERX2
 70
0
  3
Center (2x) ________  __  ________  __  _____
 72
65
 73
4
 40
101.5999999999999943
 49
63.5
 74
0
 49
-12.6999999999999993
 74
0
 49
12.6999999999999993
 74
0
 49
-12.6999999999999993
 74
0
  0
LTYPE
  5
3A
100
AcDbSymbolTableRecord
100
AcDbLinetypeTableRecord
  2
BORDER2
 70
0
  3
Border (.5x) __.__.__.__.__.__.__.__.__.__.__.
 72
65
 73
6
 40
22.2250000000000014
 49
6.3499999999999996
 74
0
 49
-3.1749999999999998
 74
0
 49
6.3499999999999996
 74
0
 49
-3.1749999999999998
 74
0
 49
0.0
 74
0
 49
-3.1749999999999998
 74
0
  0
LTYPE
  5
3B
100
AcDbSymbolTableRecord
100
AcDbLinetypeTableRecord
  2
BORDERX2
 70
0
  3
Border (2x) ____  ____  .  ____  ____  .  ___
 72
65
 73
6
 40
88.9000000000000057
 49
25.3999999999999986
 74
0
 49
-12.6999999999999993
 74
0
 49
25.3999999999999986
 74
0
 49
-12.6999999999999993
 74
0
 49
0.0
 74
0
 49
-12.6999999999999993
 74
0
  0
LTYPE
  5
16
100
AcDbSymbolTableRecord
100
AcDbLinetypeTableRecord
  2
CONTINUOUS
 70
0
  3
Solid line
 72
65
 73
0
 40
0.0
  0
LTYPE
  5
14
100
AcDbSymbolTableRecord
100
AcDbLinetypeTableRecord
  2
BYBLOCK
 70
0
  3

 72
65
 73
0
 40
0.0
  0
LTYPE
  5
15
100
AcDbSymbolTableRecord
100
AcDbLinetypeTableRecord
  2
BYLAYER
 70
0
  3

 72
65
 73
0
 40
0.0
  0
LTYPE
  5
3C
100
AcDbSymbolTableRecord
100
AcDbLinetypeTableRecord
  2
DASHED2
 70
0
  3
Dashed (.5x) _ _ _ _ _ _ _ _ _ _ _ _ _ _ _ _ _
 72
65
 73
2
 40
9.5250000000000004
 49
6.3499999999999996
 74
0
 49
-3.1749999999999998
 74
0
  0
LTYPE
  5
3D
100
AcDbSymbolTableRecord
100
AcDbLinetypeTableRecord
  2
CENTER
 70
0
  3
Center ____ _ ____ _ ____ _ ____ _ ____ _ ____
 72
65
 73
4
 40
50.7999999999999972
 49
31.75
 74
0
 49
-6.3499999999999996
 74
0
 49
6.3499999999999996
 74
0
 49
-6.3499999999999996
 74
0
  0
LTYPE
  5
3E
100
AcDbSymbolTableRecord
100
AcDbLinetypeTableRecord
  2
DIVIDE2
 70
0
  3
Divide (.5x) __..__..__..__..__..__..__..__.._
 72
65
 73
6
 40
15.875
 49
6.3499999999999996
 74
0
 49
-3.1749999999999998
 74
0
 49
0.0
 74
0
 49
-3.1749999999999998
 74
0
 49
0.0
 74
0
 49
-3.1749999999999998
 74
0
  0
LTYPE
  5
3F
100
AcDbSymbolTableRecord
100
AcDbLinetypeTableRecord
  2
DASHED
 70
0
  3
Dashed __ __ __ __ __ __ __ __ __ __ __ __ __ _
 72
65
 73
2
 40
19.0500000000000007
 49
12.6999999999999993
 74
0
 49
-6.3499999999999996
 74
0
  0
LTYPE
  5
40
100
AcDbSymbolTableRecord
100
AcDbLinetypeTableRecord
  2
DOTX2
 70
0
  3
Dot (2x) .  .  .  .  .  .  .  .  .  .  .  .  .
 72
65
 73
2
 40
12.6999999999999993
 49
0.0
 74
0
 49
-12.6999999999999993
 74
0
  0
LTYPE
  5
41
100
AcDbSymbolTableRecord
100
AcDbLinetypeTableRecord
  2
DASHEDX2
 70
0
  3
Dashed (2x) ____  ____  ____  ____  ____  ___
 72
65
 73
2
 40
38.1000000000000014
 49
25.3999999999999986
 74
0
 49
-12.6999999999999993
 74
0
  0
LTYPE
  5
42
100
AcDbSymbolTableRecord
100
AcDbLinetypeTableRecord
  2
DOT
 70
0
  3
Dot . . . . . . . . . . . . . . . . . . . . . .
 72
65
 73
2
 40
6.3499999999999996
 49
0.0
 74
0
 49
-6.3499999999999996
 74
0
  0
ENDTAB
  0
TABLE
  2
LAYER
  5
2
100
AcDbSymbolTable
 70
4
  0
LAYER
  5
43
100
AcDbSymbolTableRecord
100
AcDbLayerTableRecord
  2
H
 70
1
 62
-7
420
16777215
  6
CONTINUOUS
370
-3
390
F
  0
LAYER
  5
44
100
AcDbSymbolTableRecord
100
AcDbLayerTableRecord
  2
P
 70
0
 62
7
420
16777215
  6
CONTINUOUS
370
-3
390
F
  0
LAYER
  5
10
100
AcDbSymbolTableRecord
100
AcDbLayerTableRecord
  2
0
 70
0
 62
7
420
16777215
  6
CONTINUOUS
370
-3
390
F
  0
LAYER
  5
45
100
AcDbSymbolTableRecord
100
AcDbLayerTableRecord
  2
T
 70
0
 62
7
420
16777215
  6
CONTINUOUS
370
-3
390
F
  0
ENDTAB
  0
TABLE
  2
STYLE
  5
3
100
AcDbSymbolTable
 70
4
  0
STYLE
  5
46
100
AcDbSymbolTableRecord
100
AcDbTextStyleTableRecord
  2
textstyle0
 70
0
 40
0.0
 41
1.0
 50
0.0
 71
0
 42
11.3399999999999999
  3

  4

1001
ACAD
1000
txt
1071
0
  0
STYLE
  5
47
100
AcDbSymbolTableRecord
100
AcDbTextStyleTableRecord
  2
textstyle1
 70
0
 40
0.0
 41
1.0
 50
0.0
 71
0
 42
11.3399999999999999
  3

  4

1001
ACAD
1000
txt
1071
0
  0
STYLE
  5
48
100
AcDbSymbolTableRecord
100
AcDbTextStyleTableRecord
  2
textstyle2
 70
0
 40
0.0
 41
1.0
 50
0.0
 71
0
 42
6.1200000000000001
  3

  4

1001
ACAD
1000
txt
1071
0
  0
STYLE
  5
49
100
AcDbSymbolTableRecord
100
AcDbTextStyleTableRecord
  2
textstyle3
 70
0
 40
0.0
 41
1.0
 50
0.0
 71
0
 42
6.1200000000000001
  3

  4

1001
ACAD
1000
txt
1071
0
  0
ENDTAB
  0
TABLE
  2
VIEW
  5
6
100
AcDbSymbolTable
 70
0
  0
ENDTAB
  0
TABLE
  2
UCS
  5
7
100
AcDbSymbolTable
 70
0
  0
ENDTAB
  0
TABLE
  2
APPID
  5
9
100
AcDbSymbolTable
 70
1
  0
APPID
  5
4A
100
AcDbSymbolTableRecord
100
AcDbRegAppTableRecord
  2
QCAD
 70
0
  0
ENDTAB
  0
TABLE
  2
DIMSTYLE
  5
A
100
AcDbSymbolTable
 70
1
100
AcDbDimStyleTable
 71
0
  0
DIMSTYLE
105
27
100
AcDbSymbolTableRecord
100
AcDbDimStyleTableRecord
  2
Standard
 41
2.5
 42
0.625
 43
3.75
 44
1.25
 70
0
 73
0
 74
0
 77
1
 78
8
140
2.5
141
2.5
143
0.03937007874016
147
0.625
171
3
172
1
271
2
272
2
274
3
278
44
283
0
284
8
340
11
  0
ENDTAB
  0
TABLE
  2
BLOCK_RECORD
  5
1
100
AcDbSymbolTable
 70
1
  0
BLOCK_RECORD
  5
1F
100
AcDbSymbolTableRecord
100
AcDbBlockTableRecord
  2
*Model_Space
340
22
  0
BLOCK_RECORD
  5
1B
100
AcDbSymbolTableRecord
100
AcDbBlockTableRecord
  2
*Paper_Space
340
1E
  0
BLOCK_RECORD
  5
23
100
AcDbSymbolTableRecord
100
AcDbBlockTableRecord
  2
*Paper_Space0
340
26
  0
BLOCK_RECORD
  5
4B
100
AcDbSymbolTableRecord
100
AcDbBlockTableRecord
  2
*Model_Space
340
0
  0
BLOCK_RECORD
  5
4C
100
AcDbSymbolTableRecord
100
AcDbBlockTableRecord
  2
*Paper_Space
340
0
  0
BLOCK_RECORD
  5
4D
100
AcDbSymbolTableRecord
100
AcDbBlockTableRecord
  2
*Paper_Space0
340
0
  0
ENDTAB
  0
ENDSEC
  0
SECTION
  2
BLOCKS
  0
BLOCK
  5
20
100
AcDbEntity
  8
0
100
AcDbBlockBegin
  2
*Model_Space
 70
0
 10
0.0
 20
0.0
 30
0.0
  3
*Model_Space
  1

  0
BLOCK
  5
1C
100
AcDbEntity
 67
1
  8
0
100
AcDbBlockBegin
  2
*Paper_Space
 70
0
 10
0.0
 20
0.0
 30
0.0
  3
*Paper_Space
  1

  0
ENDBLK
  5
1D
100
AcDbEntity
 67
1
  8
0
100
AcDbBlockEnd
  0
BLOCK
  5
24
100
AcDbEntity
  8
0
100
AcDbBlockBegin
  2
*Paper_Space0
 70
0
 10
0.0
 20
0.0
 30
0.0
  3
*Paper_Space0
  1

  0
ENDBLK
  5
25
100
AcDbEntity
  8
0
100
AcDbBlockEnd
  0
ENDSEC
  0
SECTION
  2
ENTITIES
  0
LWPOLYLINE
  5
4E
  8
P
 62
256
370
-1
  6
BYLAYER
100
AcDbEntity
100
AcDbPolyline
 90
6
 70
0
 10
209.5506000000000313
 20
362.9034000000000333
 30
0.0
 10
19.0494000000000092
 20
362.9034000000000333
 30
0.0
 10
19.0494000000000092
 20
380.0483999999999583
 30
0.0
 10
209.5506000000000313
 20
380.0483999999999583
 30
0.0
 10
209.5506000000000313
 20
362.9034000000000333
 30
0.0
 10
209.5506000000000313
 20
362.9034000000000333
 30
0.0
  0
LWPOLYLINE
  5
4F
  8
P
 62
256
370
-1
  6
BYLAYER
100
AcDbEntity
100
AcDbPolyline
 90
6
 70
0
 10
201.9294000000000153
 20
380.0483999999999583
 30
0.0
 10
26.6706000000000003
 20
380.0483999999999583
 30
0.0
 10
26.6706000000000003
 20
395.7011999999999716
 30
0.0
 10
201.9294000000000153
 20
395.7011999999999716
 30
0.0
 10
201.9294000000000153
 20
380.0483999999999583
 30
0.0
 10
201.9294000000000153
 20
380.0483999999999583
 30
0.0
  0
LWPOLYLINE
  5
50
  8
P
 62
256
370
-1
  6
BYLAYER
100
AcDbEntity
100
AcDbPolyline
 90
6
 70
0
 10
201.9294000000000153
 20
395.7011999999999716
 30
0.0
 10
26.6706000000000003
 20
395.7011999999999716
 30
0.0
 10
100.996200000000016
 20
410.9399999999999977
 30
0.0
 10
127.6343999999999994
 20
410.9399999999999977
 30
0.0
 10
201.9294000000000153
 20
395.7011999999999716
 30
0.0
 10
201.9294000000000153
 20
395.7011999999999716
 30
0.0
  0
LWPOLYLINE
  5
51
  8
P
 62
256
370
-1
  6
BYLAYER
100
AcDbEntity
100
AcDbPolyline
 90
6
 70
0
 10
127.6343999999999994
 20
410.9399999999999977
 30
0.0
 10
100.9655999999999949
 20
410.9399999999999977
 30
0.0
 10
100.9655999999999949
 20
416.6549999999999727
 30
0.0
 10
127.6343999999999994
 20
416.6549999999999727
 30
0.0
 10
127.6343999999999994
 20
410.9399999999999977
 30
0.0
 10
127.6343999999999994
 20
410.9399999999999977
 30
0.0
  0
LWPOLYLINE
  5
52
  8
P
 62
256
370
-1
  6
BYLAYER
100
AcDbEntity
100
AcDbPolyline
 90
6
 70
0
 10
124.7777999999999992
 20
416.6549999999999727
 30
0.0
 10
103.8222000000000094
 20
416.6549999999999727
 30
0.0
 10
103.8222000000000094
 20
445.2299999999999613
 30
0.0
 10
124.7777999999999992
 20
445.2299999999999613
 30
0.0
 10
124.7777999999999992
 20
416.6549999999999727
 30
0.0
 10
124.7777999999999992
 20
416.6549999999999727
 30
0.0
  0
LWPOLYLINE
  5
53
  8
P
 62
256
370
-1
  6
BYLAYER
100
AcDbEntity
100
AcDbPolyline
 90
6
 70
0
 10
127.6343999999999994
 20
445.2299999999999613
 30
0.0
 10
100.9655999999999949
 20
445.2299999999999613
 30
0.0
 10
103.4406000000000034
 20
448.0883999999999787
 30
0.0
 10
125.1270000000000095
 20
448.0883999999999787
 30
0.0
 10
127.6343999999999994
 20
445.2299999999999613
 30
0.0
 10
127.6343999999999994
 20
445.2299999999999613
 30
0.0
  0
LWPOLYLINE
  5
54
  8
P
 62
256
370
-1
  6
BYLAYER
100
AcDbEntity
100
AcDbPolyline
 90
13
 70
0
 10
114.3324000000000069
 20
454.1832000000000562
 30
0.0
 10
110.5217999999999989
 20
453.7080000000000268
 30
0.0
 10
107.283600000000007
 20
452.469600000000014
 30
0.0
 10
104.8392000000000053
 20
450.5003999999999564
 30
0.0
 10
103.9805999999999955
 20
449.3573999999999842
 30
0.0
 10
103.472999999999999
 20
448.1189999999999714
 30
0.0
 10
125.1270000000000095
 20
448.1189999999999714
 30
0.0
 10
124.5870000000000033
 20
449.3573999999999842
 30
0.0
 10
123.7931999999999988
 20
450.5003999999999564
 30
0.0
 10
121.3487999999999971
 20
452.469600000000014
 30
0.0
 10
118.1411999999999978
 20
453.7080000000000268
 30
0.0
 10
114.3324000000000069
 20
454.1832000000000562
 30
0.0
 10
114.3324000000000069
 20
454.1832000000000562
 30
0.0
  0
LWPOLYLINE
  5
55
  8
P
 62
256
370
-1
  6
BYLAYER
100
AcDbEntity
100
AcDbPolyline
 90
2
 70
0
 10
102.9024000000000143
 20
438.0857999999999493
 30
0.0
 10
125.6670000000000016
 20
438.0857999999999493
 30
0.0
  0
LWPOLYLINE
  5
56
  8
P
 62
256
370
-1
  6
BYLAYER
100
AcDbEntity
100
AcDbPolyline
 90
2
 70
0
 10
102.9024000000000143
 20
430.9433999999999969
 30
0.0
 10
125.6670000000000016
 20
430.9433999999999969
 30
0.0
  0
LWPOLYLINE
  5
57
  8
P
 62
256
370
-1
  6
BYLAYER
100
AcDbEntity
100
AcDbPolyline
 90
2
 70
0
 10
102.9024000000000143
 20
423.7991999999999848
 30
0.0
 10
125.6670000000000016
 20
423.7991999999999848
 30
0.0
  0
LWPOLYLINE
  5
58
  8
P
 62
256
370
-1
  6
BYLAYER
100
AcDbEntity
100
AcDbPolyline
 90
2
 70
0
 10
114.2999999999999972
 20
445.2299999999999613
 30
0.0
 10
114.2999999999999972
 20
416.6549999999999727
 30
0.0
  0
LWPOLYLINE
  5
59
  8
P
 62
256
370
-1
  6
BYLAYER
100
AcDbEntity
100
AcDbPolyline
 90
6
 70
0
 10
105.0930000000000177
 20
445.2299999999999613
 30
0.0
 10
105.0930000000000177
 20
416.6549999999999727
 30
0.0
 10
106.362000000000009
 20
416.6549999999999727
 30
0.0
 10
106.362000000000009
 20
445.2299999999999613
 30
0.0
 10
105.0930000000000177
 20
445.2299999999999613
 30
0.0
 10
105.0930000000000177
 20
445.2299999999999613
 30
0.0
  0
LWPOLYLINE
  5
5A
  8
P
 62
256
370
-1
  6
BYLAYER
100
AcDbEntity
100
AcDbPolyline
 90
6
 70
0
 10
122.2379999999999995
 20
445.2299999999999613
 30
0.0
 10
122.2379999999999995
 20
416.6549999999999727
 30
0.0
 10
123.5070000000000192
 20
416.6549999999999727
 30
0.0
 10
123.5070000000000192
 20
445.2299999999999613
 30
0.0
 10
122.2379999999999995
 20
445.2299999999999613
 30
0.0
 10
122.2379999999999995
 20
445.2299999999999613
 30
0.0
  0
LWPOLYLINE
  5
5B
  8
P
 62
256
370
-1
  6
BYLAYER
100
AcDbEntity
100
AcDbPolyline
 90
6
 70
0
 10
228.6000000000000227
 20
0.0
 30
0.0
 10
0.0
 20
0.0
 30
0.0
 10
0.0
 20
11.4299999999999997
 30
0.0
 10
228.6000000000000227
 20
11.4299999999999997
 30
0.0
 10
228.6000000000000227
 20
0.0
 30
0.0
 10
228.6000000000000227
 20
0.0
 30
0.0
  0
LWPOLYLINE
  5
5C
  8
P
 62
256
370
-1
  6
BYLAYER
100
AcDbEntity
100
AcDbPolyline
 90
6
 70
0
 10
228.6000000000000227
 20
11.4299999999999997
 30
0.0
 10
0.0
 20
11.4299999999999997
 30
0.0
 10
8.5716000000000019
 20
17.1449999999999996
 30
0.0
 10
220.0266000000000304
 20
17.1449999999999996
 30
0.0
 10
228.6000000000000227
 20
11.4299999999999997
 30
0.0
 10
228.6000000000000227
 20
11.4299999999999997
 30
0.0
  0
LWPOLYLINE
  5
5D
  8
P
 62
256
370
-1
  6
BYLAYER
100
AcDbEntity
100
AcDbPolyline
 90
6
 70
0
 10
34.2900000000000063
 20
17.1449999999999996
 30
0.0
 10
28.5749999999999993
 20
17.1449999999999996
 30
0.0
 10
28.5749999999999993
 20
336.2327999999999975
 30
0.0
 10
34.2900000000000063
 20
336.2327999999999975
 30
0.0
 10
34.2900000000000063
 20
17.1449999999999996
 30
0.0
 10
34.2900000000000063
 20
17.1449999999999996
 30
0.0
  0
LWPOLYLINE
  5
5E
  8
P
 62
256
370
-1
  6
BYLAYER
100
AcDbEntity
100
AcDbPolyline
 90
6
 70
0
 10
194.3100000000000023
 20
17.1449999999999996
 30
0.0
 10
200.0250000000000341
 20
17.1449999999999996
 30
0.0
 10
200.0250000000000341
 20
336.2327999999999975
 30
0.0
 10
194.3100000000000023
 20
336.2327999999999975
 30
0.0
 10
194.3100000000000023
 20
17.1449999999999996
 30
0.0
 10
194.3100000000000023
 20
17.1449999999999996
 30
0.0
  0
LWPOLYLINE
  5
5F
  8
P
 62
256
370
-1
  6
BYLAYER
100
AcDbEntity
100
AcDbPolyline
 90
9
 70
0
 10
200.0250000000000341
 20
17.1449999999999996
 30
0.0
 10
200.0250000000000341
 20
360.9972000000000207
 30
0.0
 10
200.0250000000000341
 20
364.8077999999999861
 30
0.0
 10
219.551400000000001
 20
364.8077999999999861
 30
0.0
 10
219.551400000000001
 20
360.9972000000000207
 30
0.0
 10
220.0266000000000304
 20
360.9972000000000207
 30
0.0
 10
220.0266000000000304
 20
17.1449999999999996
 30
0.0
 10
200.0250000000000341
 20
17.1449999999999996
 30
0.0
 10
200.0250000000000341
 20
17.1449999999999996
 30
0.0
  0
LWPOLYLINE
  5
60
  8
P
 62
256
370
-1
  6
BYLAYER
100
AcDbEntity
100
AcDbPolyline
 90
8
 70
0
 10
219.551400000000001
 20
360.9972000000000207
 30
0.0
 10
220.0266000000000304
 20
360.9972000000000207
 30
0.0
 10
220.0266000000000304
 20
336.2327999999999975
 30
0.0
 10
225.7415999999999769
 20
336.2327999999999975
 30
0.0
 10
225.7415999999999769
 20
362.9034000000000333
 30
0.0
 10
219.551400000000001
 20
362.9034000000000333
 30
0.0
 10
219.551400000000001
 20
360.9972000000000207
 30
0.0
 10
219.551400000000001
 20
360.9972000000000207
 30
0.0
  0
LWPOLYLINE
  5
61
  8
P
 62
256
370
-1
  6
BYLAYER
100
AcDbEntity
100
AcDbPolyline
 90
10
 70
0
 10
200.0250000000000341
 20
364.8077999999999861
 30
0.0
 10
219.551400000000001
 20
364.8077999999999861
 30
0.0
 10
219.551400000000001
 20
360.9972000000000207
 30
0.0
 10
215.2656000000000063
 20
360.9972000000000207
 30
0.0
 10
215.2656000000000063
 20
332.4222000000000321
 30
0.0
 10
201.4847999999999786
 20
332.4222000000000321
 30
0.0
 10
201.4847999999999786
 20
17.1774000000000022
 30
0.0
 10
200.0574000000000296
 20
17.1774000000000022
 30
0.0
 10
200.0250000000000341
 20
364.8077999999999861
 30
0.0
 10
200.0250000000000341
 20
364.8077999999999861
 30
0.0
  0
LWPOLYLINE
  5
62
  8
P
 62
256
370
-1
  6
BYLAYER
100
AcDbEntity
100
AcDbPolyline
 90
9
 70
0
 10
28.5749999999999993
 20
17.1449999999999996
 30
0.0
 10
28.5749999999999993
 20
360.9972000000000207
 30
0.0
 10
28.5749999999999993
 20
364.8077999999999861
 30
0.0
 10
9.0486000000000022
 20
364.8077999999999861
 30
0.0
 10
9.0486000000000022
 20
360.9972000000000207
 30
0.0
 10
8.5716000000000019
 20
360.9972000000000207
 30
0.0
 10
8.5716000000000019
 20
17.1449999999999996
 30
0.0
 10
28.5749999999999993
 20
17.1449999999999996
 30
0.0
 10
28.5749999999999993
 20
17.1449999999999996
 30
0.0
  0
LWPOLYLINE
  5
63
  8
P
 62
256
370
-1
  6
BYLAYER
100
AcDbEntity
100
AcDbPolyline
 90
8
 70
0
 10
9.0486000000000022
 20
360.9972000000000207
 30
0.0
 10
8.5716000000000019
 20
360.9972000000000207
 30
0.0
 10
8.5716000000000019
 20
336.2327999999999975
 30
0.0
 10
2.856600000000006
 20
336.2327999999999975
 30
0.0
 10
2.856600000000006
 20
362.9034000000000333
 30
0.0
 10
9.0486000000000022
 20
362.9034000000000333
 30
0.0
 10
9.0486000000000022
 20
360.9972000000000207
 30
0.0
 10
9.0486000000000022
 20
360.9972000000000207
 30
0.0
  0
LWPOLYLINE
  5
64
  8
P
 62
256
370
-1
  6
BYLAYER
100
AcDbEntity
100
AcDbPolyline
 90
10
 70
0
 10
28.5749999999999993
 20
364.8077999999999861
 30
0.0
 10
9.0486000000000022
 20
364.8077999999999861
 30
0.0
 10
9.0486000000000022
 20
360.9972000000000207
 30
0.0
 10
13.3344000000000023
 20
360.9972000000000207
 30
0.0
 10
13.3344000000000023
 20
332.4222000000000321
 30
0.0
 10
27.1152000000000015
 20
332.4222000000000321
 30
0.0
 10
27.1152000000000015
 20
17.1774000000000022
 30
0.0
 10
28.5426000000000002
 20
17.1774000000000022
 30
0.0
 10
28.5749999999999993
 20
364.8077999999999861
 30
0.0
 10
28.5749999999999993
 20
364.8077999999999861
 30
0.0
  0
LWPOLYLINE
  5
65
  8
P
 62
256
370
-1
  6
BYLAYER
100
AcDbEntity
100
AcDbPolyline
 90
6
 70
0
 10
211.4550000000000125
 20
336.2327999999999975
 30
0.0
 10
17.1450000000000102
 20
336.2327999999999975
 30
0.0
 10
17.1450000000000102
 20
362.9034000000000333
 30
0.0
 10
211.4550000000000125
 20
362.9034000000000333
 30
0.0
 10
211.4550000000000125
 20
336.2327999999999975
 30
0.0
 10
211.4550000000000125
 20
336.2327999999999975
 30
0.0
  0
LWPOLYLINE
  5
66
  8
P
 62
256
370
-1
  6
BYLAYER
100
AcDbEntity
100
AcDbPolyline
 90
6
 70
0
 10
194.3100000000000023
 20
330.5177999999999656
 30
0.0
 10
34.2900000000000063
 20
330.5177999999999656
 30
0.0
 10
34.2900000000000063
 20
336.2327999999999975
 30
0.0
 10
194.3100000000000023
 20
336.2327999999999975
 30
0.0
 10
194.3100000000000023
 20
330.5177999999999656
 30
0.0
 10
194.3100000000000023
 20
330.5177999999999656
 30
0.0
  0
LWPOLYLINE
  5
67
  8
P
 62
256
370
-1
  6
BYLAYER
100
AcDbEntity
100
AcDbPolyline
 90
6
 70
0
 10
117.1566000000000116
 20
330.5177999999999656
 30
0.0
 10
117.1566000000000116
 20
17.1449999999999996
 30
0.0
 10
111.4416000000000082
 20
17.1449999999999996
 30
0.0
 10
111.4416000000000082
 20
330.5177999999999656
 30
0.0
 10
117.1566000000000116
 20
330.5177999999999656
 30
0.0
 10
117.1566000000000116
 20
330.5177999999999656
 30
0.0
  0
LWPOLYLINE
  5
68
  8
P
 62
256
370
-1
  6
BYLAYER
100
AcDbEntity
100
AcDbPolyline
 90
6
 70
0
 10
214.3115999999999985
 20
364.8077999999999861
 30
0.0
 10
201.9294000000000153
 20
364.8077999999999861
 30
0.0
 10
201.9294000000000153
 20
379.0943999999999505
 30
0.0
 10
214.3115999999999985
 20
379.0943999999999505
 30
0.0
 10
214.3115999999999985
 20
364.8077999999999861
 30
0.0
 10
214.3115999999999985
 20
364.8077999999999861
 30
0.0
  0
LWPOLYLINE
  5
69
  8
P
 62
256
370
-1
  6
BYLAYER
100
AcDbEntity
100
AcDbPolyline
 90
6
 70
0
 10
26.6706000000000003
 20
364.8077999999999861
 30
0.0
 10
14.2866000000000088
 20
364.8077999999999861
 30
0.0
 10
14.2866000000000088
 20
379.0943999999999505
 30
0.0
 10
26.6706000000000003
 20
379.0943999999999505
 30
0.0
 10
26.6706000000000003
 20
364.8077999999999861
 30
0.0
 10
26.6706000000000003
 20
364.8077999999999861
 30
0.0
  0
LWPOLYLINE
  5
6A
  8
P
 62
256
370
-1
  6
BYLAYER
100
AcDbEntity
100
AcDbPolyline
 90
6
 70
0
 10
41.9094000000000051
 20
322.0091999999999643
 30
0.0
 10
41.9094000000000051
 20
257.2379999999999995
 30
0.0
 10
103.8222000000000094
 20
257.2379999999999995
 30
0.0
 10
103.8222000000000094
 20
322.0091999999999643
 30
0.0
 10
41.9094000000000051
 20
322.0091999999999643
 30
0.0
 10
41.9094000000000051
 20
322.0091999999999643
 30
0.0
  0
LWPOLYLINE
  5
6B
  8
P
 62
256
370
-1
  6
BYLAYER
100
AcDbEntity
100
AcDbPolyline
 90
6
 70
0
 10
41.9094000000000051
 20
245.8080000000000211
 30
0.0
 10
41.9094000000000051
 20
181.0062000000000069
 30
0.0
 10
103.8222000000000094
 20
181.0062000000000069
 30
0.0
 10
103.8222000000000094
 20
245.8080000000000211
 30
0.0
 10
41.9094000000000051
 20
245.8080000000000211
 30
0.0
 10
41.9094000000000051
 20
245.8080000000000211
 30
0.0
  0
LWPOLYLINE
  5
6C
  8
P
 62
256
370
-1
  6
BYLAYER
100
AcDbEntity
100
AcDbPolyline
 90
6
 70
0
 10
103.8222000000000094
 20
104.8067999999999955
 30
0.0
 10
41.9094000000000051
 20
104.8067999999999955
 30
0.0
 10
41.9094000000000051
 20
169.5762
 30
0.0
 10
103.8222000000000094
 20
169.5762
 30
0.0
 10
103.8222000000000094
 20
104.8067999999999955
 30
0.0
 10
103.8222000000000094
 20
104.8067999999999955
 30
0.0
  0
LWPOLYLINE
  5
6D
  8
P
 62
256
370
-1
  6
BYLAYER
100
AcDbEntity
100
AcDbPolyline
 90
6
 70
0
 10
103.8222000000000094
 20
28.5750000000000028
 30
0.0
 10
41.9094000000000051
 20
28.5750000000000028
 30
0.0
 10
41.9094000000000051
 20
93.3768000000000171
 30
0.0
 10
103.8222000000000094
 20
93.3768000000000171
 30
0.0
 10
103.8222000000000094
 20
28.5750000000000028
 30
0.0
 10
103.8222000000000094
 20
28.5750000000000028
 30
0.0
  0
LWPOLYLINE
  5
6E
  8
P
 62
256
370
-1
  6
BYLAYER
100
AcDbEntity
100
AcDbPolyline
 90
6
 70
0
 10
186.6905999999999892
 20
181.0062000000000069
 30
0.0
 10
124.7777999999999992
 20
181.0062000000000069
 30
0.0
 10
124.7777999999999992
 20
245.8080000000000211
 30
0.0
 10
186.6905999999999892
 20
245.8080000000000211
 30
0.0
 10
186.6905999999999892
 20
181.0062000000000069
 30
0.0
 10
186.6905999999999892
 20
181.0062000000000069
 30
0.0
  0
LWPOLYLINE
  5
6F
  8
P
 62
256
370
-1
  6
BYLAYER
100
AcDbEntity
100
AcDbPolyline
 90
6
 70
0
 10
186.6905999999999892
 20
104.8067999999999955
 30
0.0
 10
124.7777999999999992
 20
104.8067999999999955
 30
0.0
 10
124.7777999999999992
 20
169.5762
 30
0.0
 10
186.6905999999999892
 20
169.5762
 30
0.0
 10
186.6905999999999892
 20
104.8067999999999955
 30
0.0
 10
186.6905999999999892
 20
104.8067999999999955
 30
0.0
  0
LWPOLYLINE
  5
70
  8
P
 62
256
370
-1
  6
BYLAYER
100
AcDbEntity
100
AcDbPolyline
 90
6
 70
0
 10
186.6905999999999892
 20
28.5750000000000028
 30
0.0
 10
124.7777999999999992
 20
28.5750000000000028
 30
0.0
 10
124.7777999999999992
 20
93.3768000000000171
 30
0.0
 10
186.6905999999999892
 20
93.3768000000000171
 30
0.0
 10
186.6905999999999892
 20
28.5750000000000028
 30
0.0
 10
186.6905999999999892
 20
28.5750000000000028
 30
0.0
  0
MTEXT
  5
71
100
AcDbEntity
100
AcDbMText
  8
T
 62
256
370
-1
  6
BYLAYER
 10
46.6884000000000086
 20
358.4034000000000333
 30
0.0
 40
11.3399999999999999
 41
0.0
 71
1
 72
1
  1
{\fGill Sans MT|b0|i0|c0|p18;POLICE}
  7
textstyle0
 50
0.0
 73
1
 44
1.0
  0
MTEXT
  5
72
100
AcDbEntity
100
AcDbMText
  8
T
 62
256
370
-1
  6
BYLAYER
 10
150.0084000000000231
 20
358.4034000000000333
 30
0.0
 40
11.3399999999999999
 41
0.0
 71
1
 72
1
  1
{\fGill Sans MT|b0|i0|c0|p18;BOX}
  7
textstyle1
 50
0.0
 73
1
 44
1.0
  0
MTEXT
  5
73
100
AcDbEntity
100
AcDbMText
  8
T
 62
256
370
-1
  6
BYLAYER
 10
106.8084000000000202
 20
357.8634000000000128
 30
0.0
 40
6.1200000000000001
 41
0.0
 71
1
 72
1
  1
{\fGill Sans MT|b0|i0|c0|p18;PUBLIC}
  7
textstyle2
 50
0.0
 73
1
 44
1.0
  0
MTEXT
  5
74
100
AcDbEntity
100
AcDbMText
  8
T
 62
256
370
-1
  6
BYLAYER
 10
111.4884000000000128
 20
351.9233999999999583
 30
0.0
 40
6.1200000000000001
 41
0.0
 71
1
 72
1
  1
{\fGill Sans MT|b0|i0|c0|p18;CALL}
  7
textstyle3
 50
0.0
 73
1
 44
1.0
  0
LWPOLYLINE
  5
75
  8
P
 62
256
370
-1
  6
BYLAYER
100
AcDbEntity
100
AcDbPolyline
 90
2
 70
0
 10
114.2999999999999972
 20
455.9616000000000327
 30
0.0
 10
114.2999999999999972
 20
454.0571999999999662
 30
0.0
  0
LWPOLYLINE
  5
76
  8
P
 62
256
370
-1
  6
BYLAYER
100
AcDbEntity
100
AcDbPolyline
 90
5
 70
0
 10
81.2808000000000135
 20
319.1508000000000038
 30
0.0
 10
81.2808000000000135
 20
291.0527999999999906
 30
0.0
 10
64.4526000000000039
 20
291.0527999999999906
 30
0.0
 10
64.4526000000000039
 20
319.1508000000000038
 30
0.0
 10
81.2808000000000135
 20
319.1508000000000038
 30
0.0
  0
LWPOLYLINE
  5
77
  8
P
 62
256
370
-1
  6
BYLAYER
100
AcDbEntity
100
AcDbPolyline
 90
5
 70
0
 10
44.7678000000000154
 20
319.1508000000000038
 30
0.0
 10
61.5942000000000149
 20
319.1508000000000038
 30
0.0
 10
61.5942000000000149
 20
291.0527999999999906
 30
0.0
 10
44.7678000000000154
 20
291.0527999999999906
 30
0.0
 10
44.7678000000000154
 20
319.1508000000000038
 30
0.0
  0
LWPOLYLINE
  5
78
  8
P
 62
256
370
-1
  6
BYLAYER
100
AcDbEntity
100
AcDbPolyline
 90
5
 70
0
 10
44.7678000000000154
 20
260.0964000000000169
 30
0.0
 10
44.7678000000000154
 20
288.1943999999999733
 30
0.0
 10
61.5942000000000149
 20
288.1943999999999733
 30
0.0
 10
61.5942000000000149
 20
260.0964000000000169
 30
0.0
 10
44.7678000000000154
 20
260.0964000000000169
 30
0.0
  0
LWPOLYLINE
  5
79
  8
P
 62
256
370
-1
  6
BYLAYER
100
AcDbEntity
100
AcDbPolyline
 90
5
 70
0
 10
64.4526000000000039
 20
260.0964000000000169
 30
0.0
 10
64.4526000000000039
 20
288.1943999999999733
 30
0.0
 10
81.2808000000000135
 20
288.1943999999999733
 30
0.0
 10
81.2808000000000135
 20
260.0964000000000169
 30
0.0
 10
64.4526000000000039
 20
260.0964000000000169
 30
0.0
  0
LWPOLYLINE
  5
7A
  8
P
 62
256
370
-1
  6
BYLAYER
100
AcDbEntity
100
AcDbPolyline
 90
5
 70
0
 10
100.9655999999999949
 20
260.0964000000000169
 30
0.0
 10
84.1374000000000137
 20
260.0964000000000169
 30
0.0
 10
84.1374000000000137
 20
288.1943999999999733
 30
0.0
 10
100.9655999999999949
 20
288.1943999999999733
 30
0.0
 10
100.9655999999999949
 20
260.0964000000000169
 30
0.0
  0
LWPOLYLINE
  5
7B
  8
P
 62
256
370
-1
  6
BYLAYER
100
AcDbEntity
100
AcDbPolyline
 90
6
 70
0
 10
100.9655999999999949
 20
291.0527999999999906
 30
0.0
 10
84.1374000000000137
 20
291.0527999999999906
 30
0.0
 10
84.1374000000000137
 20
319.1508000000000038
 30
0.0
 10
100.9655999999999949
 20
319.1508000000000038
 30
0.0
 10
100.9655999999999949
 20
291.0527999999999906
 30
0.0
 10
100.9655999999999949
 20
291.0527999999999906
 30
0.0
  0
LWPOLYLINE
  5
7C
  8
P
 62
256
370
-1
  6
BYLAYER
100
AcDbEntity
100
AcDbPolyline
 90
6
 70
0
 10
124.7777999999999992
 20
322.0091999999999643
 30
0.0
 10
124.7777999999999992
 20
257.2379999999999995
 30
0.0
 10
186.6905999999999892
 20
257.2379999999999995
 30
0.0
 10
186.6905999999999892
 20
322.0091999999999643
 30
0.0
 10
124.7777999999999992
 20
322.0091999999999643
 30
0.0
 10
124.7777999999999992
 20
322.0091999999999643
 30
0.0
  0
LWPOLYLINE
  5
7D
  8
P
 62
256
370
-1
  6
BYLAYER
100
AcDbEntity
100
AcDbPolyline
 90
5
 70
0
 10
164.1474000000000046
 20
319.1508000000000038
 30
0.0
 10
164.1474000000000046
 20
291.0527999999999906
 30
0.0
 10
147.3192000000000235
 20
291.0527999999999906
 30
0.0
 10
147.3192000000000235
 20
319.1508000000000038
 30
0.0
 10
164.1474000000000046
 20
319.1508000000000038
 30
0.0
  0
LWPOLYLINE
  5
7E
  8
P
 62
256
370
-1
  6
BYLAYER
100
AcDbEntity
100
AcDbPolyline
 90
5
 70
0
 10
127.6343999999999994
 20
319.1508000000000038
 30
0.0
 10
144.462600000000009
 20
319.1508000000000038
 30
0.0
 10
144.462600000000009
 20
291.0527999999999906
 30
0.0
 10
127.6343999999999994
 20
291.0527999999999906
 30
0.0
 10
127.6343999999999994
 20
319.1508000000000038
 30
0.0
  0
LWPOLYLINE
  5
7F
  8
P
 62
256
370
-1
  6
BYLAYER
100
AcDbEntity
100
AcDbPolyline
 90
5
 70
0
 10
127.6343999999999994
 20
260.0964000000000169
 30
0.0
 10
127.6343999999999994
 20
288.1943999999999733
 30
0.0
 10
144.462600000000009
 20
288.1943999999999733
 30
0.0
 10
144.462600000000009
 20
260.0964000000000169
 30
0.0
 10
127.6343999999999994
 20
260.0964000000000169
 30
0.0
  0
LWPOLYLINE
  5
80
  8
P
 62
256
370
-1
  6
BYLAYER
100
AcDbEntity
100
AcDbPolyline
 90
5
 70
0
 10
147.3192000000000235
 20
260.0964000000000169
 30
0.0
 10
147.3192000000000235
 20
288.1943999999999733
 30
0.0
 10
164.1474000000000046
 20
288.1943999999999733
 30
0.0
 10
164.1474000000000046
 20
260.0964000000000169
 30
0.0
 10
147.3192000000000235
 20
260.0964000000000169
 30
0.0
  0
LWPOLYLINE
  5
81
  8
P
 62
256
370
-1
  6
BYLAYER
100
AcDbEntity
100
AcDbPolyline
 90
5
 70
0
 10
183.8322000000000003
 20
260.0964000000000169
 30
0.0
 10
167.0057999999999936
 20
260.0964000000000169
 30
0.0
 10
167.0057999999999936
 20
288.1943999999999733
 30
0.0
 10
183.8322000000000003
 20
288.1943999999999733
 30
0.0
 10
183.8322000000000003
 20
260.0964000000000169
 30
0.0
  0
LWPOLYLINE
  5
82
  8
P
 62
256
370
-1
  6
BYLAYER
100
AcDbEntity
100
AcDbPolyline
 90
6
 70
0
 10
183.8322000000000003
 20
291.0527999999999906
 30
0.0
 10
167.0057999999999936
 20
291.0527999999999906
 30
0.0
 10
167.0057999999999936
 20
319.1508000000000038
 30
0.0
 10
183.8322000000000003
 20
319.1508000000000038
 30
0.0
 10
183.8322000000000003
 20
291.0527999999999906
 30
0.0
 10
183.8322000000000003
 20
291.0527999999999906
 30
0.0
  0
HATCH
  5
83
  8
H
 62
256
370
-1
  6
CONTINUOUS
100
AcDbEntity
100
AcDbHatch
 10
0.0
 20
0.0
 30
0.0
210
0.0
220
0.0
230
1.0
  2
SOLID
 70
1
 71
0
 91
1
 92
1
 93
6
 72
1
 10
105.0930000000000177
 20
445.1993999999999687
 11
105.0930000000000177
 21
416.6243999999999801
 72
1
 10
105.0930000000000177
 20
416.6243999999999801
 11
106.362000000000009
 21
416.6243999999999801
 72
1
 10
106.362000000000009
 20
416.6243999999999801
 11
106.362000000000009
 21
445.1993999999999687
 72
1
 10
106.362000000000009
 20
445.1993999999999687
 11
105.0930000000000177
 21
445.1993999999999687
 72
1
 10
105.0930000000000177
 20
445.1993999999999687
 11
105.0930000000000177
 21
445.1993999999999687
 72
1
 10
105.0930000000000177
 20
445.1993999999999687
 11
105.0930000000000177
 21
445.1993999999999687
 97
0
 75
0
 76
1
 98
0
1001
ACAD
1010
0.0
1020
0.0
1030
0
  0
HATCH
  5
84
  8
H
 62
256
370
-1
  6
CONTINUOUS
100
AcDbEntity
100
AcDbHatch
 10
0.0
 20
0.0
 30
0.0
210
0.0
220
0.0
230
1.0
  2
SOLID
 70
1
 71
0
 91
1
 92
1
 93
6
 72
1
 10
122.2379999999999995
 20
445.1993999999999687
 11
122.2379999999999995
 21
416.6243999999999801
 72
1
 10
122.2379999999999995
 20
416.6243999999999801
 11
123.5070000000000192
 21
416.6243999999999801
 72
1
 10
123.5070000000000192
 20
416.6243999999999801
 11
123.5070000000000192
 21
445.1993999999999687
 72
1
 10
123.5070000000000192
 20
445.1993999999999687
 11
122.2379999999999995
 21
445.1993999999999687
 72
1
 10
122.2379999999999995
 20
445.1993999999999687
 11
122.2379999999999995
 21
445.1993999999999687
 72
1
 10
122.2379999999999995
 20
445.1993999999999687
 11
122.2379999999999995
 21
445.1993999999999687
 97
0
 75
0
 76
1
 98
0
1001
ACAD
1010
0.0
1020
0.0
1030
0
  0
HATCH
  5
85
  8
H
 62
256
370
-1
  6
CONTINUOUS
100
AcDbEntity
100
AcDbHatch
 10
0.0
 20
0.0
 30
0.0
210
0.0
220
0.0
230
1.0
  2
SOLID
 70
1
 71
0
 91
1
 92
1
 93
9
 72
1
 10
200.0250000000000341
 20
17.1449999999999996
 11
200.0250000000000341
 21
360.9972000000000207
 72
1
 10
200.0250000000000341
 20
360.9972000000000207
 11
200.0250000000000341
 21
364.8077999999999861
 72
1
 10
200.0250000000000341
 20
364.8077999999999861
 11
219.551400000000001
 21
364.8077999999999861
 72
1
 10
219.551400000000001
 20
364.8077999999999861
 11
219.551400000000001
 21
360.9972000000000207
 72
1
 10
219.551400000000001
 20
360.9972000000000207
 11
220.0266000000000304
 21
360.9972000000000207
 72
1
 10
220.0266000000000304
 20
360.9972000000000207
 11
220.0266000000000304
 21
17.1449999999999818
 72
1
 10
220.0266000000000304
 20
17.1449999999999996
 11
200.0250000000000341
 21
17.1449999999999996
 72
1
 10
200.0250000000000341
 20
17.1449999999999996
 11
200.0250000000000341
 21
17.1449999999999996
 72
1
 10
200.0250000000000341
 20
17.1449999999999996
 11
200.0250000000000341
 21
17.1449999999999996
 97
0
 75
0
 76
1
 98
0
1001
ACAD
1010
0.0
1020
0.0
1030
0
  0
HATCH
  5
86
  8
H
 62
256
370
-1
  6
CONTINUOUS
100
AcDbEntity
100
AcDbHatch
 10
0.0
 20
0.0
 30
0.0
210
0.0
220
0.0
230
1.0
  2
SOLID
 70
1
 71
0
 91
1
 92
1
 93
9
 72
1
 10
28.5749999999999993
 20
17.1449999999999996
 11
28.5749999999999993
 21
360.9972000000000207
 72
1
 10
28.5749999999999993
 20
360.9972000000000207
 11
28.5749999999999993
 21
364.8077999999999861
 72
1
 10
28.5749999999999993
 20
364.8077999999999861
 11
9.0486000000000022
 21
364.8077999999999861
 72
1
 10
9.0486000000000022
 20
364.8077999999999861
 11
9.0486000000000022
 21
360.9972000000000207
 72
1
 10
9.0486000000000022
 20
360.9972000000000207
 11
8.5716000000000019
 21
360.9972000000000207
 72
1
 10
8.5716000000000019
 20
360.9972000000000207
 11
8.5716000000000019
 21
17.1449999999999818
 72
1
 10
8.5716000000000019
 20
17.1449999999999996
 11
28.5749999999999993
 21
17.1449999999999996
 72
1
 10
28.5749999999999993
 20
17.1449999999999996
 11
28.5749999999999993
 21
17.1449999999999996
 72
1
 10
28.5749999999999993
 20
17.1449999999999996
 11
28.5749999999999993
 21
17.1449999999999996
 97
0
 75
0
 76
1
 98
0
1001
ACAD
1010
0.0
1020
0.0
1030
0
  0
HATCH
  5
87
  8
H
 62
256
370
-1
  6
CONTINUOUS
100
AcDbEntity
100
AcDbHatch
 10
0.0
 20
0.0
 30
0.0
210
0.0
220
0.0
230
1.0
  2
SOLID
 70
1
 71
0
 91
1
 92
1
 93
6
 72
1
 10
211.4550000000000125
 20
336.2327999999999975
 11
17.1450000000000102
 21
336.2327999999999975
 72
1
 10
17.1450000000000102
 20
336.2327999999999975
 11
17.1450000000000102
 21
362.9034000000000333
 72
1
 10
17.1450000000000102
 20
362.9034000000000333
 11
211.4550000000000125
 21
362.9034000000000333
 72
1
 10
211.4550000000000125
 20
362.9034000000000333
 11
211.4550000000000125
 21
336.2327999999999975
 72
1
 10
211.4550000000000125
 20
336.2327999999999975
 11
211.4550000000000125
 21
336.2327999999999975
 72
1
 10
211.4550000000000125
 20
336.2327999999999975
 11
211.4550000000000125
 21
336.2327999999999975
 97
0
 75
0
 76
1
 98
0
1001
ACAD
1010
0.0
1020
0.0
1030
0
  0
HATCH
  5
88
  8
H
 62
256
370
-1
  6
CONTINUOUS
100
AcDbEntity
100
AcDbHatch
 10
0.0
 20
0.0
 30
0.0
210
0.0
220
0.0
230
1.0
  2
SOLID
 70
1
 71
0
 91
1
 92
1
 93
74
 72
1
 10
20.034000000000006
 20
360.0449999999999591
 11
20.034000000000006
 21
358.1406000000000063
 72
1
 10
20.034000000000006
 20
358.1406000000000063
 11
20.034000000000006
 21
355.6637999999999806
 72
1
 10
20.034000000000006
 20
355.6637999999999806
 11
20.034000000000006
 21
352.7117999999999824
 72
1
 10
20.034000000000006
 20
352.7117999999999824
 11
20.034000000000006
 21
349.5671999999999571
 72
1
 10
20.034000000000006
 20
349.5671999999999571
 11
20.034000000000006
 21
346.4243999999999915
 72
1
 10
20.034000000000006
 20
346.4243999999999915
 11
20.034000000000006
 21
343.5353999999999814
 72
1
 10
20.034000000000006
 20
343.5353999999999814
 11
20.034000000000006
 21
340.9955999999999676
 72
1
 10
20.034000000000006
 20
340.9955999999999676
 11
20.034000000000006
 21
339.0893999999999551
 72
1
 10
20.034000000000006
 20
339.0893999999999551
 11
21.0185999999999993
 21
339.0893999999999551
 72
1
 10
21.0185999999999993
 20
339.0893999999999551
 11
22.9878000000000036
 21
339.0893999999999551
 72
1
 10
22.9878000000000036
 20
339.0893999999999551
 11
25.8444000000000074
 21
339.0893999999999551
 72
1
 10
25.8444000000000074
 20
339.0893999999999551
 11
29.4642000000000017
 21
339.0893999999999551
 72
1
 10
29.4642000000000017
 20
339.0893999999999551
 11
33.8778000000000077
 21
339.0893999999999551
 72
1
 10
33.8778000000000077
 20
339.0893999999999551
 11
38.9898000000000025
 21
339.0893999999999551
 72
1
 10
38.9898000000000025
 20
339.0893999999999551
 11
44.7354000000000198
 21
339.0893999999999551
 72
1
 10
44.7354000000000198
 20
339.0893999999999551
 11
51.0228000000000108
 21
339.0893999999999551
 72
1
 10
51.0228000000000108
 20
339.0893999999999551
 11
57.8484000000000123
 21
339.0893999999999551
 72
1
 10
57.8484000000000123
 20
339.0893999999999551
 11
65.0879999999999939
 21
339.0893999999999551
 72
1
 10
65.0879999999999939
 20
339.0893999999999551
 11
72.7074000000000069
 21
339.0893999999999551
 72
1
 10
72.7074000000000069
 20
339.0893999999999551
 11
80.6453999999999951
 21
339.0893999999999551
 72
1
 10
80.6453999999999951
 20
339.0893999999999551
 11
97.2180000000000177
 21
339.0893999999999551
 72
1
 10
97.2180000000000177
 20
339.0893999999999551
 11
114.3324000000000069
 21
339.0893999999999551
 72
1
 10
114.3324000000000069
 20
339.0893999999999551
 11
131.4126000000000261
 21
339.0893999999999551
 72
1
 10
131.4126000000000261
 20
339.0893999999999551
 11
147.9870000000000232
 21
339.0893999999999551
 72
1
 10
147.9870000000000232
 20
339.0893999999999551
 11
155.9556000000000324
 21
339.0893999999999551
 72
1
 10
155.9556000000000324
 20
339.0893999999999551
 11
163.5767999999999915
 21
339.0893999999999551
 72
1
 10
163.5767999999999915
 20
339.0893999999999551
 11
170.8146000000000129
 21
339.0893999999999551
 72
1
 10
170.8146000000000129
 20
339.0893999999999551
 11
177.6096000000000288
 21
339.0893999999999551
 72
1
 10
177.6096000000000288
 20
339.0893999999999551
 11
183.8952000000000169
 21
339.0893999999999551
 72
1
 10
183.8952000000000169
 20
339.0893999999999551
 11
189.6750000000000398
 21
339.0893999999999551
 72
1
 10
189.6750000000000398
 20
339.0893999999999551
 11
194.7545999999999822
 21
339.0893999999999551
 72
1
 10
194.7545999999999822
 20
339.0893999999999551
 11
199.1988000000000341
 21
339.0893999999999551
 72
1
 10
199.1988000000000341
 20
339.0893999999999551
 11
202.8186000000000035
 21
339.0893999999999551
 72
1
 10
202.8186000000000035
 20
339.0893999999999551
 11
205.6769999999999925
 21
339.0893999999999551
 72
1
 10
205.6769999999999925
 20
339.0893999999999551
 11
207.6137999999999977
 21
339.0893999999999551
 72
1
 10
207.6137999999999977
 20
339.0893999999999551
 11
208.6290000000000191
 21
339.0893999999999551
 72
1
 10
208.6290000000000191
 20
339.0893999999999551
 11
208.6290000000000191
 21
340.9955999999999676
 72
1
 10
208.6290000000000191
 20
340.9955999999999676
 11
208.6290000000000191
 21
343.5353999999999814
 72
1
 10
208.6290000000000191
 20
343.5353999999999814
 11
208.6290000000000191
 21
346.4243999999999915
 72
1
 10
208.6290000000000191
 20
346.4243999999999915
 11
208.6290000000000191
 21
349.5671999999999571
 72
1
 10
208.6290000000000191
 20
349.5671999999999571
 11
208.6290000000000191
 21
352.7117999999999824
 72
1
 10
208.6290000000000191
 20
352.7117999999999824
 11
208.6290000000000191
 21
355.6637999999999806
 72
1
 10
208.6290000000000191
 20
355.6637999999999806
 11
208.6290000000000191
 21
358.1406000000000063
 72
1
 10
208.6290000000000191
 20
358.1406000000000063
 11
208.6290000000000191
 21
360.0449999999999591
 72
1
 10
208.6290000000000191
 20
360.0449999999999591
 11
207.6137999999999977
 21
360.0449999999999591
 72
1
 10
207.6137999999999977
 20
360.0449999999999591
 11
205.6769999999999925
 21
360.0449999999999591
 72
1
 10
205.6769999999999925
 20
360.0449999999999591
 11
202.8186000000000035
 21
360.0449999999999591
 72
1
 10
202.8186000000000035
 20
360.0449999999999591
 11
199.1988000000000341
 21
360.0449999999999591
 72
1
 10
199.1988000000000341
 20
360.0449999999999591
 11
194.7545999999999822
 21
360.0449999999999591
 72
1
 10
194.7545999999999822
 20
360.0449999999999591
 11
189.6750000000000398
 21
360.0449999999999591
 72
1
 10
189.6750000000000398
 20
360.0449999999999591
 11
183.8952000000000169
 21
360.0449999999999591
 72
1
 10
183.8952000000000169
 20
360.0449999999999591
 11
177.6096000000000288
 21
360.0449999999999591
 72
1
 10
177.6096000000000288
 20
360.0449999999999591
 11
170.8146000000000129
 21
360.0449999999999591
 72
1
 10
170.8146000000000129
 20
360.0449999999999591
 11
163.5767999999999915
 21
360.0449999999999591
 72
1
 10
163.5767999999999915
 20
360.0449999999999591
 11
155.9556000000000324
 21
360.0449999999999591
 72
1
 10
155.9556000000000324
 20
360.0449999999999591
 11
147.9870000000000232
 21
360.0449999999999591
 72
1
 10
147.9870000000000232
 20
360.0449999999999591
 11
131.4126000000000261
 21
360.0449999999999591
 72
1
 10
131.4126000000000261
 20
360.0449999999999591
 11
114.3324000000000069
 21
360.0449999999999591
 72
1
 10
114.3324000000000069
 20
360.0449999999999591
 11
97.2180000000000177
 21
360.0449999999999591
 72
1
 10
97.2180000000000177
 20
360.0449999999999591
 11
80.6453999999999951
 21
360.0449999999999591
 72
1
 10
80.6453999999999951
 20
360.0449999999999591
 11
72.7074000000000069
 21
360.0449999999999591
 72
1
 10
72.7074000000000069
 20
360.0449999999999591
 11
65.0879999999999939
 21
360.0449999999999591
 72
1
 10
65.0879999999999939
 20
360.0449999999999591
 11
57.8484000000000123
 21
360.0449999999999591
 72
1
 10
57.8484000000000123
 20
360.0449999999999591
 11
51.0228000000000108
 21
360.0449999999999591
 72
1
 10
51.0228000000000108
 20
360.0449999999999591
 11
44.7354000000000198
 21
360.0449999999999591
 72
1
 10
44.7354000000000198
 20
360.0449999999999591
 11
38.9898000000000025
 21
360.0449999999999591
 72
1
 10
38.9898000000000025
 20
360.0449999999999591
 11
33.8778000000000077
 21
360.0449999999999591
 72
1
 10
33.8778000000000077
 20
360.0449999999999591
 11
29.4642000000000017
 21
360.0449999999999591
 72
1
 10
29.4642000000000017
 20
360.0449999999999591
 11
25.8444000000000074
 21
360.0449999999999591
 72
1
 10
25.8444000000000074
 20
360.0449999999999591
 11
22.9878000000000036
 21
360.0449999999999591
 72
1
 10
22.9878000000000036
 20
360.0449999999999591
 11
21.0185999999999993
 21
360.0449999999999591
 72
1
 10
21.0185999999999993
 20
360.0449999999999591
 11
20.034000000000006
 21
360.0449999999999591
 72
1
 10
20.034000000000006
 20
360.0449999999999591
 11
20.034000000000006
 21
360.0449999999999591
 72
1
 10
20.034000000000006
 20
360.0449999999999591
 11
20.034000000000006
 21
360.0449999999999591
 97
0
 75
0
 76
1
 98
0
1001
ACAD
1010
0.0
1020
0.0
1030
0
  0
HATCH
  5
89
  8
H
 62
256
370
-1
  6
CONTINUOUS
100
AcDbEntity
100
AcDbHatch
 10
0.0
 20
0.0
 30
0.0
210
0.0
220
0.0
230
1.0
  2
SOLID
 70
1
 71
0
 91
1
 92
1
 93
6
 72
1
 10
214.3115999999999985
 20
364.8077999999999861
 11
201.9294000000000153
 21
364.8077999999999861
 72
1
 10
201.9294000000000153
 20
364.8077999999999861
 11
201.9294000000000153
 21
379.0943999999999505
 72
1
 10
201.9294000000000153
 20
379.0943999999999505
 11
214.3115999999999985
 21
379.0943999999999505
 72
1
 10
214.3115999999999985
 20
379.0943999999999505
 11
214.3115999999999985
 21
364.8077999999999861
 72
1
 10
214.3115999999999985
 20
364.8077999999999861
 11
214.3115999999999985
 21
364.8077999999999861
 72
1
 10
214.3115999999999985
 20
364.8077999999999861
 11
214.3115999999999985
 21
364.8077999999999861
 97
0
 75
0
 76
1
 98
0
1001
ACAD
1010
0.0
1020
0.0
1030
0
  0
HATCH
  5
8A
  8
H
 62
256
370
-1
  6
CONTINUOUS
100
AcDbEntity
100
AcDbHatch
 10
0.0
 20
0.0
 30
0.0
210
0.0
220
0.0
230
1.0
  2
SOLID
 70
1
 71
0
 91
1
 92
1
 93
6
 72
1
 10
26.6706000000000003
 20
364.8077999999999861
 11
14.2866000000000088
 21
364.8077999999999861
 72
1
 10
14.2866000000000088
 20
364.8077999999999861
 11
14.2866000000000088
 21
379.0943999999999505
 72
1
 10
14.2866000000000088
 20
379.0943999999999505
 11
26.6706000000000003
 21
379.0943999999999505
 72
1
 10
26.6706000000000003
 20
379.0943999999999505
 11
26.6706000000000003
 21
364.8077999999999861
 72
1
 10
26.6706000000000003
 20
364.8077999999999861
 11
26.6706000000000003
 21
364.8077999999999861
 72
1
 10
26.6706000000000003
 20
364.8077999999999861
 11
26.6706000000000003
 21
364.8077999999999861
 97
0
 75
0
 76
1
 98
0
1001
ACAD
1010
0.0
1020
0.0
1030
0
  0
ENDSEC
  0
SECTION
  2
OBJECTS
  0
DICTIONARY
  5
C
100
AcDbDictionary
280
0
281
1
  3
ACAD_GROUP
350
D
  3
ACAD_LAYOUT
350
1A
  3
ACAD_MLINESTYLE
350
17
  3
ACAD_PLOTSETTINGS
350
19
  3
ACAD_PLOTSTYLENAME
350
E
  3
AcDbVariableDictionary
350
8B
  3
QCAD_OBJECTS
350
8C
  0
DICTIONARY
  5
D
100
AcDbDictionary
280
0
281
1
  0
ACDBDICTIONARYWDFLT
  5
E
100
AcDbDictionary
281
1
  3
Normal
350
F
100
AcDbDictionaryWithDefault
340
F
  0
ACDBPLACEHOLDER
  5
F
  0
DICTIONARY
  5
17
100
AcDbDictionary
280
0
281
1
  3
Standard
350
18
  0
MLINESTYLE
  5
18
100
AcDbMlineStyle
  2
STANDARD
 70
0
  3

 62
256
 51
90.0
 52
90.0
 71
2
 49
0.5
 62
256
  6
BYLAYER
 49
-0.5
 62
256
  6
BYLAYER
  0
DICTIONARY
  5
19
100
AcDbDictionary
280
0
281
1
  0
DICTIONARY
  5
1A
100
AcDbDictionary
281
1
  3
Layout1
350
1E
  3
Layout2
350
26
  3
Model
350
22
  0
LAYOUT
  5
1E
100
AcDbPlotSettings
  1

  2
C:\Program Files\AutoCAD 2002\plotters\DWF ePlot (optimized for plotting).pc3
  4

  6

 40
0.0
 41
0.0
 42
0.0
 43
0.0
 44
0.0
 45
0.0
 46
0.0
 47
0.0
 48
0.0
 49
0.0
140
0.0
141
0.0
142
1.0
143
1.0
 70
688
 72
0
 73
0
 74
5
  7

 75
16
147
1.0
148
0.0
149
0.0
100
AcDbLayout
  1
Layout1
 70
1
 71
1
 10
0.0
 20
0.0
 11
420.0
 21
297.0
 12
0.0
 22
0.0
 32
0.0
 14
100000000000000000000.0
 24
100000000000000000000.0
 34
100000000000000000000.0
 15
-100000000000000000000.0
 25
-100000000000000000000.0
 35
-100000000000000000000.0
146
0.0
 13
0.0
 23
0.0
 33
0.0
 16
1.0
 26
0.0
 36
0.0
 17
0.0
 27
1.0
 37
0.0
 76
0
330
1B
  0
LAYOUT
  5
22
100
AcDbPlotSettings
  1

  2
C:\Program Files\AutoCAD 2002\plotters\DWF ePlot (optimized for plotting).pc3
  4

  6

 40
0.0
 41
0.0
 42
0.0
 43
0.0
 44
0.0
 45
0.0
 46
0.0
 47
0.0
 48
0.0
 49
0.0
140
0.0
141
0.0
142
1.0
143
1.0
 70
1712
 72
0
 73
0
 74
0
  7

 75
0
147
1.0
148
0.0
149
0.0
100
AcDbLayout
  1
Model
 70
1
 71
0
 10
0.0
 20
0.0
 11
12.0
 21
9.0
 12
0.0
 22
0.0
 32
0.0
 14
0.0
 24
0.0
 34
0.0
 15
0.0
 25
0.0
 35
0.0
146
0.0
 13
0.0
 23
0.0
 33
0.0
 16
1.0
 26
0.0
 36
0.0
 17
0.0
 27
1.0
 37
0.0
 76
0
330
1F
  0
LAYOUT
  5
26
100
AcDbPlotSettings
  1

  2
C:\Program Files\AutoCAD 2002\plotters\DWF ePlot (optimized for plotting).pc3
  4

  6

 40
0.0
 41
0.0
 42
0.0
 43
0.0
 44
0.0
 45
0.0
 46
0.0
 47
0.0
 48
0.0
 49
0.0
140
0.0
141
0.0
142
1.0
143
1.0
 70
688
 72
0
 73
0
 74
5
  7

 75
16
147
1.0
148
0.0
149
0.0
100
AcDbLayout
  1
Layout2
 70
1
 71
2
 10
0.0
 20
0.0
 11
12.0
 21
9.0
 12
0.0
 22
0.0
 32
0.0
 14
0.0
 24
0.0
 34
0.0
 15
0.0
 25
0.0
 35
0.0
146
0.0
 13
0.0
 23
0.0
 33
0.0
 16
1.0
 26
0.0
 36
0.0
 17
0.0
 27
1.0
 37
0.0
 76
0
330
23
  0
DICTIONARY
  5
8B
100
AcDbDictionary
281
1
  3
DIMASSOC
350
8E
  3
HIDETEXT
350
8D
  0
DICTIONARYVAR
  5
8D
100
DictionaryVariables
280
0
  1
2
  0
DICTIONARYVAR
  5
8E
100
DictionaryVariables
280
0
  1
1
  0
DICTIONARY
  5
8C
100
AcDbDictionary
281
1
  3
DIMJOGANG
350
8F
  3
Grid/DisplayGrid00
350
90
  3
Grid/DisplayGrid01
350
91
  3
Grid/DisplayGrid02
350
92
  3
Grid/DisplayGrid03
350
93
  3
Grid/GridSpacingX00
350
94
  3
Grid/GridSpacingX01
350
95
  3
Grid/GridSpacingX02
350
96
  3
Grid/GridSpacingX03
350
97
  3
Grid/GridSpacingY00
350
98
  3
Grid/GridSpacingY01
350
99
  3
Grid/GridSpacingY02
350
9A
  3
Grid/GridSpacingY03
350
9B
  3
Grid/IsometricGrid00
350
9C
  3
Grid/IsometricGrid01
350
9D
  3
Grid/IsometricGrid02
350
9E
  3
Grid/IsometricGrid03
350
9F
  3
Grid/IsometricProjection00
350
A0
  3
Grid/IsometricProjection01
350
A1
  3
Grid/IsometricProjection02
350
A2
  3
Grid/IsometricProjection03
350
A3
  3
Grid/MetaGridSpacingX00
350
A4
  3
Grid/MetaGridSpacingX01
350
A5
  3
Grid/MetaGridSpacingX02
350
A6
  3
Grid/MetaGridSpacingX03
350
A7
  3
Grid/MetaGridSpacingY00
350
A8
  3
Grid/MetaGridSpacingY01
350
A9
  3
Grid/MetaGridSpacingY02
350
AA
  3
Grid/MetaGridSpacingY03
350
AB
  3
MultiPageSettings/Columns
350
AC
  3
MultiPageSettings/GlueMarginsBottom
350
AD
  3
MultiPageSettings/GlueMarginsLeft
350
AE
  3
MultiPageSettings/GlueMarginsRight
350
AF
  3
MultiPageSettings/GlueMarginsTop
350
B0
  3
MultiPageSettings/PrintCropMarks
350
B1
  3
MultiPageSettings/Rows
350
B2
  3
PageSettings/OffsetX
350
B3
  3
PageSettings/OffsetY
350
B4
  3
PageSettings/PageOrientation
350
B5
  3
PageSettings/PaperHeight
350
B6
  3
PageSettings/PaperWidth
350
B7
  3
PageSettings/Scale
350
B8
  3
PageSettings/ShowPaperBorders
350
B9
  3
UnitSettings/PaperUnit
350
BA
  0
XRECORD
  5
8F
330
8C
100
AcDbXrecord
280
1
 40
1.5707963267948959
  0
XRECORD
  5
90
330
8C
100
AcDbXrecord
280
1
290
1
  0
XRECORD
  5
91
330
8C
100
AcDbXrecord
280
1
290
1
  0
XRECORD
  5
92
330
8C
100
AcDbXrecord
280
1
290
1
  0
XRECORD
  5
93
330
8C
100
AcDbXrecord
280
1
290
1
  0
XRECORD
  5
94
330
8C
100
AcDbXrecord
280
1
1000
auto
  0
XRECORD
  5
95
330
8C
100
AcDbXrecord
280
1
1000
auto
  0
XRECORD
  5
96
330
8C
100
AcDbXrecord
280
1
1000
auto
  0
XRECORD
  5
97
330
8C
100
AcDbXrecord
280
1
1000
auto
  0
XRECORD
  5
98
330
8C
100
AcDbXrecord
280
1
1000
auto
  0
XRECORD
  5
99
330
8C
100
AcDbXrecord
280
1
1000
auto
  0
XRECORD
  5
9A
330
8C
100
AcDbXrecord
280
1
1000
auto
  0
XRECORD
  5
9B
330
8C
100
AcDbXrecord
280
1
1000
auto
  0
XRECORD
  5
9C
330
8C
100
AcDbXrecord
280
1
290
0
  0
XRECORD
  5
9D
330
8C
100
AcDbXrecord
280
1
290
0
  0
XRECORD
  5
9E
330
8C
100
AcDbXrecord
280
1
290
0
  0
XRECORD
  5
9F
330
8C
100
AcDbXrecord
280
1
290
0
  0
XRECORD
  5
A0
330
8C
100
AcDbXrecord
280
1
 90
0
  0
XRECORD
  5
A1
330
8C
100
AcDbXrecord
280
1
 90
0
  0
XRECORD
  5
A2
330
8C
100
AcDbXrecord
280
1
 90
0
  0
XRECORD
  5
A3
330
8C
100
AcDbXrecord
280
1
 90
0
  0
XRECORD
  5
A4
330
8C
100
AcDbXrecord
280
1
1000
auto
  0
XRECORD
  5
A5
330
8C
100
AcDbXrecord
280
1
1000
auto
  0
XRECORD
  5
A6
330
8C
100
AcDbXrecord
280
1
1000
auto
  0
XRECORD
  5
A7
330
8C
100
AcDbXrecord
280
1
1000
auto
  0
XRECORD
  5
A8
330
8C
100
AcDbXrecord
280
1
1000
auto
  0
XRECORD
  5
A9
330
8C
100
AcDbXrecord
280
1
1000
auto
  0
XRECORD
  5
AA
330
8C
100
AcDbXrecord
280
1
1000
auto
  0
XRECORD
  5
AB
330
8C
100
AcDbXrecord
280
1
1000
auto
  0
XRECORD
  5
AC
330
8C
100
AcDbXrecord
280
1
 90
1
  0
XRECORD
  5
AD
330
8C
100
AcDbXrecord
280
1
 40
10.0
  0
XRECORD
  5
AE
330
8C
100
AcDbXrecord
280
1
 40
10.0
  0
XRECORD
  5
AF
330
8C
100
AcDbXrecord
280
1
 40
10.0
  0
XRECORD
  5
B0
330
8C
100
AcDbXrecord
280
1
 40
10.0
  0
XRECORD
  5
B1
330
8C
100
AcDbXrecord
280
1
290
0
  0
XRECORD
  5
B2
330
8C
100
AcDbXrecord
280
1
 90
1
  0
XRECORD
  5
B3
330
8C
100
AcDbXrecord
280
1
 40
0.0
  0
XRECORD
  5
B4
330
8C
100
AcDbXrecord
280
1
 40
0.0
  0
XRECORD
  5
B5
330
8C
100
AcDbXrecord
280
1
1000
Portrait
  0
XRECORD
  5
B6
330
8C
100
AcDbXrecord
280
1
 40
420.0
  0
XRECORD
  5
B7
330
8C
100
AcDbXrecord
280
1
 40
297.0
  0
XRECORD
  5
B8
330
8C
100
AcDbXrecord
280
1
1000
1:1
  0
XRECORD
  5
B9
330
8C
100
AcDbXrecord
280
1
290
1
  0
XRECORD
  5
BA
330
8C
100
AcDbXrecord
280
1
 90
4
  0
ENDSEC
  0
EOF
