999
dxflib 3.3.4.0
  0
SECTION
  2
HEADER
  9
$ACADVER
  1
AC1015
  9
$HANDSEED
  5
FFFF
  9
$DIMADEC
 70
0
  9
$DIMASZ
 40
2.5
  9
$DIMAUNIT
 70
0
  9
$DIMAZIN
 70
2
  9
$DIMDEC
 70
4
  9
$DIMEXE
 40
1.25
  9
$DIMEXO
 40
0.625
  9
$DIMGAP
 40
0.625
  9
$DIMLUNIT
 70
2
  9
$DIMSCALE
 40
1.0
  9
$DIMTSZ
 40
0.0
  9
$DIMTXT
 40
2.5
  9
$DIMZIN
 70
8
  9
$DWGCODEPAGE
  3
ANSI_1252
  9
$INSUNITS
 70
4
  9
$LTSCALE
 40
1.0
  0
ENDSEC
  0
SECTION
  2
TABLES
  0
TABLE
  2
VPORT
  5
8
100
AcDbSymbolTable
 70
1
  0
VPORT
  5
30
100
AcDbSymbolTableRecord
100
AcDbViewportTableRecord
  2
*Active
 70
0
 10
0.0
 20
0.0
 11
1.0
 21
1.0
 12
286.3055555555554861
 22
148.5
 13
0.0
 23
0.0
 14
10.0
 24
10.0
 15
10.0
 25
10.0
 16
0.0
 26
0.0
 36
1.0
 17
0.0
 27
0.0
 37
0.0
 40
297.0
 41
1.92798353909465
 42
50.0
 43
0.0
 44
0.0
 50
0.0
 51
0.0
 71
0
 72
100
 73
1
 74
3
 75
1
 76
1
 77
0
 78
0
281
0
 65
1
110
0.0
120
0.0
130
0.0
111
1.0
121
0.0
131
0.0
112
0.0
122
1.0
132
0.0
 79
0
146
0.0
  0
ENDTAB
  0
TABLE
  2
LTYPE
  5
5
100
AcDbSymbolTable
 70
21
  0
LTYPE
  5
16
100
AcDbSymbolTableRecord
100
AcDbLinetypeTableRecord
  2
CONTINUOUS
 70
0
  3
Solid line
 72
65
 73
0
 40
0.0
  0
LTYPE
  5
31
100
AcDbSymbolTableRecord
100
AcDbLinetypeTableRecord
  2
CENTER2
 70
0
  3
Center (.5x) ___ _ ___ _ ___ _ ___ _ ___ _ ___
 72
65
 73
4
 40
28.5749999999999993
 49
19.0500000000000007
 74
0
 49
-3.1749999999999998
 74
0
 49
3.1749999999999998
 74
0
 49
-3.1749999999999998
 74
0
  0
LTYPE
  5
32
100
AcDbSymbolTableRecord
100
AcDbLinetypeTableRecord
  2
DIVIDEX2
 70
0
  3
Divide (2x) ________  .  .  ________  .  .  _
 72
65
 73
6
 40
63.5
 49
25.3999999999999986
 74
0
 49
-12.6999999999999993
 74
0
 49
0.0
 74
0
 49
-12.6999999999999993
 74
0
 49
0.0
 74
0
 49
-12.6999999999999993
 74
0
  0
LTYPE
  5
33
100
AcDbSymbolTableRecord
100
AcDbLinetypeTableRecord
  2
DOT2
 70
0
  3
Dot (.5x) .....................................
 72
65
 73
2
 40
3.1749999999999998
 49
0.0
 74
0
 49
-3.1749999999999998
 74
0
  0
LTYPE
  5
34
100
AcDbSymbolTableRecord
100
AcDbLinetypeTableRecord
  2
DASHDOT2
 70
0
  3
Dash dot (.5x) _._._._._._._._._._._._._._._.
 72
65
 73
4
 40
12.6999999999999993
 49
6.3499999999999996
 74
0
 49
-3.1749999999999998
 74
0
 49
0.0
 74
0
 49
-3.1749999999999998
 74
0
  0
LTYPE
  5
35
100
AcDbSymbolTableRecord
100
AcDbLinetypeTableRecord
  2
DIVIDE
 70
0
  3
Divide ____ . . ____ . . ____ . . ____ . . ____
 72
65
 73
6
 40
31.75
 49
12.6999999999999993
 74
0
 49
-6.3499999999999996
 74
0
 49
0.0
 74
0
 49
-6.3499999999999996
 74
0
 49
0.0
 74
0
 49
-6.3499999999999996
 74
0
  0
LTYPE
  5
36
100
AcDbSymbolTableRecord
100
AcDbLinetypeTableRecord
  2
DASHDOT
 70
0
  3
Dash dot __ . __ . __ . __ . __ . __ . __ . __
 72
65
 73
4
 40
25.3999999999999986
 49
12.6999999999999993
 74
0
 49
-6.3499999999999996
 74
0
 49
0.0
 74
0
 49
-6.3499999999999996
 74
0
  0
LTYPE
  5
37
100
AcDbSymbolTableRecord
100
AcDbLinetypeTableRecord
  2
BORDER
 70
0
  3
Border __ __ . __ __ . __ __ . __ __ . __ __ .
 72
65
 73
6
 40
44.4500000000000028
 49
12.6999999999999993
 74
0
 49
-6.3499999999999996
 74
0
 49
12.6999999999999993
 74
0
 49
-6.3499999999999996
 74
0
 49
0.0
 74
0
 49
-6.3499999999999996
 74
0
  0
LTYPE
  5
38
100
AcDbSymbolTableRecord
100
AcDbLinetypeTableRecord
  2
DASHDOTX2
 70
0
  3
Dash dot (2x) ____  .  ____  .  ____  .  ___
 72
65
 73
4
 40
50.7999999999999972
 49
25.3999999999999986
 74
0
 49
-12.6999999999999993
 74
0
 49
0.0
 74
0
 49
-12.6999999999999993
 74
0
  0
LTYPE
  5
39
100
AcDbSymbolTableRecord
100
AcDbLinetypeTableRecord
  2
CENTERX2
 70
0
  3
Center (2x) ________  __  ________  __  _____
 72
65
 73
4
 40
101.5999999999999943
 49
63.5
 74
0
 49
-12.6999999999999993
 74
0
 49
12.6999999999999993
 74
0
 49
-12.6999999999999993
 74
0
  0
LTYPE
  5
3A
100
AcDbSymbolTableRecord
100
AcDbLinetypeTableRecord
  2
BORDER2
 70
0
  3
Border (.5x) __.__.__.__.__.__.__.__.__.__.__.
 72
65
 73
6
 40
22.2250000000000014
 49
6.3499999999999996
 74
0
 49
-3.1749999999999998
 74
0
 49
6.3499999999999996
 74
0
 49
-3.1749999999999998
 74
0
 49
0.0
 74
0
 49
-3.1749999999999998
 74
0
  0
LTYPE
  5
3B
100
AcDbSymbolTableRecord
100
AcDbLinetypeTableRecord
  2
BORDERX2
 70
0
  3
Border (2x) ____  ____  .  ____  ____  .  ___
 72
65
 73
6
 40
88.9000000000000057
 49
25.3999999999999986
 74
0
 49
-12.6999999999999993
 74
0
 49
25.3999999999999986
 74
0
 49
-12.6999999999999993
 74
0
 49
0.0
 74
0
 49
-12.6999999999999993
 74
0
  0
LTYPE
  5
14
100
AcDbSymbolTableRecord
100
AcDbLinetypeTableRecord
  2
BYBLOCK
 70
0
  3

 72
65
 73
0
 40
0.0
  0
LTYPE
  5
15
100
AcDbSymbolTableRecord
100
AcDbLinetypeTableRecord
  2
BYLAYER
 70
0
  3

 72
65
 73
0
 40
0.0
  0
LTYPE
  5
3C
100
AcDbSymbolTableRecord
100
AcDbLinetypeTableRecord
  2
DASHED2
 70
0
  3
Dashed (.5x) _ _ _ _ _ _ _ _ _ _ _ _ _ _ _ _ _
 72
65
 73
2
 40
9.5250000000000004
 49
6.3499999999999996
 74
0
 49
-3.1749999999999998
 74
0
  0
LTYPE
  5
3D
100
AcDbSymbolTableRecord
100
AcDbLinetypeTableRecord
  2
CENTER
 70
0
  3
Center ____ _ ____ _ ____ _ ____ _ ____ _ ____
 72
65
 73
4
 40
50.7999999999999972
 49
31.75
 74
0
 49
-6.3499999999999996
 74
0
 49
6.3499999999999996
 74
0
 49
-6.3499999999999996
 74
0
  0
LTYPE
  5
3E
100
AcDbSymbolTableRecord
100
AcDbLinetypeTableRecord
  2
DIVIDE2
 70
0
  3
Divide (.5x) __..__..__..__..__..__..__..__.._
 72
65
 73
6
 40
15.875
 49
6.3499999999999996
 74
0
 49
-3.1749999999999998
 74
0
 49
0.0
 74
0
 49
-3.1749999999999998
 74
0
 49
0.0
 74
0
 49
-3.1749999999999998
 74
0
  0
LTYPE
  5
3F
100
AcDbSymbolTableRecord
100
AcDbLinetypeTableRecord
  2
DASHED
 70
0
  3
Dashed __ __ __ __ __ __ __ __ __ __ __ __ __ _
 72
65
 73
2
 40
19.0500000000000007
 49
12.6999999999999993
 74
0
 49
-6.3499999999999996
 74
0
  0
LTYPE
  5
40
100
AcDbSymbolTableRecord
100
AcDbLinetypeTableRecord
  2
DOTX2
 70
0
  3
Dot (2x) .  .  .  .  .  .  .  .  .  .  .  .  .
 72
65
 73
2
 40
12.6999999999999993
 49
0.0
 74
0
 49
-12.6999999999999993
 74
0
  0
LTYPE
  5
41
100
AcDbSymbolTableRecord
100
AcDbLinetypeTableRecord
  2
DASHEDX2
 70
0
  3
Dashed (2x) ____  ____  ____  ____  ____  ___
 72
65
 73
2
 40
38.1000000000000014
 49
25.3999999999999986
 74
0
 49
-12.6999999999999993
 74
0
  0
LTYPE
  5
42
100
AcDbSymbolTableRecord
100
AcDbLinetypeTableRecord
  2
DOT
 70
0
  3
Dot . . . . . . . . . . . . . . . . . . . . . .
 72
65
 73
2
 40
6.3499999999999996
 49
0.0
 74
0
 49
-6.3499999999999996
 74
0
  0
ENDTAB
  0
TABLE
  2
LAYER
  5
2
100
AcDbSymbolTable
 70
1
  0
LAYER
  5
10
100
AcDbSymbolTableRecord
100
AcDbLayerTableRecord
  2
0
 70
0
 62
7
420
0
  6
CONTINUOUS
370
-3
390
F
  0
ENDTAB
  0
TABLE
  2
STYLE
  5
3
100
AcDbSymbolTable
 70
1
  0
STYLE
  5
43
100
AcDbSymbolTableRecord
100
AcDbTextStyleTableRecord
  2
Standard
 70
0
 40
0.0
 41
1.0
 50
0.0
 71
0
 42
2.5
  3

  4

1001
ACAD
1000
txt
1071
0
  0
ENDTAB
  0
TABLE
  2
VIEW
  5
6
100
AcDbSymbolTable
 70
0
  0
ENDTAB
  0
TABLE
  2
UCS
  5
7
100
AcDbSymbolTable
 70
0
  0
ENDTAB
  0
TABLE
  2
APPID
  5
9
100
AcDbSymbolTable
 70
1
  0
APPID
  5
12
100
AcDbSymbolTableRecord
100
AcDbRegAppTableRecord
  2
ACAD
 70
0
  0
APPID
  5
44
100
AcDbSymbolTableRecord
100
AcDbRegAppTableRecord
  2
QCAD
 70
0
  0
ENDTAB
  0
TABLE
  2
DIMSTYLE
  5
A
100
AcDbSymbolTable
 70
1
100
AcDbDimStyleTable
 71
0
  0
DIMSTYLE
105
27
100
AcDbSymbolTableRecord
100
AcDbDimStyleTableRecord
  2
Standard
 41
2.5
 42
0.625
 43
3.75
 44
1.25
 70
0
 73
0
 74
0
 77
1
 78
8
140
2.5
141
2.5
143
0.03937007874016
147
0.625
171
3
172
1
271
2
272
2
274
3
278
44
283
0
284
8
340
43
  0
ENDTAB
  0
TABLE
  2
BLOCK_RECORD
  5
1
100
AcDbSymbolTable
 70
1
  0
BLOCK_RECORD
  5
1F
100
AcDbSymbolTableRecord
100
AcDbBlockTableRecord
  2
*Model_Space
340
22
  0
BLOCK_RECORD
  5
1B
100
AcDbSymbolTableRecord
100
AcDbBlockTableRecord
  2
*Paper_Space
340
1E
  0
BLOCK_RECORD
  5
23
100
AcDbSymbolTableRecord
100
AcDbBlockTableRecord
  2
*Paper_Space0
340
26
  0
BLOCK_RECORD
  5
45
100
AcDbSymbolTableRecord
100
AcDbBlockTableRecord
  2
swirl
340
0
  0
ENDTAB
  0
ENDSEC
  0
SECTION
  2
BLOCKS
  0
BLOCK
  5
20
100
AcDbEntity
  8
0
100
AcDbBlockBegin
  2
*Model_Space
 70
0
 10
0.0
 20
0.0
 30
0.0
  3
*Model_Space
  1

  0
ENDBLK
  5
21
100
AcDbEntity
  8
0
100
AcDbBlockEnd
  0
BLOCK
  5
1C
100
AcDbEntity
 67
1
  8
0
100
AcDbBlockBegin
  2
*Paper_Space
 70
0
 10
0.0
 20
0.0
 30
0.0
  3
*Paper_Space
  1

  0
ENDBLK
  5
1D
100
AcDbEntity
 67
1
  8
0
100
AcDbBlockEnd
  0
BLOCK
  5
24
100
AcDbEntity
  8
0
100
AcDbBlockBegin
  2
*Paper_Space0
 70
0
 10
0.0
 20
0.0
 30
0.0
  3
*Paper_Space0
  1

  0
ENDBLK
  5
25
100
AcDbEntity
  8
0
100
AcDbBlockEnd
  0
BLOCK
  5
46
100
AcDbEntity
  8
0
100
AcDbBlockBegin
  2
swirl
 70
0
 10
0.0
 20
0.0
 30
0.0
  3
swirl
  1

  0
ARC
  5
47
100
AcDbEntity
  8
0
 62
256
370
-1
  6
BYLAYER
100
AcDbCircle
 10
17.2165987730986103
 20
17.8888486032025007
 30
0.0
 40
4.5136605904191907
100
AcDbArc
 50
333.1993936114344592
 51
358.5698493844683981
  0
LINE
  5
48
100
AcDbEntity
100
AcDbLine
  8
0
 62
256
370
-1
  6
BYLAYER
 10
21.2454066666666677
 20
15.8536977777777786
 30
0.0
 11
20.8071155555555585
 21
15.6346933333333329
 31
0.0
  0
SPLINE
  5
49
  8
0
 62
256
370
-1
  6
BYLAYER
100
AcDbEntity
100
AcDbSpline
 70
8
 71
3
 72
8
 73
4
 74
0
 40
0.0
 40
0.0
 40
0.0
 40
0.0
 40
1.0
 40
1.0
 40
1.0
 40
1.0
 10
20.8071155555555585
 20
15.6346933333333329
 30
0.0
 10
20.4484111111111133
 20
14.9381688888888888
 30
0.0
 10
20.8418288888888945
 20
15.1924511111111116
 30
0.0
 10
20.5850066666666685
 20
14.6384488888888882
 30
0.0
  0
SPLINE
  5
4A
  8
0
 62
256
370
-1
  6
BYLAYER
100
AcDbEntity
100
AcDbSpline
 70
8
 71
3
 72
8
 73
4
 74
0
 40
0.0
 40
0.0
 40
0.0
 40
0.0
 40
1.0
 40
1.0
 40
1.0
 40
1.0
 10
20.5850066666666685
 20
14.6384488888888882
 30
0.0
 10
20.0250777777777813
 20
14.1406088888888881
 30
0.0
 10
18.885746666666666
 20
13.0805822222222226
 30
0.0
 10
18.5211155555555571
 20
12.9837799999999994
 30
0.0
  0
SPLINE
  5
4B
  8
0
 62
256
370
-1
  6
BYLAYER
100
AcDbEntity
100
AcDbSpline
 70
8
 71
3
 72
8
 73
4
 74
0
 40
0.0
 40
0.0
 40
0.0
 40
0.0
 40
1.0
 40
1.0
 40
1.0
 40
1.0
 10
18.5211155555555571
 20
12.9837799999999994
 30
0.0
 10
18.2549799999999998
 20
12.9897066666666667
 30
0.0
 10
18.7014555555555546
 20
13.2978933333333345
 30
0.0
 10
18.7598755555555563
 20
13.4186844444444446
 30
0.0
  0
SPLINE
  5
4C
  8
0
 62
256
370
-1
  6
BYLAYER
100
AcDbEntity
100
AcDbSpline
 70
8
 71
3
 72
8
 73
4
 74
0
 40
0.0
 40
0.0
 40
0.0
 40
0.0
 40
1.0
 40
1.0
 40
1.0
 40
1.0
 10
18.7598755555555563
 20
13.4186844444444446
 30
0.0
 10
18.0102933333333368
 20
12.9039111111111104
 30
0.0
 10
18.1584600000000016
 20
12.6459599999999988
 30
0.0
 10
17.0120733333333369
 20
12.3332577777777743
 30
0.0
  0
LINE
  5
4D
100
AcDbEntity
100
AcDbLine
  8
0
 62
256
370
-1
  6
BYLAYER
 10
17.0120733333333369
 20
12.3332577777777743
 30
0.0
 11
16.9784888888888901
 21
12.4077644444444424
 31
0.0
  0
SPLINE
  5
4E
  8
0
 62
256
370
-1
  6
BYLAYER
100
AcDbEntity
100
AcDbSpline
 70
8
 71
3
 72
8
 73
4
 74
0
 40
0.0
 40
0.0
 40
0.0
 40
0.0
 40
1.0
 40
1.0
 40
1.0
 40
1.0
 10
16.9784888888888901
 20
12.4077644444444424
 30
0.0
 10
14.1511866666666695
 20
11.0776511111111091
 30
0.0
 10
10.2237822222222263
 20
13.7136066666666636
 30
0.0
 10
10.2754288888888894
 20
17.3102466666666643
 30
0.0
  0
ARC
  5
4F
100
AcDbEntity
  8
0
 62
256
370
-1
  6
BYLAYER
100
AcDbCircle
 10
9.9551154474231698
 20
17.3170386238275924
 30
0.0
 40
0.3203854420316713
100
AcDbArc
 50
302.4409827976908218
 51
358.7852767856424521
  0
ARC
  5
50
100
AcDbEntity
  8
0
 62
256
370
-1
  6
BYLAYER
100
AcDbCircle
 10
14.6391442519299204
 20
17.4367810585860141
 30
0.0
 40
4.5289985220036399
100
AcDbArc
 50
115.7863383355758202
 51
184.9416081007316848
  0
ARC
  5
51
100
AcDbEntity
  8
0
 62
256
370
-1
  6
BYLAYER
100
AcDbCircle
 10
14.5946485632839309
 20
17.6824087764122027
 30
0.0
 40
4.2889934660875202
100
AcDbArc
 50
48.5015350857980749
 51
116.678570415287723
  0
ARC
  5
52
100
AcDbEntity
  8
0
 62
256
370
-1
  6
BYLAYER
100
AcDbCircle
 10
14.0599564887276376
 20
18.3137671341931885
 30
0.0
 40
4.2500311156093282
100
AcDbArc
 50
37.3935136330515547
 51
91.3117640118468614
  0
ARC
  5
53
100
AcDbEntity
  8
0
 62
256
370
-1
  6
BYLAYER
100
AcDbCircle
 10
14.0181197655205665
 20
18.637172023876559
 30
0.0
 40
3.925904138302585
100
AcDbArc
 50
90.8093903330555605
 51
150.8385214635247564
  0
SPLINE
  5
54
  8
0
 62
256
370
-1
  6
BYLAYER
100
AcDbEntity
100
AcDbSpline
 70
8
 71
3
 72
8
 73
4
 74
0
 40
0.0
 40
0.0
 40
0.0
 40
0.0
 40
1.0
 40
1.0
 40
1.0
 40
1.0
 10
10.589824444444444
 20
20.5501577777777733
 30
0.0
 10
9.8210511111111121
 20
20.0661466666666612
 30
0.0
 10
9.73186888888889
 20
18.6843866666666614
 30
0.0
 10
9.3968711111111123
 20
18.4315155555555528
 30
0.0
  0
SPLINE
  5
55
  8
0
 62
256
370
-1
  6
BYLAYER
100
AcDbEntity
100
AcDbSpline
 70
8
 71
3
 72
8
 73
4
 74
0
 40
0.0
 40
0.0
 40
0.0
 40
0.0
 40
1.0
 40
1.0
 40
1.0
 40
1.0
 10
9.3968711111111123
 20
18.4315155555555528
 30
0.0
 10
8.9461622222222221
 20
15.1190733333333345
 30
0.0
 10
10.2446666666666655
 20
13.6879244444444446
 30
0.0
 10
12.4412022222222216
 20
12.0044688888888906
 30
0.0
  0
ARC
  5
56
100
AcDbEntity
  8
0
 62
256
370
-1
  6
BYLAYER
100
AcDbCircle
 10
15.4896985988824945
 20
18.5888328468383506
 30
0.0
 40
7.4041593466069564
100
AcDbArc
 50
247.2516211966133426
 51
308.8789516962718267
  0
SPLINE
  5
57
  8
0
 62
256
370
-1
  6
BYLAYER
100
AcDbEntity
100
AcDbSpline
 70
8
 71
3
 72
8
 73
4
 74
0
 40
0.0
 40
0.0
 40
0.0
 40
0.0
 40
1.0
 40
1.0
 40
1.0
 40
1.0
 10
20.1371199999999959
 20
12.8248888888888892
 30
0.0
 10
20.7074911111111071
 20
13.2691066666666657
 30
0.0
 10
21.330637777777774
 20
14.0248977777777775
 30
0.0
 10
21.5106955555555537
 20
14.0353399999999979
 30
0.0
  0
SPLINE
  5
58
  8
0
 62
256
370
-1
  6
BYLAYER
100
AcDbEntity
100
AcDbSpline
 70
8
 71
3
 72
8
 73
4
 74
0
 40
0.0
 40
0.0
 40
0.0
 40
0.0
 40
1.0
 40
1.0
 40
1.0
 40
1.0
 10
21.5106955555555537
 20
14.0353399999999979
 30
0.0
 10
21.2394799999999968
 20
13.6275288888888895
 30
0.0
 10
21.5569799999999994
 20
13.8391955555555555
 30
0.0
 10
21.3486999999999973
 20
13.4790799999999997
 30
0.0
  0
SPLINE
  5
59
  8
0
 62
256
370
-1
  6
BYLAYER
100
AcDbEntity
100
AcDbSpline
 70
8
 71
3
 72
8
 73
4
 74
0
 40
0.0
 40
0.0
 40
0.0
 40
0.0
 40
1.0
 40
1.0
 40
1.0
 40
1.0
 10
21.3486999999999973
 20
13.4790799999999997
 30
0.0
 10
21.9170955555555516
 20
14.3957377777777751
 30
0.0
 10
21.1017555555555525
 20
13.8521777777777757
 30
0.0
 10
21.936286666666664
 20
15.0620644444444434
 30
0.0
  0
LINE
  5
5A
100
AcDbEntity
100
AcDbLine
  8
0
 62
256
370
-1
  6
BYLAYER
 10
21.936286666666664
 20
15.0620644444444434
 30
0.0
 11
22.2444733333333282
 21
14.6376022222222204
 31
0.0
  0
SPLINE
  5
5B
  8
0
 62
256
370
-1
  6
BYLAYER
100
AcDbEntity
100
AcDbSpline
 70
8
 71
3
 72
8
 73
4
 74
0
 40
0.0
 40
0.0
 40
0.0
 40
0.0
 40
1.0
 40
1.0
 40
1.0
 40
1.0
 10
22.2444733333333282
 20
14.6376022222222204
 30
0.0
 10
22.1298911111111067
 20
15.3984733333333317
 30
0.0
 10
23.1893533333333295
 20
16.3224688888888885
 30
0.0
 10
23.0818266666666609
 20
17.5258644444444442
 30
0.0
  0
SPLINE
  5
5C
  8
0
 62
256
370
-1
  6
BYLAYER
100
AcDbEntity
100
AcDbSpline
 70
8
 71
3
 72
8
 73
4
 74
0
 40
0.0
 40
0.0
 40
0.0
 40
0.0
 40
1.0
 40
1.0
 40
1.0
 40
1.0
 10
23.0818266666666609
 20
17.5258644444444442
 30
0.0
 10
23.3248199999999954
 20
17.8938822222222242
 30
0.0
 10
23.3530422222222178
 20
17.1299066666666668
 30
0.0
 10
23.0950911111111061
 20
16.2832399999999993
 30
0.0
  0
SPLINE
  5
5D
  8
0
 62
256
370
-1
  6
BYLAYER
100
AcDbEntity
100
AcDbSpline
 70
8
 71
3
 72
8
 73
4
 74
0
 40
0.0
 40
0.0
 40
0.0
 40
0.0
 40
1.0
 40
1.0
 40
1.0
 40
1.0
 10
23.0950911111111061
 20
16.2832399999999993
 30
0.0
 10
23.4529488888888835
 20
17.2224755555555546
 30
0.0
 10
23.1893533333333295
 20
17.3734644444444442
 30
0.0
 10
23.2813577777777709
 20
18.1484466666666684
 30
0.0
  0
ARC
  5
5E
100
AcDbEntity
  8
0
 62
256
370
-1
  6
BYLAYER
100
AcDbCircle
 10
16.8269675953182052
 20
15.3311282091774572
 30
0.0
 40
7.0424737073232944
100
AcDbArc
 50
16.5416862224711032
 51
23.5810987609327789
  0
SPLINE
  5
5F
  8
0
 62
256
370
-1
  6
BYLAYER
100
AcDbEntity
100
AcDbSpline
 70
8
 71
3
 72
8
 73
4
 74
0
 40
0.0
 40
0.0
 40
0.0
 40
0.0
 40
1.0
 40
1.0
 40
1.0
 40
1.0
 10
23.577973333333329
 20
17.3362111111111119
 30
0.0
 10
23.3448577777777722
 20
18.2438377777777774
 30
0.0
 10
23.817297777777771
 20
18.8647266666666695
 30
0.0
 10
23.9341377777777709
 20
19.3922000000000025
 30
0.0
  0
SPLINE
  5
60
  8
0
 62
256
370
-1
  6
BYLAYER
100
AcDbEntity
100
AcDbSpline
 70
8
 71
3
 72
8
 73
4
 74
0
 40
0.0
 40
0.0
 40
0.0
 40
0.0
 40
1.0
 40
1.0
 40
1.0
 40
1.0
 10
23.9341377777777709
 20
19.3922000000000025
 30
0.0
 10
23.818991111111103
 20
19.4432822222222228
 30
0.0
 10
23.5743044444444365
 20
18.9908800000000042
 30
0.0
 10
23.5184244444444381
 20
20.0630422222222222
 30
0.0
  0
SPLINE
  5
61
  8
0
 62
256
370
-1
  6
BYLAYER
100
AcDbEntity
100
AcDbSpline
 70
8
 71
3
 72
8
 73
4
 74
0
 40
0.0
 40
0.0
 40
0.0
 40
0.0
 40
1.0
 40
1.0
 40
1.0
 40
1.0
 10
23.5184244444444381
 20
20.0630422222222222
 30
0.0
 10
23.5266088888888838
 20
20.5287088888888931
 30
0.0
 10
23.6479644444444403
 20
20.3071644444444459
 30
0.0
 10
23.6948133333333288
 20
20.4217466666666709
 30
0.0
  0
ARC
  5
62
100
AcDbEntity
  8
0
 62
256
370
-1
  6
BYLAYER
100
AcDbCircle
 10
25.2617450668896666
 20
21.7563469805689529
 30
0.0
 40
2.0582597152677402
100
AcDbArc
 50
186.708018441980812
 51
220.421980769799859
  0
SPLINE
  5
63
  8
0
 62
256
370
-1
  6
BYLAYER
100
AcDbEntity
100
AcDbSpline
 70
8
 71
3
 72
8
 73
4
 74
0
 40
0.0
 40
0.0
 40
0.0
 40
0.0
 40
1.0
 40
1.0
 40
1.0
 40
1.0
 10
23.2175755555555483
 20
21.5159222222222262
 30
0.0
 10
23.3234088888888813
 20
21.6767888888888933
 30
0.0
 10
23.5003622222222148
 20
21.0987977777777829
 30
0.0
 10
23.6442955555555478
 20
21.0750911111111137
 30
0.0
  0
ARC
  5
64
100
AcDbEntity
  8
0
 62
256
370
-1
  6
BYLAYER
100
AcDbCircle
 10
33.9520407097275054
 20
23.7227901131829277
 30
0.0
 40
10.6423644068847665
100
AcDbArc
 50
186.856154395415814
 51
194.4058396937934674
  0
SPLINE
  5
65
  8
0
 62
256
370
-1
  6
BYLAYER
100
AcDbEntity
100
AcDbSpline
 70
8
 71
3
 72
8
 73
4
 74
0
 40
0.0
 40
0.0
 40
0.0
 40
0.0
 40
1.0
 40
1.0
 40
1.0
 40
1.0
 10
23.3857799999999934
 20
22.4523355555555568
 30
0.0
 10
22.9652688888888861
 20
23.3311755555555607
 30
0.0
 10
23.2370488888888822
 20
22.3352133333333356
 30
0.0
 10
22.895842222222214
 20
22.8296666666666681
 30
0.0
  0
SPLINE
  5
66
  8
0
 62
256
370
-1
  6
BYLAYER
100
AcDbEntity
100
AcDbSpline
 70
8
 71
3
 72
8
 73
4
 74
0
 40
0.0
 40
0.0
 40
0.0
 40
0.0
 40
1.0
 40
1.0
 40
1.0
 40
1.0
 10
22.895842222222214
 20
22.8296666666666681
 30
0.0
 10
22.44823777777777
 20
24.2258200000000024
 30
0.0
 10
23.2672466666666615
 20
23.1536577777777808
 30
0.0
 10
23.3225622222222171
 20
23.788093333333336
 30
0.0
  0
ARC
  5
67
100
AcDbEntity
  8
0
 62
256
370
-1
  6
BYLAYER
100
AcDbCircle
 10
13.6380290918644818
 20
18.1366441563485594
 30
0.0
 40
11.2128970276658908
100
AcDbArc
 50
12.9561187980631889
 51
30.2658745670214948
  0
ARC
  5
68
100
AcDbEntity
  8
0
 62
256
370
-1
  6
BYLAYER
100
AcDbCircle
 10
11.9188751268146778
 20
18.3381141982854245
 30
0.0
 40
12.856284765716369
100
AcDbArc
 50
10.3624358126448151
 51
20.7186095363478913
  0
SPLINE
  5
69
  8
0
 62
256
370
-1
  6
BYLAYER
100
AcDbEntity
100
AcDbSpline
 70
8
 71
3
 72
8
 73
4
 74
0
 40
0.0
 40
0.0
 40
0.0
 40
0.0
 40
1.0
 40
1.0
 40
1.0
 40
1.0
 10
23.9437333333333235
 20
22.8863933333333378
 30
0.0
 10
24.1497555555555472
 20
22.7997511111111137
 30
0.0
 10
23.6118399999999902
 20
24.4693777777777797
 30
0.0
 10
24.2115622222222129
 20
23.3636311111111148
 30
0.0
  0
SPLINE
  5
6A
  8
0
 62
256
370
-1
  6
BYLAYER
100
AcDbEntity
100
AcDbSpline
 70
8
 71
3
 72
8
 73
4
 74
0
 40
0.0
 40
0.0
 40
0.0
 40
0.0
 40
1.0
 40
1.0
 40
1.0
 40
1.0
 10
24.2115622222222129
 20
23.3636311111111148
 30
0.0
 10
23.570917777777769
 20
25.7207511111111131
 30
0.0
 10
21.4697733333333254
 20
27.9232133333333365
 30
0.0
 10
19.5368333333333233
 20
28.9567111111111117
 30
0.0
  0
SPLINE
  5
6B
  8
0
 62
256
370
-1
  6
BYLAYER
100
AcDbEntity
100
AcDbSpline
 70
8
 71
3
 72
8
 73
4
 74
0
 40
0.0
 40
0.0
 40
0.0
 40
0.0
 40
1.0
 40
1.0
 40
1.0
 40
1.0
 10
19.5368333333333233
 20
28.9567111111111117
 30
0.0
 10
19.7733355555555441
 20
28.7402466666666712
 30
0.0
 10
20.0719266666666556
 20
28.4684666666666679
 30
0.0
 10
19.964682222222212
 20
28.4258511111111147
 30
0.0
  0
SPLINE
  5
6C
  8
0
 62
256
370
-1
  6
BYLAYER
100
AcDbEntity
100
AcDbSpline
 70
8
 71
3
 72
8
 73
4
 74
0
 40
0.0
 40
0.0
 40
0.0
 40
0.0
 40
1.0
 40
1.0
 40
1.0
 40
1.0
 10
19.964682222222212
 20
28.4258511111111147
 30
0.0
 10
19.003433333333323
 20
28.9981977777777793
 30
0.0
 10
19.1724844444444358
 20
29.042788888888893
 30
0.0
 10
19.0347599999999915
 20
29.2846533333333348
 30
0.0
  0
SPLINE
  5
6D
  8
0
 62
256
370
-1
  6
BYLAYER
100
AcDbEntity
100
AcDbSpline
 70
8
 71
3
 72
8
 73
4
 74
0
 40
0.0
 40
0.0
 40
0.0
 40
0.0
 40
1.0
 40
1.0
 40
1.0
 40
1.0
 10
19.0347599999999915
 20
29.2846533333333348
 30
0.0
 10
18.2515933333333216
 20
29.6032822222222265
 30
0.0
 10
18.2002288888888799
 20
29.2589711111111122
 30
0.0
 10
17.6815044444444354
 20
29.2840888888888919
 30
0.0
  0
SPLINE
  5
6E
  8
0
 62
256
370
-1
  6
BYLAYER
100
AcDbEntity
100
AcDbSpline
 70
8
 71
3
 72
8
 73
4
 74
0
 40
0.0
 40
0.0
 40
0.0
 40
0.0
 40
1.0
 40
1.0
 40
1.0
 40
1.0
 10
17.6815044444444354
 20
29.2840888888888919
 30
0.0
 10
16.2054822222222121
 20
30.0669733333333369
 30
0.0
 10
15.9210022222222118
 20
29.9837177777777804
 30
0.0
 10
14.5626666666666562
 20
30.4742200000000025
 30
0.0
  0
LINE
  5
6F
100
AcDbEntity
100
AcDbLine
  8
0
 62
256
370
-1
  6
BYLAYER
 10
14.5626666666666562
 20
30.4742200000000025
 30
0.0
 11
14.6244733333333237
 21
30.1855066666666687
 31
0.0
  0
SPLINE
  5
70
  8
0
 62
256
370
-1
  6
BYLAYER
100
AcDbEntity
100
AcDbSpline
 70
8
 71
3
 72
8
 73
4
 74
0
 40
0.0
 40
0.0
 40
0.0
 40
0.0
 40
1.0
 40
1.0
 40
1.0
 40
1.0
 10
14.6244733333333237
 20
30.1855066666666687
 30
0.0
 10
13.6465733333333237
 20
30.5111911111111134
 30
0.0
 10
13.4851422222222119
 20
30.0618933333333374
 30
0.0
 10
12.4282199999999889
 20
30.1843777777777795
 30
0.0
  0
ARC
  5
71
100
AcDbEntity
  8
0
 62
256
370
-1
  6
BYLAYER
100
AcDbCircle
 10
13.106873790942597
 20
29.2983429745878183
 30
0.0
 40
1.1160773451802715
100
AcDbArc
 50
90.4300012993527389
 51
127.4501232133531943
  0
SPLINE
  5
72
  8
0
 62
256
370
-1
  6
BYLAYER
100
AcDbEntity
100
AcDbSpline
 70
8
 71
3
 72
8
 73
4
 74
0
 40
0.0
 40
0.0
 40
0.0
 40
0.0
 40
1.0
 40
1.0
 40
1.0
 40
1.0
 10
13.0984977777777676
 20
30.4143888888888902
 30
0.0
 10
12.1530533333333217
 20
30.2896466666666697
 30
0.0
 10
12.1973622222222122
 20
30.6006555555555586
 30
0.0
 10
11.2722377777777663
 20
30.3799577777777792
 30
0.0
  0
ARC
  5
73
100
AcDbEntity
  8
0
 62
256
370
-1
  6
BYLAYER
100
AcDbCircle
 10
15.486166938213195
 20
23.7431204050833706
 30
0.0
 40
7.8616034802552415
100
AcDbArc
 50
116.4492760344319606
 51
122.4127013851764048
  0
SPLINE
  5
74
  8
0
 62
256
370
-1
  6
BYLAYER
100
AcDbEntity
100
AcDbSpline
 70
8
 71
3
 72
8
 73
4
 74
0
 40
0.0
 40
0.0
 40
0.0
 40
0.0
 40
1.0
 40
1.0
 40
1.0
 40
1.0
 10
11.9845666666666553
 20
30.7818422222222239
 30
0.0
 10
11.2135355555555449
 20
30.7349933333333354
 30
0.0
 10
10.1439133333333213
 20
30.3331088888888907
 30
0.0
 10
10.474113333333321
 20
30.6985866666666709
 30
0.0
  0
SPLINE
  5
75
  8
0
 62
256
370
-1
  6
BYLAYER
100
AcDbEntity
100
AcDbSpline
 70
8
 71
3
 72
8
 73
4
 74
0
 40
0.0
 40
0.0
 40
0.0
 40
0.0
 40
1.0
 40
1.0
 40
1.0
 40
1.0
 10
10.474113333333321
 20
30.6985866666666709
 30
0.0
 10
9.216531111111097
 20
30.137528888888891
 30
0.0
 10
6.9830244444444327
 20
29.349846666666668
 30
0.0
 10
5.7296755555555432
 20
28.1746733333333381
 30
0.0
  0
LINE
  5
76
100
AcDbEntity
100
AcDbLine
  8
0
 62
256
370
-1
  6
BYLAYER
 10
5.7296755555555432
 20
28.1746733333333381
 30
0.0
 11
5.6901644444444317
 21
28.4379866666666707
 31
0.0
  0
SPLINE
  5
77
  8
0
 62
256
370
-1
  6
BYLAYER
100
AcDbEntity
100
AcDbSpline
 70
8
 71
3
 72
8
 73
4
 74
0
 40
0.0
 40
0.0
 40
0.0
 40
0.0
 40
1.0
 40
1.0
 40
1.0
 40
1.0
 10
5.6901644444444317
 20
28.4379866666666707
 30
0.0
 10
5.1158422222222093
 20
27.7485177777777814
 30
0.0
 10
3.1857244444444319
 20
26.3788933333333375
 30
0.0
 10
3.0319133333333208
 20
25.4859422222222243
 30
0.0
  0
LINE
  5
78
100
AcDbEntity
100
AcDbLine
  8
0
 62
256
370
-1
  6
BYLAYER
 10
3.0319133333333208
 20
25.4859422222222243
 30
0.0
 11
2.8783844444444315
 21
25.4501000000000026
 31
0.0
  0
ARC
  5
79
100
AcDbEntity
  8
0
 62
256
370
-1
  6
BYLAYER
100
AcDbCircle
 10
17.5523360000206061
 20
17.7964378111605086
 30
0.0
 40
16.5500271648196353
100
AcDbArc
 50
152.4542863693129107
 51
158.5451759301626566
  0
SPLINE
  5
7A
  8
0
 62
256
370
-1
  6
BYLAYER
100
AcDbEntity
100
AcDbSpline
 70
8
 71
3
 72
8
 73
4
 74
0
 40
0.0
 40
0.0
 40
0.0
 40
0.0
 40
1.0
 40
1.0
 40
1.0
 40
1.0
 10
2.1491222222222097
 20
23.8499000000000052
 30
0.0
 10
1.7582444444444318
 20
23.1838555555555601
 30
0.0
 10
1.5762111111110988
 20
23.5936422222222255
 30
0.0
 10
1.6318088888888762
 20
23.4892200000000031
 30
0.0
  0
ARC
  5
7B
100
AcDbEntity
  8
0
 62
256
370
-1
  6
BYLAYER
100
AcDbCircle
 10
23.594045894593588
 20
12.9926761655345153
 30
0.0
 40
24.341677977567624
100
AcDbArc
 50
154.4551851213516329
 51
164.3805957004812228
  0
SPLINE
  5
7C
  8
0
 62
256
370
-1
  6
BYLAYER
100
AcDbEntity
100
AcDbSpline
 70
8
 71
3
 72
8
 73
4
 74
0
 40
0.0
 40
0.0
 40
0.0
 40
0.0
 40
1.0
 40
1.0
 40
1.0
 40
1.0
 10
0.1512711111110984
 20
19.5465755555555631
 30
0.0
 10
0.3863622222222096
 20
19.1952088888888923
 30
0.0
 10
0.1569155555555429
 20
17.4313200000000066
 30
0.0
 10
0.2458155555555429
 20
16.0196444444444523
 30
0.0
  0
SPLINE
  5
7D
  8
0
 62
256
370
-1
  6
BYLAYER
100
AcDbEntity
100
AcDbSpline
 70
8
 71
3
 72
8
 73
4
 74
0
 40
0.0
 40
0.0
 40
0.0
 40
0.0
 40
1.0
 40
1.0
 40
1.0
 40
1.0
 10
0.2458155555555429
 20
16.0196444444444523
 30
0.0
 10
-0.1402644444444571
 20
9.0476266666666696
 30
0.0
 10
5.1389844444444321
 20
2.2782444444444501
 30
0.0
 10
10.9095822222222072
 20
0.7152977777777814
 30
0.0
  0
ARC
  5
7E
100
AcDbEntity
  8
0
 62
256
370
-1
  6
BYLAYER
100
AcDbCircle
 10
13.6580256842394991
 20
12.0027941214782601
 30
0.0
 40
11.6172937973074166
100
AcDbArc
 50
256.3151010086160682
 51
272.0972594415559911
  0
SPLINE
  5
7F
  8
0
 62
256
370
-1
  6
BYLAYER
100
AcDbEntity
100
AcDbSpline
 70
8
 71
3
 72
8
 73
4
 74
0
 40
0.0
 40
0.0
 40
0.0
 40
0.0
 40
1.0
 40
1.0
 40
1.0
 40
1.0
 10
14.0831711111110955
 20
0.3932822222222256
 30
0.0
 10
12.8207911111110953
 20
0.7542444444444456
 30
0.0
 10
12.6576666666666497
 20
0.58462888888889
 30
0.0
 10
11.4280244444444286
 20
1.0133244444444465
 30
0.0
  0
SPLINE
  5
80
  8
0
 62
256
370
-1
  6
BYLAYER
100
AcDbEntity
100
AcDbSpline
 70
8
 71
3
 72
8
 73
4
 74
0
 40
0.0
 40
0.0
 40
0.0
 40
0.0
 40
1.0
 40
1.0
 40
1.0
 40
1.0
 10
11.4280244444444286
 20
1.0133244444444465
 30
0.0
 10
10.5409999999999844
 20
1.4310133333333361
 30
0.0
 10
10.3465488888888721
 20
1.9079688888888917
 30
0.0
 10
9.7183222222222057
 20
2.4532222222222266
 30
0.0
  0
LINE
  5
81
100
AcDbEntity
100
AcDbLine
  8
0
 62
256
370
-1
  6
BYLAYER
 10
9.7183222222222057
 20
2.4532222222222266
 30
0.0
 11
9.9669599999999843
 21
2.0138022222222247
 31
0.0
  0
SPLINE
  5
82
  8
0
 62
256
370
-1
  6
BYLAYER
100
AcDbEntity
100
AcDbSpline
 70
8
 71
3
 72
8
 73
4
 74
0
 40
0.0
 40
0.0
 40
0.0
 40
0.0
 40
1.0
 40
1.0
 40
1.0
 40
1.0
 10
9.9669599999999843
 20
2.0138022222222247
 30
0.0
 10
8.7347777777777615
 20
2.4498355555555591
 30
0.0
 10
9.2503977777777617
 20
2.5534111111111173
 30
0.0
 10
8.2479444444444283
 20
2.8709111111111163
 30
0.0
  0
LINE
  5
83
100
AcDbEntity
100
AcDbLine
  8
0
 62
256
370
-1
  6
BYLAYER
 10
8.2479444444444283
 20
2.8709111111111163
 30
0.0
 11
8.5135155555555393
 21
3.2177622222222269
 31
0.0
  0
ARC
  5
84
100
AcDbEntity
  8
0
 62
256
370
-1
  6
BYLAYER
100
AcDbCircle
 10
9.2606730953181309
 20
5.3755848882973893
 30
0.0
 40
2.2835155019074516
100
AcDbArc
 50
209.6264519312713617
 51
250.9013171479800519
  0
LINE
  5
85
100
AcDbEntity
100
AcDbLine
  8
0
 62
256
370
-1
  6
BYLAYER
 10
7.2756888888888724
 20
4.2467444444444489
 30
0.0
 11
6.8388088888888721
 21
4.2295288888888933
 31
0.0
  0
SPLINE
  5
86
  8
0
 62
256
370
-1
  6
BYLAYER
100
AcDbEntity
100
AcDbSpline
 70
8
 71
3
 72
8
 73
4
 74
0
 40
0.0
 40
0.0
 40
0.0
 40
0.0
 40
1.0
 40
1.0
 40
1.0
 40
1.0
 10
6.8388088888888721
 20
4.2295288888888933
 30
0.0
 10
6.3138755555555388
 20
4.8772288888888937
 30
0.0
 10
6.0341933333333166
 20
5.3440244444444467
 30
0.0
 10
6.0545133333333165
 20
5.7055511111111166
 30
0.0
  0
LINE
  5
87
100
AcDbEntity
100
AcDbLine
  8
0
 62
256
370
-1
  6
BYLAYER
 10
6.0545133333333165
 20
5.7055511111111166
 30
0.0
 11
5.9134022222222056
 21
5.454091111111115
 31
0.0
  0
SPLINE
  5
88
  8
0
 62
256
370
-1
  6
BYLAYER
100
AcDbEntity
100
AcDbSpline
 70
8
 71
3
 72
8
 73
4
 74
0
 40
0.0
 40
0.0
 40
0.0
 40
0.0
 40
1.0
 40
1.0
 40
1.0
 40
1.0
 10
5.9134022222222056
 20
5.454091111111115
 30
0.0
 10
5.7533822222222053
 20
5.7286933333333359
 30
0.0
 10
3.982155555555539
 20
7.8831777777777816
 30
0.0
 10
4.9010711111110945
 20
7.3816688888888891
 30
0.0
  0
ARC
  5
89
100
AcDbEntity
  8
0
 62
256
370
-1
  6
BYLAYER
100
AcDbCircle
 10
6.064910089490569
 20
9.096485312987614
 30
0.0
 40
2.0724662930804114
100
AcDbArc
 50
209.2856650769670921
 51
235.8354202197026268
  0
LINE
  5
8A
100
AcDbEntity
100
AcDbLine
  8
0
 62
256
370
-1
  6
BYLAYER
 10
4.2573222222222054
 20
8.0827088888888881
 30
0.0
 11
4.4444355555555388
 21
8.2966333333333324
 31
0.0
  0
ARC
  5
8B
100
AcDbEntity
  8
0
 62
256
370
-1
  6
BYLAYER
100
AcDbCircle
 10
7.1280680396299676
 20
10.6356235530930299
 30
0.0
 40
3.5598818179415335
100
AcDbArc
 50
192.9500456120283047
 51
221.0746319451093882
  0
ARC
  5
8C
100
AcDbEntity
  8
0
 62
256
370
-1
  6
BYLAYER
100
AcDbCircle
 10
4.5099659720235152
 20
10.3620002354816911
 30
0.0
 40
0.9996695483201746
100
AcDbArc
 50
211.6227874880904949
 51
253.1593693604914108
  0
SPLINE
  5
8D
  8
0
 62
256
370
-1
  6
BYLAYER
100
AcDbEntity
100
AcDbSpline
 70
8
 71
3
 72
8
 73
4
 74
0
 40
0.0
 40
0.0
 40
0.0
 40
0.0
 40
1.0
 40
1.0
 40
1.0
 40
1.0
 10
4.2203511111110945
 20
9.405202222222222
 30
0.0
 10
3.1035977777777615
 20
12.1760599999999961
 30
0.0
 10
3.040944444444428
 20
9.5578844444444435
 30
0.0
 10
2.1951244444444278
 20
12.2257311111111093
 30
0.0
  0
LINE
  5
8E
100
AcDbEntity
100
AcDbLine
  8
0
 62
256
370
-1
  6
BYLAYER
 10
2.1951244444444278
 20
12.2257311111111093
 30
0.0
 11
2.3740533333333169
 21
12.2401244444444437
 31
0.0
  0
ARC
  5
8F
100
AcDbEntity
  8
0
 62
256
370
-1
  6
BYLAYER
100
AcDbCircle
 10
7.4798964934055947
 20
15.2435508068411423
 30
0.0
 40
5.9236985312890784
100
AcDbArc
 50
203.397421312965605
 51
210.4654549595783521
  0
LINE
  5
90
100
AcDbEntity
100
AcDbLine
  8
0
 62
256
370
-1
  6
BYLAYER
 10
2.0432888888888727
 20
12.8912111111111116
 30
0.0
 11
2.1211822222222056
 21
13.6673222222222215
 31
0.0
  0
SPLINE
  5
91
  8
0
 62
256
370
-1
  6
BYLAYER
100
AcDbEntity
100
AcDbSpline
 70
8
 71
3
 72
8
 73
4
 74
0
 40
0.0
 40
0.0
 40
0.0
 40
0.0
 40
1.0
 40
1.0
 40
1.0
 40
1.0
 10
2.1211822222222056
 20
13.6673222222222215
 30
0.0
 10
1.317131111111111
 20
14.5969622222222242
 30
0.0
 10
1.8962511111111111
 20
17.6201266666666676
 30
0.0
 10
2.0122444444444443
 20
19.2781822222222239
 30
0.0
  0
SPLINE
  5
92
  8
0
 62
256
370
-1
  6
BYLAYER
100
AcDbEntity
100
AcDbSpline
 70
8
 71
3
 72
8
 73
4
 74
0
 40
0.0
 40
0.0
 40
0.0
 40
0.0
 40
1.0
 40
1.0
 40
1.0
 40
1.0
 10
2.0122444444444443
 20
19.2781822222222239
 30
0.0
 10
2.0926777777777779
 20
19.9524111111111111
 30
0.0
 10
2.6833688888888885
 20
20.6701022222222228
 30
0.0
 10
3.1326666666666663
 20
21.7956044444444466
 30
0.0
  0
LINE
  5
93
100
AcDbEntity
100
AcDbLine
  8
0
 62
256
370
-1
  6
BYLAYER
 10
3.1326666666666663
 20
21.7956044444444466
 30
0.0
 11
2.8589111111111105
 21
21.8427355555555565
 31
0.0
  0
SPLINE
  5
94
  8
0
 62
256
370
-1
  6
BYLAYER
100
AcDbEntity
100
AcDbSpline
 70
8
 71
3
 72
8
 73
4
 74
0
 40
0.0
 40
0.0
 40
0.0
 40
0.0
 40
1.0
 40
1.0
 40
1.0
 40
1.0
 10
2.8589111111111105
 20
21.8427355555555565
 30
0.0
 10
3.3821511111111104
 20
22.755442222222225
 30
0.0
 10
5.8465155555555555
 20
25.5082377777777793
 30
0.0
 10
6.9878222222222215
 20
25.3665622222222247
 30
0.0
  0
SPLINE
  5
95
  8
0
 62
256
370
-1
  6
BYLAYER
100
AcDbEntity
100
AcDbSpline
 70
8
 71
3
 72
8
 73
4
 74
0
 40
0.0
 40
0.0
 40
0.0
 40
0.0
 40
1.0
 40
1.0
 40
1.0
 40
1.0
 10
6.9878222222222215
 20
25.3665622222222247
 30
0.0
 10
7.5406955555555548
 20
26.0611111111111136
 30
0.0
 10
6.8780377777777773
 20
25.3691022222222244
 30
0.0
 10
6.7699466666666659
 20
25.544080000000001
 30
0.0
  0
SPLINE
  5
96
  8
0
 62
256
370
-1
  6
BYLAYER
100
AcDbEntity
100
AcDbSpline
 70
8
 71
3
 72
8
 73
4
 74
0
 40
0.0
 40
0.0
 40
0.0
 40
0.0
 40
1.0
 40
1.0
 40
1.0
 40
1.0
 10
6.7699466666666659
 20
25.544080000000001
 30
0.0
 10
7.9843488888888885
 20
26.8008155555555589
 30
0.0
 10
8.3661955555555547
 20
26.4319511111111112
 30
0.0
 10
9.1857688888888891
 20
26.6580111111111151
 30
0.0
  0
SPLINE
  5
97
  8
0
 62
256
370
-1
  6
BYLAYER
100
AcDbEntity
100
AcDbSpline
 70
8
 71
3
 72
8
 73
4
 74
0
 40
0.0
 40
0.0
 40
0.0
 40
0.0
 40
1.0
 40
1.0
 40
1.0
 40
1.0
 10
9.1857688888888891
 20
26.6580111111111151
 30
0.0
 10
10.0696888888888889
 20
27.1826622222222234
 30
0.0
 10
8.4271555555555562
 20
26.453400000000002
 30
0.0
 10
8.8462555555555564
 20
26.8581066666666679
 30
0.0
  0
SPLINE
  5
98
  8
0
 62
256
370
-1
  6
BYLAYER
100
AcDbEntity
100
AcDbSpline
 70
8
 71
3
 72
8
 73
4
 74
0
 40
0.0
 40
0.0
 40
0.0
 40
0.0
 40
1.0
 40
1.0
 40
1.0
 40
1.0
 10
8.8462555555555564
 20
26.8581066666666679
 30
0.0
 10
10.3742066666666659
 20
27.248420000000003
 30
0.0
 10
9.9291422222222216
 20
27.7454133333333353
 30
0.0
 10
11.9224777777777788
 20
27.9435333333333347
 30
0.0
  0
SPLINE
  5
99
  8
0
 62
256
370
-1
  6
BYLAYER
100
AcDbEntity
100
AcDbSpline
 70
8
 71
3
 72
8
 73
4
 74
0
 40
0.0
 40
0.0
 40
0.0
 40
0.0
 40
1.0
 40
1.0
 40
1.0
 40
1.0
 10
11.9224777777777788
 20
27.9435333333333347
 30
0.0
 10
12.1327333333333325
 20
27.8238711111111137
 30
0.0
 10
11.4345155555555564
 20
27.7586777777777804
 30
0.0
 10
11.2592555555555567
 20
27.6034555555555556
 30
0.0
  0
SPLINE
  5
9A
  8
0
 62
256
370
-1
  6
BYLAYER
100
AcDbEntity
100
AcDbSpline
 70
8
 71
3
 72
8
 73
4
 74
0
 40
0.0
 40
0.0
 40
0.0
 40
0.0
 40
1.0
 40
1.0
 40
1.0
 40
1.0
 10
11.2592555555555567
 20
27.6034555555555556
 30
0.0
 10
12.5323600000000006
 20
28.2263200000000012
 30
0.0
 10
15.2879777777777779
 20
28.0846444444444465
 30
0.0
 10
17.0778311111111094
 20
27.2577333333333343
 30
0.0
  0
SPLINE
  5
9B
  8
0
 62
256
370
-1
  6
BYLAYER
100
AcDbEntity
100
AcDbSpline
 70
8
 71
3
 72
8
 73
4
 74
0
 40
0.0
 40
0.0
 40
0.0
 40
0.0
 40
1.0
 40
1.0
 40
1.0
 40
1.0
 10
17.0778311111111094
 20
27.2577333333333343
 30
0.0
 10
19.154704444444441
 20
26.2871711111111139
 30
0.0
 10
21.4881177777777772
 20
23.4181000000000026
 30
0.0
 10
21.5801222222222222
 20
20.7186444444444469
 30
0.0
  0
LINE
  5
9C
100
AcDbEntity
100
AcDbLine
  8
0
 62
256
370
-1
  6
BYLAYER
 10
21.5801222222222222
 20
20.7186444444444469
 30
0.0
 11
21.684826666666666
 21
20.6904222222222245
 31
0.0
  0
SPLINE
  5
9D
  8
0
 62
256
370
-1
  6
BYLAYER
100
AcDbEntity
100
AcDbSpline
 70
8
 71
3
 72
8
 73
4
 74
0
 40
0.0
 40
0.0
 40
0.0
 40
0.0
 40
1.0
 40
1.0
 40
1.0
 40
1.0
 10
21.684826666666666
 20
20.6904222222222245
 30
0.0
 10
21.6317688888888853
 20
19.6174133333333351
 30
0.0
 10
21.8490799999999972
 20
18.3764822222222257
 30
0.0
 10
21.4725955555555537
 20
17.2365866666666676
 30
0.0
  0
LINE
  5
9E
100
AcDbEntity
100
AcDbLine
  8
0
 62
256
370
-1
  6
BYLAYER
 10
21.4725955555555537
 20
17.2365866666666676
 30
0.0
 11
21.7288533333333334
 21
17.7761955555555566
 31
0.0
  0
SPLINE
  5
9F
  8
0
 62
256
370
-1
  6
BYLAYER
100
AcDbEntity
100
AcDbSpline
 70
8
 71
3
 72
9
 73
5
 74
3
 40
0.0
 40
0.0
 40
0.0
 40
0.0
 40
0.1900802010330623
 40
0.3319711775533091
 40
0.3319711775533091
 40
0.3319711775533091
 40
0.3319711775533091
 10
12.4412022222222216
 20
12.0044688888888906
 30
0.0
 10
12.5058855085480349
 20
11.9774936796456277
 30
0.0
 10
12.6188535418693544
 20
11.9303820280888146
 30
0.0
 10
12.6242960069091463
 20
11.8114589426586427
 30
0.0
 10
12.6266222222222115
 20
11.7606288888888706
 30
0.0
 11
12.4412022222222216
 21
12.0044688888888906
 31
0.0
 11
12.5999999999999996
 21
11.9000000000000021
 31
0.0
 11
12.6266222222222115
 21
11.7606288888888706
 31
0.0
  0
ENDBLK
  5
A0
100
AcDbEntity
  8
0
100
AcDbBlockEnd
  0
ENDSEC
  0
SECTION
  2
ENTITIES
  0
LWPOLYLINE
  5
A1
  8
0
 62
256
370
-1
  6
BYLAYER
100
AcDbEntity
100
AcDbPolyline
 90
0
 70
0
  0
LINE
  5
A2
100
AcDbEntity
100
AcDbLine
  8
0
 62
256
370
-1
  6
BYLAYER
 10
-0.1
 20
29.8999999999999986
 30
0.0
 11
200.0999999999999943
 21
29.8999999999999986
 31
0.0
  0
LINE
  5
A3
100
AcDbEntity
100
AcDbLine
  8
0
 62
256
370
-1
  6
BYLAYER
 10
200.0999999999999943
 20
29.8999999999999986
 30
0.0
 11
200.0999999999999943
 21
80.0999999999999943
 31
0.0
  0
LINE
  5
A4
100
AcDbEntity
100
AcDbLine
  8
0
 62
256
370
-1
  6
BYLAYER
 10
200.0999999999999943
 20
80.0999999999999943
 30
0.0
 11
-0.1
 21
80.0999999999999943
 31
0.0
  0
LINE
  5
A5
100
AcDbEntity
100
AcDbLine
  8
0
 62
256
370
-1
  6
BYLAYER
 10
-0.1
 20
80.0999999999999943
 30
0.0
 11
-0.1
 21
29.8999999999999986
 31
0.0
  0
LINE
  5
A6
100
AcDbEntity
100
AcDbLine
  8
0
 62
256
370
-1
  6
BYLAYER
 10
5.0
 20
35.0
 30
0.0
 11
195.0
 21
35.0
 31
0.0
  0
LINE
  5
A7
100
AcDbEntity
100
AcDbLine
  8
0
 62
256
370
-1
  6
BYLAYER
 10
195.0
 20
35.0
 30
0.0
 11
195.0
 21
75.0
 31
0.0
  0
LINE
  5
A8
100
AcDbEntity
100
AcDbLine
  8
0
 62
256
370
-1
  6
BYLAYER
 10
195.0
 20
75.0
 30
0.0
 11
5.0
 21
75.0
 31
0.0
  0
LINE
  5
A9
100
AcDbEntity
100
AcDbLine
  8
0
 62
256
370
-1
  6
BYLAYER
 10
5.0
 20
75.0
 30
0.0
 11
5.0
 21
35.0
 31
0.0
  0
LINE
  5
AA
100
AcDbEntity
100
AcDbLine
  8
0
 62
256
370
-1
  6
BYLAYER
 10
-0.1
 20
-0.1
 30
0.0
 11
25.1000000000000014
 21
-0.1
 31
0.0
  0
LINE
  5
AB
100
AcDbEntity
100
AcDbLine
  8
0
 62
256
370
-1
  6
BYLAYER
 10
25.1000000000000014
 20
-0.1
 30
0.0
 11
25.1000000000000014
 21
25.1000000000000014
 31
0.0
  0
LINE
  5
AC
100
AcDbEntity
100
AcDbLine
  8
0
 62
256
370
-1
  6
BYLAYER
 10
25.1000000000000014
 20
25.1000000000000014
 30
0.0
 11
-0.1
 21
25.1000000000000014
 31
0.0
  0
LINE
  5
AD
100
AcDbEntity
100
AcDbLine
  8
0
 62
256
370
-1
  6
BYLAYER
 10
-0.1
 20
25.1000000000000014
 30
0.0
 11
-0.1
 21
-0.1
 31
0.0
  0
LINE
  5
AE
100
AcDbEntity
100
AcDbLine
  8
0
 62
256
370
-1
  6
BYLAYER
 10
2.6000000000000001
 20
2.6000000000000001
 30
0.0
 11
22.3999999999999986
 21
2.6000000000000001
 31
0.0
  0
LINE
  5
AF
100
AcDbEntity
100
AcDbLine
  8
0
 62
256
370
-1
  6
BYLAYER
 10
22.3999999999999986
 20
2.6000000000000001
 30
0.0
 11
22.3999999999999986
 21
22.3999999999999986
 31
0.0
  0
LINE
  5
B0
100
AcDbEntity
100
AcDbLine
  8
0
 62
256
370
-1
  6
BYLAYER
 10
22.3999999999999986
 20
22.3999999999999986
 30
0.0
 11
2.6000000000000001
 21
22.3999999999999986
 31
0.0
  0
LINE
  5
B1
100
AcDbEntity
100
AcDbLine
  8
0
 62
256
370
-1
  6
BYLAYER
 10
2.6000000000000001
 20
22.3999999999999986
 30
0.0
 11
2.6000000000000001
 21
2.6000000000000001
 31
0.0
  0
ENDSEC
  0
SECTION
  2
OBJECTS
  0
DICTIONARY
  5
C
100
AcDbDictionary
280
0
281
1
  3
ACAD_GROUP
350
D
  3
ACAD_LAYOUT
350
1A
  3
ACAD_MLINESTYLE
350
17
  3
ACAD_PLOTSETTINGS
350
19
  3
ACAD_PLOTSTYLENAME
350
E
  3
AcDbVariableDictionary
350
B2
  3
QCAD_OBJECTS
350
B3
  0
DICTIONARY
  5
D
100
AcDbDictionary
280
0
281
1
  0
ACDBDICTIONARYWDFLT
  5
E
100
AcDbDictionary
281
1
  3
Normal
350
F
100
AcDbDictionaryWithDefault
340
F
  0
ACDBPLACEHOLDER
  5
F
  0
DICTIONARY
  5
17
100
AcDbDictionary
280
0
281
1
  3
Standard
350
18
  0
MLINESTYLE
  5
18
100
AcDbMlineStyle
  2
STANDARD
 70
0
  3

 62
256
 51
90.0
 52
90.0
 71
2
 49
0.5
 62
256
  6
BYLAYER
 49
-0.5
 62
256
  6
BYLAYER
  0
DICTIONARY
  5
19
100
AcDbDictionary
280
0
281
1
  0
DICTIONARY
  5
1A
100
AcDbDictionary
281
1
  3
Layout1
350
1E
  3
Layout2
350
26
  3
Model
350
22
  0
LAYOUT
  5
1E
100
AcDbPlotSettings
  1

  2
none_device
  4

  6

 40
0.0
 41
0.0
 42
0.0
 43
0.0
 44
0.0
 45
0.0
 46
0.0
 47
0.0
 48
0.0
 49
0.0
140
0.0
141
0.0
142
1.0
143
1.0
 70
688
 72
0
 73
0
 74
5
  7

 75
16
147
1.0
148
0.0
149
0.0
100
AcDbLayout
  1
Layout1
 70
1
 71
1
 10
0.0
 20
0.0
 11
420.0
 21
297.0
 12
0.0
 22
0.0
 32
0.0
 14
100000000000000000000.0
 24
100000000000000000000.0
 34
100000000000000000000.0
 15
-100000000000000000000.0
 25
-100000000000000000000.0
 35
-100000000000000000000.0
146
0.0
 13
0.0
 23
0.0
 33
0.0
 16
1.0
 26
0.0
 36
0.0
 17
0.0
 27
1.0
 37
0.0
 76
0
330
1B
  0
LAYOUT
  5
22
100
AcDbPlotSettings
  1

  2
none_device
  4

  6

 40
0.0
 41
0.0
 42
0.0
 43
0.0
 44
0.0
 45
0.0
 46
0.0
 47
0.0
 48
0.0
 49
0.0
140
0.0
141
0.0
142
1.0
143
1.0
 70
1712
 72
0
 73
0
 74
0
  7

 75
0
147
1.0
148
0.0
149
0.0
100
AcDbLayout
  1
Model
 70
1
 71
0
 10
0.0
 20
0.0
 11
12.0
 21
9.0
 12
0.0
 22
0.0
 32
0.0
 14
0.0
 24
0.0
 34
0.0
 15
0.0
 25
0.0
 35
0.0
146
0.0
 13
0.0
 23
0.0
 33
0.0
 16
1.0
 26
0.0
 36
0.0
 17
0.0
 27
1.0
 37
0.0
 76
0
330
1F
  0
LAYOUT
  5
26
100
AcDbPlotSettings
  1

  2
none_device
  4

  6

 40
0.0
 41
0.0
 42
0.0
 43
0.0
 44
0.0
 45
0.0
 46
0.0
 47
0.0
 48
0.0
 49
0.0
140
0.0
141
0.0
142
1.0
143
1.0
 70
688
 72
0
 73
0
 74
5
  7

 75
16
147
1.0
148
0.0
149
0.0
100
AcDbLayout
  1
Layout2
 70
1
 71
2
 10
0.0
 20
0.0
 11
12.0
 21
9.0
 12
0.0
 22
0.0
 32
0.0
 14
0.0
 24
0.0
 34
0.0
 15
0.0
 25
0.0
 35
0.0
146
0.0
 13
0.0
 23
0.0
 33
0.0
 16
1.0
 26
0.0
 36
0.0
 17
0.0
 27
1.0
 37
0.0
 76
0
330
23
  0
DICTIONARY
  5
B2
100
AcDbDictionary
281
1
  3
DIMASSOC
350
B5
  3
HIDETEXT
350
B4
  0
DICTIONARYVAR
  5
B4
100
DictionaryVariables
280
0
  1
2
  0
DICTIONARYVAR
  5
B5
100
DictionaryVariables
280
0
  1
1
  0
DICTIONARY
  5
B3
100
AcDbDictionary
281
1
  3
Grid/DisplayGrid00
350
B6
  3
Grid/DisplayGrid01
350
B7
  3
Grid/DisplayGrid02
350
B8
  3
Grid/DisplayGrid03
350
B9
  3
Grid/GridSpacingX00
350
BA
  3
Grid/GridSpacingX01
350
BB
  3
Grid/GridSpacingX02
350
BC
  3
Grid/GridSpacingX03
350
BD
  3
Grid/GridSpacingY00
350
BE
  3
Grid/GridSpacingY01
350
BF
  3
Grid/GridSpacingY02
350
C0
  3
Grid/GridSpacingY03
350
C1
  3
Grid/IsometricGrid00
350
C2
  3
Grid/IsometricGrid01
350
C3
  3
Grid/IsometricGrid02
350
C4
  3
Grid/IsometricGrid03
350
C5
  3
Grid/IsometricProjection00
350
C6
  3
Grid/IsometricProjection01
350
C7
  3
Grid/IsometricProjection02
350
C8
  3
Grid/IsometricProjection03
350
C9
  3
Grid/MetaGridSpacingX00
350
CA
  3
Grid/MetaGridSpacingX01
350
CB
  3
Grid/MetaGridSpacingX02
350
CC
  3
Grid/MetaGridSpacingX03
350
CD
  3
Grid/MetaGridSpacingY00
350
CE
  3
Grid/MetaGridSpacingY01
350
CF
  3
Grid/MetaGridSpacingY02
350
D0
  3
Grid/MetaGridSpacingY03
350
D1
  3
MultiPageSettings/Columns
350
D2
  3
MultiPageSettings/GlueMarginsBottom
350
D3
  3
MultiPageSettings/GlueMarginsLeft
350
D4
  3
MultiPageSettings/GlueMarginsRight
350
D5
  3
MultiPageSettings/GlueMarginsTop
350
D6
  3
MultiPageSettings/PrintCropMarks
350
D7
  3
MultiPageSettings/Rows
350
D8
  3
PageSettings/OffsetX
350
D9
  3
PageSettings/OffsetY
350
DA
  3
PageSettings/PageOrientation
350
DB
  3
PageSettings/PaperHeight
350
DC
  3
PageSettings/PaperWidth
350
DD
  3
PageSettings/Scale
350
DE
  3
PageSettings/ShowPaperBorders
350
DF
  3
UnitSettings/PaperUnit
350
E0
  0
XRECORD
  5
B6
330
B3
100
AcDbXrecord
280
1
290
1
  0
XRECORD
  5
B7
330
B3
100
AcDbXrecord
280
1
290
1
  0
XRECORD
  5
B8
330
B3
100
AcDbXrecord
280
1
290
1
  0
XRECORD
  5
B9
330
B3
100
AcDbXrecord
280
1
290
1
  0
XRECORD
  5
BA
330
B3
100
AcDbXrecord
280
1
1000
auto
  0
XRECORD
  5
BB
330
B3
100
AcDbXrecord
280
1
1000
auto
  0
XRECORD
  5
BC
330
B3
100
AcDbXrecord
280
1
1000
auto
  0
XRECORD
  5
BD
330
B3
100
AcDbXrecord
280
1
1000
auto
  0
XRECORD
  5
BE
330
B3
100
AcDbXrecord
280
1
1000
auto
  0
XRECORD
  5
BF
330
B3
100
AcDbXrecord
280
1
1000
auto
  0
XRECORD
  5
C0
330
B3
100
AcDbXrecord
280
1
1000
auto
  0
XRECORD
  5
C1
330
B3
100
AcDbXrecord
280
1
1000
auto
  0
XRECORD
  5
C2
330
B3
100
AcDbXrecord
280
1
290
0
  0
XRECORD
  5
C3
330
B3
100
AcDbXrecord
280
1
290
0
  0
XRECORD
  5
C4
330
B3
100
AcDbXrecord
280
1
290
0
  0
XRECORD
  5
C5
330
B3
100
AcDbXrecord
280
1
290
0
  0
XRECORD
  5
C6
330
B3
100
AcDbXrecord
280
1
 90
0
  0
XRECORD
  5
C7
330
B3
100
AcDbXrecord
280
1
 90
0
  0
XRECORD
  5
C8
330
B3
100
AcDbXrecord
280
1
 90
0
  0
XRECORD
  5
C9
330
B3
100
AcDbXrecord
280
1
 90
0
  0
XRECORD
  5
CA
330
B3
100
AcDbXrecord
280
1
1000
auto
  0
XRECORD
  5
CB
330
B3
100
AcDbXrecord
280
1
1000
auto
  0
XRECORD
  5
CC
330
B3
100
AcDbXrecord
280
1
1000
auto
  0
XRECORD
  5
CD
330
B3
100
AcDbXrecord
280
1
1000
auto
  0
XRECORD
  5
CE
330
B3
100
AcDbXrecord
280
1
1000
auto
  0
XRECORD
  5
CF
330
B3
100
AcDbXrecord
280
1
1000
auto
  0
XRECORD
  5
D0
330
B3
100
AcDbXrecord
280
1
1000
auto
  0
XRECORD
  5
D1
330
B3
100
AcDbXrecord
280
1
1000
auto
  0
XRECORD
  5
D2
330
B3
100
AcDbXrecord
280
1
 90
1
  0
XRECORD
  5
D3
330
B3
100
AcDbXrecord
280
1
 40
10.0
  0
XRECORD
  5
D4
330
B3
100
AcDbXrecord
280
1
 40
10.0
  0
XRECORD
  5
D5
330
B3
100
AcDbXrecord
280
1
 40
10.0
  0
XRECORD
  5
D6
330
B3
100
AcDbXrecord
280
1
 40
10.0
  0
XRECORD
  5
D7
330
B3
100
AcDbXrecord
280
1
290
0
  0
XRECORD
  5
D8
330
B3
100
AcDbXrecord
280
1
 90
1
  0
XRECORD
  5
D9
330
B3
100
AcDbXrecord
280
1
 40
0.0
  0
XRECORD
  5
DA
330
B3
100
AcDbXrecord
280
1
 40
0.0
  0
XRECORD
  5
DB
330
B3
100
AcDbXrecord
280
1
1000
Portrait
  0
XRECORD
  5
DC
330
B3
100
AcDbXrecord
280
1
 40
297.0
  0
XRECORD
  5
DD
330
B3
100
AcDbXrecord
280
1
 40
210.0
  0
XRECORD
  5
DE
330
B3
100
AcDbXrecord
280
1
1000
1:1
  0
XRECORD
  5
DF
330
B3
100
AcDbXrecord
280
1
290
1
  0
XRECORD
  5
E0
330
B3
100
AcDbXrecord
280
1
 90
4
  0
ENDSEC
  0
EOF
