<?xml version="1.0" encoding="UTF-8" standalone="no"?>
<!-- Created with Inkscape (http://www.inkscape.org/) -->

<svg
   xmlns:dc="http://purl.org/dc/elements/1.1/"
   xmlns:cc="http://creativecommons.org/ns#"
   xmlns:rdf="http://www.w3.org/1999/02/22-rdf-syntax-ns#"
   xmlns:svg="http://www.w3.org/2000/svg"
   xmlns="http://www.w3.org/2000/svg"
   xmlns:sodipodi="http://sodipodi.sourceforge.net/DTD/sodipodi-0.dtd"
   xmlns:inkscape="http://www.inkscape.org/namespaces/inkscape"
   width="524.40942"
   height="744.09448"
   id="svg2"
   version="1.1"
   inkscape:version="0.48.3.1 r9886"
   sodipodi:docname="debcon2.svg"
   inkscape:export-filename="/home/liw/rra-gift-2014/debcon.png"
   inkscape:export-xdpi="171.04378"
   inkscape:export-ydpi="171.04378">
  <defs
     id="defs4" />
  <sodipodi:namedview
     id="base"
     pagecolor="#ffffff"
     bordercolor="#666666"
     borderopacity="1.0"
     inkscape:pageopacity="0.0"
     inkscape:pageshadow="2"
     inkscape:zoom="0.54546741"
     inkscape:cx="163.20705"
     inkscape:cy="335.92766"
     inkscape:document-units="px"
     inkscape:current-layer="layer2"
     showgrid="false"
     inkscape:window-width="1366"
     inkscape:window-height="714"
     inkscape:window-x="0"
     inkscape:window-y="27"
     inkscape:window-maximized="0" />
  <metadata
     id="metadata7">
    <rdf:RDF>
      <cc:Work
         rdf:about="">
        <dc:format>image/svg+xml</dc:format>
        <dc:type
           rdf:resource="http://purl.org/dc/dcmitype/StillImage" />
        <dc:title></dc:title>
      </cc:Work>
    </rdf:RDF>
  </metadata>
  <g
     inkscape:groupmode="layer"
     id="layer2"
     inkscape:label="swirl"
     style="display:inline">
    <path
       style="fill:#1e1e1e;fill-opacity:0.11764706"
       inkscape:connector-curvature="0"
       d="m 410.58236,393.44797 c 0.48621,13.05172 -3.80852,19.39393 -7.69273,30.60892 l -6.98503,3.47358 c -5.71014,11.09613 0.56724,7.04445 -3.52226,15.86627 -8.9244,7.92503 -27.04338,24.79073 -32.84536,26.33574 -4.24071,-0.0918 2.86857,-5.00244 3.79772,-6.9202 -11.93344,8.18969 -9.57809,12.29539 -27.83213,17.28162 l -0.52943,-1.19391 c -45.00035,21.17663 -107.51463,-20.78227 -106.69348,-78.024 -0.4754,3.6303 -1.36673,2.72271 -2.36075,4.18134 -2.32294,-29.44742 13.60275,-59.02444 40.46252,-71.12 26.27085,-12.9977 57.06885,-7.67113 75.87387,9.88061 -10.32901,-13.53787 -30.90599,-27.89155 -55.27528,-26.56258 -23.88315,0.38897 -46.23209,15.56374 -53.68712,32.04582 -12.23056,7.69814 -13.65677,29.69053 -18.98329,33.72054 -7.17957,52.7255 13.48925,75.49577 48.45772,102.29611 5.48865,3.70593 1.54501,4.27312 2.27973,7.09307 -11.61476,-5.43462 -22.24625,-13.64597 -30.99783,-23.69946 4.64588,6.7906 9.65372,13.39207 16.13098,18.57818 -10.96108,-3.70048 -25.59562,-26.54103 -29.85799,-27.47017 18.88071,33.80697 76.59244,59.28915 106.82854,46.6426 -13.99167,0.51862 -31.75956,0.28632 -47.46916,-5.52106 -6.61767,-3.398 -15.57995,-10.42624 -13.97546,-11.73901 41.2512,15.40173 83.85298,11.65798 119.53991,-16.94668 9.08647,-7.07687 19.00491,-19.1076 21.87348,-19.26967 -4.31634,6.49347 0.74012,3.12248 -2.57685,8.85423 9.03251,-14.59133 -3.93818,-5.94244 9.34584,-25.19585 l 4.9052,6.75273 c -1.83674,-12.12252 15.04511,-26.82735 13.32723,-45.98352 3.87335,-5.856 4.31634,6.30974 0.21069,19.78284 5.69934,-14.94788 1.50719,-17.35186 2.96582,-29.69047 1.57202,4.14887 3.66266,8.55165 4.72692,12.93287 -3.71674,-14.45092 3.79771,-24.32613 5.66691,-32.72657 -1.84759,-0.81029 -5.73174,6.38543 -6.62853,-10.67476 0.13506,-7.41181 2.06904,-3.88415 2.80915,-5.71008 -1.44776,-0.83736 -5.26715,-6.52048 -7.58468,-17.41673 1.66926,-2.56605 4.49461,6.63933 6.78514,7.01209 -1.47478,-8.65975 -4.00841,-15.26667 -4.11645,-21.91675 -6.69871,-13.99173 -2.37157,1.86914 -7.79538,-6.00727 -7.13089,-22.22463 5.91002,-5.1591 6.79595,-15.25041 10.7936,15.63938 16.94673,39.89528 19.78289,49.93797 -2.16087,-12.24678 -5.64531,-24.11545 -9.90763,-35.59509 3.28991,1.38834 -5.28875,-25.19051 4.27313,-7.59009 -10.20476,-37.51831 -43.63897,-72.57863 -74.4045,-89.02289 3.7545,3.44116 8.50302,7.76296 6.80675,8.44365 -15.30983,-9.10273 -12.61953,-9.82124 -14.81282,-13.66758 -12.45206,-5.07267 -13.28402,0.41598 -21.52238,0.0108 C 322.67235,197.79648 318.14532,199.12 296.52029,191.31922 l 0.98322,4.60266 c -15.56374,-5.18611 -18.13519,1.95564 -34.95227,0.0108 -1.02098,-0.79409 5.3914,-2.89559 10.67476,-3.65726 -15.05053,1.988 -14.34822,-2.97122 -29.07466,0.54563 3.6249,-2.54443 7.47124,-4.23536 11.33924,-6.39623 -12.26839,0.74552 -29.30156,7.1417 -24.04521,1.31811 -20.01514,8.93527 -55.56701,21.47377 -75.51738,40.1816 l -0.62667,-4.19209 c -9.1405,10.97183 -39.86281,32.76973 -42.31,46.99376 l -2.44719,0.56718 c -4.74853,8.05469 -7.8332,17.17904 -11.60396,25.46062 -6.2179,10.60447 -9.118891,4.08404 -8.232961,5.7479 -12.23597,24.80694 -18.32427,45.64863 -23.56981,62.75198 3.73835,5.59129 0.0918,33.66652 1.50184,56.13431 -6.13692,110.98281 77.888941,218.72968 169.737131,243.60145 13.4623,4.82416 33.47749,4.65128 50.50521,5.12669 -20.08537,-5.74796 -22.67843,-3.04145 -42.25604,-9.86441 -14.11592,-6.65554 -17.20599,-14.24563 -27.21086,-22.92693 l 3.95979,6.99583 c -19.60996,-6.94186 -11.40401,-8.58952 -27.36212,-13.64057 l 4.2299,-5.51566 c -6.35836,-0.4862 -16.83863,-10.70717 -19.7018,-16.38489 l -6.95808,0.27552 C 165.23061,598.75863 160.77376,591.3198 161.1033,585.5557 l -2.24731,4.0084 c -2.54444,-4.37036 -30.74392,-38.66895 -16.11478,-30.68449 -2.71731,-2.47421 -6.33135,-4.03547 -10.24797,-11.16096 l 2.97662,-3.398 c -7.02825,-9.05947 -12.95448,-20.66882 -12.50068,-24.53677 3.7545,5.06726 6.35836,6.01807 8.94061,6.88778 -17.77864,-44.10357 -18.77801,-2.42558 -32.2349,-44.8923 l 2.84156,-0.2269 c -2.17708,-3.30071 -3.51145,-6.86078 -5.26175,-10.36682 l 1.24248,-12.34402 c -12.792411,-14.78041 -3.57622,-62.90865 -1.72328,-89.29836 1.26949,-10.72877 10.68016,-22.15445 17.82726,-40.07355 l -4.35416,-0.74552 c 8.3302,-14.52109 47.55014,-58.33834 65.72314,-56.09103 8.80021,-11.05292 -1.75029,-0.0432 -3.47358,-2.81995 19.33445,-20.00434 25.41195,-14.13219 38.45826,-17.73542 14.06196,-8.34642 -12.0739,3.26289 -5.4076,-3.18191 24.32613,-6.20715 17.233,-14.12138 48.96014,-17.27082 3.34938,1.90156 -7.76297,2.93875 -10.5505,5.40761 20.25829,-9.91849 64.11876,-7.65497 92.62077,5.49939 33.04525,15.4557 70.19621,61.12054 71.66558,104.08422 l 1.66926,0.44839 c -0.8427,17.08179 2.61467,36.83762 -3.38714,54.97821 l 4.05703,-8.59486"
       id="path3305" />
  </g>
  <g
     inkscape:label="Layer 1"
     inkscape:groupmode="layer"
     id="layer1"
     transform="translate(0,-308.26768)"
     style="display:inline">
    <text
       xml:space="preserve"
       style="font-size:72px;font-style:normal;font-variant:normal;font-weight:normal;font-stretch:normal;line-height:125%;letter-spacing:0px;word-spacing:0px;fill:#000000;fill-opacity:1;stroke:none;font-family:DejaVu Sans;-inkscape-font-specification:DejaVu Sans"
       x="106.58596"
       y="401.08859"
       id="text3004"
       sodipodi:linespacing="125%"><tspan
         sodipodi:role="line"
         id="tspan3006"
         x="106.58596"
         y="401.08859">DEBCON</tspan></text>
    <text
       xml:space="preserve"
       style="font-size:16px;font-style:normal;font-variant:normal;font-weight:normal;font-stretch:normal;line-height:125%;letter-spacing:0px;word-spacing:0px;fill:#000000;fill-opacity:1;stroke:none;font-family:DejaVu Sans;-inkscape-font-specification:DejaVu Sans"
       x="40.000004"
       y="1005.2193"
       id="text3102"
       sodipodi:linespacing="125%"><tspan
         sodipodi:role="line"
         id="tspan3104"
         x="40.000004"
         y="1005.2193"
         style="font-weight:bold">DEBCON1</tspan></text>
    <text
       xml:space="preserve"
       style="font-size:16px;font-style:normal;font-variant:normal;font-weight:normal;font-stretch:normal;line-height:125%;letter-spacing:0px;word-spacing:0px;fill:#000000;fill-opacity:1;stroke:none;font-family:DejaVu Sans;-inkscape-font-specification:DejaVu Sans"
       x="38.703671"
       y="854.02924"
       id="text3106"
       sodipodi:linespacing="125%"><tspan
         sodipodi:role="line"
         id="tspan3108"
         x="38.703671"
         y="854.02924"
         style="font-weight:bold">DEBCON2</tspan></text>
    <text
       xml:space="preserve"
       style="font-size:16px;font-style:normal;font-variant:normal;font-weight:normal;font-stretch:normal;line-height:125%;letter-spacing:0px;word-spacing:0px;fill:#000000;fill-opacity:1;stroke:none;font-family:DejaVu Sans;-inkscape-font-specification:DejaVu Sans"
       x="40.000004"
       y="756.64783"
       id="text3110"
       sodipodi:linespacing="125%"><tspan
         sodipodi:role="line"
         id="tspan3112"
         x="40.000004"
         y="756.64783"
         style="font-weight:bold">DEBCON3</tspan></text>
    <text
       xml:space="preserve"
       style="font-size:16px;font-style:normal;font-variant:normal;font-weight:normal;font-stretch:normal;line-height:125%;letter-spacing:0px;word-spacing:0px;fill:#000000;fill-opacity:1;stroke:none;font-family:DejaVu Sans;-inkscape-font-specification:DejaVu Sans"
       x="40.000004"
       y="577.79523"
       id="text3114"
       sodipodi:linespacing="125%"><tspan
         sodipodi:role="line"
         id="tspan3116"
         x="40.000004"
         y="577.79523"
         style="font-weight:bold">DEBCON4</tspan></text>
    <text
       xml:space="preserve"
       style="font-size:16px;font-style:normal;font-variant:normal;font-weight:normal;font-stretch:normal;line-height:125%;letter-spacing:0px;word-spacing:0px;fill:#000000;fill-opacity:1;stroke:none;font-family:DejaVu Sans;-inkscape-font-specification:DejaVu Sans"
       x="40.000004"
       y="454.93805"
       id="text3118"
       sodipodi:linespacing="125%"><tspan
         sodipodi:role="line"
         id="tspan3120"
         x="40.000004"
         y="454.93805"
         style="font-weight:bold">DEBCON5</tspan></text>
    <text
       xml:space="preserve"
       style="font-size:16px;font-style:normal;font-variant:normal;font-weight:normal;font-stretch:normal;line-height:125%;letter-spacing:0px;word-spacing:0px;fill:#000000;fill-opacity:1;stroke:none;font-family:DejaVu Sans;-inkscape-font-specification:DejaVu Sans"
       x="167.83035"
       y="455.2193"
       id="text3122"
       sodipodi:linespacing="125%"><tspan
         sodipodi:role="line"
         id="tspan3124"
         x="167.83035"
         y="455.2193">discussions happen, threads are short, </tspan><tspan
         sodipodi:role="line"
         x="167.83035"
         y="475.2193"
         id="tspan3126">problems get solved</tspan></text>
    <text
       xml:space="preserve"
       style="font-size:16px;font-style:normal;font-variant:normal;font-weight:normal;font-stretch:normal;line-height:125%;letter-spacing:0px;word-spacing:0px;fill:#000000;fill-opacity:1;stroke:none;font-family:DejaVu Sans;-inkscape-font-specification:DejaVu Sans"
       x="168.28348"
       y="525.2193"
       id="text3128"
       sodipodi:linespacing="125%"><tspan
         sodipodi:role="line"
         id="tspan3130"
         x="168.28348"
         y="525.2193">threads get long, arguments are repeated</tspan></text>
    <text
       xml:space="preserve"
       style="font-size:16px;font-style:normal;font-variant:normal;font-weight:normal;font-stretch:normal;line-height:125%;letter-spacing:0px;word-spacing:0px;fill:#000000;fill-opacity:1;stroke:none;font-family:DejaVu Sans;-inkscape-font-specification:DejaVu Sans"
       x="167.75223"
       y="578.07648"
       id="text3132"
       sodipodi:linespacing="125%"><tspan
         sodipodi:role="line"
         id="tspan3134"
         x="167.75223"
         y="578.07648">links to threads get posted on reddit </tspan><tspan
         sodipodi:role="line"
         x="167.75223"
         y="598.07648"
         id="tspan3136">and HN, outsiders start showing up and </tspan><tspan
         sodipodi:role="line"
         x="167.75223"
         y="618.07648"
         id="tspan3138">repeating arguments</tspan></text>
    <text
       xml:space="preserve"
       style="font-size:16px;font-style:normal;font-variant:normal;font-weight:normal;font-stretch:normal;line-height:125%;letter-spacing:0px;word-spacing:0px;fill:#000000;fill-opacity:1;stroke:none;font-family:DejaVu Sans;-inkscape-font-specification:DejaVu Sans"
       x="167.14285"
       y="668.07648"
       id="text3140"
       sodipodi:linespacing="125%"><tspan
         sodipodi:role="line"
         id="tspan3142"
         x="167.14285"
         y="668.07648">LWN writes articles</tspan></text>
    <text
       xml:space="preserve"
       style="font-size:16px;font-style:normal;font-variant:normal;font-weight:normal;font-stretch:normal;line-height:125%;letter-spacing:0px;word-spacing:0px;fill:#000000;fill-opacity:1;stroke:none;font-family:DejaVu Sans;-inkscape-font-specification:DejaVu Sans"
       x="168.28348"
       y="716.64789"
       id="text3144"
       sodipodi:linespacing="125%"><tspan
         sodipodi:role="line"
         id="tspan3146"
         x="168.28348"
         y="716.64789">trolls show up</tspan></text>
    <text
       xml:space="preserve"
       style="font-size:16px;font-style:normal;font-variant:normal;font-weight:normal;font-stretch:normal;line-height:125%;letter-spacing:0px;word-spacing:0px;fill:#000000;fill-opacity:1;stroke:none;font-family:DejaVu Sans;-inkscape-font-specification:DejaVu Sans"
       x="167.20535"
       y="756.92908"
       id="text3148"
       sodipodi:linespacing="125%"><tspan
         sodipodi:role="line"
         id="tspan3150"
         x="167.20535"
         y="756.92908">listmasters ban people</tspan></text>
    <text
       xml:space="preserve"
       style="font-size:16px;font-style:normal;font-variant:normal;font-weight:normal;font-stretch:normal;line-height:125%;letter-spacing:0px;word-spacing:0px;fill:#000000;fill-opacity:1;stroke:none;font-family:DejaVu Sans;-inkscape-font-specification:DejaVu Sans"
       x="167.14285"
       y="808.07642"
       id="text3152"
       sodipodi:linespacing="125%"><tspan
         sodipodi:role="line"
         id="tspan3154"
         x="167.14285"
         y="808.07642">NYT writes articles</tspan></text>
    <text
       xml:space="preserve"
       style="font-size:16px;font-style:normal;font-variant:normal;font-weight:normal;font-stretch:normal;line-height:125%;letter-spacing:0px;word-spacing:0px;fill:#000000;fill-opacity:1;stroke:none;font-family:DejaVu Sans;-inkscape-font-specification:DejaVu Sans"
       x="166.5184"
       y="854.31049"
       id="text3156"
       sodipodi:linespacing="125%"><tspan
         sodipodi:role="line"
         id="tspan3158"
         x="166.5184"
         y="854.31049">GRs are proposed and voted on</tspan></text>
    <text
       xml:space="preserve"
       style="font-size:16px;font-style:normal;font-variant:normal;font-weight:normal;font-stretch:normal;line-height:125%;letter-spacing:0px;word-spacing:0px;fill:#000000;fill-opacity:1;stroke:none;font-family:DejaVu Sans;-inkscape-font-specification:DejaVu Sans"
       x="167.32254"
       y="903.79077"
       id="text3160"
       sodipodi:linespacing="125%"><tspan
         sodipodi:role="line"
         id="tspan3162"
         x="167.32254"
         y="903.79077">UN security committee meets</tspan></text>
    <text
       xml:space="preserve"
       style="font-size:16px;font-style:normal;font-variant:normal;font-weight:normal;font-stretch:normal;line-height:125%;letter-spacing:0px;word-spacing:0px;fill:#000000;fill-opacity:1;stroke:none;font-family:DejaVu Sans;-inkscape-font-specification:DejaVu Sans"
       x="167.26004"
       y="946.64789"
       id="text3164"
       sodipodi:linespacing="125%"><tspan
         sodipodi:role="line"
         id="tspan3166"
         x="167.26004"
         y="946.64789">laser cannons are launched into </tspan><tspan
         sodipodi:role="line"
         x="167.26004"
         y="966.64789"
         id="tspan3168">planetary orbit</tspan></text>
    <text
       xml:space="preserve"
       style="font-size:16px;font-style:normal;font-variant:normal;font-weight:normal;font-stretch:normal;line-height:125%;letter-spacing:0px;word-spacing:0px;fill:#000000;fill-opacity:1;stroke:none;font-family:DejaVu Sans;-inkscape-font-specification:DejaVu Sans"
       x="167.14285"
       y="1005.5005"
       id="text3170"
       sodipodi:linespacing="125%"><tspan
         sodipodi:role="line"
         id="tspan3172"
         x="167.14285"
         y="1005.5005">Russ gets mildly annoyed</tspan></text>
    <path
       style="fill:none;stroke:#000000;stroke-width:1px;stroke-linecap:butt;stroke-linejoin:miter;stroke-opacity:1"
       d="m 144,135.52305 0,578.57143"
       id="path3174"
       inkscape:connector-curvature="0"
       transform="translate(0,308.26768)"
       sodipodi:nodetypes="cc" />
    <text
       xml:space="preserve"
       style="font-size:16px;font-style:normal;font-variant:normal;font-weight:normal;font-stretch:normal;line-height:125%;letter-spacing:0px;word-spacing:0px;fill:#000000;fill-opacity:1;stroke:none;font-family:DejaVu Sans;-inkscape-font-specification:DejaVu Sans"
       x="-235.9324"
       y="537.97772"
       id="text3176"
       sodipodi:linespacing="125%"
       transform="translate(0,308.26768)"><tspan
         sodipodi:role="line"
         id="tspan3178"
         x="-235.9324"
         y="537.97772"></tspan></text>
  </g>
</svg>
