999
dxflib 3.1.5.0
  0
SECTION
  2
HEADER
  9
$ACADVER
  1
AC1015
  9
$HANDSEED
  5
FFFF
  9
$ANGBASE
 50
0.0
  9
$ATTMODE
 70
1
  9
$AUNITS
 70
0
  9
$AUPREC
 70
0
  9
$CELTSCALE
 40
1.0
  9
$CHAMFERA
 40
0.0
  9
$CHAMFERB
 40
0.0
  9
$CHAMFERC
 40
0.0
  9
$CHAMFERD
 40
0.0
  9
$CMLJUST
 70
0
  9
$CMLSCALE
 40
1.0
  9
$DIMADEC
 70
0
  9
$DIMALTD
 70
2
  9
$DIMALTF
 40
25.3999999999999986
  9
$DIMALTRND
 40
0.0
  9
$DIMALTTD
 70
2
  9
$DIMALTTZ
 70
0
  9
$DIMALTU
 70
2
  9
$DIMALTZ
 70
0
  9
$DIMAPOST
  1

  9
$DIMASZ
 40
2.5
  9
$DIMATFIT
 70
3
  9
$DIMAUNIT
 70
0
  9
$DIMAZIN
 70
2
  9
$DIMCEN
 40
0.09
  9
$DIMDEC
 70
4
  9
$DIMDLE
 40
0.0
  9
$DIMDLI
 40
0.38
  9
$DIMDSEP
 70
46
  9
$DIMEXE
 40
1.25
  9
$DIMEXO
 40
0.625
  9
$DIMFRAC
 70
0
  9
$DIMGAP
 40
0.625
  9
$DIMJUST
 70
0
  9
$DIMLFAC
 40
1.0
  9
$DIMLUNIT
 70
2
  9
$DIMLWD
 70
-2
  9
$DIMLWE
 70
-2
  9
$DIMPOST
  1

  9
$DIMRND
 40
0.0
  9
$DIMSCALE
 40
1.0
  9
$DIMTAD
 70
0
  9
$DIMTDEC
 70
4
  9
$DIMTFAC
 40
1.0
  9
$DIMTM
 40
0.0
  9
$DIMTOLJ
 70
1
  9
$DIMTP
 40
0.0
  9
$DIMTSZ
 40
0.0
  9
$DIMTVP
 40
0.0
  9
$DIMTXT
 40
2.5
  9
$DIMTZIN
 70
0
  9
$DIMZIN
 70
8
  9
$ELEVATION
 40
0.0
  9
$EXTMAX
 10
-100000000000000000000.0
 20
-100000000000000000000.0
 30
-100000000000000000000.0
  9
$EXTMIN
 10
100000000000000000000.0
 20
100000000000000000000.0
 30
100000000000000000000.0
  9
$FILLETRAD
 40
0.5
  9
$INSBASE
 10
0.0
 20
0.0
 30
0.0
  9
$INSUNITS
 70
4
  9
$LIMMAX
 10
12.0
 20
9.0
  9
$LIMMIN
 10
0.0
 20
0.0
  9
$LTSCALE
 40
1.0
  9
$LUNITS
 70
2
  9
$LUPREC
 70
4
  9
$MAXACTVP
 70
64
  9
$PDMODE
 70
0
  9
$PDSIZE
 40
0.0
  9
$PELEVATION
 40
0.0
  9
$PEXTMAX
 10
-100000000000000000000.0
 20
-100000000000000000000.0
 30
-100000000000000000000.0
  9
$PEXTMIN
 10
100000000000000000000.0
 20
100000000000000000000.0
 30
100000000000000000000.0
  9
$PINSBASE
 10
0.0
 20
0.0
 30
0.0
  9
$PLIMMAX
 10
12.0
 20
9.0
  9
$PLIMMIN
 10
0.0
 20
0.0
  9
$PLINEWID
 40
0.0
  9
$PROXYGRAPHICS
 70
1
  9
$PUCSORG
 10
0.0
 20
0.0
 30
0.0
  9
$PUCSXDIR
 10
1.0
 20
0.0
 30
0.0
  9
$PUCSYDIR
 10
0.0
 20
1.0
 30
0.0
  9
$SHADEDGE
 70
3
  9
$SHADEDIF
 70
70
  9
$SKETCHINC
 40
0.1
  9
$SPLINESEGS
 70
8
  9
$SPLINETYPE
 70
6
  9
$SURFTAB1
 70
6
  9
$SURFTAB2
 70
6
  9
$SURFTYPE
 70
6
  9
$SURFU
 70
6
  9
$SURFV
 70
6
  9
$TEXTSIZE
 40
0.2
  9
$THICKNESS
 40
0.0
  9
$TRACEWID
 40
0.05
  9
$TREEDEPTH
 70
3020
  9
$UCSORG
 10
0.0
 20
0.0
 30
0.0
  9
$UCSXDIR
 10
1.0
 20
0.0
 30
0.0
  9
$UCSYDIR
 10
0.0
 20
1.0
 30
0.0
  9
$UNITMODE
 70
0
  9
$USERI1
 70
0
  9
$USERI2
 70
0
  9
$USERI3
 70
0
  9
$USERI4
 70
0
  9
$USERI5
 70
0
  9
$USERR1
 40
0.0
  9
$USERR2
 40
0.0
  9
$USERR3
 40
0.0
  9
$USERR4
 40
0.0
  9
$USERR5
 40
0.0
  0
SECTION
  2
TABLES
  0
TABLE
  2
VPORT
  5
8
100
AcDbSymbolTable
 70
1
  0
VPORT
  5
30
100
AcDbSymbolTableRecord
100
AcDbViewportTableRecord
  2
*Active
 70
0
 10
0.0
 20
0.0
 11
1.0
 21
1.0
 12
286.3055555555554861
 22
148.5
 13
0.0
 23
0.0
 14
10.0
 24
10.0
 15
10.0
 25
10.0
 16
0.0
 26
0.0
 36
1.0
 17
0.0
 27
0.0
 37
0.0
 40
297.0
 41
1.92798353909465
 42
50.0
 43
0.0
 44
0.0
 50
0.0
 51
0.0
 71
0
 72
100
 73
1
 74
3
 75
1
 76
1
 77
0
 78
0
281
0
 65
1
110
0.0
120
0.0
130
0.0
111
1.0
121
0.0
131
0.0
112
0.0
122
1.0
132
0.0
 79
0
146
0.0
  0
ENDTAB
  0
TABLE
  2
LTYPE
  5
5
100
AcDbSymbolTable
 70
21
  0
LTYPE
  5
31
100
AcDbSymbolTableRecord
100
AcDbLinetypeTableRecord
  2
CENTER2
 70
0
  3
Center (.5x) ___ _ ___ _ ___ _ ___ _ ___ _ ___
 72
65
 73
4
 40
28.5749999999999993
 49
19.0500000000000007
 74
0
 49
-3.1749999999999998
 74
0
 49
3.1749999999999998
 74
0
 49
-3.1749999999999998
 74
0
  0
LTYPE
  5
32
100
AcDbSymbolTableRecord
100
AcDbLinetypeTableRecord
  2
DIVIDEX2
 70
0
  3
Divide (2x) ________  .  .  ________  .  .  _
 72
65
 73
6
 40
63.5
 49
25.3999999999999986
 74
0
 49
-12.6999999999999993
 74
0
 49
0.0
 74
0
 49
-12.6999999999999993
 74
0
 49
0.0
 74
0
 49
-12.6999999999999993
 74
0
  0
LTYPE
  5
33
100
AcDbSymbolTableRecord
100
AcDbLinetypeTableRecord
  2
DOT2
 70
0
  3
Dot (.5x) .....................................
 72
65
 73
2
 40
3.1749999999999998
 49
0.0
 74
0
 49
-3.1749999999999998
 74
0
  0
LTYPE
  5
34
100
AcDbSymbolTableRecord
100
AcDbLinetypeTableRecord
  2
DASHDOT2
 70
0
  3
Dash dot (.5x) _._._._._._._._._._._._._._._.
 72
65
 73
4
 40
12.6999999999999993
 49
6.3499999999999996
 74
0
 49
-3.1749999999999998
 74
0
 49
0.0
 74
0
 49
-3.1749999999999998
 74
0
  0
LTYPE
  5
35
100
AcDbSymbolTableRecord
100
AcDbLinetypeTableRecord
  2
DIVIDE
 70
0
  3
Divide ____ . . ____ . . ____ . . ____ . . ____
 72
65
 73
6
 40
31.75
 49
12.6999999999999993
 74
0
 49
-6.3499999999999996
 74
0
 49
0.0
 74
0
 49
-6.3499999999999996
 74
0
 49
0.0
 74
0
 49
-6.3499999999999996
 74
0
  0
LTYPE
  5
36
100
AcDbSymbolTableRecord
100
AcDbLinetypeTableRecord
  2
DASHDOT
 70
0
  3
Dash dot __ . __ . __ . __ . __ . __ . __ . __
 72
65
 73
4
 40
25.3999999999999986
 49
12.6999999999999993
 74
0
 49
-6.3499999999999996
 74
0
 49
0.0
 74
0
 49
-6.3499999999999996
 74
0
  0
LTYPE
  5
37
100
AcDbSymbolTableRecord
100
AcDbLinetypeTableRecord
  2
BORDER
 70
0
  3
Border __ __ . __ __ . __ __ . __ __ . __ __ .
 72
65
 73
6
 40
44.4500000000000028
 49
12.6999999999999993
 74
0
 49
-6.3499999999999996
 74
0
 49
12.6999999999999993
 74
0
 49
-6.3499999999999996
 74
0
 49
0.0
 74
0
 49
-6.3499999999999996
 74
0
  0
LTYPE
  5
38
100
AcDbSymbolTableRecord
100
AcDbLinetypeTableRecord
  2
DASHDOTX2
 70
0
  3
Dash dot (2x) ____  .  ____  .  ____  .  ___
 72
65
 73
4
 40
50.7999999999999972
 49
25.3999999999999986
 74
0
 49
-12.6999999999999993
 74
0
 49
0.0
 74
0
 49
-12.6999999999999993
 74
0
  0
LTYPE
  5
39
100
AcDbSymbolTableRecord
100
AcDbLinetypeTableRecord
  2
CENTERX2
 70
0
  3
Center (2x) ________  __  ________  __  _____
 72
65
 73
4
 40
101.5999999999999943
 49
63.5
 74
0
 49
-12.6999999999999993
 74
0
 49
12.6999999999999993
 74
0
 49
-12.6999999999999993
 74
0
  0
LTYPE
  5
3A
100
AcDbSymbolTableRecord
100
AcDbLinetypeTableRecord
  2
BORDER2
 70
0
  3
Border (.5x) __.__.__.__.__.__.__.__.__.__.__.
 72
65
 73
6
 40
22.2250000000000014
 49
6.3499999999999996
 74
0
 49
-3.1749999999999998
 74
0
 49
6.3499999999999996
 74
0
 49
-3.1749999999999998
 74
0
 49
0.0
 74
0
 49
-3.1749999999999998
 74
0
  0
LTYPE
  5
3B
100
AcDbSymbolTableRecord
100
AcDbLinetypeTableRecord
  2
BORDERX2
 70
0
  3
Border (2x) ____  ____  .  ____  ____  .  ___
 72
65
 73
6
 40
88.9000000000000057
 49
25.3999999999999986
 74
0
 49
-12.6999999999999993
 74
0
 49
25.3999999999999986
 74
0
 49
-12.6999999999999993
 74
0
 49
0.0
 74
0
 49
-12.6999999999999993
 74
0
  0
LTYPE
  5
16
100
AcDbSymbolTableRecord
100
AcDbLinetypeTableRecord
  2
CONTINUOUS
 70
0
  3
Solid line
 72
65
 73
0
 40
0.0
  0
LTYPE
  5
14
100
AcDbSymbolTableRecord
100
AcDbLinetypeTableRecord
  2
BYBLOCK
 70
0
  3

 72
65
 73
0
 40
0.0
  0
LTYPE
  5
15
100
AcDbSymbolTableRecord
100
AcDbLinetypeTableRecord
  2
BYLAYER
 70
0
  3

 72
65
 73
0
 40
0.0
  0
LTYPE
  5
3C
100
AcDbSymbolTableRecord
100
AcDbLinetypeTableRecord
  2
DASHED2
 70
0
  3
Dashed (.5x) _ _ _ _ _ _ _ _ _ _ _ _ _ _ _ _ _
 72
65
 73
2
 40
9.5250000000000004
 49
6.3499999999999996
 74
0
 49
-3.1749999999999998
 74
0
  0
LTYPE
  5
3D
100
AcDbSymbolTableRecord
100
AcDbLinetypeTableRecord
  2
CENTER
 70
0
  3
Center ____ _ ____ _ ____ _ ____ _ ____ _ ____
 72
65
 73
4
 40
50.7999999999999972
 49
31.75
 74
0
 49
-6.3499999999999996
 74
0
 49
6.3499999999999996
 74
0
 49
-6.3499999999999996
 74
0
  0
LTYPE
  5
3E
100
AcDbSymbolTableRecord
100
AcDbLinetypeTableRecord
  2
DIVIDE2
 70
0
  3
Divide (.5x) __..__..__..__..__..__..__..__.._
 72
65
 73
6
 40
15.875
 49
6.3499999999999996
 74
0
 49
-3.1749999999999998
 74
0
 49
0.0
 74
0
 49
-3.1749999999999998
 74
0
 49
0.0
 74
0
 49
-3.1749999999999998
 74
0
  0
LTYPE
  5
3F
100
AcDbSymbolTableRecord
100
AcDbLinetypeTableRecord
  2
DASHED
 70
0
  3
Dashed __ __ __ __ __ __ __ __ __ __ __ __ __ _
 72
65
 73
2
 40
19.0500000000000007
 49
12.6999999999999993
 74
0
 49
-6.3499999999999996
 74
0
  0
LTYPE
  5
40
100
AcDbSymbolTableRecord
100
AcDbLinetypeTableRecord
  2
DOTX2
 70
0
  3
Dot (2x) .  .  .  .  .  .  .  .  .  .  .  .  .
 72
65
 73
2
 40
12.6999999999999993
 49
0.0
 74
0
 49
-12.6999999999999993
 74
0
  0
LTYPE
  5
41
100
AcDbSymbolTableRecord
100
AcDbLinetypeTableRecord
  2
DASHEDX2
 70
0
  3
Dashed (2x) ____  ____  ____  ____  ____  ___
 72
65
 73
2
 40
38.1000000000000014
 49
25.3999999999999986
 74
0
 49
-12.6999999999999993
 74
0
  0
LTYPE
  5
42
100
AcDbSymbolTableRecord
100
AcDbLinetypeTableRecord
  2
DOT
 70
0
  3
Dot . . . . . . . . . . . . . . . . . . . . . .
 72
65
 73
2
 40
6.3499999999999996
 49
0.0
 74
0
 49
-6.3499999999999996
 74
0
  0
ENDTAB
  0
TABLE
  2
LAYER
  5
2
100
AcDbSymbolTable
 70
2
  0
LAYER
  5
10
100
AcDbSymbolTableRecord
100
AcDbLayerTableRecord
  2
0
 70
0
 62
7
420
0
  6
CONTINUOUS
370
25
390
F
  0
LAYER
  5
43
100
AcDbSymbolTableRecord
100
AcDbLayerTableRecord
  2
blind sockets
 70
0
 62
1
420
16711680
  6
CONTINUOUS
370
25
390
F
  0
ENDTAB
  0
TABLE
  2
STYLE
  5
3
100
AcDbSymbolTable
 70
0
  0
ENDTAB
  0
TABLE
  2
VIEW
  5
6
100
AcDbSymbolTable
 70
0
  0
ENDTAB
  0
TABLE
  2
UCS
  5
7
100
AcDbSymbolTable
 70
0
  0
ENDTAB
  0
TABLE
  2
APPID
  5
9
100
AcDbSymbolTable
 70
1
  0
APPID
  5
44
100
AcDbSymbolTableRecord
100
AcDbRegAppTableRecord
  2
QCAD
 70
0
  0
ENDTAB
  0
TABLE
  2
DIMSTYLE
  5
A
100
AcDbSymbolTable
 70
1
100
AcDbDimStyleTable
 71
0
  0
DIMSTYLE
105
27
100
AcDbSymbolTableRecord
100
AcDbDimStyleTableRecord
  2
Standard
 41
2.5
 42
0.625
 43
3.75
 44
1.25
 70
0
 73
0
 74
0
 77
1
 78
8
140
2.5
141
2.5
143
0.03937007874016
147
0.625
171
3
172
1
271
2
272
2
274
3
278
44
283
0
284
8
340
11
  0
ENDTAB
  0
TABLE
  2
BLOCK_RECORD
  5
1
100
AcDbSymbolTable
 70
1
  0
BLOCK_RECORD
  5
1F
100
AcDbSymbolTableRecord
100
AcDbBlockTableRecord
  2
*Model_Space
340
22
  0
BLOCK_RECORD
  5
1B
100
AcDbSymbolTableRecord
100
AcDbBlockTableRecord
  2
*Paper_Space
340
1E
  0
BLOCK_RECORD
  5
23
100
AcDbSymbolTableRecord
100
AcDbBlockTableRecord
  2
*Paper_Space0
340
26
  0
BLOCK_RECORD
  5
45
100
AcDbSymbolTableRecord
100
AcDbBlockTableRecord
  2
*Model_Space
340
0
  0
BLOCK_RECORD
  5
46
100
AcDbSymbolTableRecord
100
AcDbBlockTableRecord
  2
*Paper_Space
340
0
  0
BLOCK_RECORD
  5
47
100
AcDbSymbolTableRecord
100
AcDbBlockTableRecord
  2
*Paper_Space0
340
0
  0
BLOCK_RECORD
  5
48
100
AcDbSymbolTableRecord
100
AcDbBlockTableRecord
  2
*Model_Space1
340
0
  0
ENDTAB
  0
ENDSEC
  0
SECTION
  2
BLOCKS
  0
BLOCK
  5
20
100
AcDbEntity
  8
0
100
AcDbBlockBegin
  2
*Model_Space
 70
0
 10
0.0
 20
0.0
 30
0.0
  3
*Model_Space
  1

  0
BLOCK
  5
1C
100
AcDbEntity
 67
1
  8
0
100
AcDbBlockBegin
  2
*Paper_Space
 70
0
 10
0.0
 20
0.0
 30
0.0
  3
*Paper_Space
  1

  0
ENDBLK
  5
1D
100
AcDbEntity
 67
1
  8
0
100
AcDbBlockEnd
  0
BLOCK
  5
24
100
AcDbEntity
  8
0
100
AcDbBlockBegin
  2
*Paper_Space0
 70
0
 10
0.0
 20
0.0
 30
0.0
  3
*Paper_Space0
  1

  0
ENDBLK
  5
25
100
AcDbEntity
  8
0
100
AcDbBlockEnd
  0
BLOCK
  5
49
100
AcDbEntity
  8
0
100
AcDbBlockBegin
  2
*Model_Space1
 70
0
 10
0.0
 20
0.0
 30
0.0
  3
*Model_Space1
  1

  0
ENDBLK
  5
4A
100
AcDbEntity
  8
0
100
AcDbBlockEnd
  0
ENDSEC
  0
SECTION
  2
ENTITIES
  0
CIRCLE
  5
4B
100
AcDbEntity
100
AcDbCircle
  8
blind sockets
 62
256
370
-1
  6
BYLAYER
 10
315.0
 20
20.0
 30
0.0
 40
8.9000000000000004
  0
CIRCLE
  5
4C
100
AcDbEntity
100
AcDbCircle
  8
blind sockets
 62
256
370
-1
  6
BYLAYER
 10
19.9999999999998863
 20
86.0
 30
0.0
 40
8.9000000000000004
  0
CIRCLE
  5
4D
100
AcDbEntity
100
AcDbCircle
  8
0
 62
256
370
-1
  6
BYLAYER
 10
19.9999999999998863
 20
566.0
 30
0.0
 40
9.0
  0
ARC
  5
4E
100
AcDbEntity
  8
0
 62
256
370
-1
  6
BYLAYER
100
AcDbCircle
 10
19.9999999999998863
 20
86.0
 30
0.0
 40
20.0
100
AcDbArc
 50
180.0
 51
0.0
  0
CIRCLE
  5
4F
100
AcDbEntity
100
AcDbCircle
  8
0
 62
256
370
-1
  6
BYLAYER
 10
19.9999999999998863
 20
326.0
 30
0.0
 40
9.0999999999999996
  0
ARC
  5
50
100
AcDbEntity
  8
0
 62
256
370
-1
  6
BYLAYER
100
AcDbCircle
 10
320.0
 20
20.0
 30
0.0
 40
20.0
100
AcDbArc
 50
270.0
 51
0.0
  0
LINE
  5
51
100
AcDbEntity
100
AcDbLine
  8
0
 62
256
370
-1
  6
BYLAYER
 10
88.3918661967301205
 20
0.0
 30
0.0
 11
320.0
 21
0.0
 31
0.0
  0
LINE
  5
52
100
AcDbEntity
100
AcDbLine
  8
0
 62
256
370
-1
  6
BYLAYER
 10
60.0
 20
40.0
 30
0.0
 11
60.0
 21
50.0
 31
0.0
  0
LINE
  5
53
100
AcDbEntity
100
AcDbLine
  8
0
 62
256
370
-1
  6
BYLAYER
 10
90.0
 20
40.0
 30
0.0
 11
90.0
 21
50.0
 31
0.0
  0
LINE
  5
54
100
AcDbEntity
100
AcDbLine
  8
0
 62
256
370
-1
  6
BYLAYER
 10
120.0
 20
40.0
 30
0.0
 11
120.0
 21
50.0
 31
0.0
  0
LINE
  5
55
100
AcDbEntity
100
AcDbLine
  8
0
 62
256
370
-1
  6
BYLAYER
 10
150.0
 20
40.0
 30
0.0
 11
150.0
 21
50.0
 31
0.0
  0
LINE
  5
56
100
AcDbEntity
100
AcDbLine
  8
0
 62
256
370
-1
  6
BYLAYER
 10
180.0
 20
40.0
 30
0.0
 11
180.0
 21
50.0
 31
0.0
  0
LINE
  5
57
100
AcDbEntity
100
AcDbLine
  8
0
 62
256
370
-1
  6
BYLAYER
 10
210.0
 20
40.0
 30
0.0
 11
210.0
 21
50.0
 31
0.0
  0
LINE
  5
58
100
AcDbEntity
100
AcDbLine
  8
0
 62
256
370
-1
  6
BYLAYER
 10
240.0
 20
40.0
 30
0.0
 11
240.0
 21
50.0
 31
0.0
  0
LINE
  5
59
100
AcDbEntity
100
AcDbLine
  8
0
 62
256
370
-1
  6
BYLAYER
 10
270.0
 20
40.0
 30
0.0
 11
270.0
 21
50.0
 31
0.0
  0
LINE
  5
5A
100
AcDbEntity
100
AcDbLine
  8
0
 62
256
370
-1
  6
BYLAYER
 10
300.0
 20
40.0
 30
0.0
 11
300.0
 21
50.0
 31
0.0
  0
LINE
  5
5B
100
AcDbEntity
100
AcDbLine
  8
0
 62
256
370
-1
  6
BYLAYER
 10
330.0
 20
40.0
 30
0.0
 11
330.0
 21
50.0
 31
0.0
  0
LINE
  5
5C
100
AcDbEntity
100
AcDbLine
  8
0
 62
256
370
-1
  6
BYLAYER
 10
50.0
 20
40.0
 30
0.0
 11
50.0
 21
20.0
 31
0.0
  0
LINE
  5
5D
100
AcDbEntity
100
AcDbLine
  8
0
 62
256
370
-1
  6
BYLAYER
 10
90.0
 20
50.0
 30
0.0
 11
60.0
 21
50.0
 31
0.0
  0
LINE
  5
5E
100
AcDbEntity
100
AcDbLine
  8
0
 62
256
370
-1
  6
BYLAYER
 10
150.0
 20
50.0
 30
0.0
 11
120.0
 21
50.0
 31
0.0
  0
LINE
  5
5F
100
AcDbEntity
100
AcDbLine
  8
0
 62
256
370
-1
  6
BYLAYER
 10
210.0
 20
50.0
 30
0.0
 11
180.0
 21
50.0
 31
0.0
  0
LINE
  5
60
100
AcDbEntity
100
AcDbLine
  8
0
 62
256
370
-1
  6
BYLAYER
 10
270.0
 20
50.0
 30
0.0
 11
240.0
 21
50.0
 31
0.0
  0
LINE
  5
61
100
AcDbEntity
100
AcDbLine
  8
0
 62
256
370
-1
  6
BYLAYER
 10
330.0
 20
50.0
 30
0.0
 11
300.0
 21
50.0
 31
0.0
  0
LINE
  5
62
100
AcDbEntity
100
AcDbLine
  8
0
 62
256
370
-1
  6
BYLAYER
 10
340.0
 20
20.0
 30
0.0
 11
340.0
 21
40.0
 31
0.0
  0
LINE
  5
63
100
AcDbEntity
100
AcDbLine
  8
blind sockets
 62
256
370
-1
  6
BYLAYER
 10
267.5242775322446391
 20
90.620419201937608
 30
0.0
 11
290.1242775322446619
 21
90.620419201937608
 31
0.0
  0
LINE
  5
64
100
AcDbEntity
100
AcDbLine
  8
blind sockets
 62
256
370
-1
  6
BYLAYER
 10
290.1242775322446619
 20
360.8204192019376251
 30
0.0
 11
267.5242775322446391
 21
360.8204192019376251
 31
0.0
  0
LINE
  5
65
100
AcDbEntity
100
AcDbLine
  8
blind sockets
 62
256
370
-1
  6
BYLAYER
 10
267.5242775322446391
 20
120.8204192019376109
 30
0.0
 11
290.1242775322446619
 21
120.8204192019376109
 31
0.0
  0
LINE
  5
66
100
AcDbEntity
100
AcDbLine
  8
blind sockets
 62
256
370
-1
  6
BYLAYER
 10
267.5242775322446391
 20
150.620419201937608
 30
0.0
 11
290.1242775322446619
 21
150.620419201937608
 31
0.0
  0
LINE
  5
67
100
AcDbEntity
100
AcDbLine
  8
blind sockets
 62
256
370
-1
  6
BYLAYER
 10
290.1242775322446619
 20
180.8204192019376251
 30
0.0
 11
267.5242775322446391
 21
180.8204192019376251
 31
0.0
  0
LINE
  5
68
100
AcDbEntity
100
AcDbLine
  8
blind sockets
 62
256
370
-1
  6
BYLAYER
 10
267.5242775322446391
 20
210.620419201937608
 30
0.0
 11
290.1242775322446619
 21
210.620419201937608
 31
0.0
  0
LINE
  5
69
100
AcDbEntity
100
AcDbLine
  8
blind sockets
 62
256
370
-1
  6
BYLAYER
 10
290.1242775322446619
 20
240.8204192019375967
 30
0.0
 11
267.5242775322446391
 21
240.8204192019375967
 31
0.0
  0
LINE
  5
6A
100
AcDbEntity
100
AcDbLine
  8
blind sockets
 62
256
370
-1
  6
BYLAYER
 10
267.5242775322446391
 20
270.6204192019375796
 30
0.0
 11
290.1242775322446619
 21
270.6204192019375796
 31
0.0
  0
LINE
  5
6B
100
AcDbEntity
100
AcDbLine
  8
blind sockets
 62
256
370
-1
  6
BYLAYER
 10
290.1242775322446619
 20
300.8204192019376251
 30
0.0
 11
267.5242775322446391
 21
300.8204192019376251
 31
0.0
  0
ARC
  5
6C
100
AcDbEntity
  8
blind sockets
 62
256
370
-1
  6
BYLAYER
100
AcDbCircle
 10
267.5242775322446391
 20
357.8204192019376251
 30
0.0
 40
3.0
100
AcDbArc
 50
90.0
 51
270.0
  0
ARC
  5
6D
100
AcDbEntity
  8
blind sockets
 62
256
370
-1
  6
BYLAYER
100
AcDbCircle
 10
290.1242775322446619
 20
357.8204192019376251
 30
0.0
 40
3.0
100
AcDbArc
 50
270.0000000000001137
 51
90.0
  0
ARC
  5
6E
100
AcDbEntity
  8
blind sockets
 62
256
370
-1
  6
BYLAYER
100
AcDbCircle
 10
267.5242775322446391
 20
297.8204192019376251
 30
0.0
 40
3.0
100
AcDbArc
 50
90.0
 51
270.0
  0
ARC
  5
6F
100
AcDbEntity
  8
blind sockets
 62
256
370
-1
  6
BYLAYER
100
AcDbCircle
 10
290.1242775322446619
 20
297.8204192019375682
 30
0.0
 40
3.0
100
AcDbArc
 50
270.0
 51
90.0
  0
ARC
  5
70
100
AcDbEntity
  8
blind sockets
 62
256
370
-1
  6
BYLAYER
100
AcDbCircle
 10
267.5242775322446391
 20
237.8204192019375967
 30
0.0
 40
3.0
100
AcDbArc
 50
90.0
 51
270.0
  0
ARC
  5
71
100
AcDbEntity
  8
blind sockets
 62
256
370
-1
  6
BYLAYER
100
AcDbCircle
 10
290.1242775322446619
 20
237.8204192019375967
 30
0.0
 40
3.0
100
AcDbArc
 50
270.0
 51
90.0
  0
ARC
  5
72
100
AcDbEntity
  8
blind sockets
 62
256
370
-1
  6
BYLAYER
100
AcDbCircle
 10
267.5242775322446391
 20
177.8204192019376251
 30
0.0
 40
3.0
100
AcDbArc
 50
90.0
 51
270.0
  0
ARC
  5
73
100
AcDbEntity
  8
blind sockets
 62
256
370
-1
  6
BYLAYER
100
AcDbCircle
 10
290.1242775322446619
 20
177.8204192019376251
 30
0.0
 40
3.0
100
AcDbArc
 50
269.9999999999998295
 51
90.0000000000001563
  0
ARC
  5
74
100
AcDbEntity
  8
blind sockets
 62
256
370
-1
  6
BYLAYER
100
AcDbCircle
 10
267.5242775322446391
 20
117.8204192019376109
 30
0.0
 40
3.0
100
AcDbArc
 50
90.0
 51
270.0
  0
ARC
  5
75
100
AcDbEntity
  8
blind sockets
 62
256
370
-1
  6
BYLAYER
100
AcDbCircle
 10
290.1242775322446619
 20
117.8204192019376109
 30
0.0
 40
3.0
100
AcDbArc
 50
269.9999999999998295
 51
90.0000000000001563
  0
ARC
  5
76
100
AcDbEntity
  8
blind sockets
 62
256
370
-1
  6
BYLAYER
100
AcDbCircle
 10
267.5242775322446391
 20
93.620419201937608
 30
0.0
 40
3.0
100
AcDbArc
 50
90.0
 51
270.0
  0
ARC
  5
77
100
AcDbEntity
  8
blind sockets
 62
256
370
-1
  6
BYLAYER
100
AcDbCircle
 10
290.1242775322446619
 20
93.620419201937608
 30
0.0
 40
3.0
100
AcDbArc
 50
270.0
 51
90.0
  0
LINE
  5
78
100
AcDbEntity
100
AcDbLine
  8
blind sockets
 62
256
370
-1
  6
BYLAYER
 10
267.5242775322446391
 20
114.8204192019376109
 30
0.0
 11
267.5242775322446391
 21
96.6204192019375938
 31
0.0
  0
LINE
  5
79
100
AcDbEntity
100
AcDbLine
  8
blind sockets
 62
256
370
-1
  6
BYLAYER
 10
290.1242775322446619
 20
96.620419201937608
 30
0.0
 11
290.1242775322446619
 21
114.8204192019375824
 31
0.0
  0
ARC
  5
7A
100
AcDbEntity
  8
blind sockets
 62
256
370
-1
  6
BYLAYER
100
AcDbCircle
 10
267.5242775322446391
 20
153.620419201937608
 30
0.0
 40
3.0
100
AcDbArc
 50
90.0
 51
270.0
  0
ARC
  5
7B
100
AcDbEntity
  8
blind sockets
 62
256
370
-1
  6
BYLAYER
100
AcDbCircle
 10
290.1242775322446619
 20
153.620419201937608
 30
0.0
 40
3.0
100
AcDbArc
 50
270.0
 51
90.0
  0
LINE
  5
7C
100
AcDbEntity
100
AcDbLine
  8
blind sockets
 62
256
370
-1
  6
BYLAYER
 10
290.1242775322446619
 20
156.620419201937608
 30
0.0
 11
290.1242775322446619
 21
174.8204192019375967
 31
0.0
  0
LINE
  5
7D
100
AcDbEntity
100
AcDbLine
  8
blind sockets
 62
256
370
-1
  6
BYLAYER
 10
267.5242775322446391
 20
174.8204192019376251
 30
0.0
 11
267.5242775322446391
 21
156.6204192019375796
 31
0.0
  0
ARC
  5
7E
100
AcDbEntity
  8
blind sockets
 62
256
370
-1
  6
BYLAYER
100
AcDbCircle
 10
267.5242775322446391
 20
213.6204192019376364
 30
0.0
 40
3.0
100
AcDbArc
 50
90.0
 51
270.0
  0
ARC
  5
7F
100
AcDbEntity
  8
blind sockets
 62
256
370
-1
  6
BYLAYER
100
AcDbCircle
 10
290.1242775322446619
 20
213.6204192019376364
 30
0.0
 40
3.0
100
AcDbArc
 50
270.0
 51
90.0
  0
LINE
  5
80
100
AcDbEntity
100
AcDbLine
  8
blind sockets
 62
256
370
-1
  6
BYLAYER
 10
290.1242775322446619
 20
216.6204192019376364
 30
0.0
 11
290.1242775322446619
 21
234.8204192019375682
 31
0.0
  0
LINE
  5
81
100
AcDbEntity
100
AcDbLine
  8
blind sockets
 62
256
370
-1
  6
BYLAYER
 10
267.5242775322446391
 20
234.8204192019375967
 30
0.0
 11
267.5242775322446391
 21
216.620419201937608
 31
0.0
  0
ARC
  5
82
100
AcDbEntity
  8
blind sockets
 62
256
370
-1
  6
BYLAYER
100
AcDbCircle
 10
267.5242775322446391
 20
273.6204192019375796
 30
0.0
 40
3.0
100
AcDbArc
 50
90.0
 51
270.0
  0
LINE
  5
83
100
AcDbEntity
100
AcDbLine
  8
blind sockets
 62
256
370
-1
  6
BYLAYER
 10
267.5242775322446391
 20
294.8204192019376251
 30
0.0
 11
267.5242775322446391
 21
276.6204192019375796
 31
0.0
  0
ARC
  5
84
100
AcDbEntity
  8
blind sockets
 62
256
370
-1
  6
BYLAYER
100
AcDbCircle
 10
290.1242775322446619
 20
273.6204192019375796
 30
0.0
 40
3.0
100
AcDbArc
 50
270.0
 51
90.0
  0
LINE
  5
85
100
AcDbEntity
100
AcDbLine
  8
blind sockets
 62
256
370
-1
  6
BYLAYER
 10
290.1242775322446619
 20
276.6204192019375796
 30
0.0
 11
290.1242775322446619
 21
294.8204192019376251
 31
0.0
  0
ARC
  5
86
100
AcDbEntity
  8
blind sockets
 62
256
370
-1
  6
BYLAYER
100
AcDbCircle
 10
267.5242775322446391
 20
333.6204192019375796
 30
0.0
 40
3.0
100
AcDbArc
 50
90.0
 51
270.0
  0
LINE
  5
87
100
AcDbEntity
100
AcDbLine
  8
blind sockets
 62
256
370
-1
  6
BYLAYER
 10
267.5242775322446391
 20
354.8204192019376251
 30
0.0
 11
267.5242775322446391
 21
336.6204192019375796
 31
0.0
  0
LINE
  5
88
100
AcDbEntity
100
AcDbLine
  8
blind sockets
 62
256
370
-1
  6
BYLAYER
 10
290.1242775322446619
 20
336.6204192019375796
 30
0.0
 11
290.1242775322446619
 21
354.8204192019376251
 31
0.0
  0
LINE
  5
89
100
AcDbEntity
100
AcDbLine
  8
blind sockets
 62
256
370
-1
  6
BYLAYER
 10
591.9242775322447869
 20
120.8204192019376109
 30
0.0
 11
569.3242775322446505
 21
120.8204192019376109
 31
0.0
  0
LINE
  5
8A
100
AcDbEntity
100
AcDbLine
  8
blind sockets
 62
256
370
-1
  6
BYLAYER
 10
591.9242775322447869
 20
150.620419201937608
 30
0.0
 11
569.3242775322446505
 21
150.620419201937608
 31
0.0
  0
LINE
  5
8B
100
AcDbEntity
100
AcDbLine
  8
blind sockets
 62
256
370
-1
  6
BYLAYER
 10
591.9242775322447869
 20
180.8204192019376251
 30
0.0
 11
569.3242775322446505
 21
180.8204192019376251
 31
0.0
  0
LINE
  5
8C
100
AcDbEntity
100
AcDbLine
  8
blind sockets
 62
256
370
-1
  6
BYLAYER
 10
591.9242775322447869
 20
210.620419201937608
 30
0.0
 11
569.3242775322446505
 21
210.620419201937608
 31
0.0
  0
LINE
  5
8D
100
AcDbEntity
100
AcDbLine
  8
blind sockets
 62
256
370
-1
  6
BYLAYER
 10
591.9242775322447869
 20
240.8204192019375967
 30
0.0
 11
569.3242775322446505
 21
240.8204192019375967
 31
0.0
  0
LINE
  5
8E
100
AcDbEntity
100
AcDbLine
  8
blind sockets
 62
256
370
-1
  6
BYLAYER
 10
591.9242775322447869
 20
270.6204192019375796
 30
0.0
 11
569.3242775322446505
 21
270.6204192019375796
 31
0.0
  0
LINE
  5
8F
100
AcDbEntity
100
AcDbLine
  8
blind sockets
 62
256
370
-1
  6
BYLAYER
 10
591.9242775322447869
 20
300.8204192019376251
 30
0.0
 11
569.3242775322446505
 21
300.8204192019376251
 31
0.0
  0
ARC
  5
90
100
AcDbEntity
  8
blind sockets
 62
256
370
-1
  6
BYLAYER
100
AcDbCircle
 10
569.3242775322446505
 20
357.8204192019376251
 30
0.0
 40
3.0
100
AcDbArc
 50
90.0
 51
270.0
  0
LINE
  5
91
100
AcDbEntity
100
AcDbLine
  8
blind sockets
 62
256
370
-1
  6
BYLAYER
 10
591.9242775322447869
 20
330.6204192019375796
 30
0.0
 11
569.3242775322446505
 21
330.6204192019375796
 31
0.0
  0
ARC
  5
92
100
AcDbEntity
  8
blind sockets
 62
256
370
-1
  6
BYLAYER
100
AcDbCircle
 10
591.9242775322447869
 20
357.8204192019376251
 30
0.0
 40
3.0
100
AcDbArc
 50
270.0000000000001137
 51
90.0
  0
ARC
  5
93
100
AcDbEntity
  8
blind sockets
 62
256
370
-1
  6
BYLAYER
100
AcDbCircle
 10
569.3242775322446505
 20
297.8204192019376251
 30
0.0
 40
3.0
100
AcDbArc
 50
90.0
 51
270.0
  0
ARC
  5
94
100
AcDbEntity
  8
blind sockets
 62
256
370
-1
  6
BYLAYER
100
AcDbCircle
 10
591.9242775322447869
 20
297.8204192019375682
 30
0.0
 40
3.0
100
AcDbArc
 50
270.0
 51
90.0
  0
ARC
  5
95
100
AcDbEntity
  8
blind sockets
 62
256
370
-1
  6
BYLAYER
100
AcDbCircle
 10
569.3242775322446505
 20
237.8204192019375967
 30
0.0
 40
3.0
100
AcDbArc
 50
90.0
 51
270.0
  0
ARC
  5
96
100
AcDbEntity
  8
blind sockets
 62
256
370
-1
  6
BYLAYER
100
AcDbCircle
 10
591.9242775322447869
 20
237.8204192019375967
 30
0.0
 40
3.0
100
AcDbArc
 50
270.0
 51
90.0
  0
ARC
  5
97
100
AcDbEntity
  8
blind sockets
 62
256
370
-1
  6
BYLAYER
100
AcDbCircle
 10
569.3242775322446505
 20
177.8204192019376251
 30
0.0
 40
3.0
100
AcDbArc
 50
90.0
 51
270.0
  0
ARC
  5
98
100
AcDbEntity
  8
blind sockets
 62
256
370
-1
  6
BYLAYER
100
AcDbCircle
 10
591.9242775322447869
 20
177.8204192019376251
 30
0.0
 40
3.0
100
AcDbArc
 50
269.9999999999998295
 51
90.0000000000001563
  0
ARC
  5
99
100
AcDbEntity
  8
blind sockets
 62
256
370
-1
  6
BYLAYER
100
AcDbCircle
 10
569.3242775322446505
 20
117.8204192019376109
 30
0.0
 40
3.0
100
AcDbArc
 50
90.0
 51
270.0
  0
ARC
  5
9A
100
AcDbEntity
  8
blind sockets
 62
256
370
-1
  6
BYLAYER
100
AcDbCircle
 10
591.9242775322447869
 20
117.8204192019376109
 30
0.0
 40
3.0
100
AcDbArc
 50
269.9999999999998295
 51
90.0000000000001563
  0
ARC
  5
9B
100
AcDbEntity
  8
blind sockets
 62
256
370
-1
  6
BYLAYER
100
AcDbCircle
 10
569.3242775322446505
 20
93.620419201937608
 30
0.0
 40
3.0
100
AcDbArc
 50
90.0
 51
270.0
  0
ARC
  5
9C
100
AcDbEntity
  8
blind sockets
 62
256
370
-1
  6
BYLAYER
100
AcDbCircle
 10
591.9242775322447869
 20
93.620419201937608
 30
0.0
 40
3.0
100
AcDbArc
 50
270.0
 51
90.0
  0
LINE
  5
9D
100
AcDbEntity
100
AcDbLine
  8
blind sockets
 62
256
370
-1
  6
BYLAYER
 10
569.3242775322446505
 20
114.8204192019376109
 30
0.0
 11
569.3242775322446505
 21
96.620419201937608
 31
0.0
  0
LINE
  5
9E
100
AcDbEntity
100
AcDbLine
  8
blind sockets
 62
256
370
-1
  6
BYLAYER
 10
591.9242775322447869
 20
96.620419201937608
 30
0.0
 11
591.9242775322447869
 21
114.8204192019375824
 31
0.0
  0
ARC
  5
9F
100
AcDbEntity
  8
blind sockets
 62
256
370
-1
  6
BYLAYER
100
AcDbCircle
 10
569.3242775322446505
 20
153.620419201937608
 30
0.0
 40
3.0
100
AcDbArc
 50
90.0
 51
270.0
  0
ARC
  5
A0
100
AcDbEntity
  8
blind sockets
 62
256
370
-1
  6
BYLAYER
100
AcDbCircle
 10
591.9242775322447869
 20
153.620419201937608
 30
0.0
 40
3.0
100
AcDbArc
 50
270.0
 51
90.0
  0
LINE
  5
A1
100
AcDbEntity
100
AcDbLine
  8
blind sockets
 62
256
370
-1
  6
BYLAYER
 10
591.9242775322447869
 20
156.620419201937608
 30
0.0
 11
591.9242775322447869
 21
174.8204192019375967
 31
0.0
  0
LINE
  5
A2
100
AcDbEntity
100
AcDbLine
  8
blind sockets
 62
256
370
-1
  6
BYLAYER
 10
569.3242775322446505
 20
174.8204192019376251
 30
0.0
 11
569.3242775322446505
 21
156.6204192019375796
 31
0.0
  0
ARC
  5
A3
100
AcDbEntity
  8
blind sockets
 62
256
370
-1
  6
BYLAYER
100
AcDbCircle
 10
569.3242775322446505
 20
213.6204192019376364
 30
0.0
 40
3.0
100
AcDbArc
 50
90.0
 51
270.0
  0
ARC
  5
A4
100
AcDbEntity
  8
blind sockets
 62
256
370
-1
  6
BYLAYER
100
AcDbCircle
 10
591.9242775322447869
 20
213.6204192019376364
 30
0.0
 40
3.0
100
AcDbArc
 50
270.0
 51
90.0
  0
LINE
  5
A5
100
AcDbEntity
100
AcDbLine
  8
blind sockets
 62
256
370
-1
  6
BYLAYER
 10
591.9242775322447869
 20
216.6204192019376364
 30
0.0
 11
591.9242775322447869
 21
234.8204192019375682
 31
0.0
  0
LINE
  5
A6
100
AcDbEntity
100
AcDbLine
  8
blind sockets
 62
256
370
-1
  6
BYLAYER
 10
569.3242775322446505
 20
234.8204192019375967
 30
0.0
 11
569.3242775322446505
 21
216.620419201937608
 31
0.0
  0
ARC
  5
A7
100
AcDbEntity
  8
blind sockets
 62
256
370
-1
  6
BYLAYER
100
AcDbCircle
 10
569.3242775322446505
 20
273.6204192019375796
 30
0.0
 40
3.0
100
AcDbArc
 50
90.0
 51
270.0
  0
LINE
  5
A8
100
AcDbEntity
100
AcDbLine
  8
blind sockets
 62
256
370
-1
  6
BYLAYER
 10
569.3242775322446505
 20
294.8204192019376251
 30
0.0
 11
569.3242775322446505
 21
276.6204192019375796
 31
0.0
  0
ARC
  5
A9
100
AcDbEntity
  8
blind sockets
 62
256
370
-1
  6
BYLAYER
100
AcDbCircle
 10
591.9242775322447869
 20
273.6204192019375796
 30
0.0
 40
3.0
100
AcDbArc
 50
270.0
 51
90.0
  0
LINE
  5
AA
100
AcDbEntity
100
AcDbLine
  8
blind sockets
 62
256
370
-1
  6
BYLAYER
 10
591.9242775322447869
 20
276.6204192019375796
 30
0.0
 11
591.9242775322447869
 21
294.8204192019376251
 31
0.0
  0
ARC
  5
AB
100
AcDbEntity
  8
blind sockets
 62
256
370
-1
  6
BYLAYER
100
AcDbCircle
 10
569.3242775322446505
 20
333.6204192019375796
 30
0.0
 40
3.0
100
AcDbArc
 50
90.0
 51
270.0
  0
LINE
  5
AC
100
AcDbEntity
100
AcDbLine
  8
blind sockets
 62
256
370
-1
  6
BYLAYER
 10
569.3242775322446505
 20
354.8204192019376251
 30
0.0
 11
569.3242775322446505
 21
336.6204192019375796
 31
0.0
  0
LINE
  5
AD
100
AcDbEntity
100
AcDbLine
  8
blind sockets
 62
256
370
-1
  6
BYLAYER
 10
569.3242775322446505
 20
90.620419201937608
 30
0.0
 11
591.9242775322447869
 21
90.620419201937608
 31
0.0
  0
ARC
  5
AE
100
AcDbEntity
  8
blind sockets
 62
256
370
-1
  6
BYLAYER
100
AcDbCircle
 10
591.9242775322447869
 20
333.6204192019375796
 30
0.0
 40
3.0
100
AcDbArc
 50
270.0
 51
90.0
  0
LINE
  5
AF
100
AcDbEntity
100
AcDbLine
  8
blind sockets
 62
256
370
-1
  6
BYLAYER
 10
591.9242775322447869
 20
336.6204192019375796
 30
0.0
 11
591.9242775322447869
 21
354.8204192019376251
 31
0.0
  0
LINE
  5
B0
100
AcDbEntity
100
AcDbLine
  8
blind sockets
 62
256
370
-1
  6
BYLAYER
 10
591.9242775322447869
 20
360.8204192019376251
 30
0.0
 11
569.3242775322446505
 21
360.8204192019376251
 31
0.0
  0
LINE
  5
B1
100
AcDbEntity
100
AcDbLine
  8
0
 62
256
370
-1
  6
BYLAYER
 10
264.7242775322446846
 20
80.7204192019376023
 30
0.0
 11
594.7242775322447415
 21
80.7204192019376023
 31
0.0
  0
ARC
  5
B2
100
AcDbEntity
  8
0
 62
256
370
-1
  6
BYLAYER
100
AcDbCircle
 10
594.7242775322447415
 20
100.7204192019376023
 30
0.0
 40
20.0
100
AcDbArc
 50
270.0
 51
0.0
  0
ARC
  5
B3
100
AcDbEntity
  8
0
 62
256
370
-1
  6
BYLAYER
100
AcDbCircle
 10
264.7242775322446846
 20
100.7204192019376023
 30
0.0
 40
20.0
100
AcDbArc
 50
180.0
 51
270.0
  0
ARC
  5
B4
100
AcDbEntity
  8
0
 62
256
370
-1
  6
BYLAYER
100
AcDbCircle
 10
264.7242775322446846
 20
350.7204192019376023
 30
0.0
 40
20.0
100
AcDbArc
 50
90.0
 51
180.0
  0
LINE
  5
B5
100
AcDbEntity
100
AcDbLine
  8
0
 62
256
370
-1
  6
BYLAYER
 10
244.7242775322446846
 20
350.7204192019376023
 30
0.0
 11
244.7242775322446846
 21
100.7204192019376023
 31
0.0
  0
LINE
  5
B6
100
AcDbEntity
100
AcDbLine
  8
0
 62
256
370
-1
  6
BYLAYER
 10
594.7242775322447415
 20
370.7204192019376023
 30
0.0
 11
264.7242775322446846
 21
370.7204192019376023
 31
0.0
  0
LINE
  5
B7
100
AcDbEntity
100
AcDbLine
  8
0
 62
256
370
-1
  6
BYLAYER
 10
614.7242775322447415
 20
100.7204192019376023
 30
0.0
 11
614.7242775322447415
 21
350.7204192019376023
 31
0.0
  0
ARC
  5
B8
100
AcDbEntity
  8
0
 62
256
370
-1
  6
BYLAYER
100
AcDbCircle
 10
594.7242775322447415
 20
350.7204192019376023
 30
0.0
 40
20.0
100
AcDbArc
 50
0.0
 51
90.0
  0
ARC
  5
B9
100
AcDbEntity
  8
0
 62
256
370
-1
  6
BYLAYER
100
AcDbCircle
 10
19.9999999999998863
 20
566.0
 30
0.0
 40
20.0
100
AcDbArc
 50
0.0
 51
180.0
  0
LINE
  5
BA
100
AcDbEntity
100
AcDbLine
  8
0
 62
256
370
-1
  6
BYLAYER
 10
0.0000000000001137
 20
566.0
 30
0.0
 11
0.0
 21
86.0
 31
0.0
  0
LINE
  5
BB
100
AcDbEntity
100
AcDbLine
  8
0
 62
256
370
-1
  6
BYLAYER
 10
39.9999999999996589
 20
86.0
 30
0.0
 11
39.9999999999997726
 21
566.0
 31
0.0
  0
ARC
  5
BC
100
AcDbEntity
  8
0
 62
256
370
-1
  6
BYLAYER
100
AcDbCircle
 10
315.0
 20
20.0
 30
0.0
 40
231.0
100
AcDbArc
 50
180.0
 51
184.9668921777428352
  0
ARC
  5
BD
100
AcDbEntity
  8
0
 62
256
370
-1
  6
BYLAYER
100
AcDbCircle
 10
315.0
 20
20.0
 30
0.0
 40
249.0
100
AcDbArc
 50
180.0
 51
184.5469428811038313
  0
ARC
  5
BE
100
AcDbEntity
  8
0
 62
256
370
-1
  6
BYLAYER
100
AcDbCircle
 10
75.0
 20
20.0
 30
0.0
 40
9.0
100
AcDbArc
 50
0.0
 51
180.0
  0
LINE
  5
BF
100
AcDbEntity
100
AcDbLine
  8
0
 62
256
370
-1
  6
BYLAYER
 10
84.8674295107273906
 20
0.0
 30
0.0
 11
88.3918661967301205
 21
0.0
 31
0.0
  0
ARC
  5
C0
100
AcDbEntity
  8
0
 62
256
370
-1
  6
BYLAYER
100
AcDbCircle
 10
70.0
 20
20.0
 30
0.0
 40
20.0
100
AcDbArc
 50
180.0
 51
260.7457181042769889
  0
ARC
  5
C1
100
AcDbEntity
  8
0
 62
256
370
-1
  6
BYLAYER
100
AcDbCircle
 10
57.0
 20
40.0
 30
0.0
 40
3.0
100
AcDbArc
 50
180.0
 51
0.0
  0
LINE
  5
C2
100
AcDbEntity
100
AcDbLine
  8
0
 62
256
370
-1
  6
BYLAYER
 10
50.0
 20
40.0
 30
0.0
 11
54.0
 21
40.0
 31
0.0
  0
ARC
  5
C3
100
AcDbEntity
  8
0
 62
256
370
-1
  6
BYLAYER
100
AcDbCircle
 10
93.0
 20
40.0
 30
0.0
 40
3.0
100
AcDbArc
 50
180.0
 51
0.0
  0
ARC
  5
C4
100
AcDbEntity
  8
0
 62
256
370
-1
  6
BYLAYER
100
AcDbCircle
 10
117.0
 20
40.0
 30
0.0
 40
3.0
100
AcDbArc
 50
180.0
 51
0.0
  0
LINE
  5
C5
100
AcDbEntity
100
AcDbLine
  8
0
 62
256
370
-1
  6
BYLAYER
 10
96.0
 20
40.0
 30
0.0
 11
114.0
 21
40.0
 31
0.0
  0
ARC
  5
C6
100
AcDbEntity
  8
0
 62
256
370
-1
  6
BYLAYER
100
AcDbCircle
 10
153.0
 20
40.0
 30
0.0
 40
3.0
100
AcDbArc
 50
180.0
 51
0.0
  0
ARC
  5
C7
100
AcDbEntity
  8
0
 62
256
370
-1
  6
BYLAYER
100
AcDbCircle
 10
177.0
 20
40.0
 30
0.0
 40
3.0
100
AcDbArc
 50
180.0
 51
0.0
  0
LINE
  5
C8
100
AcDbEntity
100
AcDbLine
  8
0
 62
256
370
-1
  6
BYLAYER
 10
156.0
 20
40.0
 30
0.0
 11
174.0
 21
40.0
 31
0.0
  0
ARC
  5
C9
100
AcDbEntity
  8
0
 62
256
370
-1
  6
BYLAYER
100
AcDbCircle
 10
213.0
 20
40.0
 30
0.0
 40
3.0
100
AcDbArc
 50
180.0
 51
0.0
  0
ARC
  5
CA
100
AcDbEntity
  8
0
 62
256
370
-1
  6
BYLAYER
100
AcDbCircle
 10
237.0
 20
40.0
 30
0.0
 40
3.0
100
AcDbArc
 50
180.0
 51
0.0
  0
LINE
  5
CB
100
AcDbEntity
100
AcDbLine
  8
0
 62
256
370
-1
  6
BYLAYER
 10
216.0
 20
40.0
 30
0.0
 11
234.0
 21
40.0
 31
0.0
  0
ARC
  5
CC
100
AcDbEntity
  8
0
 62
256
370
-1
  6
BYLAYER
100
AcDbCircle
 10
273.0
 20
40.0
 30
0.0
 40
3.0
100
AcDbArc
 50
180.0
 51
0.0
  0
ARC
  5
CD
100
AcDbEntity
  8
0
 62
256
370
-1
  6
BYLAYER
100
AcDbCircle
 10
297.0
 20
40.0
 30
0.0
 40
3.0
100
AcDbArc
 50
180.0
 51
0.0
  0
LINE
  5
CE
100
AcDbEntity
100
AcDbLine
  8
0
 62
256
370
-1
  6
BYLAYER
 10
276.0
 20
40.0
 30
0.0
 11
294.0
 21
40.0
 31
0.0
  0
ARC
  5
CF
100
AcDbEntity
  8
0
 62
256
370
-1
  6
BYLAYER
100
AcDbCircle
 10
333.0
 20
40.0
 30
0.0
 40
3.0
100
AcDbArc
 50
180.0
 51
0.0
  0
LINE
  5
D0
100
AcDbEntity
100
AcDbLine
  8
0
 62
256
370
-1
  6
BYLAYER
 10
336.0
 20
40.0
 30
0.0
 11
340.0
 21
40.0
 31
0.0
  0
ARC
  5
D1
100
AcDbEntity
  8
0
 62
256
370
-1
  6
BYLAYER
100
AcDbCircle
 10
651.3918661967300068
 20
40.0000000000000284
 30
0.0
 40
3.0
100
AcDbArc
 50
180.0
 51
0.0
  0
LINE
  5
D2
100
AcDbEntity
100
AcDbLine
  8
0
 62
256
370
-1
  6
BYLAYER
 10
658.3918661967300068
 20
40.0000000000000284
 30
0.0
 11
654.3918661967300068
 21
40.0
 31
0.0
  0
ARC
  5
D3
100
AcDbEntity
  8
0
 62
256
370
-1
  6
BYLAYER
100
AcDbCircle
 10
615.3918661967300068
 20
39.9999999999999787
 30
0.0
 40
3.0
100
AcDbArc
 50
180.0
 51
0.0
  0
ARC
  5
D4
100
AcDbEntity
  8
0
 62
256
370
-1
  6
BYLAYER
100
AcDbCircle
 10
591.3918661967300068
 20
39.9999999999999645
 30
0.0
 40
3.0
100
AcDbArc
 50
180.0
 51
0.0
  0
LINE
  5
D5
100
AcDbEntity
100
AcDbLine
  8
0
 62
256
370
-1
  6
BYLAYER
 10
612.3918661967300068
 20
39.9999999999999858
 30
0.0
 11
594.3918661967300068
 21
40.0000000000000142
 31
0.0
  0
CIRCLE
  5
D6
100
AcDbEntity
100
AcDbCircle
  8
blind sockets
 62
256
370
-1
  6
BYLAYER
 10
393.3918661967300068
 20
20.0000000000000355
 30
0.0
 40
8.9000000000000004
  0
ARC
  5
D7
100
AcDbEntity
  8
0
 62
256
370
-1
  6
BYLAYER
100
AcDbCircle
 10
555.3918661967300068
 20
39.9999999999999929
 30
0.0
 40
3.0
100
AcDbArc
 50
180.0
 51
0.0
  0
ARC
  5
D8
100
AcDbEntity
  8
0
 62
256
370
-1
  6
BYLAYER
100
AcDbCircle
 10
531.3918661967300068
 20
39.9999999999999929
 30
0.0
 40
3.0
100
AcDbArc
 50
180.0
 51
0.0
  0
LINE
  5
D9
100
AcDbEntity
100
AcDbLine
  8
0
 62
256
370
-1
  6
BYLAYER
 10
552.3918661967300068
 20
40.0
 30
0.0
 11
534.3918661967300068
 21
40.0
 31
0.0
  0
ARC
  5
DA
100
AcDbEntity
  8
0
 62
256
370
-1
  6
BYLAYER
100
AcDbCircle
 10
495.3918661967300068
 20
40.0
 30
0.0
 40
3.0
100
AcDbArc
 50
180.0
 51
0.0
  0
ARC
  5
DB
100
AcDbEntity
  8
0
 62
256
370
-1
  6
BYLAYER
100
AcDbCircle
 10
471.3918661967300068
 20
40.0000000000000142
 30
0.0
 40
3.0
100
AcDbArc
 50
180.0
 51
0.0
  0
LINE
  5
DC
100
AcDbEntity
100
AcDbLine
  8
0
 62
256
370
-1
  6
BYLAYER
 10
492.3918661967300068
 20
39.9999999999999929
 30
0.0
 11
474.3918661967300068
 21
40.0000000000000071
 31
0.0
  0
ARC
  5
DD
100
AcDbEntity
  8
0
 62
256
370
-1
  6
BYLAYER
100
AcDbCircle
 10
388.3918661967300068
 20
19.9999999999999467
 30
0.0
 40
20.0
100
AcDbArc
 50
180.0
 51
270.0
  0
ARC
  5
DE
100
AcDbEntity
  8
0
 62
256
370
-1
  6
BYLAYER
100
AcDbCircle
 10
435.3918661967300068
 20
40.0
 30
0.0
 40
3.0
100
AcDbArc
 50
180.0
 51
0.0
  0
LINE
  5
DF
100
AcDbEntity
100
AcDbLine
  8
0
 62
256
370
-1
  6
BYLAYER
 10
619.9999999999998863
 20
0.0
 30
0.0
 11
388.3918661967300068
 21
0.0000000000000142
 31
0.0
  0
ARC
  5
E0
100
AcDbEntity
  8
0
 62
256
370
-1
  6
BYLAYER
100
AcDbCircle
 10
411.3918661967300068
 20
40.0000000000000284
 30
0.0
 40
3.0
100
AcDbArc
 50
180.0
 51
0.0
  0
LINE
  5
E1
100
AcDbEntity
100
AcDbLine
  8
0
 62
256
370
-1
  6
BYLAYER
 10
432.3918661967300068
 20
40.0000000000000284
 30
0.0
 11
414.3918661967300068
 21
40.0000000000000497
 31
0.0
  0
ARC
  5
E2
100
AcDbEntity
  8
0
 62
256
370
-1
  6
BYLAYER
100
AcDbCircle
 10
393.3918661967300068
 20
20.0000000000000355
 30
0.0
 40
231.0
100
AcDbArc
 50
355.0331078222571932
 51
0.0
  0
ARC
  5
E3
100
AcDbEntity
  8
0
 62
256
370
-1
  6
BYLAYER
100
AcDbCircle
 10
375.3918661967300068
 20
40.0000000000000284
 30
0.0
 40
3.0
100
AcDbArc
 50
180.0
 51
0.0
  0
LINE
  5
E4
100
AcDbEntity
100
AcDbLine
  8
0
 62
256
370
-1
  6
BYLAYER
 10
648.3918661967300068
 20
39.9999999999999858
 30
0.0
 11
648.3918661967300068
 21
49.9999999999999218
 31
0.0
  0
ARC
  5
E5
100
AcDbEntity
  8
0
 62
256
370
-1
  6
BYLAYER
100
AcDbCircle
 10
393.3918661967300068
 20
20.0000000000000355
 30
0.0
 40
249.0
100
AcDbArc
 50
355.4530571188961972
 51
0.0
  0
LINE
  5
E6
100
AcDbEntity
100
AcDbLine
  8
0
 62
256
370
-1
  6
BYLAYER
 10
372.3918661967300068
 20
39.9999999999999858
 30
0.0
 11
368.3918661967300068
 21
39.9999999999999147
 31
0.0
  0
LINE
  5
E7
100
AcDbEntity
100
AcDbLine
  8
0
 62
256
370
-1
  6
BYLAYER
 10
618.3918661967300068
 20
39.9999999999999432
 30
0.0
 11
618.3918661967300068
 21
49.9999999999999787
 31
0.0
  0
LINE
  5
E8
100
AcDbEntity
100
AcDbLine
  8
0
 62
256
370
-1
  6
BYLAYER
 10
588.3918661967300068
 20
39.9999999999999787
 30
0.0
 11
588.3918661967300068
 21
49.9999999999999929
 31
0.0
  0
ARC
  5
E9
100
AcDbEntity
  8
0
 62
256
370
-1
  6
BYLAYER
100
AcDbCircle
 10
633.3918661967300068
 20
19.9999999999998792
 30
0.0
 40
9.0
100
AcDbArc
 50
0.0
 51
180.0
  0
LINE
  5
EA
100
AcDbEntity
100
AcDbLine
  8
0
 62
256
370
-1
  6
BYLAYER
 10
558.3918661967300068
 20
40.0
 30
0.0
 11
558.3918661967300068
 21
49.9999999999999929
 31
0.0
  0
LINE
  5
EB
100
AcDbEntity
100
AcDbLine
  8
0
 62
256
370
-1
  6
BYLAYER
 10
623.524436686002673
 20
0.0
 30
0.0
 11
619.9999999999998863
 21
0.0
 31
0.0
  0
LINE
  5
EC
100
AcDbEntity
100
AcDbLine
  8
0
 62
256
370
-1
  6
BYLAYER
 10
528.3918661967300068
 20
40.0
 30
0.0
 11
528.3918661967300068
 21
50.0
 31
0.0
  0
ARC
  5
ED
100
AcDbEntity
  8
0
 62
256
370
-1
  6
BYLAYER
100
AcDbCircle
 10
638.3918661967300068
 20
19.9999999999999609
 30
0.0
 40
20.0
100
AcDbArc
 50
279.2542818957230111
 51
0.0
  0
LINE
  5
EE
100
AcDbEntity
100
AcDbLine
  8
0
 62
256
370
-1
  6
BYLAYER
 10
498.3918661967300068
 20
40.0
 30
0.0
 11
498.3918661967300068
 21
50.0
 31
0.0
  0
LINE
  5
EF
100
AcDbEntity
100
AcDbLine
  8
0
 62
256
370
-1
  6
BYLAYER
 10
468.3918661967300068
 20
40.0000000000000142
 30
0.0
 11
468.3918661967300068
 21
50.0000000000000142
 31
0.0
  0
LINE
  5
F0
100
AcDbEntity
100
AcDbLine
  8
0
 62
256
370
-1
  6
BYLAYER
 10
438.3918661967300068
 20
40.0000000000000142
 30
0.0
 11
438.3918661967300068
 21
50.0000000000000213
 31
0.0
  0
LINE
  5
F1
100
AcDbEntity
100
AcDbLine
  8
0
 62
256
370
-1
  6
BYLAYER
 10
408.3918661967300068
 20
40.0000000000000142
 30
0.0
 11
408.3918661967300068
 21
50.0000000000000284
 31
0.0
  0
LINE
  5
F2
100
AcDbEntity
100
AcDbLine
  8
0
 62
256
370
-1
  6
BYLAYER
 10
378.3918661967300068
 20
40.0000000000001137
 30
0.0
 11
378.3918661967300068
 21
50.0000000000000568
 31
0.0
  0
LINE
  5
F3
100
AcDbEntity
100
AcDbLine
  8
0
 62
256
370
-1
  6
BYLAYER
 10
658.3918661967300068
 20
40.0000000000000284
 30
0.0
 11
658.3918661967300068
 21
19.9999999999999289
 31
0.0
  0
LINE
  5
F4
100
AcDbEntity
100
AcDbLine
  8
0
 62
256
370
-1
  6
BYLAYER
 10
618.3918661967300068
 20
49.9999999999999787
 30
0.0
 11
648.3918661967300068
 21
49.9999999999999218
 31
0.0
  0
LINE
  5
F5
100
AcDbEntity
100
AcDbLine
  8
0
 62
256
370
-1
  6
BYLAYER
 10
558.3918661967300068
 20
49.9999999999999929
 30
0.0
 11
588.3918661967300068
 21
49.9999999999999929
 31
0.0
  0
LINE
  5
F6
100
AcDbEntity
100
AcDbLine
  8
0
 62
256
370
-1
  6
BYLAYER
 10
498.3918661967300068
 20
50.0
 30
0.0
 11
528.3918661967300068
 21
50.0
 31
0.0
  0
LINE
  5
F7
100
AcDbEntity
100
AcDbLine
  8
0
 62
256
370
-1
  6
BYLAYER
 10
438.3918661967300068
 20
50.0000000000000213
 30
0.0
 11
468.3918661967300068
 21
50.0000000000000142
 31
0.0
  0
LINE
  5
F8
100
AcDbEntity
100
AcDbLine
  8
0
 62
256
370
-1
  6
BYLAYER
 10
378.3918661967300068
 20
50.0000000000000568
 30
0.0
 11
408.3918661967300068
 21
50.0000000000000284
 31
0.0
  0
LINE
  5
F9
100
AcDbEntity
100
AcDbLine
  8
0
 62
256
370
-1
  6
BYLAYER
 10
368.3918661967300068
 20
19.9999999999999325
 30
0.0
 11
368.3918661967300068
 21
39.9999999999999147
 31
0.0
  0
ARC
  5
FA
100
AcDbEntity
  8
0
 62
256
370
-1
  6
BYLAYER
100
AcDbCircle
 10
75.9999999999998863
 20
566.0
 30
0.0
 40
20.0
100
AcDbArc
 50
0.0
 51
180.0
  0
LINE
  5
FB
100
AcDbEntity
100
AcDbLine
  8
0
 62
256
370
-1
  6
BYLAYER
 10
56.0000000000001137
 20
566.0
 30
0.0
 11
56.0
 21
86.0
 31
0.0
  0
LINE
  5
FC
100
AcDbEntity
100
AcDbLine
  8
0
 62
256
370
-1
  6
BYLAYER
 10
95.9999999999996589
 20
86.0
 30
0.0
 11
95.9999999999997726
 21
566.0
 31
0.0
  0
CIRCLE
  5
FD
100
AcDbEntity
100
AcDbCircle
  8
blind sockets
 62
256
370
-1
  6
BYLAYER
 10
75.9999999999998863
 20
86.0
 30
0.0
 40
8.9000000000000004
  0
CIRCLE
  5
FE
100
AcDbEntity
100
AcDbCircle
  8
0
 62
256
370
-1
  6
BYLAYER
 10
75.9999999999998863
 20
566.0
 30
0.0
 40
9.0
  0
ARC
  5
FF
100
AcDbEntity
  8
0
 62
256
370
-1
  6
BYLAYER
100
AcDbCircle
 10
75.9999999999998863
 20
86.0
 30
0.0
 40
20.0
100
AcDbArc
 50
180.0
 51
0.0
  0
CIRCLE
  5
100
100
AcDbEntity
100
AcDbCircle
  8
0
 62
256
370
-1
  6
BYLAYER
 10
75.9999999999998863
 20
326.0
 30
0.0
 40
9.0999999999999996
  0
ARC
  5
101
100
AcDbEntity
  8
0
 62
256
370
-1
  6
BYLAYER
100
AcDbCircle
 10
131.9999999999998863
 20
566.0
 30
0.0
 40
20.0
100
AcDbArc
 50
0.0
 51
180.0
  0
LINE
  5
102
100
AcDbEntity
100
AcDbLine
  8
0
 62
256
370
-1
  6
BYLAYER
 10
112.0000000000001137
 20
566.0
 30
0.0
 11
112.0
 21
86.0
 31
0.0
  0
LINE
  5
103
100
AcDbEntity
100
AcDbLine
  8
0
 62
256
370
-1
  6
BYLAYER
 10
151.9999999999996589
 20
86.0
 30
0.0
 11
151.9999999999997726
 21
566.0
 31
0.0
  0
CIRCLE
  5
104
100
AcDbEntity
100
AcDbCircle
  8
blind sockets
 62
256
370
-1
  6
BYLAYER
 10
131.9999999999998863
 20
86.0
 30
0.0
 40
8.9000000000000004
  0
CIRCLE
  5
105
100
AcDbEntity
100
AcDbCircle
  8
blind sockets
 62
256
370
-1
  6
BYLAYER
 10
131.9999999999998863
 20
566.0
 30
0.0
 40
8.9000000000000004
  0
ARC
  5
106
100
AcDbEntity
  8
0
 62
256
370
-1
  6
BYLAYER
100
AcDbCircle
 10
131.9999999999998863
 20
86.0
 30
0.0
 40
20.0
100
AcDbArc
 50
180.0
 51
0.0
  0
CIRCLE
  5
107
100
AcDbEntity
100
AcDbCircle
  8
blind sockets
 62
256
370
-1
  6
BYLAYER
 10
131.9999999999998863
 20
326.0
 30
0.0
 40
8.9000000000000004
  0
ARC
  5
108
100
AcDbEntity
  8
0
 62
256
370
-1
  6
BYLAYER
100
AcDbCircle
 10
187.9999999999998863
 20
566.0
 30
0.0
 40
20.0
100
AcDbArc
 50
0.0
 51
180.0
  0
LINE
  5
109
100
AcDbEntity
100
AcDbLine
  8
0
 62
256
370
-1
  6
BYLAYER
 10
168.0000000000001137
 20
566.0
 30
0.0
 11
168.0
 21
86.0
 31
0.0
  0
LINE
  5
10A
100
AcDbEntity
100
AcDbLine
  8
0
 62
256
370
-1
  6
BYLAYER
 10
207.9999999999996589
 20
86.0
 30
0.0
 11
207.9999999999997726
 21
566.0
 31
0.0
  0
CIRCLE
  5
10B
100
AcDbEntity
100
AcDbCircle
  8
blind sockets
 62
256
370
-1
  6
BYLAYER
 10
187.9999999999998863
 20
86.0
 30
0.0
 40
8.9000000000000004
  0
CIRCLE
  5
10C
100
AcDbEntity
100
AcDbCircle
  8
blind sockets
 62
256
370
-1
  6
BYLAYER
 10
187.9999999999998863
 20
566.0
 30
0.0
 40
8.9000000000000004
  0
ARC
  5
10D
100
AcDbEntity
  8
0
 62
256
370
-1
  6
BYLAYER
100
AcDbCircle
 10
187.9999999999998863
 20
86.0
 30
0.0
 40
20.0
100
AcDbArc
 50
180.0
 51
0.0
  0
CIRCLE
  5
10E
100
AcDbEntity
100
AcDbCircle
  8
blind sockets
 62
256
370
-1
  6
BYLAYER
 10
187.9999999999998863
 20
326.0
 30
0.0
 40
8.9000000000000004
  0
CIRCLE
  5
10F
100
AcDbEntity
100
AcDbCircle
  8
0
 62
256
370
-1
  6
BYLAYER
 10
927.4626197990725132
 20
28.140909022004422
 30
0.0
 40
8.9000000000000004
  0
CIRCLE
  5
110
100
AcDbEntity
100
AcDbCircle
  8
0
 62
256
370
-1
  6
BYLAYER
 10
927.4626197990725132
 20
28.140909022004422
 30
0.0
 40
17.0
  0
CIRCLE
  5
111
100
AcDbEntity
100
AcDbCircle
  8
0
 62
256
370
-1
  6
BYLAYER
 10
866.7505893985457988
 20
28.0072781542477856
 30
0.0
 40
8.9000000000000004
  0
CIRCLE
  5
112
100
AcDbEntity
100
AcDbCircle
  8
0
 62
256
370
-1
  6
BYLAYER
 10
866.7505893985457988
 20
28.0072781542477856
 30
0.0
 40
17.0
  0
LINE
  5
113
100
AcDbEntity
100
AcDbLine
  8
blind sockets
 62
256
370
-1
  6
BYLAYER
 10
312.9242775322447301
 20
114.8204192019376109
 30
0.0
 11
312.9242775322447301
 21
96.6204192019375938
 31
0.0
  0
LINE
  5
114
100
AcDbEntity
100
AcDbLine
  8
blind sockets
 62
256
370
-1
  6
BYLAYER
 10
335.5242775322446391
 20
96.620419201937608
 30
0.0
 11
335.5242775322446391
 21
114.8204192019375824
 31
0.0
  0
LINE
  5
115
100
AcDbEntity
100
AcDbLine
  8
blind sockets
 62
256
370
-1
  6
BYLAYER
 10
312.9242775322447301
 20
90.620419201937608
 30
0.0
 11
335.5242775322446391
 21
90.620419201937608
 31
0.0
  0
ARC
  5
116
100
AcDbEntity
  8
blind sockets
 62
256
370
-1
  6
BYLAYER
100
AcDbCircle
 10
312.9242775322447301
 20
117.8204192019376109
 30
0.0
 40
3.0
100
AcDbArc
 50
90.0
 51
270.0
  0
LINE
  5
117
100
AcDbEntity
100
AcDbLine
  8
blind sockets
 62
256
370
-1
  6
BYLAYER
 10
335.5242775322446391
 20
120.8204192019376109
 30
0.0
 11
312.9242775322447301
 21
120.8204192019376109
 31
0.0
  0
ARC
  5
118
100
AcDbEntity
  8
blind sockets
 62
256
370
-1
  6
BYLAYER
100
AcDbCircle
 10
335.5242775322446391
 20
117.8204192019376109
 30
0.0
 40
3.0
100
AcDbArc
 50
269.9999999999998295
 51
90.0000000000001563
  0
ARC
  5
119
100
AcDbEntity
  8
blind sockets
 62
256
370
-1
  6
BYLAYER
100
AcDbCircle
 10
312.9242775322447301
 20
93.620419201937608
 30
0.0
 40
3.0
100
AcDbArc
 50
90.0
 51
270.0
  0
ARC
  5
11A
100
AcDbEntity
  8
blind sockets
 62
256
370
-1
  6
BYLAYER
100
AcDbCircle
 10
335.5242775322446391
 20
93.620419201937608
 30
0.0
 40
3.0
100
AcDbArc
 50
270.0
 51
90.0
  0
ARC
  5
11B
100
AcDbEntity
  8
blind sockets
 62
256
370
-1
  6
BYLAYER
100
AcDbCircle
 10
523.9242775322445596
 20
117.8204192019376109
 30
0.0
 40
3.0
100
AcDbArc
 50
90.0
 51
270.0
  0
LINE
  5
11C
100
AcDbEntity
100
AcDbLine
  8
blind sockets
 62
256
370
-1
  6
BYLAYER
 10
546.524277532244696
 20
120.8204192019376109
 30
0.0
 11
523.9242775322445596
 21
120.8204192019376109
 31
0.0
  0
ARC
  5
11D
100
AcDbEntity
  8
blind sockets
 62
256
370
-1
  6
BYLAYER
100
AcDbCircle
 10
546.524277532244696
 20
117.8204192019376109
 30
0.0
 40
3.0
100
AcDbArc
 50
269.9999999999998295
 51
90.0000000000001563
  0
ARC
  5
11E
100
AcDbEntity
  8
blind sockets
 62
256
370
-1
  6
BYLAYER
100
AcDbCircle
 10
523.9242775322445596
 20
93.620419201937608
 30
0.0
 40
3.0
100
AcDbArc
 50
90.0
 51
270.0
  0
ARC
  5
11F
100
AcDbEntity
  8
blind sockets
 62
256
370
-1
  6
BYLAYER
100
AcDbCircle
 10
546.524277532244696
 20
93.620419201937608
 30
0.0
 40
3.0
100
AcDbArc
 50
270.0
 51
90.0
  0
LINE
  5
120
100
AcDbEntity
100
AcDbLine
  8
blind sockets
 62
256
370
-1
  6
BYLAYER
 10
523.9242775322445596
 20
90.620419201937608
 30
0.0
 11
546.524277532244696
 21
90.620419201937608
 31
0.0
  0
LINE
  5
121
100
AcDbEntity
100
AcDbLine
  8
blind sockets
 62
256
370
-1
  6
BYLAYER
 10
523.9242775322445596
 20
114.8204192019376109
 30
0.0
 11
523.9242775322445596
 21
96.620419201937608
 31
0.0
  0
LINE
  5
122
100
AcDbEntity
100
AcDbLine
  8
blind sockets
 62
256
370
-1
  6
BYLAYER
 10
546.524277532244696
 20
96.620419201937608
 30
0.0
 11
546.524277532244696
 21
114.8204192019375824
 31
0.0
  0
LINE
  5
123
100
AcDbEntity
100
AcDbLine
  8
0
 62
256
370
-1
  6
BYLAYER
 10
772.3918661967300068
 20
39.9999999999999858
 30
0.0
 11
768.3918661967300068
 21
39.9999999999999147
 31
0.0
  0
LINE
  5
124
100
AcDbEntity
100
AcDbLine
  8
0
 62
256
370
-1
  6
BYLAYER
 10
808.3918661967300068
 20
40.0000000000000142
 30
0.0
 11
808.3918661967300068
 21
50.0000000000000284
 31
0.0
  0
LINE
  5
125
100
AcDbEntity
100
AcDbLine
  8
0
 62
256
370
-1
  6
BYLAYER
 10
778.3918661967300068
 20
40.0000000000001137
 30
0.0
 11
778.3918661967300068
 21
50.0000000000000568
 31
0.0
  0
LINE
  5
126
100
AcDbEntity
100
AcDbLine
  8
0
 62
256
370
-1
  6
BYLAYER
 10
778.3918661967300068
 20
50.0000000000000568
 30
0.0
 11
808.3918661967300068
 21
50.0000000000000284
 31
0.0
  0
LINE
  5
127
100
AcDbEntity
100
AcDbLine
  8
0
 62
256
370
-1
  6
BYLAYER
 10
768.3918661967300068
 20
19.9999999999999325
 30
0.0
 11
768.3918661967300068
 21
39.9999999999999147
 31
0.0
  0
CIRCLE
  5
128
100
AcDbEntity
100
AcDbCircle
  8
blind sockets
 62
256
370
-1
  6
BYLAYER
 10
715.0
 20
20.0
 30
0.0
 40
8.9000000000000004
  0
ARC
  5
129
100
AcDbEntity
  8
0
 62
256
370
-1
  6
BYLAYER
100
AcDbCircle
 10
720.0
 20
20.0
 30
0.0
 40
20.0
100
AcDbArc
 50
270.0
 51
0.0
  0
LINE
  5
12A
100
AcDbEntity
100
AcDbLine
  8
0
 62
256
370
-1
  6
BYLAYER
 10
700.0
 20
40.0
 30
0.0
 11
700.0
 21
50.0
 31
0.0
  0
LINE
  5
12B
100
AcDbEntity
100
AcDbLine
  8
0
 62
256
370
-1
  6
BYLAYER
 10
730.0
 20
40.0
 30
0.0
 11
730.0
 21
50.0
 31
0.0
  0
LINE
  5
12C
100
AcDbEntity
100
AcDbLine
  8
0
 62
256
370
-1
  6
BYLAYER
 10
730.0
 20
50.0
 30
0.0
 11
700.0
 21
50.0
 31
0.0
  0
LINE
  5
12D
100
AcDbEntity
100
AcDbLine
  8
0
 62
256
370
-1
  6
BYLAYER
 10
740.0
 20
20.0
 30
0.0
 11
740.0
 21
40.0
 31
0.0
  0
ARC
  5
12E
100
AcDbEntity
  8
0
 62
256
370
-1
  6
BYLAYER
100
AcDbCircle
 10
697.0
 20
40.0
 30
0.0
 40
3.0
100
AcDbArc
 50
180.0
 51
0.0
  0
ARC
  5
12F
100
AcDbEntity
  8
0
 62
256
370
-1
  6
BYLAYER
100
AcDbCircle
 10
733.0
 20
40.0
 30
0.0
 40
3.0
100
AcDbArc
 50
180.0
 51
0.0
  0
LINE
  5
130
100
AcDbEntity
100
AcDbLine
  8
0
 62
256
370
-1
  6
BYLAYER
 10
736.0
 20
40.0
 30
0.0
 11
740.0
 21
40.0
 31
0.0
  0
CIRCLE
  5
131
100
AcDbEntity
100
AcDbCircle
  8
blind sockets
 62
256
370
-1
  6
BYLAYER
 10
793.3918661967300068
 20
20.0000000000000355
 30
0.0
 40
8.9000000000000004
  0
ARC
  5
132
100
AcDbEntity
  8
0
 62
256
370
-1
  6
BYLAYER
100
AcDbCircle
 10
788.3918661967300068
 20
19.9999999999999467
 30
0.0
 40
20.0
100
AcDbArc
 50
180.0
 51
270.0
  0
ARC
  5
133
100
AcDbEntity
  8
0
 62
256
370
-1
  6
BYLAYER
100
AcDbCircle
 10
811.3918661967300068
 20
40.0000000000000284
 30
0.0
 40
3.0
100
AcDbArc
 50
180.0
 51
0.0
  0
ARC
  5
134
100
AcDbEntity
  8
0
 62
256
370
-1
  6
BYLAYER
100
AcDbCircle
 10
775.3918661967300068
 20
40.0000000000000284
 30
0.0
 40
3.0
100
AcDbArc
 50
180.0
 51
0.0
  0
LINE
  5
135
100
AcDbEntity
100
AcDbLine
  8
0
 62
256
370
-1
  6
BYLAYER
 10
690.0
 20
40.0
 30
0.0
 11
694.0
 21
40.0
 31
0.0
  0
LINE
  5
136
100
AcDbEntity
100
AcDbLine
  8
0
 62
256
370
-1
  6
BYLAYER
 10
818.3918661967300068
 20
40.0000000000000426
 30
0.0
 11
814.3918661967300068
 21
40.0000000000000497
 31
0.0
  0
LINE
  5
137
100
AcDbEntity
100
AcDbLine
  8
0
 62
256
370
-1
  6
BYLAYER
 10
798.3918661967300068
 20
0.0000000000000133
 30
0.0
 11
788.3918661967300068
 21
0.0000000000000142
 31
0.0
  0
LINE
  5
138
100
AcDbEntity
100
AcDbLine
  8
0
 62
256
370
-1
  6
BYLAYER
 10
818.3918661967300068
 20
20.0000000000000107
 30
0.0
 11
818.3918661967300068
 21
40.0000000000000284
 31
0.0
  0
ARC
  5
139
100
AcDbEntity
  8
0
 62
256
370
-1
  6
BYLAYER
100
AcDbCircle
 10
798.3918661967300068
 20
20.0000000000000142
 30
0.0
 40
20.0
100
AcDbArc
 50
270.0
 51
0.0
  0
LINE
  5
13A
100
AcDbEntity
100
AcDbLine
  8
0
 62
256
370
-1
  6
BYLAYER
 10
710.0
 20
0.0
 30
0.0
 11
720.0
 21
0.0
 31
0.0
  0
LINE
  5
13B
100
AcDbEntity
100
AcDbLine
  8
0
 62
256
370
-1
  6
BYLAYER
 10
690.0
 20
20.0
 30
0.0
 11
690.0
 21
40.0
 31
0.0
  0
ARC
  5
13C
100
AcDbEntity
  8
0
 62
256
370
-1
  6
BYLAYER
100
AcDbCircle
 10
710.0
 20
20.0
 30
0.0
 40
20.0
100
AcDbArc
 50
180.0
 51
270.0
  0
ARC
  5
13D
100
AcDbEntity
  8
blind sockets
 62
256
370
-1
  6
BYLAYER
100
AcDbCircle
 10
290.1242775322446619
 20
333.6204192019375796
 30
0.0
 40
3.0
100
AcDbArc
 50
270.0
 51
90.0
  0
LINE
  5
13E
100
AcDbEntity
100
AcDbLine
  8
blind sockets
 62
256
370
-1
  6
BYLAYER
 10
267.5242775322446391
 20
330.6204192019375796
 30
0.0
 11
290.1242775322446619
 21
330.6204192019375796
 31
0.0
  0
LINE
  5
13F
100
AcDbEntity
100
AcDbLine
  8
blind sockets
 62
256
370
-1
  6
BYLAYER
 10
290.1242775322446619
 20
90.620419201937608
 30
0.0
 11
290.1242775322446619
 21
90.620419201937608
 31
0.0
  0
ENDSEC
  0
SECTION
  2
OBJECTS
  0
DICTIONARY
  5
C
100
AcDbDictionary
280
0
281
1
  3
ACAD_GROUP
350
D
  3
ACAD_LAYOUT
350
1A
  3
ACAD_MLINESTYLE
350
17
  3
ACAD_PLOTSETTINGS
350
19
  3
ACAD_PLOTSTYLENAME
350
E
  3
AcDbVariableDictionary
350
140
  3
QCAD_OBJECTS
350
141
  0
DICTIONARY
  5
D
100
AcDbDictionary
280
0
281
1
  0
ACDBDICTIONARYWDFLT
  5
E
100
AcDbDictionary
281
1
  3
Normal
350
F
100
AcDbDictionaryWithDefault
340
F
  0
ACDBPLACEHOLDER
  5
F
  0
DICTIONARY
  5
17
100
AcDbDictionary
280
0
281
1
  3
Standard
350
18
  0
MLINESTYLE
  5
18
100
AcDbMlineStyle
  2
STANDARD
 70
0
  3

 62
256
 51
90.0
 52
90.0
 71
2
 49
0.5
 62
256
  6
BYLAYER
 49
-0.5
 62
256
  6
BYLAYER
  0
DICTIONARY
  5
19
100
AcDbDictionary
280
0
281
1
  0
DICTIONARY
  5
1A
100
AcDbDictionary
281
1
  3
Layout1
350
1E
  3
Layout2
350
26
  3
Model
350
22
  0
LAYOUT
  5
1E
100
AcDbPlotSettings
  1

  2
C:\Program Files\AutoCAD 2002\plotters\DWF ePlot (optimized for plotting).pc3
  4

  6

 40
0.0
 41
0.0
 42
0.0
 43
0.0
 44
0.0
 45
0.0
 46
0.0
 47
0.0
 48
0.0
 49
0.0
140
0.0
141
0.0
142
1.0
143
1.0
 70
688
 72
0
 73
0
 74
5
  7

 75
16
147
1.0
148
0.0
149
0.0
100
AcDbLayout
  1
Layout1
 70
1
 71
1
 10
0.0
 20
0.0
 11
420.0
 21
297.0
 12
0.0
 22
0.0
 32
0.0
 14
100000000000000000000.0
 24
100000000000000000000.0
 34
100000000000000000000.0
 15
-100000000000000000000.0
 25
-100000000000000000000.0
 35
-100000000000000000000.0
146
0.0
 13
0.0
 23
0.0
 33
0.0
 16
1.0
 26
0.0
 36
0.0
 17
0.0
 27
1.0
 37
0.0
 76
0
330
1B
  0
LAYOUT
  5
22
100
AcDbPlotSettings
  1

  2
C:\Program Files\AutoCAD 2002\plotters\DWF ePlot (optimized for plotting).pc3
  4

  6

 40
0.0
 41
0.0
 42
0.0
 43
0.0
 44
0.0
 45
0.0
 46
0.0
 47
0.0
 48
0.0
 49
0.0
140
0.0
141
0.0
142
1.0
143
1.0
 70
1712
 72
0
 73
0
 74
0
  7

 75
0
147
1.0
148
0.0
149
0.0
100
AcDbLayout
  1
Model
 70
1
 71
0
 10
0.0
 20
0.0
 11
12.0
 21
9.0
 12
0.0
 22
0.0
 32
0.0
 14
0.0
 24
0.0
 34
0.0
 15
0.0
 25
0.0
 35
0.0
146
0.0
 13
0.0
 23
0.0
 33
0.0
 16
1.0
 26
0.0
 36
0.0
 17
0.0
 27
1.0
 37
0.0
 76
0
330
1F
  0
LAYOUT
  5
26
100
AcDbPlotSettings
  1

  2
C:\Program Files\AutoCAD 2002\plotters\DWF ePlot (optimized for plotting).pc3
  4

  6

 40
0.0
 41
0.0
 42
0.0
 43
0.0
 44
0.0
 45
0.0
 46
0.0
 47
0.0
 48
0.0
 49
0.0
140
0.0
141
0.0
142
1.0
143
1.0
 70
688
 72
0
 73
0
 74
5
  7

 75
16
147
1.0
148
0.0
149
0.0
100
AcDbLayout
  1
Layout2
 70
1
 71
2
 10
0.0
 20
0.0
 11
12.0
 21
9.0
 12
0.0
 22
0.0
 32
0.0
 14
0.0
 24
0.0
 34
0.0
 15
0.0
 25
0.0
 35
0.0
146
0.0
 13
0.0
 23
0.0
 33
0.0
 16
1.0
 26
0.0
 36
0.0
 17
0.0
 27
1.0
 37
0.0
 76
0
330
23
  0
DICTIONARY
  5
140
100
AcDbDictionary
281
1
  3
DIMASSOC
350
143
  3
HIDETEXT
350
142
  0
DICTIONARYVAR
  5
142
100
DictionaryVariables
280
0
  1
2
  0
DICTIONARYVAR
  5
143
100
DictionaryVariables
280
0
  1
1
  0
DICTIONARY
  5
141
100
AcDbDictionary
281
1
  3
Grid/DisplayGrid00
350
144
  3
Grid/DisplayGrid01
350
145
  3
Grid/DisplayGrid02
350
146
  3
Grid/DisplayGrid03
350
147
  3
Grid/GridSpacingX00
350
148
  3
Grid/GridSpacingX01
350
149
  3
Grid/GridSpacingX02
350
14A
  3
Grid/GridSpacingX03
350
14B
  3
Grid/GridSpacingY00
350
14C
  3
Grid/GridSpacingY01
350
14D
  3
Grid/GridSpacingY02
350
14E
  3
Grid/GridSpacingY03
350
14F
  3
Grid/IsometricGrid00
350
150
  3
Grid/IsometricGrid01
350
151
  3
Grid/IsometricGrid02
350
152
  3
Grid/IsometricGrid03
350
153
  3
Grid/IsometricProjection00
350
154
  3
Grid/IsometricProjection01
350
155
  3
Grid/IsometricProjection02
350
156
  3
Grid/IsometricProjection03
350
157
  3
Grid/MetaGridSpacingX00
350
158
  3
Grid/MetaGridSpacingX01
350
159
  3
Grid/MetaGridSpacingX02
350
15A
  3
Grid/MetaGridSpacingX03
350
15B
  3
Grid/MetaGridSpacingY00
350
15C
  3
Grid/MetaGridSpacingY01
350
15D
  3
Grid/MetaGridSpacingY02
350
15E
  3
Grid/MetaGridSpacingY03
350
15F
  3
MultiPageSettings/Columns
350
160
  3
MultiPageSettings/GlueMarginsBottom
350
161
  3
MultiPageSettings/GlueMarginsLeft
350
162
  3
MultiPageSettings/GlueMarginsRight
350
163
  3
MultiPageSettings/GlueMarginsTop
350
164
  3
MultiPageSettings/PrintCropMarks
350
165
  3
MultiPageSettings/Rows
350
166
  3
PageSettings/OffsetX
350
167
  3
PageSettings/OffsetY
350
168
  3
PageSettings/PageOrientation
350
169
  3
PageSettings/PaperHeight
350
16A
  3
PageSettings/PaperWidth
350
16B
  3
PageSettings/Scale
350
16C
  3
PageSettings/ShowPaperBorders
350
16D
  3
UnitSettings/PaperUnit
350
16E
  0
XRECORD
  5
144
330
141
100
AcDbXrecord
280
1
290
1
  0
XRECORD
  5
145
330
141
100
AcDbXrecord
280
1
290
1
  0
XRECORD
  5
146
330
141
100
AcDbXrecord
280
1
290
1
  0
XRECORD
  5
147
330
141
100
AcDbXrecord
280
1
290
1
  0
XRECORD
  5
148
330
141
100
AcDbXrecord
280
1
1000
auto
  0
XRECORD
  5
149
330
141
100
AcDbXrecord
280
1
1000
auto
  0
XRECORD
  5
14A
330
141
100
AcDbXrecord
280
1
1000
auto
  0
XRECORD
  5
14B
330
141
100
AcDbXrecord
280
1
1000
auto
  0
XRECORD
  5
14C
330
141
100
AcDbXrecord
280
1
1000
auto
  0
XRECORD
  5
14D
330
141
100
AcDbXrecord
280
1
1000
auto
  0
XRECORD
  5
14E
330
141
100
AcDbXrecord
280
1
1000
auto
  0
XRECORD
  5
14F
330
141
100
AcDbXrecord
280
1
1000
auto
  0
XRECORD
  5
150
330
141
100
AcDbXrecord
280
1
290
0
  0
XRECORD
  5
151
330
141
100
AcDbXrecord
280
1
290
0
  0
XRECORD
  5
152
330
141
100
AcDbXrecord
280
1
290
0
  0
XRECORD
  5
153
330
141
100
AcDbXrecord
280
1
290
0
  0
XRECORD
  5
154
330
141
100
AcDbXrecord
280
1
 90
0
  0
XRECORD
  5
155
330
141
100
AcDbXrecord
280
1
 90
0
  0
XRECORD
  5
156
330
141
100
AcDbXrecord
280
1
 90
0
  0
XRECORD
  5
157
330
141
100
AcDbXrecord
280
1
 90
0
  0
XRECORD
  5
158
330
141
100
AcDbXrecord
280
1
1000
auto
  0
XRECORD
  5
159
330
141
100
AcDbXrecord
280
1
1000
auto
  0
XRECORD
  5
15A
330
141
100
AcDbXrecord
280
1
1000
auto
  0
XRECORD
  5
15B
330
141
100
AcDbXrecord
280
1
1000
auto
  0
XRECORD
  5
15C
330
141
100
AcDbXrecord
280
1
1000
auto
  0
XRECORD
  5
15D
330
141
100
AcDbXrecord
280
1
1000
auto
  0
XRECORD
  5
15E
330
141
100
AcDbXrecord
280
1
1000
auto
  0
XRECORD
  5
15F
330
141
100
AcDbXrecord
280
1
1000
auto
  0
XRECORD
  5
160
330
141
100
AcDbXrecord
280
1
 90
1
  0
XRECORD
  5
161
330
141
100
AcDbXrecord
280
1
 40
10.0
  0
XRECORD
  5
162
330
141
100
AcDbXrecord
280
1
 40
10.0
  0
XRECORD
  5
163
330
141
100
AcDbXrecord
280
1
 40
10.0
  0
XRECORD
  5
164
330
141
100
AcDbXrecord
280
1
 40
10.0
  0
XRECORD
  5
165
330
141
100
AcDbXrecord
280
1
290
0
  0
XRECORD
  5
166
330
141
100
AcDbXrecord
280
1
 90
1
  0
XRECORD
  5
167
330
141
100
AcDbXrecord
280
1
 40
0.0
  0
XRECORD
  5
168
330
141
100
AcDbXrecord
280
1
 40
0.0
  0
XRECORD
  5
169
330
141
100
AcDbXrecord
280
1
1000
Portrait
  0
XRECORD
  5
16A
330
141
100
AcDbXrecord
280
1
 40
420.0
  0
XRECORD
  5
16B
330
141
100
AcDbXrecord
280
1
 40
297.0
  0
XRECORD
  5
16C
330
141
100
AcDbXrecord
280
1
1000
1:1
  0
XRECORD
  5
16D
330
141
100
AcDbXrecord
280
1
290
1
  0
XRECORD
  5
16E
330
141
100
AcDbXrecord
280
1
 90
4
  0
ENDSEC
  0
EOF
