999
dxflib 3.3.4.0
  0
SECTION
  2
HEADER
  9
$ACADVER
  1
AC1015
  9
$HANDSEED
  5
FFFF
  9
$DIMADEC
 70
0
  9
$DIMASZ
 40
2.5
  9
$DIMAUNIT
 70
0
  9
$DIMAZIN
 70
2
  9
$DIMDEC
 70
4
  9
$DIMEXE
 40
1.25
  9
$DIMEXO
 40
0.625
  9
$DIMGAP
 40
0.625
  9
$DIMLUNIT
 70
2
  9
$DIMSCALE
 40
1.0
  9
$DIMTSZ
 40
0.0
  9
$DIMTXT
 40
2.5
  9
$DIMZIN
 70
8
  9
$DWGCODEPAGE
  3
ANSI_1252
  9
$INSUNITS
 70
4
  9
$LTSCALE
 40
1.0
  0
ENDSEC
  0
SECTION
  2
TABLES
  0
TABLE
  2
VPORT
  5
8
100
AcDbSymbolTable
 70
1
  0
VPORT
  5
30
100
AcDbSymbolTableRecord
100
AcDbViewportTableRecord
  2
*Active
 70
0
 10
0.0
 20
0.0
 11
1.0
 21
1.0
 12
286.3055555555554861
 22
148.5
 13
0.0
 23
0.0
 14
10.0
 24
10.0
 15
10.0
 25
10.0
 16
0.0
 26
0.0
 36
1.0
 17
0.0
 27
0.0
 37
0.0
 40
297.0
 41
1.92798353909465
 42
50.0
 43
0.0
 44
0.0
 50
0.0
 51
0.0
 71
0
 72
100
 73
1
 74
3
 75
1
 76
1
 77
0
 78
0
281
0
 65
1
110
0.0
120
0.0
130
0.0
111
1.0
121
0.0
131
0.0
112
0.0
122
1.0
132
0.0
 79
0
146
0.0
  0
ENDTAB
  0
TABLE
  2
LTYPE
  5
5
100
AcDbSymbolTable
 70
21
  0
LTYPE
  5
16
100
AcDbSymbolTableRecord
100
AcDbLinetypeTableRecord
  2
CONTINUOUS
 70
0
  3
Solid line
 72
65
 73
0
 40
0.0
  0
LTYPE
  5
31
100
AcDbSymbolTableRecord
100
AcDbLinetypeTableRecord
  2
CENTER2
 70
0
  3
Center (.5x) ___ _ ___ _ ___ _ ___ _ ___ _ ___
 72
65
 73
4
 40
28.5749999999999993
 49
19.0500000000000007
 74
0
 49
-3.1749999999999998
 74
0
 49
3.1749999999999998
 74
0
 49
-3.1749999999999998
 74
0
  0
LTYPE
  5
32
100
AcDbSymbolTableRecord
100
AcDbLinetypeTableRecord
  2
DIVIDEX2
 70
0
  3
Divide (2x) ________  .  .  ________  .  .  _
 72
65
 73
6
 40
63.5
 49
25.3999999999999986
 74
0
 49
-12.6999999999999993
 74
0
 49
0.0
 74
0
 49
-12.6999999999999993
 74
0
 49
0.0
 74
0
 49
-12.6999999999999993
 74
0
  0
LTYPE
  5
33
100
AcDbSymbolTableRecord
100
AcDbLinetypeTableRecord
  2
DOT2
 70
0
  3
Dot (.5x) .....................................
 72
65
 73
2
 40
3.1749999999999998
 49
0.0
 74
0
 49
-3.1749999999999998
 74
0
  0
LTYPE
  5
34
100
AcDbSymbolTableRecord
100
AcDbLinetypeTableRecord
  2
DASHDOT2
 70
0
  3
Dash dot (.5x) _._._._._._._._._._._._._._._.
 72
65
 73
4
 40
12.6999999999999993
 49
6.3499999999999996
 74
0
 49
-3.1749999999999998
 74
0
 49
0.0
 74
0
 49
-3.1749999999999998
 74
0
  0
LTYPE
  5
35
100
AcDbSymbolTableRecord
100
AcDbLinetypeTableRecord
  2
DIVIDE
 70
0
  3
Divide ____ . . ____ . . ____ . . ____ . . ____
 72
65
 73
6
 40
31.75
 49
12.6999999999999993
 74
0
 49
-6.3499999999999996
 74
0
 49
0.0
 74
0
 49
-6.3499999999999996
 74
0
 49
0.0
 74
0
 49
-6.3499999999999996
 74
0
  0
LTYPE
  5
36
100
AcDbSymbolTableRecord
100
AcDbLinetypeTableRecord
  2
DASHDOT
 70
0
  3
Dash dot __ . __ . __ . __ . __ . __ . __ . __
 72
65
 73
4
 40
25.3999999999999986
 49
12.6999999999999993
 74
0
 49
-6.3499999999999996
 74
0
 49
0.0
 74
0
 49
-6.3499999999999996
 74
0
  0
LTYPE
  5
37
100
AcDbSymbolTableRecord
100
AcDbLinetypeTableRecord
  2
BORDER
 70
0
  3
Border __ __ . __ __ . __ __ . __ __ . __ __ .
 72
65
 73
6
 40
44.4500000000000028
 49
12.6999999999999993
 74
0
 49
-6.3499999999999996
 74
0
 49
12.6999999999999993
 74
0
 49
-6.3499999999999996
 74
0
 49
0.0
 74
0
 49
-6.3499999999999996
 74
0
  0
LTYPE
  5
38
100
AcDbSymbolTableRecord
100
AcDbLinetypeTableRecord
  2
DASHDOTX2
 70
0
  3
Dash dot (2x) ____  .  ____  .  ____  .  ___
 72
65
 73
4
 40
50.7999999999999972
 49
25.3999999999999986
 74
0
 49
-12.6999999999999993
 74
0
 49
0.0
 74
0
 49
-12.6999999999999993
 74
0
  0
LTYPE
  5
39
100
AcDbSymbolTableRecord
100
AcDbLinetypeTableRecord
  2
CENTERX2
 70
0
  3
Center (2x) ________  __  ________  __  _____
 72
65
 73
4
 40
101.5999999999999943
 49
63.5
 74
0
 49
-12.6999999999999993
 74
0
 49
12.6999999999999993
 74
0
 49
-12.6999999999999993
 74
0
  0
LTYPE
  5
3A
100
AcDbSymbolTableRecord
100
AcDbLinetypeTableRecord
  2
BORDER2
 70
0
  3
Border (.5x) __.__.__.__.__.__.__.__.__.__.__.
 72
65
 73
6
 40
22.2250000000000014
 49
6.3499999999999996
 74
0
 49
-3.1749999999999998
 74
0
 49
6.3499999999999996
 74
0
 49
-3.1749999999999998
 74
0
 49
0.0
 74
0
 49
-3.1749999999999998
 74
0
  0
LTYPE
  5
3B
100
AcDbSymbolTableRecord
100
AcDbLinetypeTableRecord
  2
BORDERX2
 70
0
  3
Border (2x) ____  ____  .  ____  ____  .  ___
 72
65
 73
6
 40
88.9000000000000057
 49
25.3999999999999986
 74
0
 49
-12.6999999999999993
 74
0
 49
25.3999999999999986
 74
0
 49
-12.6999999999999993
 74
0
 49
0.0
 74
0
 49
-12.6999999999999993
 74
0
  0
LTYPE
  5
14
100
AcDbSymbolTableRecord
100
AcDbLinetypeTableRecord
  2
BYBLOCK
 70
0
  3

 72
65
 73
0
 40
0.0
  0
LTYPE
  5
15
100
AcDbSymbolTableRecord
100
AcDbLinetypeTableRecord
  2
BYLAYER
 70
0
  3

 72
65
 73
0
 40
0.0
  0
LTYPE
  5
3C
100
AcDbSymbolTableRecord
100
AcDbLinetypeTableRecord
  2
DASHED2
 70
0
  3
Dashed (.5x) _ _ _ _ _ _ _ _ _ _ _ _ _ _ _ _ _
 72
65
 73
2
 40
9.5250000000000004
 49
6.3499999999999996
 74
0
 49
-3.1749999999999998
 74
0
  0
LTYPE
  5
3D
100
AcDbSymbolTableRecord
100
AcDbLinetypeTableRecord
  2
CENTER
 70
0
  3
Center ____ _ ____ _ ____ _ ____ _ ____ _ ____
 72
65
 73
4
 40
50.7999999999999972
 49
31.75
 74
0
 49
-6.3499999999999996
 74
0
 49
6.3499999999999996
 74
0
 49
-6.3499999999999996
 74
0
  0
LTYPE
  5
3E
100
AcDbSymbolTableRecord
100
AcDbLinetypeTableRecord
  2
DIVIDE2
 70
0
  3
Divide (.5x) __..__..__..__..__..__..__..__.._
 72
65
 73
6
 40
15.875
 49
6.3499999999999996
 74
0
 49
-3.1749999999999998
 74
0
 49
0.0
 74
0
 49
-3.1749999999999998
 74
0
 49
0.0
 74
0
 49
-3.1749999999999998
 74
0
  0
LTYPE
  5
3F
100
AcDbSymbolTableRecord
100
AcDbLinetypeTableRecord
  2
DASHED
 70
0
  3
Dashed __ __ __ __ __ __ __ __ __ __ __ __ __ _
 72
65
 73
2
 40
19.0500000000000007
 49
12.6999999999999993
 74
0
 49
-6.3499999999999996
 74
0
  0
LTYPE
  5
40
100
AcDbSymbolTableRecord
100
AcDbLinetypeTableRecord
  2
DOTX2
 70
0
  3
Dot (2x) .  .  .  .  .  .  .  .  .  .  .  .  .
 72
65
 73
2
 40
12.6999999999999993
 49
0.0
 74
0
 49
-12.6999999999999993
 74
0
  0
LTYPE
  5
41
100
AcDbSymbolTableRecord
100
AcDbLinetypeTableRecord
  2
DASHEDX2
 70
0
  3
Dashed (2x) ____  ____  ____  ____  ____  ___
 72
65
 73
2
 40
38.1000000000000014
 49
25.3999999999999986
 74
0
 49
-12.6999999999999993
 74
0
  0
LTYPE
  5
42
100
AcDbSymbolTableRecord
100
AcDbLinetypeTableRecord
  2
DOT
 70
0
  3
Dot . . . . . . . . . . . . . . . . . . . . . .
 72
65
 73
2
 40
6.3499999999999996
 49
0.0
 74
0
 49
-6.3499999999999996
 74
0
  0
ENDTAB
  0
TABLE
  2
LAYER
  5
2
100
AcDbSymbolTable
 70
1
  0
LAYER
  5
10
100
AcDbSymbolTableRecord
100
AcDbLayerTableRecord
  2
0
 70
0
 62
7
420
0
  6
CONTINUOUS
370
25
390
F
  0
ENDTAB
  0
TABLE
  2
STYLE
  5
3
100
AcDbSymbolTable
 70
1
  0
STYLE
  5
43
100
AcDbSymbolTableRecord
100
AcDbTextStyleTableRecord
  2
Standard
 70
0
 40
0.0
 41
1.0
 50
0.0
 71
0
 42
2.5
  3

  4

1001
ACAD
1000
txt
1071
0
  0
ENDTAB
  0
TABLE
  2
VIEW
  5
6
100
AcDbSymbolTable
 70
0
  0
ENDTAB
  0
TABLE
  2
UCS
  5
7
100
AcDbSymbolTable
 70
0
  0
ENDTAB
  0
TABLE
  2
APPID
  5
9
100
AcDbSymbolTable
 70
1
  0
APPID
  5
12
100
AcDbSymbolTableRecord
100
AcDbRegAppTableRecord
  2
ACAD
 70
0
  0
APPID
  5
44
100
AcDbSymbolTableRecord
100
AcDbRegAppTableRecord
  2
QCAD
 70
0
  0
ENDTAB
  0
TABLE
  2
DIMSTYLE
  5
A
100
AcDbSymbolTable
 70
1
100
AcDbDimStyleTable
 71
0
  0
DIMSTYLE
105
27
100
AcDbSymbolTableRecord
100
AcDbDimStyleTableRecord
  2
Standard
 41
2.5
 42
0.625
 43
3.75
 44
1.25
 70
0
 73
0
 74
0
 77
1
 78
8
140
2.5
141
2.5
143
0.03937007874016
147
0.625
171
3
172
1
271
2
272
2
274
3
278
44
283
0
284
8
340
43
  0
ENDTAB
  0
TABLE
  2
BLOCK_RECORD
  5
1
100
AcDbSymbolTable
 70
1
  0
BLOCK_RECORD
  5
1F
100
AcDbSymbolTableRecord
100
AcDbBlockTableRecord
  2
*Model_Space
340
22
  0
BLOCK_RECORD
  5
1B
100
AcDbSymbolTableRecord
100
AcDbBlockTableRecord
  2
*Paper_Space
340
1E
  0
BLOCK_RECORD
  5
23
100
AcDbSymbolTableRecord
100
AcDbBlockTableRecord
  2
*Paper_Space0
340
26
  0
ENDTAB
  0
ENDSEC
  0
SECTION
  2
BLOCKS
  0
BLOCK
  5
20
100
AcDbEntity
  8
0
100
AcDbBlockBegin
  2
*Model_Space
 70
0
 10
0.0
 20
0.0
 30
0.0
  3
*Model_Space
  1

  0
ENDBLK
  5
21
100
AcDbEntity
  8
0
100
AcDbBlockEnd
  0
BLOCK
  5
1C
100
AcDbEntity
 67
1
  8
0
100
AcDbBlockBegin
  2
*Paper_Space
 70
0
 10
0.0
 20
0.0
 30
0.0
  3
*Paper_Space
  1

  0
ENDBLK
  5
1D
100
AcDbEntity
 67
1
  8
0
100
AcDbBlockEnd
  0
BLOCK
  5
24
100
AcDbEntity
  8
0
100
AcDbBlockBegin
  2
*Paper_Space0
 70
0
 10
0.0
 20
0.0
 30
0.0
  3
*Paper_Space0
  1

  0
ENDBLK
  5
25
100
AcDbEntity
  8
0
100
AcDbBlockEnd
  0
ENDSEC
  0
SECTION
  2
ENTITIES
  0
ARC
  5
45
100
AcDbEntity
  8
0
 62
256
370
-1
  6
BYLAYER
100
AcDbCircle
 10
1.0
 20
98.2000000000000028
 30
0.0
 40
1.0
100
AcDbArc
 50
90.0
 51
180.0
  0
LINE
  5
46
100
AcDbEntity
100
AcDbLine
  8
0
 62
256
370
-1
  6
BYLAYER
 10
0.0
 20
98.2000000000000028
 30
0.0
 11
0.0
 21
45.0
 31
0.0
  0
ARC
  5
47
100
AcDbEntity
  8
0
 62
256
370
-1
  6
BYLAYER
100
AcDbCircle
 10
85.9999999999999858
 20
98.2000000000000028
 30
0.0
 40
1.0
100
AcDbArc
 50
360.0
 51
90.0
  0
LINE
  5
48
100
AcDbEntity
100
AcDbLine
  8
0
 62
256
370
-1
  6
BYLAYER
 10
85.9999999999999858
 20
99.2000000000000028
 30
0.0
 11
67.5
 21
99.2000000000000028
 31
0.0
  0
ARC
  5
49
100
AcDbEntity
  8
0
 62
256
370
-1
  6
BYLAYER
100
AcDbCircle
 10
85.9999999999999858
 20
45.0
 30
0.0
 40
1.0
100
AcDbArc
 50
270.0
 51
0.0
  0
LINE
  5
4A
100
AcDbEntity
100
AcDbLine
  8
0
 62
256
370
-1
  6
BYLAYER
 10
87.0
 20
45.0
 30
0.0
 11
87.0
 21
98.1999999999999886
 31
0.0
  0
ARC
  5
4B
100
AcDbEntity
  8
0
 62
256
370
-1
  6
BYLAYER
100
AcDbCircle
 10
1.0
 20
45.0
 30
0.0
 40
1.0
100
AcDbArc
 50
180.0
 51
270.0
  0
LINE
  5
4C
100
AcDbEntity
100
AcDbLine
  8
0
 62
256
370
-1
  6
BYLAYER
 10
1.0
 20
44.0
 30
0.0
 11
19.4999999999999964
 21
44.0
 31
0.0
  0
LINE
  5
4D
100
AcDbEntity
100
AcDbLine
  8
0
 62
256
370
-1
  6
BYLAYER
 10
67.5
 20
99.2000000000000028
 30
0.0
 11
67.5
 21
101.1999999999999886
 31
0.0
  0
LINE
  5
4E
100
AcDbEntity
100
AcDbLine
  8
0
 62
256
370
-1
  6
BYLAYER
 10
31.4999999999999929
 20
99.2000000000000028
 30
0.0
 11
31.4999999999999929
 21
101.2000000000000171
 31
0.0
  0
LINE
  5
4F
100
AcDbEntity
100
AcDbLine
  8
0
 62
256
370
-1
  6
BYLAYER
 10
19.4999999999999929
 20
44.0
 30
0.0
 11
19.4999999999999929
 21
42.0
 31
0.0
  0
LINE
  5
50
100
AcDbEntity
100
AcDbLine
  8
0
 62
256
370
-1
  6
BYLAYER
 10
55.4999999999999929
 20
44.0
 30
0.0
 11
55.4999999999999929
 21
42.0
 31
0.0
  0
LINE
  5
51
100
AcDbEntity
100
AcDbLine
  8
0
 62
256
370
-1
  6
BYLAYER
 10
19.4999999999999716
 20
99.2000000000000028
 30
0.0
 11
1.0
 21
99.2000000000000028
 31
0.0
  0
LINE
  5
52
100
AcDbEntity
100
AcDbLine
  8
0
 62
256
370
-1
  6
BYLAYER
 10
55.5
 20
99.2000000000000028
 30
0.0
 11
31.4999999999999787
 21
99.2000000000000028
 31
0.0
  0
LINE
  5
53
100
AcDbEntity
100
AcDbLine
  8
0
 62
256
370
-1
  6
BYLAYER
 10
31.4999999999999964
 20
44.0
 30
0.0
 11
55.5
 21
44.0
 31
0.0
  0
LINE
  5
54
100
AcDbEntity
100
AcDbLine
  8
0
 62
256
370
-1
  6
BYLAYER
 10
67.5
 20
44.0
 30
0.0
 11
85.9999999999999858
 21
44.0
 31
0.0
  0
ARC
  5
55
100
AcDbEntity
  8
0
 62
256
370
-1
  6
BYLAYER
100
AcDbCircle
 10
30.4999999999999858
 20
42.0
 30
0.0
 40
1.0
100
AcDbArc
 50
270.0
 51
0.0
  0
LINE
  5
56
100
AcDbEntity
100
AcDbLine
  8
0
 62
256
370
-1
  6
BYLAYER
 10
31.4999999999999929
 20
42.0
 30
0.0
 11
31.4999999999999929
 21
44.0
 31
0.0
  0
ARC
  5
57
100
AcDbEntity
  8
0
 62
256
370
-1
  6
BYLAYER
100
AcDbCircle
 10
56.4999999999999929
 20
42.0
 30
0.0
 40
1.0
100
AcDbArc
 50
180.0
 51
270.0
  0
ARC
  5
58
100
AcDbEntity
  8
0
 62
256
370
-1
  6
BYLAYER
100
AcDbCircle
 10
66.5
 20
42.0
 30
0.0
 40
1.0
100
AcDbArc
 50
270.0
 51
0.0
  0
LINE
  5
59
100
AcDbEntity
100
AcDbLine
  8
0
 62
256
370
-1
  6
BYLAYER
 10
56.4999999999999929
 20
41.0
 30
0.0
 11
66.5
 21
41.0
 31
0.0
  0
LINE
  5
5A
100
AcDbEntity
100
AcDbLine
  8
0
 62
256
370
-1
  6
BYLAYER
 10
67.5
 20
42.0
 30
0.0
 11
67.5
 21
44.0
 31
0.0
  0
ARC
  5
5B
100
AcDbEntity
  8
0
 62
256
370
-1
  6
BYLAYER
100
AcDbCircle
 10
20.4999999999999929
 20
101.2000000000000171
 30
0.0
 40
1.0
100
AcDbArc
 50
90.0
 51
180.0
  0
ARC
  5
5C
100
AcDbEntity
  8
0
 62
256
370
-1
  6
BYLAYER
100
AcDbCircle
 10
30.4999999999999858
 20
101.2000000000000171
 30
0.0
 40
1.0
100
AcDbArc
 50
0.0
 51
90.0
  0
LINE
  5
5D
100
AcDbEntity
100
AcDbLine
  8
0
 62
256
370
-1
  6
BYLAYER
 10
30.4999999999999858
 20
102.2000000000000028
 30
0.0
 11
20.4999999999999929
 21
102.2000000000000028
 31
0.0
  0
LINE
  5
5E
100
AcDbEntity
100
AcDbLine
  8
0
 62
256
370
-1
  6
BYLAYER
 10
19.4999999999999929
 20
101.2000000000000171
 30
0.0
 11
19.4999999999999929
 21
99.2000000000000028
 31
0.0
  0
ARC
  5
5F
100
AcDbEntity
  8
0
 62
256
370
-1
  6
BYLAYER
100
AcDbCircle
 10
56.4999999999999929
 20
101.1999999999999886
 30
0.0
 40
1.0
100
AcDbArc
 50
90.0
 51
180.0
  0
ARC
  5
60
100
AcDbEntity
  8
0
 62
256
370
-1
  6
BYLAYER
100
AcDbCircle
 10
66.5
 20
101.1999999999999886
 30
0.0
 40
1.0
100
AcDbArc
 50
0.0
 51
90.0
  0
LINE
  5
61
100
AcDbEntity
100
AcDbLine
  8
0
 62
256
370
-1
  6
BYLAYER
 10
66.5
 20
102.2000000000000028
 30
0.0
 11
56.4999999999999929
 21
102.2000000000000028
 31
0.0
  0
LINE
  5
62
100
AcDbEntity
100
AcDbLine
  8
0
 62
256
370
-1
  6
BYLAYER
 10
55.4999999999999929
 20
101.1999999999999886
 30
0.0
 11
55.4999999999999929
 21
99.2000000000000028
 31
0.0
  0
ARC
  5
63
100
AcDbEntity
  8
0
 62
256
370
-1
  6
BYLAYER
100
AcDbCircle
 10
20.4999999999999929
 20
42.0
 30
0.0
 40
1.0
100
AcDbArc
 50
180.0
 51
270.0
  0
LINE
  5
64
100
AcDbEntity
100
AcDbLine
  8
0
 62
256
370
-1
  6
BYLAYER
 10
20.4999999999999929
 20
41.0
 30
0.0
 11
30.4999999999999858
 21
41.0
 31
0.0
  0
LINE
  5
65
100
AcDbEntity
100
AcDbLine
  8
0
 62
256
370
-1
  6
BYLAYER
 10
176.0
 20
99.2000000000000028
 30
0.0
 11
157.5
 21
99.2000000000000028
 31
0.0
  0
ARC
  5
66
100
AcDbEntity
  8
0
 62
256
370
-1
  6
BYLAYER
100
AcDbCircle
 10
176.0
 20
45.0
 30
0.0
 40
1.0
100
AcDbArc
 50
270.0
 51
0.0
  0
LINE
  5
67
100
AcDbEntity
100
AcDbLine
  8
0
 62
256
370
-1
  6
BYLAYER
 10
177.0
 20
45.0
 30
0.0
 11
177.0
 21
98.1999999999999886
 31
0.0
  0
ARC
  5
68
100
AcDbEntity
  8
0
 62
256
370
-1
  6
BYLAYER
100
AcDbCircle
 10
120.4999999999999858
 20
42.0
 30
0.0
 40
1.0
100
AcDbArc
 50
270.0
 51
0.0
  0
ARC
  5
69
100
AcDbEntity
  8
0
 62
256
370
-1
  6
BYLAYER
100
AcDbCircle
 10
91.0
 20
45.0
 30
0.0
 40
1.0
100
AcDbArc
 50
180.0
 51
270.0
  0
LINE
  5
6A
100
AcDbEntity
100
AcDbLine
  8
0
 62
256
370
-1
  6
BYLAYER
 10
91.0
 20
44.0
 30
0.0
 11
109.5
 21
44.0
 31
0.0
  0
LINE
  5
6B
100
AcDbEntity
100
AcDbLine
  8
0
 62
256
370
-1
  6
BYLAYER
 10
121.5
 20
42.0
 30
0.0
 11
121.5
 21
44.0
 31
0.0
  0
ARC
  5
6C
100
AcDbEntity
  8
0
 62
256
370
-1
  6
BYLAYER
100
AcDbCircle
 10
146.5
 20
42.0
 30
0.0
 40
1.0
100
AcDbArc
 50
180.0
 51
270.0
  0
LINE
  5
6D
100
AcDbEntity
100
AcDbLine
  8
0
 62
256
370
-1
  6
BYLAYER
 10
157.5
 20
99.2000000000000028
 30
0.0
 11
157.5
 21
101.1999999999999886
 31
0.0
  0
ARC
  5
6E
100
AcDbEntity
  8
0
 62
256
370
-1
  6
BYLAYER
100
AcDbCircle
 10
156.5
 20
42.0
 30
0.0
 40
1.0
100
AcDbArc
 50
270.0
 51
0.0
  0
LINE
  5
6F
100
AcDbEntity
100
AcDbLine
  8
0
 62
256
370
-1
  6
BYLAYER
 10
146.5
 20
41.0
 30
0.0
 11
156.5
 21
41.0
 31
0.0
  0
LINE
  5
70
100
AcDbEntity
100
AcDbLine
  8
0
 62
256
370
-1
  6
BYLAYER
 10
121.5
 20
99.2000000000000028
 30
0.0
 11
121.5
 21
101.2000000000000171
 31
0.0
  0
LINE
  5
71
100
AcDbEntity
100
AcDbLine
  8
0
 62
256
370
-1
  6
BYLAYER
 10
157.5
 20
42.0
 30
0.0
 11
157.5
 21
44.0
 31
0.0
  0
ARC
  5
72
100
AcDbEntity
  8
0
 62
256
370
-1
  6
BYLAYER
100
AcDbCircle
 10
110.5
 20
101.2000000000000171
 30
0.0
 40
1.0
100
AcDbArc
 50
90.0
 51
180.0
  0
ARC
  5
73
100
AcDbEntity
  8
0
 62
256
370
-1
  6
BYLAYER
100
AcDbCircle
 10
120.4999999999999858
 20
101.2000000000000171
 30
0.0
 40
1.0
100
AcDbArc
 50
0.0
 51
90.0
  0
LINE
  5
74
100
AcDbEntity
100
AcDbLine
  8
0
 62
256
370
-1
  6
BYLAYER
 10
109.5
 20
44.0
 30
0.0
 11
109.5
 21
42.0
 31
0.0
  0
LINE
  5
75
100
AcDbEntity
100
AcDbLine
  8
0
 62
256
370
-1
  6
BYLAYER
 10
120.4999999999999858
 20
102.2000000000000028
 30
0.0
 11
110.5
 21
102.2000000000000028
 31
0.0
  0
LINE
  5
76
100
AcDbEntity
100
AcDbLine
  8
0
 62
256
370
-1
  6
BYLAYER
 10
109.5
 20
101.2000000000000171
 30
0.0
 11
109.5
 21
99.2000000000000028
 31
0.0
  0
LINE
  5
77
100
AcDbEntity
100
AcDbLine
  8
0
 62
256
370
-1
  6
BYLAYER
 10
145.5
 20
44.0
 30
0.0
 11
145.5
 21
42.0
 31
0.0
  0
LINE
  5
78
100
AcDbEntity
100
AcDbLine
  8
0
 62
256
370
-1
  6
BYLAYER
 10
109.4999999999999716
 20
99.2000000000000028
 30
0.0
 11
91.0
 21
99.2000000000000028
 31
0.0
  0
ARC
  5
79
100
AcDbEntity
  8
0
 62
256
370
-1
  6
BYLAYER
100
AcDbCircle
 10
146.5
 20
101.1999999999999886
 30
0.0
 40
1.0
100
AcDbArc
 50
90.0
 51
180.0
  0
LINE
  5
7A
100
AcDbEntity
100
AcDbLine
  8
0
 62
256
370
-1
  6
BYLAYER
 10
145.5
 20
99.2000000000000028
 30
0.0
 11
121.4999999999999716
 21
99.2000000000000028
 31
0.0
  0
ARC
  5
7B
100
AcDbEntity
  8
0
 62
256
370
-1
  6
BYLAYER
100
AcDbCircle
 10
156.5
 20
101.1999999999999886
 30
0.0
 40
1.0
100
AcDbArc
 50
0.0
 51
90.0
  0
LINE
  5
7C
100
AcDbEntity
100
AcDbLine
  8
0
 62
256
370
-1
  6
BYLAYER
 10
121.5
 20
44.0
 30
0.0
 11
145.5
 21
44.0
 31
0.0
  0
LINE
  5
7D
100
AcDbEntity
100
AcDbLine
  8
0
 62
256
370
-1
  6
BYLAYER
 10
156.5
 20
102.2000000000000028
 30
0.0
 11
146.5
 21
102.2000000000000028
 31
0.0
  0
ARC
  5
7E
100
AcDbEntity
  8
0
 62
256
370
-1
  6
BYLAYER
100
AcDbCircle
 10
91.0
 20
98.2000000000000028
 30
0.0
 40
1.0
100
AcDbArc
 50
90.0
 51
180.0
  0
LINE
  5
7F
100
AcDbEntity
100
AcDbLine
  8
0
 62
256
370
-1
  6
BYLAYER
 10
145.5
 20
101.1999999999999886
 30
0.0
 11
145.5
 21
99.2000000000000028
 31
0.0
  0
LINE
  5
80
100
AcDbEntity
100
AcDbLine
  8
0
 62
256
370
-1
  6
BYLAYER
 10
157.5
 20
44.0
 30
0.0
 11
176.0
 21
44.0
 31
0.0
  0
ARC
  5
81
100
AcDbEntity
  8
0
 62
256
370
-1
  6
BYLAYER
100
AcDbCircle
 10
110.5
 20
42.0
 30
0.0
 40
1.0
100
AcDbArc
 50
180.0
 51
270.0
  0
LINE
  5
82
100
AcDbEntity
100
AcDbLine
  8
0
 62
256
370
-1
  6
BYLAYER
 10
90.0
 20
98.2000000000000028
 30
0.0
 11
90.0
 21
45.0
 31
0.0
  0
LINE
  5
83
100
AcDbEntity
100
AcDbLine
  8
0
 62
256
370
-1
  6
BYLAYER
 10
110.5
 20
41.0
 30
0.0
 11
120.4999999999999858
 21
41.0
 31
0.0
  0
ARC
  5
84
100
AcDbEntity
  8
0
 62
256
370
-1
  6
BYLAYER
100
AcDbCircle
 10
176.0
 20
98.2000000000000028
 30
0.0
 40
1.0
100
AcDbArc
 50
360.0
 51
90.0
  0
LINE
  5
85
100
AcDbEntity
100
AcDbLine
  8
0
 62
256
370
-1
  6
BYLAYER
 10
3.0
 20
107.2000000000000028
 30
0.0
 11
6.0
 21
107.2000000000000028
 31
0.0
  0
LINE
  5
86
100
AcDbEntity
100
AcDbLine
  8
0
 62
256
370
-1
  6
BYLAYER
 10
6.0
 20
107.2000000000000028
 30
0.0
 11
6.0
 21
116.2000000000000028
 31
0.0
  0
LINE
  5
87
100
AcDbEntity
100
AcDbLine
  8
0
 62
256
370
-1
  6
BYLAYER
 10
6.0
 20
116.2000000000000028
 30
0.0
 11
3.0
 21
116.2000000000000028
 31
0.0
  0
LINE
  5
88
100
AcDbEntity
100
AcDbLine
  8
0
 62
256
370
-1
  6
BYLAYER
 10
3.0
 20
116.2000000000000028
 30
0.0
 11
3.0
 21
107.2000000000000028
 31
0.0
  0
LINE
  5
89
100
AcDbEntity
100
AcDbLine
  8
0
 62
256
370
-1
  6
BYLAYER
 10
3.0
 20
132.1999999999999886
 30
0.0
 11
6.0
 21
132.1999999999999886
 31
0.0
  0
LINE
  5
8A
100
AcDbEntity
100
AcDbLine
  8
0
 62
256
370
-1
  6
BYLAYER
 10
6.0
 20
132.1999999999999886
 30
0.0
 11
6.0
 21
140.1999999999999886
 31
0.0
  0
LINE
  5
8B
100
AcDbEntity
100
AcDbLine
  8
0
 62
256
370
-1
  6
BYLAYER
 10
6.0
 20
140.1999999999999886
 30
0.0
 11
3.0
 21
140.1999999999999886
 31
0.0
  0
LINE
  5
8C
100
AcDbEntity
100
AcDbLine
  8
0
 62
256
370
-1
  6
BYLAYER
 10
3.0
 20
140.1999999999999886
 30
0.0
 11
3.0
 21
132.1999999999999886
 31
0.0
  0
LINE
  5
8D
100
AcDbEntity
100
AcDbLine
  8
0
 62
256
370
-1
  6
BYLAYER
 10
61.2000000000000028
 20
107.2000000000000028
 30
0.0
 11
64.2000000000000028
 21
107.2000000000000028
 31
0.0
  0
LINE
  5
8E
100
AcDbEntity
100
AcDbLine
  8
0
 62
256
370
-1
  6
BYLAYER
 10
64.2000000000000028
 20
107.2000000000000028
 30
0.0
 11
64.2000000000000028
 21
116.2000000000000028
 31
0.0
  0
LINE
  5
8F
100
AcDbEntity
100
AcDbLine
  8
0
 62
256
370
-1
  6
BYLAYER
 10
64.2000000000000028
 20
116.2000000000000028
 30
0.0
 11
61.2000000000000028
 21
116.2000000000000028
 31
0.0
  0
LINE
  5
90
100
AcDbEntity
100
AcDbLine
  8
0
 62
256
370
-1
  6
BYLAYER
 10
61.2000000000000028
 20
116.2000000000000028
 30
0.0
 11
61.2000000000000028
 21
107.2000000000000028
 31
0.0
  0
LINE
  5
91
100
AcDbEntity
100
AcDbLine
  8
0
 62
256
370
-1
  6
BYLAYER
 10
61.2000000000000028
 20
132.1999999999999886
 30
0.0
 11
64.2000000000000028
 21
132.1999999999999886
 31
0.0
  0
LINE
  5
92
100
AcDbEntity
100
AcDbLine
  8
0
 62
256
370
-1
  6
BYLAYER
 10
64.2000000000000028
 20
132.1999999999999886
 30
0.0
 11
64.2000000000000028
 21
140.1999999999999886
 31
0.0
  0
LINE
  5
93
100
AcDbEntity
100
AcDbLine
  8
0
 62
256
370
-1
  6
BYLAYER
 10
64.2000000000000028
 20
140.1999999999999886
 30
0.0
 11
61.2000000000000028
 21
140.1999999999999886
 31
0.0
  0
LINE
  5
94
100
AcDbEntity
100
AcDbLine
  8
0
 62
256
370
-1
  6
BYLAYER
 10
61.2000000000000028
 20
140.1999999999999886
 30
0.0
 11
61.2000000000000028
 21
132.1999999999999886
 31
0.0
  0
ARC
  5
95
100
AcDbEntity
  8
0
 62
256
370
-1
  6
BYLAYER
100
AcDbCircle
 10
65.2000000000000028
 20
106.2000000000000171
 30
0.0
 40
2.0
100
AcDbArc
 50
270.0
 51
0.0
  0
ARC
  5
96
100
AcDbEntity
  8
0
 62
256
370
-1
  6
BYLAYER
100
AcDbCircle
 10
65.2000000000000028
 20
141.1999999999999886
 30
0.0
 40
2.0
100
AcDbArc
 50
0.0
 51
90.0
  0
ARC
  5
97
100
AcDbEntity
  8
0
 62
256
370
-1
  6
BYLAYER
100
AcDbCircle
 10
2.0
 20
141.1999999999999886
 30
0.0
 40
2.0
100
AcDbArc
 50
90.0
 51
180.0
  0
ARC
  5
98
100
AcDbEntity
  8
0
 62
256
370
-1
  6
BYLAYER
100
AcDbCircle
 10
2.0
 20
106.2000000000000171
 30
0.0
 40
2.0
100
AcDbArc
 50
180.0
 51
270.0
  0
LINE
  5
99
100
AcDbEntity
100
AcDbLine
  8
0
 62
256
370
-1
  6
BYLAYER
 10
0.0
 20
141.1999999999999886
 30
0.0
 11
0.0
 21
106.2000000000000171
 31
0.0
  0
LINE
  5
9A
100
AcDbEntity
100
AcDbLine
  8
0
 62
256
370
-1
  6
BYLAYER
 10
2.0
 20
104.2000000000000028
 30
0.0
 11
65.2000000000000171
 21
104.2000000000000028
 31
0.0
  0
LINE
  5
9B
100
AcDbEntity
100
AcDbLine
  8
0
 62
256
370
-1
  6
BYLAYER
 10
67.2000000000000028
 20
106.2000000000000171
 30
0.0
 11
67.2000000000000028
 21
141.1999999999999886
 31
0.0
  0
LINE
  5
9C
100
AcDbEntity
100
AcDbLine
  8
0
 62
256
370
-1
  6
BYLAYER
 10
65.2000000000000028
 20
143.1999999999999886
 30
0.0
 11
2.0
 21
143.1999999999999886
 31
0.0
  0
LINE
  5
9D
100
AcDbEntity
100
AcDbLine
  8
0
 62
256
370
-1
  6
BYLAYER
 10
139.5
 20
107.2000000000000028
 30
0.0
 11
151.5
 21
107.2000000000000028
 31
0.0
  0
LINE
  5
9E
100
AcDbEntity
100
AcDbLine
  8
0
 62
256
370
-1
  6
BYLAYER
 10
151.5
 20
107.2000000000000028
 30
0.0
 11
151.5
 21
110.2000000000000028
 31
0.0
  0
LINE
  5
9F
100
AcDbEntity
100
AcDbLine
  8
0
 62
256
370
-1
  6
BYLAYER
 10
151.5
 20
110.2000000000000028
 30
0.0
 11
139.5
 21
110.2000000000000028
 31
0.0
  0
LINE
  5
A0
100
AcDbEntity
100
AcDbLine
  8
0
 62
256
370
-1
  6
BYLAYER
 10
139.5
 20
110.2000000000000028
 30
0.0
 11
139.5
 21
107.2000000000000028
 31
0.0
  0
LINE
  5
A1
100
AcDbEntity
100
AcDbLine
  8
0
 62
256
370
-1
  6
BYLAYER
 10
103.5
 20
107.2000000000000028
 30
0.0
 11
115.5
 21
107.2000000000000028
 31
0.0
  0
LINE
  5
A2
100
AcDbEntity
100
AcDbLine
  8
0
 62
256
370
-1
  6
BYLAYER
 10
115.5
 20
107.2000000000000028
 30
0.0
 11
115.5
 21
110.2000000000000028
 31
0.0
  0
LINE
  5
A3
100
AcDbEntity
100
AcDbLine
  8
0
 62
256
370
-1
  6
BYLAYER
 10
115.5
 20
110.2000000000000028
 30
0.0
 11
103.5
 21
110.2000000000000028
 31
0.0
  0
LINE
  5
A4
100
AcDbEntity
100
AcDbLine
  8
0
 62
256
370
-1
  6
BYLAYER
 10
103.5
 20
110.2000000000000028
 30
0.0
 11
103.5
 21
107.2000000000000028
 31
0.0
  0
LINE
  5
A5
100
AcDbEntity
100
AcDbLine
  8
0
 62
256
370
-1
  6
BYLAYER
 10
139.5
 20
137.1999999999999886
 30
0.0
 11
151.5
 21
137.1999999999999886
 31
0.0
  0
LINE
  5
A6
100
AcDbEntity
100
AcDbLine
  8
0
 62
256
370
-1
  6
BYLAYER
 10
151.5
 20
137.1999999999999886
 30
0.0
 11
151.5
 21
140.1999999999999886
 31
0.0
  0
LINE
  5
A7
100
AcDbEntity
100
AcDbLine
  8
0
 62
256
370
-1
  6
BYLAYER
 10
151.5
 20
140.1999999999999886
 30
0.0
 11
139.5
 21
140.1999999999999886
 31
0.0
  0
LINE
  5
A8
100
AcDbEntity
100
AcDbLine
  8
0
 62
256
370
-1
  6
BYLAYER
 10
139.5
 20
140.1999999999999886
 30
0.0
 11
139.5
 21
137.1999999999999886
 31
0.0
  0
LINE
  5
A9
100
AcDbEntity
100
AcDbLine
  8
0
 62
256
370
-1
  6
BYLAYER
 10
103.5
 20
137.1999999999999886
 30
0.0
 11
115.5
 21
137.1999999999999886
 31
0.0
  0
LINE
  5
AA
100
AcDbEntity
100
AcDbLine
  8
0
 62
256
370
-1
  6
BYLAYER
 10
115.5
 20
137.1999999999999886
 30
0.0
 11
115.5
 21
140.1999999999999886
 31
0.0
  0
LINE
  5
AB
100
AcDbEntity
100
AcDbLine
  8
0
 62
256
370
-1
  6
BYLAYER
 10
115.5
 20
140.1999999999999886
 30
0.0
 11
103.5
 21
140.1999999999999886
 31
0.0
  0
LINE
  5
AC
100
AcDbEntity
100
AcDbLine
  8
0
 62
256
370
-1
  6
BYLAYER
 10
103.5
 20
140.1999999999999886
 30
0.0
 11
103.5
 21
137.1999999999999886
 31
0.0
  0
LINE
  5
AD
100
AcDbEntity
100
AcDbLine
  8
0
 62
256
370
-1
  6
BYLAYER
 10
171.0
 20
104.2000000000000028
 30
0.0
 11
171.0
 21
107.2000000000000028
 31
0.0
  0
LINE
  5
AE
100
AcDbEntity
100
AcDbLine
  8
0
 62
256
370
-1
  6
BYLAYER
 10
171.0
 20
107.2000000000000028
 30
0.0
 11
174.0
 21
107.2000000000000028
 31
0.0
  0
LINE
  5
AF
100
AcDbEntity
100
AcDbLine
  8
0
 62
256
370
-1
  6
BYLAYER
 10
171.0
 20
115.2000000000000028
 30
0.0
 11
174.0
 21
115.2000000000000028
 31
0.0
  0
LINE
  5
B0
100
AcDbEntity
100
AcDbLine
  8
0
 62
256
370
-1
  6
BYLAYER
 10
171.0
 20
140.1999999999999886
 30
0.0
 11
174.0
 21
140.1999999999999886
 31
0.0
  0
LINE
  5
B1
100
AcDbEntity
100
AcDbLine
  8
0
 62
256
370
-1
  6
BYLAYER
 10
171.0
 20
132.1999999999999886
 30
0.0
 11
174.0
 21
132.1999999999999886
 31
0.0
  0
LINE
  5
B2
100
AcDbEntity
100
AcDbLine
  8
0
 62
256
370
-1
  6
BYLAYER
 10
81.0
 20
107.2000000000000028
 30
0.0
 11
81.0
 21
107.2000000000000028
 31
0.0
  0
LINE
  5
B3
100
AcDbEntity
100
AcDbLine
  8
0
 62
256
370
-1
  6
BYLAYER
 10
174.0
 20
115.2000000000000028
 30
0.0
 11
174.0
 21
115.2000000000000028
 31
0.0
  0
LINE
  5
B4
100
AcDbEntity
100
AcDbLine
  8
0
 62
256
370
-1
  6
BYLAYER
 10
81.0
 20
107.2000000000000028
 30
0.0
 11
81.0
 21
105.7000000000000028
 31
0.0
  0
LINE
  5
B5
100
AcDbEntity
100
AcDbLine
  8
0
 62
256
370
-1
  6
BYLAYER
 10
81.0
 20
107.2000000000000028
 30
0.0
 11
84.0
 21
107.2000000000000028
 31
0.0
  0
ARC
  5
B6
100
AcDbEntity
  8
0
 62
256
370
-1
  6
BYLAYER
100
AcDbCircle
 10
81.0
 20
108.7000000000000028
 30
0.0
 40
3.0
100
AcDbArc
 50
180.0
 51
270.0
  0
ARC
  5
B7
100
AcDbEntity
  8
0
 62
256
370
-1
  6
BYLAYER
100
AcDbCircle
 10
85.0
 20
105.2000000000000028
 30
0.0
 40
1.0
100
AcDbArc
 50
180.0
 51
270.0
  0
LINE
  5
B8
100
AcDbEntity
100
AcDbLine
  8
0
 62
256
370
-1
  6
BYLAYER
 10
85.0
 20
104.2000000000000028
 30
0.0
 11
171.0
 21
104.2000000000000028
 31
0.0
  0
LINE
  5
B9
100
AcDbEntity
100
AcDbLine
  8
0
 62
256
370
-1
  6
BYLAYER
 10
84.0
 20
105.2000000000000028
 30
0.0
 11
84.0
 21
107.2000000000000028
 31
0.0
  0
LINE
  5
BA
100
AcDbEntity
100
AcDbLine
  8
0
 62
256
370
-1
  6
BYLAYER
 10
84.0
 20
115.2000000000000028
 30
0.0
 11
84.0
 21
132.1999999999999886
 31
0.0
  0
ARC
  5
BB
100
AcDbEntity
  8
0
 62
256
370
-1
  6
BYLAYER
100
AcDbCircle
 10
81.0
 20
112.2000000000000028
 30
0.0
 40
3.0
100
AcDbArc
 50
90.0
 51
180.0
  0
LINE
  5
BC
100
AcDbEntity
100
AcDbLine
  8
0
 62
256
370
-1
  6
BYLAYER
 10
78.0
 20
112.2000000000000028
 30
0.0
 11
78.0
 21
108.7000000000000028
 31
0.0
  0
LINE
  5
BD
100
AcDbEntity
100
AcDbLine
  8
0
 62
256
370
-1
  6
BYLAYER
 10
81.0
 20
115.2000000000000028
 30
0.0
 11
84.0
 21
115.2000000000000028
 31
0.0
  0
LINE
  5
BE
100
AcDbEntity
100
AcDbLine
  8
0
 62
256
370
-1
  6
BYLAYER
 10
174.0
 20
107.2000000000000028
 30
0.0
 11
174.0
 21
105.7000000000000028
 31
0.0
  0
LINE
  5
BF
100
AcDbEntity
100
AcDbLine
  8
0
 62
256
370
-1
  6
BYLAYER
 10
174.0
 20
107.2000000000000028
 30
0.0
 11
174.0
 21
107.2000000000000028
 31
0.0
  0
ARC
  5
C0
100
AcDbEntity
  8
0
 62
256
370
-1
  6
BYLAYER
100
AcDbCircle
 10
174.0
 20
108.7000000000000028
 30
0.0
 40
3.0
100
AcDbArc
 50
270.0
 51
0.0
  0
ARC
  5
C1
100
AcDbEntity
  8
0
 62
256
370
-1
  6
BYLAYER
100
AcDbCircle
 10
174.0
 20
112.2000000000000028
 30
0.0
 40
3.0
100
AcDbArc
 50
0.0
 51
90.0
  0
LINE
  5
C2
100
AcDbEntity
100
AcDbLine
  8
0
 62
256
370
-1
  6
BYLAYER
 10
177.0
 20
108.7000000000000028
 30
0.0
 11
177.0
 21
112.2000000000000028
 31
0.0
  0
LINE
  5
C3
100
AcDbEntity
100
AcDbLine
  8
0
 62
256
370
-1
  6
BYLAYER
 10
171.0
 20
115.2000000000000028
 30
0.0
 11
171.0
 21
132.1999999999999886
 31
0.0
  0
LINE
  5
C4
100
AcDbEntity
100
AcDbLine
  8
0
 62
256
370
-1
  6
BYLAYER
 10
81.0
 20
140.1999999999999886
 30
0.0
 11
81.0
 21
141.6999999999999886
 31
0.0
  0
ARC
  5
C5
100
AcDbEntity
  8
0
 62
256
370
-1
  6
BYLAYER
100
AcDbCircle
 10
81.0
 20
135.1999999999999886
 30
0.0
 40
3.0
100
AcDbArc
 50
180.0
 51
270.0
  0
ARC
  5
C6
100
AcDbEntity
  8
0
 62
256
370
-1
  6
BYLAYER
100
AcDbCircle
 10
81.0
 20
138.6999999999999886
 30
0.0
 40
3.0
100
AcDbArc
 50
90.0
 51
180.0
  0
LINE
  5
C7
100
AcDbEntity
100
AcDbLine
  8
0
 62
256
370
-1
  6
BYLAYER
 10
81.0
 20
140.1999999999999886
 30
0.0
 11
84.0
 21
140.1999999999999886
 31
0.0
  0
LINE
  5
C8
100
AcDbEntity
100
AcDbLine
  8
0
 62
256
370
-1
  6
BYLAYER
 10
78.0
 20
138.6999999999999886
 30
0.0
 11
78.0
 21
137.6999999999999886
 31
0.0
  0
LINE
  5
C9
100
AcDbEntity
100
AcDbLine
  8
0
 62
256
370
-1
  6
BYLAYER
 10
81.0
 20
132.1999999999999886
 30
0.0
 11
84.0
 21
132.1999999999999886
 31
0.0
  0
LINE
  5
CA
100
AcDbEntity
100
AcDbLine
  8
0
 62
256
370
-1
  6
BYLAYER
 10
84.0
 20
143.1999999999999886
 30
0.0
 11
84.0
 21
143.1999999999999886
 31
0.0
  0
LINE
  5
CB
100
AcDbEntity
100
AcDbLine
  8
0
 62
256
370
-1
  6
BYLAYER
 10
84.0
 20
140.1999999999999886
 30
0.0
 11
84.0
 21
142.1999999999999886
 31
0.0
  0
LINE
  5
CC
100
AcDbEntity
100
AcDbLine
  8
0
 62
256
370
-1
  6
BYLAYER
 10
78.0
 20
136.1999999999999886
 30
0.0
 11
84.0
 21
136.1999999999999886
 31
0.0
  0
LINE
  5
CD
100
AcDbEntity
100
AcDbLine
  8
0
 62
256
370
-1
  6
BYLAYER
 10
78.0
 20
137.6999999999999886
 30
0.0
 11
84.0
 21
137.6999999999999886
 31
0.0
  0
ARC
  5
CE
100
AcDbEntity
  8
0
 62
256
370
-1
  6
BYLAYER
100
AcDbCircle
 10
80.6608520738189725
 20
186.0883763127953898
 30
0.0
 40
50.0
100
AcDbArc
 50
273.829231644164679
 51
283.4020647241630968
  0
ARC
  5
CF
100
AcDbEntity
  8
0
 62
256
370
-1
  6
BYLAYER
100
AcDbCircle
 10
80.6608520738188162
 20
187.588376312795333
 30
0.0
 40
50.0
100
AcDbArc
 50
273.82923164416502
 51
283.4020647241631536
  0
ARC
  5
D0
100
AcDbEntity
  8
0
 62
256
370
-1
  6
BYLAYER
100
AcDbCircle
 10
103.5271649031925705
 20
88.7383427530308495
 30
0.0
 40
50.0
100
AcDbArc
 50
94.1964839032308419
 51
103.0348280905873253
  0
ARC
  5
D1
100
AcDbEntity
  8
0
 62
256
370
-1
  6
BYLAYER
100
AcDbCircle
 10
103.4185492617720996
 20
90.2133248221899322
 30
0.0
 40
50.0
100
AcDbArc
 50
94.1979042630765946
 51
102.9071047091694595
  0
LINE
  5
D2
100
AcDbEntity
100
AcDbLine
  8
0
 62
256
370
-1
  6
BYLAYER
 10
78.0
 20
136.1999999999999886
 30
0.0
 11
78.0
 21
135.1999999999999886
 31
0.0
  0
ARC
  5
D3
100
AcDbEntity
  8
0
 62
256
370
-1
  6
BYLAYER
100
AcDbCircle
 10
99.7584633718314109
 20
139.3376459654289761
 30
0.0
 40
0.7415366281685868
100
AcDbArc
 50
269.9999999997606324
 51
98.5220807801184293
  0
ARC
  5
D4
100
AcDbEntity
  8
0
 62
256
370
-1
  6
BYLAYER
100
AcDbCircle
 10
85.0
 20
142.1999999999999886
 30
0.0
 40
1.0
100
AcDbArc
 50
90.0
 51
180.0
  0
LINE
  5
D5
100
AcDbEntity
100
AcDbLine
  8
0
 62
256
370
-1
  6
BYLAYER
 10
174.0
 20
140.1999999999999886
 30
0.0
 11
174.0
 21
140.1999999999999886
 31
0.0
  0
ARC
  5
D6
100
AcDbEntity
  8
0
 62
256
370
-1
  6
BYLAYER
100
AcDbCircle
 10
174.0
 20
135.1999999999999886
 30
0.0
 40
3.0
100
AcDbArc
 50
270.0
 51
0.0
  0
ARC
  5
D7
100
AcDbEntity
  8
0
 62
256
370
-1
  6
BYLAYER
100
AcDbCircle
 10
174.0
 20
138.6999999999999886
 30
0.0
 40
3.0
100
AcDbArc
 50
0.0
 51
90.0
  0
LINE
  5
D8
100
AcDbEntity
100
AcDbLine
  8
0
 62
256
370
-1
  6
BYLAYER
 10
177.0
 20
135.1999999999999886
 30
0.0
 11
177.0
 21
136.1999999999999886
 31
0.0
  0
LINE
  5
D9
100
AcDbEntity
100
AcDbLine
  8
0
 62
256
370
-1
  6
BYLAYER
 10
174.0
 20
140.1999999999999886
 30
0.0
 11
174.0
 21
141.6999999999999886
 31
0.0
  0
LINE
  5
DA
100
AcDbEntity
100
AcDbLine
  8
0
 62
256
370
-1
  6
BYLAYER
 10
171.0
 20
143.1999999999999886
 30
0.0
 11
85.0
 21
143.1999999999999886
 31
0.0
  0
LINE
  5
DB
100
AcDbEntity
100
AcDbLine
  8
0
 62
256
370
-1
  6
BYLAYER
 10
171.0
 20
140.1999999999999886
 30
0.0
 11
171.0
 21
143.1999999999999886
 31
0.0
  0
LINE
  5
DC
100
AcDbEntity
100
AcDbLine
  8
0
 62
256
370
-1
  6
BYLAYER
 10
171.0
 20
136.1999999999999886
 30
0.0
 11
177.0
 21
136.1999999999999886
 31
0.0
  0
LINE
  5
DD
100
AcDbEntity
100
AcDbLine
  8
0
 62
256
370
-1
  6
BYLAYER
 10
171.0
 20
137.6999999999999886
 30
0.0
 11
177.0
 21
137.6999999999999886
 31
0.0
  0
ARC
  5
DE
100
AcDbEntity
  8
0
 62
256
370
-1
  6
BYLAYER
100
AcDbCircle
 10
151.4722318637595322
 20
88.7384824105715069
 30
0.0
 40
50.0
100
AcDbArc
 50
76.9644623717125427
 51
85.8042412599590705
  0
ARC
  5
DF
100
AcDbEntity
  8
0
 62
256
370
-1
  6
BYLAYER
100
AcDbCircle
 10
151.5820361459785204
 20
90.2131906732163174
 30
0.0
 40
50.0
100
AcDbArc
 50
77.0935835065760671
 51
85.6751201250956171
  0
ARC
  5
E0
100
AcDbEntity
  8
0
 62
256
370
-1
  6
BYLAYER
100
AcDbCircle
 10
174.3391479261810559
 20
186.088376312795333
 30
0.0
 40
50.0
100
AcDbArc
 50
256.5979352758365621
 51
266.1707683558351505
  0
ARC
  5
E1
100
AcDbEntity
  8
0
 62
256
370
-1
  6
BYLAYER
100
AcDbCircle
 10
174.3391479261810559
 20
187.588376312795333
 30
0.0
 40
50.0
100
AcDbArc
 50
256.5979352758365621
 51
266.1707683558347526
  0
ARC
  5
E2
100
AcDbEntity
  8
0
 62
256
370
-1
  6
BYLAYER
100
AcDbCircle
 10
155.2415366281685749
 20
139.3376459654289761
 30
0.0
 40
0.7415366281685447
100
AcDbArc
 50
81.3843518154982917
 51
270.095068741578757
  0
LINE
  5
E3
100
AcDbEntity
100
AcDbLine
  8
0
 62
256
370
-1
  6
BYLAYER
 10
177.0
 20
137.6999999999999886
 30
0.0
 11
177.0
 21
138.6999999999999886
 31
0.0
  0
LINE
  5
E4
100
AcDbEntity
100
AcDbLine
  8
0
 62
256
370
-1
  6
BYLAYER
 10
3.0000000000000142
 20
36.0000000000000782
 30
0.0
 11
3.0000000000000142
 21
36.0000000000000782
 31
0.0
  0
ARC
  5
E5
100
AcDbEntity
  8
0
 62
256
370
-1
  6
BYLAYER
100
AcDbCircle
 10
3.0000000000000142
 20
34.5000000000001208
 30
0.0
 40
3.0
100
AcDbArc
 50
90.0
 51
180.0
  0
ARC
  5
E6
100
AcDbEntity
  8
0
 62
256
370
-1
  6
BYLAYER
100
AcDbCircle
 10
3.0
 20
30.999999999999968
 30
0.0
 40
3.0
100
AcDbArc
 50
180.0
 51
270.0
  0
LINE
  5
E7
100
AcDbEntity
100
AcDbLine
  8
0
 62
256
370
-1
  6
BYLAYER
 10
0.0
 20
34.5000000000000213
 30
0.0
 11
-0.0000000000000142
 21
30.9999999999999076
 31
0.0
  0
LINE
  5
E8
100
AcDbEntity
100
AcDbLine
  8
0
 62
256
370
-1
  6
BYLAYER
 10
6.0
 20
28.0000000000000213
 30
0.0
 11
6.0
 21
11.0000000000000639
 31
0.0
  0
LINE
  5
E9
100
AcDbEntity
100
AcDbLine
  8
0
 62
256
370
-1
  6
BYLAYER
 10
174.0
 20
35.9999999999999432
 30
0.0
 11
171.0
 21
35.9999999999999432
 31
0.0
  0
LINE
  5
EA
100
AcDbEntity
100
AcDbLine
  8
0
 62
256
370
-1
  6
BYLAYER
 10
96.0
 20
3.0
 30
0.0
 11
96.0
 21
1.5
 31
0.0
  0
LINE
  5
EB
100
AcDbEntity
100
AcDbLine
  8
0
 62
256
370
-1
  6
BYLAYER
 10
171.0
 20
35.9999999999999432
 30
0.0
 11
171.0
 21
27.0000000000000355
 31
0.0
  0
LINE
  5
EC
100
AcDbEntity
100
AcDbLine
  8
0
 62
256
370
-1
  6
BYLAYER
 10
171.0
 20
27.0000000000000355
 30
0.0
 11
174.0
 21
26.9999999999999254
 31
0.0
  0
LINE
  5
ED
100
AcDbEntity
100
AcDbLine
  8
0
 62
256
370
-1
  6
BYLAYER
 10
174.0
 20
26.9999999999999254
 30
0.0
 11
174.0
 21
35.9999999999999432
 31
0.0
  0
LINE
  5
EE
100
AcDbEntity
100
AcDbLine
  8
0
 62
256
370
-1
  6
BYLAYER
 10
174.0
 20
11.0000000000000853
 30
0.0
 11
171.0
 21
11.0000000000000568
 31
0.0
  0
ARC
  5
EF
100
AcDbEntity
  8
0
 62
256
370
-1
  6
BYLAYER
100
AcDbCircle
 10
96.0
 20
8.0
 30
0.0
 40
3.0
100
AcDbArc
 50
0.0
 51
90.0
  0
LINE
  5
F0
100
AcDbEntity
100
AcDbLine
  8
0
 62
256
370
-1
  6
BYLAYER
 10
171.0
 20
11.0000000000000568
 30
0.0
 11
171.0
 21
3.0000000000000142
 31
0.0
  0
LINE
  5
F1
100
AcDbEntity
100
AcDbLine
  8
0
 62
256
370
-1
  6
BYLAYER
 10
171.0
 20
3.0000000000000142
 30
0.0
 11
174.0
 21
3.0000000000000142
 31
0.0
  0
LINE
  5
F2
100
AcDbEntity
100
AcDbLine
  8
0
 62
256
370
-1
  6
BYLAYER
 10
174.0
 20
3.0000000000000142
 30
0.0
 11
174.0
 21
11.0000000000000853
 31
0.0
  0
ARC
  5
F3
100
AcDbEntity
  8
0
 62
256
370
-1
  6
BYLAYER
100
AcDbCircle
 10
96.0
 20
4.5
 30
0.0
 40
3.0
100
AcDbArc
 50
270.0
 51
0.0
  0
LINE
  5
F4
100
AcDbEntity
100
AcDbLine
  8
0
 62
256
370
-1
  6
BYLAYER
 10
96.0
 20
3.0
 30
0.0
 11
93.0
 21
3.0
 31
0.0
  0
LINE
  5
F5
100
AcDbEntity
100
AcDbLine
  8
0
 62
256
370
-1
  6
BYLAYER
 10
99.0
 20
4.5
 30
0.0
 11
99.0
 21
5.5
 31
0.0
  0
LINE
  5
F6
100
AcDbEntity
100
AcDbLine
  8
0
 62
256
370
-1
  6
BYLAYER
 10
115.7999999999999972
 20
36.0
 30
0.0
 11
112.7999999999999972
 21
36.0000000000000071
 31
0.0
  0
LINE
  5
F7
100
AcDbEntity
100
AcDbLine
  8
0
 62
256
370
-1
  6
BYLAYER
 10
96.0
 20
11.0
 30
0.0
 11
93.0
 21
11.0
 31
0.0
  0
LINE
  5
F8
100
AcDbEntity
100
AcDbLine
  8
0
 62
256
370
-1
  6
BYLAYER
 10
112.7999999999999972
 20
36.0000000000000071
 30
0.0
 11
112.7999999999999972
 21
26.9999999999999929
 31
0.0
  0
LINE
  5
F9
100
AcDbEntity
100
AcDbLine
  8
0
 62
256
370
-1
  6
BYLAYER
 10
112.7999999999999972
 20
26.9999999999999929
 30
0.0
 11
115.7999999999999972
 21
26.9999999999999929
 31
0.0
  0
LINE
  5
FA
100
AcDbEntity
100
AcDbLine
  8
0
 62
256
370
-1
  6
BYLAYER
 10
115.7999999999999972
 20
26.9999999999999929
 30
0.0
 11
115.7999999999999972
 21
36.0
 31
0.0
  0
LINE
  5
FB
100
AcDbEntity
100
AcDbLine
  8
0
 62
256
370
-1
  6
BYLAYER
 10
93.0
 20
-0.0000000000000142
 30
0.0
 11
93.0
 21
0.0
 31
0.0
  0
LINE
  5
FC
100
AcDbEntity
100
AcDbLine
  8
0
 62
256
370
-1
  6
BYLAYER
 10
93.0
 20
3.0
 30
0.0
 11
93.0
 21
1.0
 31
0.0
  0
LINE
  5
FD
100
AcDbEntity
100
AcDbLine
  8
0
 62
256
370
-1
  6
BYLAYER
 10
115.7999999999999972
 20
11.0
 30
0.0
 11
112.8000000000000114
 21
11.0000000000000071
 31
0.0
  0
LINE
  5
FE
100
AcDbEntity
100
AcDbLine
  8
0
 62
256
370
-1
  6
BYLAYER
 10
99.0
 20
7.0
 30
0.0
 11
93.0
 21
7.0
 31
0.0
  0
LINE
  5
FF
100
AcDbEntity
100
AcDbLine
  8
0
 62
256
370
-1
  6
BYLAYER
 10
112.8000000000000114
 20
11.0000000000000071
 30
0.0
 11
112.7999999999999829
 21
2.9999999999999858
 31
0.0
  0
LINE
  5
100
100
AcDbEntity
100
AcDbLine
  8
0
 62
256
370
-1
  6
BYLAYER
 10
99.0
 20
5.5
 30
0.0
 11
93.0
 21
5.5
 31
0.0
  0
LINE
  5
101
100
AcDbEntity
100
AcDbLine
  8
0
 62
256
370
-1
  6
BYLAYER
 10
112.7999999999999829
 20
2.9999999999999858
 30
0.0
 11
115.7999999999999829
 21
2.9999999999999858
 31
0.0
  0
LINE
  5
102
100
AcDbEntity
100
AcDbLine
  8
0
 62
256
370
-1
  6
BYLAYER
 10
115.7999999999999829
 20
2.9999999999999858
 30
0.0
 11
115.7999999999999972
 21
11.0
 31
0.0
  0
ARC
  5
103
100
AcDbEntity
  8
0
 62
256
370
-1
  6
BYLAYER
100
AcDbCircle
 10
111.8000000000000114
 20
36.9999999999999716
 30
0.0
 40
2.0
100
AcDbArc
 50
90.0
 51
180.0
  0
ARC
  5
104
100
AcDbEntity
  8
0
 62
256
370
-1
  6
BYLAYER
100
AcDbCircle
 10
96.3391479261809991
 20
-42.8883763127953728
 30
0.0
 40
50.0
100
AcDbArc
 50
93.8292316441646506
 51
103.40206472416304
  0
ARC
  5
105
100
AcDbEntity
  8
0
 62
256
370
-1
  6
BYLAYER
100
AcDbCircle
 10
111.7999999999999829
 20
1.9999999999999929
 30
0.0
 40
2.0
100
AcDbArc
 50
180.0
 51
270.0
  0
ARC
  5
106
100
AcDbEntity
  8
0
 62
256
370
-1
  6
BYLAYER
100
AcDbCircle
 10
175.0
 20
2.0000000000000142
 30
0.0
 40
2.0
100
AcDbArc
 50
270.0
 51
0.0
  0
ARC
  5
107
100
AcDbEntity
  8
0
 62
256
370
-1
  6
BYLAYER
100
AcDbCircle
 10
96.3391479261811696
 20
-44.3883763127953443
 30
0.0
 40
50.0
100
AcDbArc
 50
93.82923164416502
 51
103.4020647241632389
  0
ARC
  5
108
100
AcDbEntity
  8
0
 62
256
370
-1
  6
BYLAYER
100
AcDbCircle
 10
175.0
 20
36.9999999999999432
 30
0.0
 40
2.0
100
AcDbArc
 50
0.0
 51
90.0
  0
LINE
  5
109
100
AcDbEntity
100
AcDbLine
  8
0
 62
256
370
-1
  6
BYLAYER
 10
177.0
 20
2.0000000000000284
 30
0.0
 11
177.0
 21
36.9999999999999289
 31
0.0
  0
ARC
  5
10A
100
AcDbEntity
  8
0
 62
256
370
-1
  6
BYLAYER
100
AcDbCircle
 10
73.4728350968074864
 20
54.4616572469691818
 30
0.0
 40
50.0
100
AcDbArc
 50
274.1964839032308419
 51
283.0348280905872684
  0
LINE
  5
10B
100
AcDbEntity
100
AcDbLine
  8
0
 62
256
370
-1
  6
BYLAYER
 10
175.0
 20
38.9999999999999289
 30
0.0
 11
111.7999999999999972
 21
38.9999999999999858
 31
0.0
  0
ARC
  5
10C
100
AcDbEntity
  8
0
 62
256
370
-1
  6
BYLAYER
100
AcDbCircle
 10
73.5814507382278862
 20
52.9866751778100706
 30
0.0
 40
50.0
100
AcDbArc
 50
274.197904263076623
 51
282.9071047091694595
  0
LINE
  5
10D
100
AcDbEntity
100
AcDbLine
  8
0
 62
256
370
-1
  6
BYLAYER
 10
109.8000000000000114
 20
36.9999999999999645
 30
0.0
 11
109.7999999999999972
 21
2.0
 31
0.0
  0
LINE
  5
10E
100
AcDbEntity
100
AcDbLine
  8
0
 62
256
370
-1
  6
BYLAYER
 10
99.0
 20
7.0
 30
0.0
 11
99.0
 21
8.0
 31
0.0
  0
LINE
  5
10F
100
AcDbEntity
100
AcDbLine
  8
0
 62
256
370
-1
  6
BYLAYER
 10
111.7999999999999829
 20
0.0
 30
0.0
 11
175.0
 21
0.0000000000000284
 31
0.0
  0
ARC
  5
110
100
AcDbEntity
  8
0
 62
256
370
-1
  6
BYLAYER
100
AcDbCircle
 10
77.2415366281685891
 20
3.8623540345710197
 30
0.0
 40
0.7415366281685868
100
AcDbArc
 50
89.9999999997606182
 51
278.5220807801184151
  0
ARC
  5
111
100
AcDbEntity
  8
0
 62
256
370
-1
  6
BYLAYER
100
AcDbCircle
 10
92.0
 20
1.0
 30
0.0
 40
1.0
100
AcDbArc
 50
270.0
 51
0.0
  0
LINE
  5
112
100
AcDbEntity
100
AcDbLine
  8
0
 62
256
370
-1
  6
BYLAYER
 10
37.5000000000000142
 20
36.0000000000000426
 30
0.0
 11
25.5000000000000142
 21
36.0000000000000142
 31
0.0
  0
LINE
  5
113
100
AcDbEntity
100
AcDbLine
  8
0
 62
256
370
-1
  6
BYLAYER
 10
25.5000000000000142
 20
36.0000000000000142
 30
0.0
 11
25.5
 21
33.0
 31
0.0
  0
LINE
  5
114
100
AcDbEntity
100
AcDbLine
  8
0
 62
256
370
-1
  6
BYLAYER
 10
25.5
 20
33.0
 30
0.0
 11
37.4999999999999858
 21
32.9999999999999716
 31
0.0
  0
LINE
  5
115
100
AcDbEntity
100
AcDbLine
  8
0
 62
256
370
-1
  6
BYLAYER
 10
37.4999999999999858
 20
32.9999999999999716
 30
0.0
 11
37.5000000000000142
 21
36.0000000000000426
 31
0.0
  0
LINE
  5
116
100
AcDbEntity
100
AcDbLine
  8
0
 62
256
370
-1
  6
BYLAYER
 10
3.0
 20
3.0000000000000071
 30
0.0
 11
3.0
 21
3.0000000000000071
 31
0.0
  0
LINE
  5
117
100
AcDbEntity
100
AcDbLine
  8
0
 62
256
370
-1
  6
BYLAYER
 10
73.5
 20
36.0000000000000071
 30
0.0
 11
61.5
 21
36.0
 31
0.0
  0
LINE
  5
118
100
AcDbEntity
100
AcDbLine
  8
0
 62
256
370
-1
  6
BYLAYER
 10
61.5
 20
36.0
 30
0.0
 11
61.5000000000000142
 21
33.0000000000000426
 31
0.0
  0
LINE
  5
119
100
AcDbEntity
100
AcDbLine
  8
0
 62
256
370
-1
  6
BYLAYER
 10
61.5000000000000142
 20
33.0000000000000426
 30
0.0
 11
73.5
 21
33.0000000000000071
 31
0.0
  0
LINE
  5
11A
100
AcDbEntity
100
AcDbLine
  8
0
 62
256
370
-1
  6
BYLAYER
 10
73.5
 20
33.0000000000000071
 30
0.0
 11
73.5
 21
36.0000000000000071
 31
0.0
  0
ARC
  5
11B
100
AcDbEntity
  8
0
 62
256
370
-1
  6
BYLAYER
100
AcDbCircle
 10
3.0
 20
8.0000000000000711
 30
0.0
 40
3.0
100
AcDbArc
 50
90.0
 51
180.0
  0
LINE
  5
11C
100
AcDbEntity
100
AcDbLine
  8
0
 62
256
370
-1
  6
BYLAYER
 10
37.4999999999999929
 20
6.0000000000000142
 30
0.0
 11
25.5
 21
6.0
 31
0.0
  0
LINE
  5
11D
100
AcDbEntity
100
AcDbLine
  8
0
 62
256
370
-1
  6
BYLAYER
 10
25.5
 20
6.0
 30
0.0
 11
25.5
 21
3.0000000000000142
 31
0.0
  0
ARC
  5
11E
100
AcDbEntity
  8
0
 62
256
370
-1
  6
BYLAYER
100
AcDbCircle
 10
3.0
 20
4.5
 30
0.0
 40
3.0
100
AcDbArc
 50
180.0
 51
270.0
  0
LINE
  5
11F
100
AcDbEntity
100
AcDbLine
  8
0
 62
256
370
-1
  6
BYLAYER
 10
25.5
 20
3.0000000000000142
 30
0.0
 11
37.5
 21
3.0000000000000142
 31
0.0
  0
LINE
  5
120
100
AcDbEntity
100
AcDbLine
  8
0
 62
256
370
-1
  6
BYLAYER
 10
37.5
 20
3.0000000000000142
 30
0.0
 11
37.4999999999999929
 21
6.0000000000000142
 31
0.0
  0
LINE
  5
121
100
AcDbEntity
100
AcDbLine
  8
0
 62
256
370
-1
  6
BYLAYER
 10
73.5
 20
6.0
 30
0.0
 11
61.5
 21
5.9999999999999929
 31
0.0
  0
LINE
  5
122
100
AcDbEntity
100
AcDbLine
  8
0
 62
256
370
-1
  6
BYLAYER
 10
0.0
 20
8.0000000000000142
 30
0.0
 11
0.0
 21
7.0
 31
0.0
  0
LINE
  5
123
100
AcDbEntity
100
AcDbLine
  8
0
 62
256
370
-1
  6
BYLAYER
 10
61.5
 20
5.9999999999999929
 30
0.0
 11
61.5
 21
3.0
 31
0.0
  0
LINE
  5
124
100
AcDbEntity
100
AcDbLine
  8
0
 62
256
370
-1
  6
BYLAYER
 10
61.5
 20
3.0
 30
0.0
 11
73.5
 21
3.0
 31
0.0
  0
LINE
  5
125
100
AcDbEntity
100
AcDbLine
  8
0
 62
256
370
-1
  6
BYLAYER
 10
73.5
 20
3.0
 30
0.0
 11
73.5
 21
6.0
 31
0.0
  0
LINE
  5
126
100
AcDbEntity
100
AcDbLine
  8
0
 62
256
370
-1
  6
BYLAYER
 10
3.0
 20
3.0000000000000071
 30
0.0
 11
3.0
 21
1.5000000000000426
 31
0.0
  0
LINE
  5
127
100
AcDbEntity
100
AcDbLine
  8
0
 62
256
370
-1
  6
BYLAYER
 10
6.0
 20
0.0
 30
0.0
 11
92.0
 21
0.0
 31
0.0
  0
LINE
  5
128
100
AcDbEntity
100
AcDbLine
  8
0
 62
256
370
-1
  6
BYLAYER
 10
6.0
 20
2.9999999999999645
 30
0.0
 11
6.0
 21
0.0
 31
0.0
  0
LINE
  5
129
100
AcDbEntity
100
AcDbLine
  8
0
 62
256
370
-1
  6
BYLAYER
 10
6.0000000000000142
 20
39.0000000000000782
 30
0.0
 11
6.0
 21
36.0000000000000426
 31
0.0
  0
LINE
  5
12A
100
AcDbEntity
100
AcDbLine
  8
0
 62
256
370
-1
  6
BYLAYER
 10
6.0
 20
7.0000000000000071
 30
0.0
 11
0.0
 21
7.0
 31
0.0
  0
LINE
  5
12B
100
AcDbEntity
100
AcDbLine
  8
0
 62
256
370
-1
  6
BYLAYER
 10
6.0
 20
5.4999999999999716
 30
0.0
 11
0.0
 21
5.4999999999999787
 31
0.0
  0
LINE
  5
12C
100
AcDbEntity
100
AcDbLine
  8
0
 62
256
370
-1
  6
BYLAYER
 10
6.0
 20
36.0000000000000426
 30
0.0
 11
3.0000000000000142
 21
36.0000000000000782
 31
0.0
  0
LINE
  5
12D
100
AcDbEntity
100
AcDbLine
  8
0
 62
256
370
-1
  6
BYLAYER
 10
6.0
 20
28.0000000000000213
 30
0.0
 11
3.0
 21
28.0000000000001101
 31
0.0
  0
LINE
  5
12E
100
AcDbEntity
100
AcDbLine
  8
0
 62
256
370
-1
  6
BYLAYER
 10
6.0
 20
2.9999999999999645
 30
0.0
 11
3.0
 21
3.0000000000000071
 31
0.0
  0
LINE
  5
12F
100
AcDbEntity
100
AcDbLine
  8
0
 62
256
370
-1
  6
BYLAYER
 10
6.0
 20
11.0000000000000639
 30
0.0
 11
3.0
 21
10.9999999999999361
 31
0.0
  0
LINE
  5
130
100
AcDbEntity
100
AcDbLine
  8
0
 62
256
370
-1
  6
BYLAYER
 10
96.0
 20
36.0
 30
0.0
 11
96.0
 21
36.0
 31
0.0
  0
ARC
  5
131
100
AcDbEntity
  8
0
 62
256
370
-1
  6
BYLAYER
100
AcDbCircle
 10
25.5277681362404962
 20
54.4615175894285457
 30
0.0
 40
50.0
100
AcDbArc
 50
256.9644623717125
 51
265.8042412599590421
  0
ARC
  5
132
100
AcDbEntity
  8
0
 62
256
370
-1
  6
BYLAYER
100
AcDbCircle
 10
25.4179638540214938
 20
52.9868093267837068
 30
0.0
 40
50.0
100
AcDbArc
 50
257.0935835065760671
 51
265.6751201250956456
  0
ARC
  5
133
100
AcDbEntity
  8
0
 62
256
370
-1
  6
BYLAYER
100
AcDbCircle
 10
2.6608520738189583
 20
-42.8883763127953443
 30
0.0
 40
50.0
100
AcDbArc
 50
76.5979352758365479
 51
86.1707683558351789
  0
LINE
  5
134
100
AcDbEntity
100
AcDbLine
  8
0
 62
256
370
-1
  6
BYLAYER
 10
3.0
 20
28.0000000000001101
 30
0.0
 11
3.0
 21
28.0000000000001101
 31
0.0
  0
LINE
  5
135
100
AcDbEntity
100
AcDbLine
  8
0
 62
256
370
-1
  6
BYLAYER
 10
96.0
 20
36.0
 30
0.0
 11
96.0
 21
37.5
 31
0.0
  0
ARC
  5
136
100
AcDbEntity
  8
0
 62
256
370
-1
  6
BYLAYER
100
AcDbCircle
 10
2.6608520738189299
 20
-44.3883763127953159
 30
0.0
 40
50.0
100
AcDbArc
 50
76.5979352758365479
 51
86.170768355834781
  0
LINE
  5
137
100
AcDbEntity
100
AcDbLine
  8
0
 62
256
370
-1
  6
BYLAYER
 10
96.0
 20
36.0
 30
0.0
 11
93.0
 21
36.0
 31
0.0
  0
ARC
  5
138
100
AcDbEntity
  8
0
 62
256
370
-1
  6
BYLAYER
100
AcDbCircle
 10
21.7584633718314251
 20
3.8623540345710552
 30
0.0
 40
0.7415366281685447
100
AcDbArc
 50
261.3843518154982917
 51
90.0950687415787712
  0
ARC
  5
139
100
AcDbEntity
  8
0
 62
256
370
-1
  6
BYLAYER
100
AcDbCircle
 10
96.0
 20
34.5
 30
0.0
 40
3.0
100
AcDbArc
 50
0.0
 51
90.0
  0
LINE
  5
13A
100
AcDbEntity
100
AcDbLine
  8
0
 62
256
370
-1
  6
BYLAYER
 10
0.0
 20
5.4999999999999787
 30
0.0
 11
0.0
 21
4.5000000000000213
 31
0.0
  0
ARC
  5
13B
100
AcDbEntity
  8
0
 62
256
370
-1
  6
BYLAYER
100
AcDbCircle
 10
92.0000000000000142
 20
38.0
 30
0.0
 40
1.0
100
AcDbArc
 50
0.0
 51
90.0
  0
LINE
  5
13C
100
AcDbEntity
100
AcDbLine
  8
0
 62
256
370
-1
  6
BYLAYER
 10
92.0000000000000142
 20
39.0
 30
0.0
 11
6.0000000000000142
 21
39.0000000000000782
 31
0.0
  0
LINE
  5
13D
100
AcDbEntity
100
AcDbLine
  8
0
 62
256
370
-1
  6
BYLAYER
 10
93.0
 20
38.0
 30
0.0
 11
93.0
 21
36.0
 31
0.0
  0
LINE
  5
13E
100
AcDbEntity
100
AcDbLine
  8
0
 62
256
370
-1
  6
BYLAYER
 10
93.0
 20
28.0
 30
0.0
 11
93.0
 21
11.0
 31
0.0
  0
ARC
  5
13F
100
AcDbEntity
  8
0
 62
256
370
-1
  6
BYLAYER
100
AcDbCircle
 10
96.0000000000000142
 20
31.0
 30
0.0
 40
3.0
100
AcDbArc
 50
270.0
 51
0.0
  0
LINE
  5
140
100
AcDbEntity
100
AcDbLine
  8
0
 62
256
370
-1
  6
BYLAYER
 10
99.0000000000000142
 20
30.9999999999999929
 30
0.0
 11
99.0
 21
34.5
 31
0.0
  0
LINE
  5
141
100
AcDbEntity
100
AcDbLine
  8
0
 62
256
370
-1
  6
BYLAYER
 10
96.0
 20
28.0
 30
0.0
 11
93.0
 21
28.0
 31
0.0
  0
LINE
  5
142
100
AcDbEntity
100
AcDbLine
  8
0
 62
256
370
-1
  6
BYLAYER
 10
3.0000000000000142
 20
36.0000000000000782
 30
0.0
 11
3.0
 21
37.5
 31
0.0
  0
ENDSEC
  0
SECTION
  2
OBJECTS
  0
DICTIONARY
  5
C
100
AcDbDictionary
280
0
281
1
  3
ACAD_GROUP
350
D
  3
ACAD_LAYOUT
350
1A
  3
ACAD_MLINESTYLE
350
17
  3
ACAD_PLOTSETTINGS
350
19
  3
ACAD_PLOTSTYLENAME
350
E
  3
AcDbVariableDictionary
350
143
  3
QCAD_OBJECTS
350
144
  0
DICTIONARY
  5
D
100
AcDbDictionary
280
0
281
1
  0
ACDBDICTIONARYWDFLT
  5
E
100
AcDbDictionary
281
1
  3
Normal
350
F
100
AcDbDictionaryWithDefault
340
F
  0
ACDBPLACEHOLDER
  5
F
  0
DICTIONARY
  5
17
100
AcDbDictionary
280
0
281
1
  3
Standard
350
18
  0
MLINESTYLE
  5
18
100
AcDbMlineStyle
  2
STANDARD
 70
0
  3

 62
256
 51
90.0
 52
90.0
 71
2
 49
0.5
 62
256
  6
BYLAYER
 49
-0.5
 62
256
  6
BYLAYER
  0
DICTIONARY
  5
19
100
AcDbDictionary
280
0
281
1
  0
DICTIONARY
  5
1A
100
AcDbDictionary
281
1
  3
Layout1
350
1E
  3
Layout2
350
26
  3
Model
350
22
  0
LAYOUT
  5
1E
100
AcDbPlotSettings
  1

  2
none_device
  4

  6

 40
0.0
 41
0.0
 42
0.0
 43
0.0
 44
0.0
 45
0.0
 46
0.0
 47
0.0
 48
0.0
 49
0.0
140
0.0
141
0.0
142
1.0
143
1.0
 70
688
 72
0
 73
0
 74
5
  7

 75
16
147
1.0
148
0.0
149
0.0
100
AcDbLayout
  1
Layout1
 70
1
 71
1
 10
0.0
 20
0.0
 11
420.0
 21
297.0
 12
0.0
 22
0.0
 32
0.0
 14
100000000000000000000.0
 24
100000000000000000000.0
 34
100000000000000000000.0
 15
-100000000000000000000.0
 25
-100000000000000000000.0
 35
-100000000000000000000.0
146
0.0
 13
0.0
 23
0.0
 33
0.0
 16
1.0
 26
0.0
 36
0.0
 17
0.0
 27
1.0
 37
0.0
 76
0
330
1B
  0
LAYOUT
  5
22
100
AcDbPlotSettings
  1

  2
none_device
  4

  6

 40
0.0
 41
0.0
 42
0.0
 43
0.0
 44
0.0
 45
0.0
 46
0.0
 47
0.0
 48
0.0
 49
0.0
140
0.0
141
0.0
142
1.0
143
1.0
 70
1712
 72
0
 73
0
 74
0
  7

 75
0
147
1.0
148
0.0
149
0.0
100
AcDbLayout
  1
Model
 70
1
 71
0
 10
0.0
 20
0.0
 11
12.0
 21
9.0
 12
0.0
 22
0.0
 32
0.0
 14
0.0
 24
0.0
 34
0.0
 15
0.0
 25
0.0
 35
0.0
146
0.0
 13
0.0
 23
0.0
 33
0.0
 16
1.0
 26
0.0
 36
0.0
 17
0.0
 27
1.0
 37
0.0
 76
0
330
1F
  0
LAYOUT
  5
26
100
AcDbPlotSettings
  1

  2
none_device
  4

  6

 40
0.0
 41
0.0
 42
0.0
 43
0.0
 44
0.0
 45
0.0
 46
0.0
 47
0.0
 48
0.0
 49
0.0
140
0.0
141
0.0
142
1.0
143
1.0
 70
688
 72
0
 73
0
 74
5
  7

 75
16
147
1.0
148
0.0
149
0.0
100
AcDbLayout
  1
Layout2
 70
1
 71
2
 10
0.0
 20
0.0
 11
12.0
 21
9.0
 12
0.0
 22
0.0
 32
0.0
 14
0.0
 24
0.0
 34
0.0
 15
0.0
 25
0.0
 35
0.0
146
0.0
 13
0.0
 23
0.0
 33
0.0
 16
1.0
 26
0.0
 36
0.0
 17
0.0
 27
1.0
 37
0.0
 76
0
330
23
  0
DICTIONARY
  5
143
100
AcDbDictionary
281
1
  3
DIMASSOC
350
146
  3
HIDETEXT
350
145
  0
DICTIONARYVAR
  5
145
100
DictionaryVariables
280
0
  1
2
  0
DICTIONARYVAR
  5
146
100
DictionaryVariables
280
0
  1
1
  0
DICTIONARY
  5
144
100
AcDbDictionary
281
1
  3
Grid/DisplayGrid00
350
147
  3
Grid/DisplayGrid01
350
148
  3
Grid/DisplayGrid02
350
149
  3
Grid/DisplayGrid03
350
14A
  3
Grid/GridSpacingX00
350
14B
  3
Grid/GridSpacingX01
350
14C
  3
Grid/GridSpacingX02
350
14D
  3
Grid/GridSpacingX03
350
14E
  3
Grid/GridSpacingY00
350
14F
  3
Grid/GridSpacingY01
350
150
  3
Grid/GridSpacingY02
350
151
  3
Grid/GridSpacingY03
350
152
  3
Grid/IsometricGrid00
350
153
  3
Grid/IsometricGrid01
350
154
  3
Grid/IsometricGrid02
350
155
  3
Grid/IsometricGrid03
350
156
  3
Grid/IsometricProjection00
350
157
  3
Grid/IsometricProjection01
350
158
  3
Grid/IsometricProjection02
350
159
  3
Grid/IsometricProjection03
350
15A
  3
Grid/MetaGridSpacingX00
350
15B
  3
Grid/MetaGridSpacingX01
350
15C
  3
Grid/MetaGridSpacingX02
350
15D
  3
Grid/MetaGridSpacingX03
350
15E
  3
Grid/MetaGridSpacingY00
350
15F
  3
Grid/MetaGridSpacingY01
350
160
  3
Grid/MetaGridSpacingY02
350
161
  3
Grid/MetaGridSpacingY03
350
162
  3
MultiPageSettings/Columns
350
163
  3
MultiPageSettings/GlueMarginsBottom
350
164
  3
MultiPageSettings/GlueMarginsLeft
350
165
  3
MultiPageSettings/GlueMarginsRight
350
166
  3
MultiPageSettings/GlueMarginsTop
350
167
  3
MultiPageSettings/PrintCropMarks
350
168
  3
MultiPageSettings/Rows
350
169
  3
PageSettings/OffsetX
350
16A
  3
PageSettings/OffsetY
350
16B
  3
PageSettings/PageOrientation
350
16C
  3
PageSettings/PaperHeight
350
16D
  3
PageSettings/PaperWidth
350
16E
  3
PageSettings/Scale
350
16F
  3
PageSettings/ShowPaperBorders
350
170
  3
UnitSettings/PaperUnit
350
171
  0
XRECORD
  5
147
330
144
100
AcDbXrecord
280
1
290
0
  0
XRECORD
  5
148
330
144
100
AcDbXrecord
280
1
290
1
  0
XRECORD
  5
149
330
144
100
AcDbXrecord
280
1
290
1
  0
XRECORD
  5
14A
330
144
100
AcDbXrecord
280
1
290
1
  0
XRECORD
  5
14B
330
144
100
AcDbXrecord
280
1
1000
auto
  0
XRECORD
  5
14C
330
144
100
AcDbXrecord
280
1
1000
auto
  0
XRECORD
  5
14D
330
144
100
AcDbXrecord
280
1
1000
auto
  0
XRECORD
  5
14E
330
144
100
AcDbXrecord
280
1
1000
auto
  0
XRECORD
  5
14F
330
144
100
AcDbXrecord
280
1
1000
auto
  0
XRECORD
  5
150
330
144
100
AcDbXrecord
280
1
1000
auto
  0
XRECORD
  5
151
330
144
100
AcDbXrecord
280
1
1000
auto
  0
XRECORD
  5
152
330
144
100
AcDbXrecord
280
1
1000
auto
  0
XRECORD
  5
153
330
144
100
AcDbXrecord
280
1
290
0
  0
XRECORD
  5
154
330
144
100
AcDbXrecord
280
1
290
0
  0
XRECORD
  5
155
330
144
100
AcDbXrecord
280
1
290
0
  0
XRECORD
  5
156
330
144
100
AcDbXrecord
280
1
290
0
  0
XRECORD
  5
157
330
144
100
AcDbXrecord
280
1
 90
0
  0
XRECORD
  5
158
330
144
100
AcDbXrecord
280
1
 90
0
  0
XRECORD
  5
159
330
144
100
AcDbXrecord
280
1
 90
0
  0
XRECORD
  5
15A
330
144
100
AcDbXrecord
280
1
 90
0
  0
XRECORD
  5
15B
330
144
100
AcDbXrecord
280
1
1000
auto
  0
XRECORD
  5
15C
330
144
100
AcDbXrecord
280
1
1000
auto
  0
XRECORD
  5
15D
330
144
100
AcDbXrecord
280
1
1000
auto
  0
XRECORD
  5
15E
330
144
100
AcDbXrecord
280
1
1000
auto
  0
XRECORD
  5
15F
330
144
100
AcDbXrecord
280
1
1000
auto
  0
XRECORD
  5
160
330
144
100
AcDbXrecord
280
1
1000
auto
  0
XRECORD
  5
161
330
144
100
AcDbXrecord
280
1
1000
auto
  0
XRECORD
  5
162
330
144
100
AcDbXrecord
280
1
1000
auto
  0
XRECORD
  5
163
330
144
100
AcDbXrecord
280
1
 90
1
  0
XRECORD
  5
164
330
144
100
AcDbXrecord
280
1
 40
10.0
  0
XRECORD
  5
165
330
144
100
AcDbXrecord
280
1
 40
10.0
  0
XRECORD
  5
166
330
144
100
AcDbXrecord
280
1
 40
10.0
  0
XRECORD
  5
167
330
144
100
AcDbXrecord
280
1
 40
10.0
  0
XRECORD
  5
168
330
144
100
AcDbXrecord
280
1
290
0
  0
XRECORD
  5
169
330
144
100
AcDbXrecord
280
1
 90
1
  0
XRECORD
  5
16A
330
144
100
AcDbXrecord
280
1
 40
0.0
  0
XRECORD
  5
16B
330
144
100
AcDbXrecord
280
1
 40
0.0
  0
XRECORD
  5
16C
330
144
100
AcDbXrecord
280
1
1000
Portrait
  0
XRECORD
  5
16D
330
144
100
AcDbXrecord
280
1
 40
420.0
  0
XRECORD
  5
16E
330
144
100
AcDbXrecord
280
1
 40
297.0
  0
XRECORD
  5
16F
330
144
100
AcDbXrecord
280
1
1000
1:1
  0
XRECORD
  5
170
330
144
100
AcDbXrecord
280
1
290
1
  0
XRECORD
  5
171
330
144
100
AcDbXrecord
280
1
 90
4
  0
ENDSEC
  0
EOF
