999
dxflib 3.1.5.0
  0
SECTION
  2
HEADER
  9
$ACADVER
  1
AC1015
  9
$HANDSEED
  5
FFFF
  9
$ANGBASE
 50
0.0
  9
$ATTMODE
 70
1
  9
$AUNITS
 70
0
  9
$AUPREC
 70
0
  9
$CELTSCALE
 40
1.0
  9
$CHAMFERA
 40
0.0
  9
$CHAMFERB
 40
0.0
  9
$CHAMFERC
 40
0.0
  9
$CHAMFERD
 40
0.0
  9
$CMLJUST
 70
0
  9
$CMLSCALE
 40
1.0
  9
$DIMADEC
 70
0
  9
$DIMALTD
 70
2
  9
$DIMALTF
 40
25.3999999999999986
  9
$DIMALTRND
 40
0.0
  9
$DIMALTTD
 70
2
  9
$DIMALTTZ
 70
0
  9
$DIMALTU
 70
2
  9
$DIMALTZ
 70
0
  9
$DIMAPOST
  1

  9
$DIMASZ
 40
2.5
  9
$DIMATFIT
 70
3
  9
$DIMAUNIT
 70
0
  9
$DIMAZIN
 70
2
  9
$DIMCEN
 40
0.09
  9
$DIMDEC
 70
4
  9
$DIMDLE
 40
0.0
  9
$DIMDLI
 40
0.38
  9
$DIMDSEP
 70
46
  9
$DIMEXE
 40
1.25
  9
$DIMEXO
 40
0.625
  9
$DIMFRAC
 70
0
  9
$DIMGAP
 40
0.625
  9
$DIMJUST
 70
0
  9
$DIMLFAC
 40
1.0
  9
$DIMLUNIT
 70
2
  9
$DIMLWD
 70
-2
  9
$DIMLWE
 70
-2
  9
$DIMPOST
  1

  9
$DIMRND
 40
0.0
  9
$DIMSCALE
 40
1.0
  9
$DIMTAD
 70
0
  9
$DIMTDEC
 70
4
  9
$DIMTFAC
 40
1.0
  9
$DIMTM
 40
0.0
  9
$DIMTOLJ
 70
1
  9
$DIMTP
 40
0.0
  9
$DIMTSZ
 40
0.0
  9
$DIMTVP
 40
0.0
  9
$DIMTXT
 40
2.5
  9
$DIMTZIN
 70
0
  9
$DIMZIN
 70
8
  9
$ELEVATION
 40
0.0
  9
$EXTMAX
 10
-100000000000000000000.0
 20
-100000000000000000000.0
 30
-100000000000000000000.0
  9
$EXTMIN
 10
100000000000000000000.0
 20
100000000000000000000.0
 30
100000000000000000000.0
  9
$FILLETRAD
 40
0.5
  9
$INSBASE
 10
0.0
 20
0.0
 30
0.0
  9
$INSUNITS
 70
4
  9
$LIMMAX
 10
12.0
 20
9.0
  9
$LIMMIN
 10
0.0
 20
0.0
  9
$LTSCALE
 40
1.0
  9
$LUNITS
 70
2
  9
$LUPREC
 70
4
  9
$MAXACTVP
 70
64
  9
$PDMODE
 70
0
  9
$PDSIZE
 40
0.0
  9
$PELEVATION
 40
0.0
  9
$PEXTMAX
 10
-100000000000000000000.0
 20
-100000000000000000000.0
 30
-100000000000000000000.0
  9
$PEXTMIN
 10
100000000000000000000.0
 20
100000000000000000000.0
 30
100000000000000000000.0
  9
$PINSBASE
 10
0.0
 20
0.0
 30
0.0
  9
$PLIMMAX
 10
12.0
 20
9.0
  9
$PLIMMIN
 10
0.0
 20
0.0
  9
$PLINEWID
 40
0.0
  9
$PROXYGRAPHICS
 70
1
  9
$PUCSORG
 10
0.0
 20
0.0
 30
0.0
  9
$PUCSXDIR
 10
1.0
 20
0.0
 30
0.0
  9
$PUCSYDIR
 10
0.0
 20
1.0
 30
0.0
  9
$SHADEDGE
 70
3
  9
$SHADEDIF
 70
70
  9
$SKETCHINC
 40
0.1
  9
$SPLINESEGS
 70
8
  9
$SPLINETYPE
 70
6
  9
$SURFTAB1
 70
6
  9
$SURFTAB2
 70
6
  9
$SURFTYPE
 70
6
  9
$SURFU
 70
6
  9
$SURFV
 70
6
  9
$TEXTSIZE
 40
0.2
  9
$THICKNESS
 40
0.0
  9
$TRACEWID
 40
0.05
  9
$TREEDEPTH
 70
3020
  9
$UCSORG
 10
0.0
 20
0.0
 30
0.0
  9
$UCSXDIR
 10
1.0
 20
0.0
 30
0.0
  9
$UCSYDIR
 10
0.0
 20
1.0
 30
0.0
  9
$UNITMODE
 70
0
  9
$USERI1
 70
0
  9
$USERI2
 70
0
  9
$USERI3
 70
0
  9
$USERI4
 70
0
  9
$USERI5
 70
0
  9
$USERR1
 40
0.0
  9
$USERR2
 40
0.0
  9
$USERR3
 40
0.0
  9
$USERR4
 40
0.0
  9
$USERR5
 40
0.0
  0
SECTION
  2
TABLES
  0
TABLE
  2
VPORT
  5
8
100
AcDbSymbolTable
 70
1
  0
VPORT
  5
30
100
AcDbSymbolTableRecord
100
AcDbViewportTableRecord
  2
*Active
 70
0
 10
0.0
 20
0.0
 11
1.0
 21
1.0
 12
286.3055555555554861
 22
148.5
 13
0.0
 23
0.0
 14
10.0
 24
10.0
 15
10.0
 25
10.0
 16
0.0
 26
0.0
 36
1.0
 17
0.0
 27
0.0
 37
0.0
 40
297.0
 41
1.92798353909465
 42
50.0
 43
0.0
 44
0.0
 50
0.0
 51
0.0
 71
0
 72
100
 73
1
 74
3
 75
1
 76
1
 77
0
 78
0
281
0
 65
1
110
0.0
120
0.0
130
0.0
111
1.0
121
0.0
131
0.0
112
0.0
122
1.0
132
0.0
 79
0
146
0.0
  0
ENDTAB
  0
TABLE
  2
LTYPE
  5
5
100
AcDbSymbolTable
 70
21
  0
LTYPE
  5
31
100
AcDbSymbolTableRecord
100
AcDbLinetypeTableRecord
  2
CENTER2
 70
0
  3
Center (.5x) ___ _ ___ _ ___ _ ___ _ ___ _ ___
 72
65
 73
4
 40
28.5749999999999993
 49
19.0500000000000007
 74
0
 49
-3.1749999999999998
 74
0
 49
3.1749999999999998
 74
0
 49
-3.1749999999999998
 74
0
  0
LTYPE
  5
32
100
AcDbSymbolTableRecord
100
AcDbLinetypeTableRecord
  2
DIVIDEX2
 70
0
  3
Divide (2x) ________  .  .  ________  .  .  _
 72
65
 73
6
 40
63.5
 49
25.3999999999999986
 74
0
 49
-12.6999999999999993
 74
0
 49
0.0
 74
0
 49
-12.6999999999999993
 74
0
 49
0.0
 74
0
 49
-12.6999999999999993
 74
0
  0
LTYPE
  5
33
100
AcDbSymbolTableRecord
100
AcDbLinetypeTableRecord
  2
DOT2
 70
0
  3
Dot (.5x) .....................................
 72
65
 73
2
 40
3.1749999999999998
 49
0.0
 74
0
 49
-3.1749999999999998
 74
0
  0
LTYPE
  5
34
100
AcDbSymbolTableRecord
100
AcDbLinetypeTableRecord
  2
DASHDOT2
 70
0
  3
Dash dot (.5x) _._._._._._._._._._._._._._._.
 72
65
 73
4
 40
12.6999999999999993
 49
6.3499999999999996
 74
0
 49
-3.1749999999999998
 74
0
 49
0.0
 74
0
 49
-3.1749999999999998
 74
0
  0
LTYPE
  5
35
100
AcDbSymbolTableRecord
100
AcDbLinetypeTableRecord
  2
DIVIDE
 70
0
  3
Divide ____ . . ____ . . ____ . . ____ . . ____
 72
65
 73
6
 40
31.75
 49
12.6999999999999993
 74
0
 49
-6.3499999999999996
 74
0
 49
0.0
 74
0
 49
-6.3499999999999996
 74
0
 49
0.0
 74
0
 49
-6.3499999999999996
 74
0
  0
LTYPE
  5
36
100
AcDbSymbolTableRecord
100
AcDbLinetypeTableRecord
  2
DASHDOT
 70
0
  3
Dash dot __ . __ . __ . __ . __ . __ . __ . __
 72
65
 73
4
 40
25.3999999999999986
 49
12.6999999999999993
 74
0
 49
-6.3499999999999996
 74
0
 49
0.0
 74
0
 49
-6.3499999999999996
 74
0
  0
LTYPE
  5
37
100
AcDbSymbolTableRecord
100
AcDbLinetypeTableRecord
  2
BORDER
 70
0
  3
Border __ __ . __ __ . __ __ . __ __ . __ __ .
 72
65
 73
6
 40
44.4500000000000028
 49
12.6999999999999993
 74
0
 49
-6.3499999999999996
 74
0
 49
12.6999999999999993
 74
0
 49
-6.3499999999999996
 74
0
 49
0.0
 74
0
 49
-6.3499999999999996
 74
0
  0
LTYPE
  5
38
100
AcDbSymbolTableRecord
100
AcDbLinetypeTableRecord
  2
DASHDOTX2
 70
0
  3
Dash dot (2x) ____  .  ____  .  ____  .  ___
 72
65
 73
4
 40
50.7999999999999972
 49
25.3999999999999986
 74
0
 49
-12.6999999999999993
 74
0
 49
0.0
 74
0
 49
-12.6999999999999993
 74
0
  0
LTYPE
  5
39
100
AcDbSymbolTableRecord
100
AcDbLinetypeTableRecord
  2
CENTERX2
 70
0
  3
Center (2x) ________  __  ________  __  _____
 72
65
 73
4
 40
101.5999999999999943
 49
63.5
 74
0
 49
-12.6999999999999993
 74
0
 49
12.6999999999999993
 74
0
 49
-12.6999999999999993
 74
0
  0
LTYPE
  5
3A
100
AcDbSymbolTableRecord
100
AcDbLinetypeTableRecord
  2
BORDER2
 70
0
  3
Border (.5x) __.__.__.__.__.__.__.__.__.__.__.
 72
65
 73
6
 40
22.2250000000000014
 49
6.3499999999999996
 74
0
 49
-3.1749999999999998
 74
0
 49
6.3499999999999996
 74
0
 49
-3.1749999999999998
 74
0
 49
0.0
 74
0
 49
-3.1749999999999998
 74
0
  0
LTYPE
  5
3B
100
AcDbSymbolTableRecord
100
AcDbLinetypeTableRecord
  2
BORDERX2
 70
0
  3
Border (2x) ____  ____  .  ____  ____  .  ___
 72
65
 73
6
 40
88.9000000000000057
 49
25.3999999999999986
 74
0
 49
-12.6999999999999993
 74
0
 49
25.3999999999999986
 74
0
 49
-12.6999999999999993
 74
0
 49
0.0
 74
0
 49
-12.6999999999999993
 74
0
  0
LTYPE
  5
16
100
AcDbSymbolTableRecord
100
AcDbLinetypeTableRecord
  2
CONTINUOUS
 70
0
  3
Solid line
 72
65
 73
0
 40
0.0
  0
LTYPE
  5
14
100
AcDbSymbolTableRecord
100
AcDbLinetypeTableRecord
  2
BYBLOCK
 70
0
  3

 72
65
 73
0
 40
0.0
  0
LTYPE
  5
15
100
AcDbSymbolTableRecord
100
AcDbLinetypeTableRecord
  2
BYLAYER
 70
0
  3

 72
65
 73
0
 40
0.0
  0
LTYPE
  5
3C
100
AcDbSymbolTableRecord
100
AcDbLinetypeTableRecord
  2
DASHED2
 70
0
  3
Dashed (.5x) _ _ _ _ _ _ _ _ _ _ _ _ _ _ _ _ _
 72
65
 73
2
 40
9.5250000000000004
 49
6.3499999999999996
 74
0
 49
-3.1749999999999998
 74
0
  0
LTYPE
  5
3D
100
AcDbSymbolTableRecord
100
AcDbLinetypeTableRecord
  2
CENTER
 70
0
  3
Center ____ _ ____ _ ____ _ ____ _ ____ _ ____
 72
65
 73
4
 40
50.7999999999999972
 49
31.75
 74
0
 49
-6.3499999999999996
 74
0
 49
6.3499999999999996
 74
0
 49
-6.3499999999999996
 74
0
  0
LTYPE
  5
3E
100
AcDbSymbolTableRecord
100
AcDbLinetypeTableRecord
  2
DIVIDE2
 70
0
  3
Divide (.5x) __..__..__..__..__..__..__..__.._
 72
65
 73
6
 40
15.875
 49
6.3499999999999996
 74
0
 49
-3.1749999999999998
 74
0
 49
0.0
 74
0
 49
-3.1749999999999998
 74
0
 49
0.0
 74
0
 49
-3.1749999999999998
 74
0
  0
LTYPE
  5
3F
100
AcDbSymbolTableRecord
100
AcDbLinetypeTableRecord
  2
DASHED
 70
0
  3
Dashed __ __ __ __ __ __ __ __ __ __ __ __ __ _
 72
65
 73
2
 40
19.0500000000000007
 49
12.6999999999999993
 74
0
 49
-6.3499999999999996
 74
0
  0
LTYPE
  5
40
100
AcDbSymbolTableRecord
100
AcDbLinetypeTableRecord
  2
DOTX2
 70
0
  3
Dot (2x) .  .  .  .  .  .  .  .  .  .  .  .  .
 72
65
 73
2
 40
12.6999999999999993
 49
0.0
 74
0
 49
-12.6999999999999993
 74
0
  0
LTYPE
  5
41
100
AcDbSymbolTableRecord
100
AcDbLinetypeTableRecord
  2
DASHEDX2
 70
0
  3
Dashed (2x) ____  ____  ____  ____  ____  ___
 72
65
 73
2
 40
38.1000000000000014
 49
25.3999999999999986
 74
0
 49
-12.6999999999999993
 74
0
  0
LTYPE
  5
42
100
AcDbSymbolTableRecord
100
AcDbLinetypeTableRecord
  2
DOT
 70
0
  3
Dot . . . . . . . . . . . . . . . . . . . . . .
 72
65
 73
2
 40
6.3499999999999996
 49
0.0
 74
0
 49
-6.3499999999999996
 74
0
  0
ENDTAB
  0
TABLE
  2
LAYER
  5
2
100
AcDbSymbolTable
 70
1
  0
LAYER
  5
10
100
AcDbSymbolTableRecord
100
AcDbLayerTableRecord
  2
0
 70
0
 62
7
420
0
  6
CONTINUOUS
370
25
390
F
  0
ENDTAB
  0
TABLE
  2
STYLE
  5
3
100
AcDbSymbolTable
 70
0
  0
ENDTAB
  0
TABLE
  2
VIEW
  5
6
100
AcDbSymbolTable
 70
0
  0
ENDTAB
  0
TABLE
  2
UCS
  5
7
100
AcDbSymbolTable
 70
0
  0
ENDTAB
  0
TABLE
  2
APPID
  5
9
100
AcDbSymbolTable
 70
1
  0
APPID
  5
43
100
AcDbSymbolTableRecord
100
AcDbRegAppTableRecord
  2
QCAD
 70
0
  0
ENDTAB
  0
TABLE
  2
DIMSTYLE
  5
A
100
AcDbSymbolTable
 70
1
100
AcDbDimStyleTable
 71
0
  0
DIMSTYLE
105
27
100
AcDbSymbolTableRecord
100
AcDbDimStyleTableRecord
  2
Standard
 41
2.5
 42
0.625
 43
3.75
 44
1.25
 70
0
 73
0
 74
0
 77
1
 78
8
140
2.5
141
2.5
143
0.03937007874016
147
0.625
171
3
172
1
271
2
272
2
274
3
278
44
283
0
284
8
340
11
  0
ENDTAB
  0
TABLE
  2
BLOCK_RECORD
  5
1
100
AcDbSymbolTable
 70
1
  0
BLOCK_RECORD
  5
1F
100
AcDbSymbolTableRecord
100
AcDbBlockTableRecord
  2
*Model_Space
340
22
  0
BLOCK_RECORD
  5
1B
100
AcDbSymbolTableRecord
100
AcDbBlockTableRecord
  2
*Paper_Space
340
1E
  0
BLOCK_RECORD
  5
23
100
AcDbSymbolTableRecord
100
AcDbBlockTableRecord
  2
*Paper_Space0
340
26
  0
BLOCK_RECORD
  5
44
100
AcDbSymbolTableRecord
100
AcDbBlockTableRecord
  2
*Model_Space4
340
0
  0
BLOCK_RECORD
  5
45
100
AcDbSymbolTableRecord
100
AcDbBlockTableRecord
  2
*Model_Space6
340
0
  0
BLOCK_RECORD
  5
46
100
AcDbSymbolTableRecord
100
AcDbBlockTableRecord
  2
seat slot
340
0
  0
BLOCK_RECORD
  5
47
100
AcDbSymbolTableRecord
100
AcDbBlockTableRecord
  2
*Model_Space
340
0
  0
BLOCK_RECORD
  5
48
100
AcDbSymbolTableRecord
100
AcDbBlockTableRecord
  2
*Paper_Space
340
0
  0
BLOCK_RECORD
  5
49
100
AcDbSymbolTableRecord
100
AcDbBlockTableRecord
  2
*Paper_Space0
340
0
  0
BLOCK_RECORD
  5
4A
100
AcDbSymbolTableRecord
100
AcDbBlockTableRecord
  2
*Model_Space1
340
0
  0
BLOCK_RECORD
  5
4B
100
AcDbSymbolTableRecord
100
AcDbBlockTableRecord
  2
*Model_Space2
340
0
  0
ENDTAB
  0
ENDSEC
  0
SECTION
  2
BLOCKS
  0
BLOCK
  5
4C
100
AcDbEntity
  8
0
100
AcDbBlockBegin
  2
*Model_Space4
 70
0
 10
0.0
 20
0.0
 30
0.0
  3
*Model_Space4
  1

  0
ENDBLK
  5
4D
100
AcDbEntity
  8
0
100
AcDbBlockEnd
  0
BLOCK
  5
4E
100
AcDbEntity
  8
0
100
AcDbBlockBegin
  2
*Model_Space6
 70
0
 10
0.0
 20
0.0
 30
0.0
  3
*Model_Space6
  1

  0
ENDBLK
  5
4F
100
AcDbEntity
  8
0
100
AcDbBlockEnd
  0
BLOCK
  5
50
100
AcDbEntity
  8
0
100
AcDbBlockBegin
  2
seat slot
 70
0
 10
0.0
 20
0.0
 30
0.0
  3
seat slot
  1

  0
LWPOLYLINE
  5
51
  8
0
 62
256
370
-1
  6
BYLAYER
100
AcDbEntity
100
AcDbPolyline
 90
2
 70
0
 10
6.0
 20
5.9000000000000341
 30
0.0
 42
0.9999999999999999
 10
0.0
 20
5.9000000000000341
 30
0.0
  0
LINE
  5
52
100
AcDbEntity
100
AcDbLine
  8
0
 62
256
370
-1
  6
BYLAYER
 10
30.1999999999999886
 20
-5.9000000000000057
 30
0.0
 11
30.1999999999999886
 21
5.9000000000000057
 31
0.0
  0
LINE
  5
53
100
AcDbEntity
100
AcDbLine
  8
0
 62
256
370
-1
  6
BYLAYER
 10
0.0
 20
5.9000000000000057
 30
0.0
 11
0.0
 21
-5.9000000000000057
 31
0.0
  0
ARC
  5
54
100
AcDbEntity
  8
0
 62
256
370
-1
  6
BYLAYER
100
AcDbCircle
 10
3.0
 20
-5.9000000000000057
 30
0.0
 40
3.0
100
AcDbArc
 50
180.0
 51
0.0
  0
ARC
  5
55
100
AcDbEntity
  8
0
 62
256
370
-1
  6
BYLAYER
100
AcDbCircle
 10
27.2000000000000171
 20
-5.9000000000000057
 30
0.0
 40
3.0
100
AcDbArc
 50
180.0
 51
0.0
  0
ARC
  5
56
100
AcDbEntity
  8
0
 62
256
370
-1
  6
BYLAYER
100
AcDbCircle
 10
27.1999999999999602
 20
5.9000000000000057
 30
0.0
 40
3.0
100
AcDbArc
 50
0.0
 51
180.0
  0
LINE
  5
57
100
AcDbEntity
100
AcDbLine
  8
0
 62
256
370
-1
  6
BYLAYER
 10
6.0
 20
-5.9000000000000057
 30
0.0
 11
24.2000000000000171
 21
-5.9000000000000057
 31
0.0
  0
LINE
  5
58
100
AcDbEntity
100
AcDbLine
  8
0
 62
256
370
-1
  6
BYLAYER
 10
24.1999999999999602
 20
5.9000000000000057
 30
0.0
 11
6.0000000000000284
 21
5.9000000000000057
 31
0.0
  0
ENDBLK
  5
59
100
AcDbEntity
  8
0
100
AcDbBlockEnd
  0
BLOCK
  5
20
100
AcDbEntity
  8
0
100
AcDbBlockBegin
  2
*Model_Space
 70
0
 10
0.0
 20
0.0
 30
0.0
  3
*Model_Space
  1

  0
BLOCK
  5
1C
100
AcDbEntity
 67
1
  8
0
100
AcDbBlockBegin
  2
*Paper_Space
 70
0
 10
0.0
 20
0.0
 30
0.0
  3
*Paper_Space
  1

  0
ENDBLK
  5
1D
100
AcDbEntity
 67
1
  8
0
100
AcDbBlockEnd
  0
BLOCK
  5
24
100
AcDbEntity
  8
0
100
AcDbBlockBegin
  2
*Paper_Space0
 70
0
 10
0.0
 20
0.0
 30
0.0
  3
*Paper_Space0
  1

  0
ENDBLK
  5
25
100
AcDbEntity
  8
0
100
AcDbBlockEnd
  0
BLOCK
  5
5A
100
AcDbEntity
  8
0
100
AcDbBlockBegin
  2
*Model_Space1
 70
0
 10
0.0
 20
0.0
 30
0.0
  3
*Model_Space1
  1

  0
ENDBLK
  5
5B
100
AcDbEntity
  8
0
100
AcDbBlockEnd
  0
BLOCK
  5
5C
100
AcDbEntity
  8
0
100
AcDbBlockBegin
  2
*Model_Space2
 70
0
 10
0.0
 20
0.0
 30
0.0
  3
*Model_Space2
  1

  0
ENDBLK
  5
5D
100
AcDbEntity
  8
0
100
AcDbBlockEnd
  0
ENDSEC
  0
SECTION
  2
ENTITIES
  0
CIRCLE
  5
5E
100
AcDbEntity
100
AcDbCircle
  8
0
 62
256
370
-1
  6
BYLAYER
 10
261.0
 20
261.0
 30
0.0
 40
175.0
  0
CIRCLE
  5
5F
100
AcDbEntity
100
AcDbCircle
  8
0
 62
256
370
-1
  6
BYLAYER
 10
261.0
 20
261.0
 30
0.0
 40
245.0
  0
ARC
  5
60
100
AcDbEntity
  8
0
 62
256
370
-1
  6
BYLAYER
100
AcDbCircle
 10
640.0475431289278276
 20
117.319989239219467
 30
0.0
 40
3.0
100
AcDbArc
 50
0.0
 51
180.0
  0
ARC
  5
61
100
AcDbEntity
  8
0
 62
256
370
-1
  6
BYLAYER
100
AcDbCircle
 10
640.0475431289278276
 20
105.5199892392193988
 30
0.0
 40
3.0
100
AcDbArc
 50
180.0
 51
0.0
  0
LINE
  5
62
100
AcDbEntity
100
AcDbLine
  8
0
 62
256
370
-1
  6
BYLAYER
 10
507.2967633895127619
 20
582.8962375105503497
 30
0.0
 11
507.2967633895127619
 21
594.8962375105503497
 31
0.0
  0
LINE
  5
63
100
AcDbEntity
100
AcDbLine
  8
0
 62
256
370
-1
  6
BYLAYER
 10
477.2967633895127619
 20
594.8962375105503497
 30
0.0
 11
477.2967633895127619
 21
582.8962375105503497
 31
0.0
  0
LINE
  5
64
100
AcDbEntity
100
AcDbLine
  8
0
 62
256
370
-1
  6
BYLAYER
 10
537.2967633895127619
 20
594.8962375105503497
 30
0.0
 11
507.2967633895127619
 21
594.8962375105503497
 31
0.0
  0
LINE
  5
65
100
AcDbEntity
100
AcDbLine
  8
0
 62
256
370
-1
  6
BYLAYER
 10
477.2967633895127619
 20
594.8962375105503497
 30
0.0
 11
447.2967633895127619
 21
594.8962375105503497
 31
0.0
  0
ARC
  5
66
100
AcDbEntity
  8
0
 62
256
370
-1
  6
BYLAYER
100
AcDbCircle
 10
480.2967633895127619
 20
582.8962375105503497
 30
0.0
 40
3.0
100
AcDbArc
 50
180.0
 51
0.0
  0
ARC
  5
67
100
AcDbEntity
  8
0
 62
256
370
-1
  6
BYLAYER
100
AcDbCircle
 10
504.2967633895127619
 20
582.8962375105503497
 30
0.0
 40
3.0
100
AcDbArc
 50
180.0
 51
0.0
  0
LINE
  5
68
100
AcDbEntity
100
AcDbLine
  8
0
 62
256
370
-1
  6
BYLAYER
 10
537.2967633895127619
 20
582.8962375105503497
 30
0.0
 11
537.2967633895127619
 21
594.8962375105503497
 31
0.0
  0
LINE
  5
69
100
AcDbEntity
100
AcDbLine
  8
0
 62
256
370
-1
  6
BYLAYER
 10
483.2967633895127619
 20
582.8962375105503497
 30
0.0
 11
501.2967633895127619
 21
582.8962375105503497
 31
0.0
  0
LINE
  5
6A
100
AcDbEntity
100
AcDbLine
  8
0
 62
256
370
-1
  6
BYLAYER
 10
447.2967633895127619
 20
594.8962375105503497
 30
0.0
 11
447.2967633895127619
 21
582.8962375105503497
 31
0.0
  0
LINE
  5
6B
100
AcDbEntity
100
AcDbLine
  8
0
 62
256
370
-1
  6
BYLAYER
 10
662.0475431289278276
 20
117.3199892392195238
 30
0.0
 11
643.0475431289278276
 21
117.319989239219467
 31
0.0
  0
LINE
  5
6C
100
AcDbEntity
100
AcDbLine
  8
0
 62
256
370
-1
  6
BYLAYER
 10
637.0475431289278276
 20
117.3199892392194101
 30
0.0
 11
637.0475431289278276
 21
105.5199892392194556
 31
0.0
  0
LINE
  5
6D
100
AcDbEntity
100
AcDbLine
  8
0
 62
256
370
-1
  6
BYLAYER
 10
637.0475431289278276
 20
105.5199892392194556
 30
0.0
 11
637.0475431289278276
 21
105.5199892392194556
 31
0.0
  0
LINE
  5
6E
100
AcDbEntity
100
AcDbLine
  8
0
 62
256
370
-1
  6
BYLAYER
 10
637.0475431289278276
 20
117.3199892392194101
 30
0.0
 11
637.0475431289278276
 21
117.3199892392194101
 31
0.0
  0
LINE
  5
6F
100
AcDbEntity
100
AcDbLine
  8
0
 62
256
370
-1
  6
BYLAYER
 10
537.2967633895127619
 20
582.8962375105503497
 30
0.0
 11
662.0475431289278276
 21
117.3199892392195238
 31
0.0
  0
LINE
  5
70
100
AcDbEntity
100
AcDbLine
  8
0
 62
256
370
-1
  6
BYLAYER
 10
447.2967633895127619
 20
582.8962375105503497
 30
0.0
 11
572.0475431289278276
 21
117.3199892392194101
 31
0.0
  0
LINE
  5
71
100
AcDbEntity
100
AcDbLine
  8
0
 62
256
370
-1
  6
BYLAYER
 10
572.0475431289278276
 20
117.3199892392194101
 30
0.0
 11
600.0
 21
12.9999999999999964
 31
0.0
  0
LINE
  5
72
100
AcDbEntity
100
AcDbLine
  8
0
 62
256
370
-1
  6
BYLAYER
 10
600.0
 20
12.9999999999999964
 30
0.0
 11
690.0
 21
12.9999999999999964
 31
0.0
  0
LINE
  5
73
100
AcDbEntity
100
AcDbLine
  8
0
 62
256
370
-1
  6
BYLAYER
 10
665.2093435996150674
 20
105.5199892392195125
 30
0.0
 11
690.0
 21
12.9999999999999964
 31
0.0
  0
LINE
  5
74
100
AcDbEntity
100
AcDbLine
  8
0
 62
256
370
-1
  6
BYLAYER
 10
643.0475433055182748
 20
105.5199892392193419
 30
0.0
 11
665.2093433055183596
 21
105.5199892392195693
 31
0.0
  0
LINE
  5
75
100
AcDbEntity
100
AcDbLine
  8
0
 62
256
370
-1
  6
BYLAYER
 10
481.0
 20
255.0999999999999943
 30
0.0
 11
481.0
 21
266.8999999999999773
 31
0.0
  0
ARC
  5
76
100
AcDbEntity
  8
0
 62
256
370
-1
  6
BYLAYER
100
AcDbCircle
 10
478.0000000000000568
 20
266.8999999999999773
 30
0.0
 40
3.0
100
AcDbArc
 50
0.0
 51
180.0
  0
ARC
  5
77
100
AcDbEntity
  8
0
 62
256
370
-1
  6
BYLAYER
100
AcDbCircle
 10
478.0000000000000568
 20
255.0999999999999943
 30
0.0
 40
3.0
100
AcDbArc
 50
180.0
 51
0.0
  0
LINE
  5
78
100
AcDbEntity
100
AcDbLine
  8
0
 62
256
370
-1
  6
BYLAYER
 10
321.1000000000000227
 20
255.0999999999999943
 30
0.0
 11
321.1000000000000227
 21
266.8999999999999773
 31
0.0
  0
LINE
  5
79
100
AcDbEntity
100
AcDbLine
  8
0
 62
256
370
-1
  6
BYLAYER
 10
290.8999999999999773
 20
266.8999999999999773
 30
0.0
 11
290.8999999999999773
 21
255.0999999999999943
 31
0.0
  0
LINE
  5
7A
100
AcDbEntity
100
AcDbLine
  8
0
 62
256
370
-1
  6
BYLAYER
 10
381.1000000000000227
 20
255.0999999999999943
 30
0.0
 11
381.1000000000000227
 21
266.8999999999999773
 31
0.0
  0
LINE
  5
7B
100
AcDbEntity
100
AcDbLine
  8
0
 62
256
370
-1
  6
BYLAYER
 10
350.8999999999999773
 20
266.8999999999999773
 30
0.0
 11
350.8999999999999773
 21
255.0999999999999943
 31
0.0
  0
ARC
  5
7C
100
AcDbEntity
  8
0
 62
256
370
-1
  6
BYLAYER
100
AcDbCircle
 10
293.8999999999999773
 20
266.8999999999999773
 30
0.0
 40
3.0
100
AcDbArc
 50
0.0
 51
180.0
  0
ARC
  5
7D
100
AcDbEntity
  8
0
 62
256
370
-1
  6
BYLAYER
100
AcDbCircle
 10
293.8999999999999773
 20
255.0999999999999943
 30
0.0
 40
3.0
100
AcDbArc
 50
180.0
 51
0.0
  0
ARC
  5
7E
100
AcDbEntity
  8
0
 62
256
370
-1
  6
BYLAYER
100
AcDbCircle
 10
318.1000000000000796
 20
266.8999999999999773
 30
0.0
 40
3.0
100
AcDbArc
 50
0.0
 51
180.0
  0
LINE
  5
7F
100
AcDbEntity
100
AcDbLine
  8
0
 62
256
370
-1
  6
BYLAYER
 10
315.1000000000000796
 20
266.8999999999999773
 30
0.0
 11
296.8999999999999773
 21
266.8999999999999773
 31
0.0
  0
ARC
  5
80
100
AcDbEntity
  8
0
 62
256
370
-1
  6
BYLAYER
100
AcDbCircle
 10
318.1000000000000796
 20
255.0999999999999943
 30
0.0
 40
3.0
100
AcDbArc
 50
180.0
 51
0.0
  0
LINE
  5
81
100
AcDbEntity
100
AcDbLine
  8
0
 62
256
370
-1
  6
BYLAYER
 10
296.8999999999999773
 20
255.0999999999999943
 30
0.0
 11
315.1000000000000796
 21
255.0999999999999943
 31
0.0
  0
ARC
  5
82
100
AcDbEntity
  8
0
 62
256
370
-1
  6
BYLAYER
100
AcDbCircle
 10
353.8999999999999773
 20
266.8999999999999773
 30
0.0
 40
3.0
100
AcDbArc
 50
0.0
 51
180.0
  0
ARC
  5
83
100
AcDbEntity
  8
0
 62
256
370
-1
  6
BYLAYER
100
AcDbCircle
 10
353.8999999999999773
 20
255.0999999999999943
 30
0.0
 40
3.0
100
AcDbArc
 50
180.0
 51
0.0
  0
LINE
  5
84
100
AcDbEntity
100
AcDbLine
  8
0
 62
256
370
-1
  6
BYLAYER
 10
356.8999999999999773
 20
255.0999999999999943
 30
0.0
 11
375.1000000000000796
 21
255.0999999999999943
 31
0.0
  0
ARC
  5
85
100
AcDbEntity
  8
0
 62
256
370
-1
  6
BYLAYER
100
AcDbCircle
 10
378.1000000000000796
 20
255.0999999999999943
 30
0.0
 40
3.0
100
AcDbArc
 50
180.0
 51
0.0
  0
ARC
  5
86
100
AcDbEntity
  8
0
 62
256
370
-1
  6
BYLAYER
100
AcDbCircle
 10
378.1000000000000796
 20
266.8999999999999773
 30
0.0
 40
3.0
100
AcDbArc
 50
0.0
 51
180.0
  0
LINE
  5
87
100
AcDbEntity
100
AcDbLine
  8
0
 62
256
370
-1
  6
BYLAYER
 10
375.1000000000000796
 20
266.8999999999999773
 30
0.0
 11
356.8999999999999773
 21
266.8999999999999773
 31
0.0
  0
LINE
  5
88
100
AcDbEntity
100
AcDbLine
  8
0
 62
256
370
-1
  6
BYLAYER
 10
264.6283746856695416
 20
291.2597901040372221
 30
0.0
 11
275.850841577952167
 21
287.6133895704128918
 31
0.0
  0
LINE
  5
89
100
AcDbEntity
100
AcDbLine
  8
0
 62
256
370
-1
  6
BYLAYER
 10
303.7241744705725637
 20
373.3986873402357674
 30
0.0
 11
292.5017075782897678
 21
377.0450878738601546
 31
0.0
  0
LINE
  5
8A
100
AcDbEntity
100
AcDbLine
  8
0
 62
256
370
-1
  6
BYLAYER
 10
283.1693943481663496
 20
348.3231810817464407
 30
0.0
 11
294.3918612404491455
 21
344.6767805481221103
 31
0.0
  0
LINE
  5
8B
100
AcDbEntity
100
AcDbLine
  8
0
 62
256
370
-1
  6
BYLAYER
 10
334.5949722086297129
 20
468.4092333181216077
 30
0.0
 11
323.3725053163470875
 21
472.055633851745938
 31
0.0
  0
ARC
  5
8C
100
AcDbEntity
  8
0
 62
256
370
-1
  6
BYLAYER
100
AcDbCircle
 10
322.4454543332221306
 20
469.2024643028605624
 30
0.0
 40
3.0
100
AcDbArc
 50
72.0
 51
251.9999999999999716
  0
ARC
  5
8D
100
AcDbEntity
  8
0
 62
256
370
-1
  6
BYLAYER
100
AcDbCircle
 10
333.6679212255050402
 20
465.5560637692361752
 30
0.0
 40
3.0
100
AcDbArc
 50
251.9999999999999716
 51
72.0
  0
ARC
  5
8E
100
AcDbEntity
  8
0
 62
256
370
-1
  6
BYLAYER
100
AcDbCircle
 10
265.5554256687942711
 20
294.1129596529227115
 30
0.0
 40
3.0
100
AcDbArc
 50
72.0
 51
251.9999999999999716
  0
ARC
  5
8F
100
AcDbEntity
  8
0
 62
256
370
-1
  6
BYLAYER
100
AcDbCircle
 10
276.7778925610771239
 20
290.4665591192983243
 30
0.0
 40
3.0
100
AcDbArc
 50
251.9999999999999716
 51
72.0
  0
ARC
  5
90
100
AcDbEntity
  8
0
 62
256
370
-1
  6
BYLAYER
100
AcDbCircle
 10
273.0336369326681734
 20
317.1285273472655035
 30
0.0
 40
3.0
100
AcDbArc
 50
72.0
 51
251.9999999999999716
  0
LINE
  5
91
100
AcDbEntity
100
AcDbLine
  8
0
 62
256
370
-1
  6
BYLAYER
 10
272.1065859495432164
 20
314.275357798380071
 30
0.0
 11
266.4824766519192849
 21
296.966129201808144
 31
0.0
  0
ARC
  5
92
100
AcDbEntity
  8
0
 62
256
370
-1
  6
BYLAYER
100
AcDbCircle
 10
284.2561038249509124
 20
313.4821268136411163
 30
0.0
 40
3.0
100
AcDbArc
 50
251.9999999999999716
 51
72.0
  0
LINE
  5
93
100
AcDbEntity
100
AcDbLine
  8
0
 62
256
370
-1
  6
BYLAYER
 10
277.7049435442021377
 20
293.3197286681837568
 30
0.0
 11
283.3290528418260124
 21
310.6289572647556838
 31
0.0
  0
ARC
  5
94
100
AcDbEntity
  8
0
 62
256
370
-1
  6
BYLAYER
100
AcDbCircle
 10
284.0964453312911928
 20
351.17635063063193
 30
0.0
 40
3.0
100
AcDbArc
 50
72.0
 51
251.9999999999999716
  0
ARC
  5
95
100
AcDbEntity
  8
0
 62
256
370
-1
  6
BYLAYER
100
AcDbCircle
 10
295.3189122235739887
 20
347.5299500970075428
 30
0.0
 40
3.0
100
AcDbArc
 50
251.9999999999999716
 51
72.0
  0
LINE
  5
96
100
AcDbEntity
100
AcDbLine
  8
0
 62
256
370
-1
  6
BYLAYER
 10
296.245963206698832
 20
350.3831196458929753
 30
0.0
 11
301.8700725043228772
 21
367.6923482424649023
 31
0.0
  0
ARC
  5
97
100
AcDbEntity
  8
0
 62
256
370
-1
  6
BYLAYER
100
AcDbCircle
 10
302.7971234874477204
 20
370.5455177913503348
 30
0.0
 40
3.0
100
AcDbArc
 50
251.9999999999999716
 51
72.0
  0
ARC
  5
98
100
AcDbEntity
  8
0
 62
256
370
-1
  6
BYLAYER
100
AcDbCircle
 10
291.5746565951649245
 20
374.1919183249747221
 30
0.0
 40
3.0
100
AcDbArc
 50
72.0
 51
251.9999999999999716
  0
LINE
  5
99
100
AcDbEntity
100
AcDbLine
  8
0
 62
256
370
-1
  6
BYLAYER
 10
290.6476056120400813
 20
371.3387487760892895
 30
0.0
 11
285.0234963144160361
 21
354.0295201795173625
 31
0.0
  0
LINE
  5
9A
100
AcDbEntity
100
AcDbLine
  8
0
 62
256
370
-1
  6
BYLAYER
 10
285.1831548080757557
 20
316.3352963625265488
 30
0.0
 11
273.9606879157930166
 21
319.9816968961508792
 31
0.0
  0
LINE
  5
9B
100
AcDbEntity
100
AcDbLine
  8
0
 62
256
370
-1
  6
BYLAYER
 10
233.3424588796635817
 20
273.8015787767328106
 30
0.0
 11
240.2783248567146472
 21
283.3479793103570046
 31
0.0
  0
LINE
  5
9C
100
AcDbEntity
100
AcDbLine
  8
0
 62
256
370
-1
  6
BYLAYER
 10
167.3049919640944267
 20
336.366209067138243
 30
0.0
 11
160.3691259870432475
 21
326.8198085335138785
 31
0.0
  0
LINE
  5
9D
100
AcDbEntity
100
AcDbLine
  8
0
 62
256
370
-1
  6
BYLAYER
 10
184.8014392171667168
 20
309.0686939142811411
 30
0.0
 11
191.7373051942178677
 21
318.6150944479055056
 31
0.0
  0
LINE
  5
9E
100
AcDbEntity
100
AcDbLine
  8
0
 62
256
370
-1
  6
BYLAYER
 10
86.4841942260371468
 20
395.0859557711561934
 30
0.0
 11
79.548328248986067
 21
385.5395552375319994
 31
0.0
  0
ARC
  5
9F
100
AcDbEntity
  8
0
 62
256
370
-1
  6
BYLAYER
100
AcDbCircle
 10
81.9753792321108108
 20
383.7761994806545545
 30
0.0
 40
3.0
100
AcDbArc
 50
144.0
 51
324.0
  0
ARC
  5
A0
100
AcDbEntity
  8
0
 62
256
370
-1
  6
BYLAYER
100
AcDbCircle
 10
88.9112452091620327
 20
393.3226000142789189
 30
0.0
 40
3.0
100
AcDbArc
 50
324.0
 51
144.0
  0
ARC
  5
A1
100
AcDbEntity
  8
0
 62
256
370
-1
  6
BYLAYER
100
AcDbCircle
 10
230.9154078965386816
 20
275.5649345336101419
 30
0.0
 40
3.0
100
AcDbArc
 50
144.0
 51
324.0
  0
ARC
  5
A2
100
AcDbEntity
  8
0
 62
256
370
-1
  6
BYLAYER
100
AcDbCircle
 10
237.8512738735898893
 20
285.1113350672345632
 30
0.0
 40
3.0
100
AcDbArc
 50
324.0
 51
144.0
  0
ARC
  5
A3
100
AcDbEntity
  8
0
 62
256
370
-1
  6
BYLAYER
100
AcDbCircle
 10
211.3371966326649272
 20
289.7893376390881599
 30
0.0
 40
3.0
100
AcDbArc
 50
144.0
 51
324.0
  0
LINE
  5
A4
100
AcDbEntity
100
AcDbLine
  8
0
 62
256
370
-1
  6
BYLAYER
 10
213.7642476157897136
 20
288.0259818822106581
 30
0.0
 11
228.488356913413952
 21
277.3282902904877005
 31
0.0
  0
ARC
  5
A5
100
AcDbEntity
  8
0
 62
256
370
-1
  6
BYLAYER
100
AcDbCircle
 10
218.273062609716078
 20
299.3357381727124675
 30
0.0
 40
3.0
100
AcDbArc
 50
324.0
 51
144.0
  0
LINE
  5
A6
100
AcDbEntity
100
AcDbLine
  8
0
 62
256
370
-1
  6
BYLAYER
 10
235.4242228904651029
 20
286.8746908241121218
 30
0.0
 11
220.7001135928408928
 21
297.5723824158350226
 31
0.0
  0
ARC
  5
A7
100
AcDbEntity
  8
0
 62
256
370
-1
  6
BYLAYER
100
AcDbCircle
 10
182.3743882340418736
 20
310.8320496711585861
 30
0.0
 40
3.0
100
AcDbArc
 50
144.0
 51
324.0
  0
ARC
  5
A8
100
AcDbEntity
  8
0
 62
256
370
-1
  6
BYLAYER
100
AcDbCircle
 10
189.3102542110930244
 20
320.3784502047829505
 30
0.0
 40
3.0
100
AcDbArc
 50
324.0
 51
144.0
  0
LINE
  5
A9
100
AcDbEntity
100
AcDbLine
  8
0
 62
256
370
-1
  6
BYLAYER
 10
186.8832032279682096
 20
322.1418059616603955
 30
0.0
 11
172.1590939303440564
 21
332.8394975533834099
 31
0.0
  0
ARC
  5
AA
100
AcDbEntity
  8
0
 62
256
370
-1
  6
BYLAYER
100
AcDbCircle
 10
169.7320429472192131
 20
334.6028533102608549
 30
0.0
 40
3.0
100
AcDbArc
 50
324.0
 51
144.0
  0
ARC
  5
AB
100
AcDbEntity
  8
0
 62
256
370
-1
  6
BYLAYER
100
AcDbCircle
 10
162.7961769701680623
 20
325.0564527766364904
 30
0.0
 40
3.0
100
AcDbArc
 50
144.0
 51
324.0
  0
LINE
  5
AC
100
AcDbEntity
100
AcDbLine
  8
0
 62
256
370
-1
  6
BYLAYER
 10
165.2232279532929056
 20
323.2930970197591023
 30
0.0
 11
179.9473372509170304
 21
312.595405428036031
 31
0.0
  0
LINE
  5
AD
100
AcDbEntity
100
AcDbLine
  8
0
 62
256
370
-1
  6
BYLAYER
 10
215.8460116265912916
 20
301.0990939295898556
 30
0.0
 11
208.9101456495401692
 21
291.552693395965548
 31
0.0
  0
LINE
  5
AE
100
AcDbEntity
100
AcDbLine
  8
0
 62
256
370
-1
  6
BYLAYER
 10
240.2783248567146472
 20
238.6520206896429954
 30
0.0
 11
233.3424588796635817
 21
248.1984212232671894
 31
0.0
  0
LINE
  5
AF
100
AcDbEntity
100
AcDbLine
  8
0
 62
256
370
-1
  6
BYLAYER
 10
160.3691259870432191
 20
195.1801914664862068
 30
0.0
 11
167.3049919640943699
 21
185.6337909328618423
 31
0.0
  0
LINE
  5
B0
100
AcDbEntity
100
AcDbLine
  8
0
 62
256
370
-1
  6
BYLAYER
 10
191.7373051942178392
 20
203.3849055520945512
 30
0.0
 11
184.80143921716666
 21
212.9313060857189157
 31
0.0
  0
LINE
  5
B1
100
AcDbEntity
100
AcDbLine
  8
0
 62
256
370
-1
  6
BYLAYER
 10
79.5483282489860386
 20
136.4604447624680574
 30
0.0
 11
86.4841942260371042
 21
126.9140442288438351
 31
0.0
  0
ARC
  5
B2
100
AcDbEntity
  8
0
 62
256
370
-1
  6
BYLAYER
100
AcDbCircle
 10
88.9112452091619758
 20
128.6773999857211379
 30
0.0
 40
3.0
100
AcDbArc
 50
216.0
 51
36.0
  0
ARC
  5
B3
100
AcDbEntity
  8
0
 62
256
370
-1
  6
BYLAYER
100
AcDbCircle
 10
81.9753792321107539
 20
138.2238005193455592
 30
0.0
 40
3.0
100
AcDbArc
 50
36.0
 51
216.0
  0
ARC
  5
B4
100
AcDbEntity
  8
0
 62
256
370
-1
  6
BYLAYER
100
AcDbCircle
 10
237.8512738735898608
 20
236.8886649327654652
 30
0.0
 40
3.0
100
AcDbArc
 50
216.0
 51
36.0
  0
ARC
  5
B5
100
AcDbEntity
  8
0
 62
256
370
-1
  6
BYLAYER
100
AcDbCircle
 10
230.9154078965386816
 20
246.4350654663898581
 30
0.0
 40
3.0
100
AcDbArc
 50
36.0
 51
216.0
  0
ARC
  5
B6
100
AcDbEntity
  8
0
 62
256
370
-1
  6
BYLAYER
100
AcDbCircle
 10
218.2730626097159927
 20
222.6642618272876462
 30
0.0
 40
3.0
100
AcDbArc
 50
216.0
 51
36.0
  0
LINE
  5
B7
100
AcDbEntity
100
AcDbLine
  8
0
 62
256
370
-1
  6
BYLAYER
 10
220.7001135928408928
 20
224.4276175841650058
 30
0.0
 11
235.4242228904649323
 21
235.1253091758881908
 31
0.0
  0
ARC
  5
B8
100
AcDbEntity
  8
0
 62
256
370
-1
  6
BYLAYER
100
AcDbCircle
 10
211.3371966326648703
 20
232.2106623609119822
 30
0.0
 40
3.0
100
AcDbArc
 50
36.0
 51
216.0
  0
LINE
  5
B9
100
AcDbEntity
100
AcDbLine
  8
0
 62
256
370
-1
  6
BYLAYER
 10
228.4883569134137247
 20
244.6717097095125837
 30
0.0
 11
213.7642476157897136
 21
233.9740181177893703
 31
0.0
  0
ARC
  5
BA
100
AcDbEntity
  8
0
 62
256
370
-1
  6
BYLAYER
100
AcDbCircle
 10
189.310254211092996
 20
201.6215497952171347
 30
0.0
 40
3.0
100
AcDbArc
 50
216.0
 51
36.0
  0
ARC
  5
BB
100
AcDbEntity
  8
0
 62
256
370
-1
  6
BYLAYER
100
AcDbCircle
 10
182.3743882340418168
 20
211.1679503288414992
 30
0.0
 40
3.0
100
AcDbArc
 50
36.0
 51
216.0
  0
LINE
  5
BC
100
AcDbEntity
100
AcDbLine
  8
0
 62
256
370
-1
  6
BYLAYER
 10
179.9473372509169735
 20
209.4045945719640827
 30
0.0
 11
165.2232279532928487
 21
198.7069029802410114
 31
0.0
  0
ARC
  5
BD
100
AcDbEntity
  8
0
 62
256
370
-1
  6
BYLAYER
100
AcDbCircle
 10
162.7961769701680055
 20
196.9435472233635949
 30
0.0
 40
3.0
100
AcDbArc
 50
36.0
 51
216.0
  0
ARC
  5
BE
100
AcDbEntity
  8
0
 62
256
370
-1
  6
BYLAYER
100
AcDbCircle
 10
169.7320429472191847
 20
187.3971466897392304
 30
0.0
 40
3.0
100
AcDbArc
 50
216.0
 51
36.0
  0
LINE
  5
BF
100
AcDbEntity
100
AcDbLine
  8
0
 62
256
370
-1
  6
BYLAYER
 10
172.159093930344028
 20
189.1605024466166469
 30
0.0
 11
186.8832032279681528
 21
199.8581940383397182
 31
0.0
  0
LINE
  5
C0
100
AcDbEntity
100
AcDbLine
  8
0
 62
256
370
-1
  6
BYLAYER
 10
208.9101456495400555
 20
230.4473066040345941
 30
0.0
 11
215.8460116265911779
 21
220.9009060704103149
 31
0.0
  0
LINE
  5
C1
100
AcDbEntity
100
AcDbLine
  8
0
 62
256
370
-1
  6
BYLAYER
 10
275.8508415779522238
 20
234.3866104295871367
 30
0.0
 11
264.6283746856695984
 21
230.7402098959628347
 31
0.0
  0
LINE
  5
C2
100
AcDbEntity
100
AcDbLine
  8
0
 62
256
370
-1
  6
BYLAYER
 10
292.5017075782897678
 20
144.9549121261398739
 30
0.0
 11
303.7241744705725637
 21
148.6013126597642611
 31
0.0
  0
LINE
  5
C3
100
AcDbEntity
100
AcDbLine
  8
0
 62
256
370
-1
  6
BYLAYER
 10
294.3918612404491455
 20
177.3232194518779465
 30
0.0
 11
283.1693943481662927
 21
173.6768189182535593
 31
0.0
  0
LINE
  5
C4
100
AcDbEntity
100
AcDbLine
  8
0
 62
256
370
-1
  6
BYLAYER
 10
323.3725053163470875
 20
49.9443661482540904
 30
0.0
 11
334.5949722086296561
 21
53.5907666818784065
 31
0.0
  0
ARC
  5
C5
100
AcDbEntity
  8
0
 62
256
370
-1
  6
BYLAYER
100
AcDbCircle
 10
333.6679212255049833
 20
56.4439362307638532
 30
0.0
 40
3.0
100
AcDbArc
 50
288.0
 51
108.0
  0
ARC
  5
C6
100
AcDbEntity
  8
0
 62
256
370
-1
  6
BYLAYER
100
AcDbCircle
 10
322.4454543332221306
 20
52.7975356971394518
 30
0.0
 40
3.0
100
AcDbArc
 50
108.0
 51
288.0
  0
ARC
  5
C7
100
AcDbEntity
  8
0
 62
256
370
-1
  6
BYLAYER
100
AcDbCircle
 10
276.7778925610771807
 20
231.5334408807017326
 30
0.0
 40
3.0
100
AcDbArc
 50
288.0
 51
108.0
  0
ARC
  5
C8
100
AcDbEntity
  8
0
 62
256
370
-1
  6
BYLAYER
100
AcDbCircle
 10
265.555425668794328
 20
227.8870403470773169
 30
0.0
 40
3.0
100
AcDbArc
 50
108.0
 51
288.0
  0
ARC
  5
C9
100
AcDbEntity
  8
0
 62
256
370
-1
  6
BYLAYER
100
AcDbCircle
 10
284.2561038249507988
 20
208.5178731863588553
 30
0.0
 40
3.0
100
AcDbArc
 50
288.0
 51
108.0
  0
LINE
  5
CA
100
AcDbEntity
100
AcDbLine
  8
0
 62
256
370
-1
  6
BYLAYER
 10
283.3290528418260692
 20
211.3710427352443446
 30
0.0
 11
277.7049435442018535
 21
228.6802713318161864
 31
0.0
  0
ARC
  5
CB
100
AcDbEntity
  8
0
 62
256
370
-1
  6
BYLAYER
100
AcDbCircle
 10
273.0336369326680597
 20
204.8714726527344965
 30
0.0
 40
3.0
100
AcDbArc
 50
108.0
 51
288.0
  0
LINE
  5
CC
100
AcDbEntity
100
AcDbLine
  8
0
 62
256
370
-1
  6
BYLAYER
 10
266.4824766519190575
 20
225.0338707981917992
 30
0.0
 11
272.1065859495432733
 21
207.7246422016199858
 31
0.0
  0
ARC
  5
CD
100
AcDbEntity
  8
0
 62
256
370
-1
  6
BYLAYER
100
AcDbCircle
 10
295.3189122235739887
 20
174.4700499029924856
 30
0.0
 40
3.0
100
AcDbArc
 50
288.0
 51
108.0
  0
ARC
  5
CE
100
AcDbEntity
  8
0
 62
256
370
-1
  6
BYLAYER
100
AcDbCircle
 10
284.0964453312911928
 20
170.8236493693681268
 30
0.0
 40
3.0
100
AcDbArc
 50
108.0
 51
288.0
  0
LINE
  5
CF
100
AcDbEntity
100
AcDbLine
  8
0
 62
256
370
-1
  6
BYLAYER
 10
285.0234963144159792
 20
167.9704798204826375
 30
0.0
 11
290.6476056120400813
 21
150.6612512239107673
 31
0.0
  0
ARC
  5
D0
100
AcDbEntity
  8
0
 62
256
370
-1
  6
BYLAYER
100
AcDbCircle
 10
291.5746565951649245
 20
147.8080816750252779
 30
0.0
 40
3.0
100
AcDbArc
 50
108.0
 51
288.0
  0
ARC
  5
D1
100
AcDbEntity
  8
0
 62
256
370
-1
  6
BYLAYER
100
AcDbCircle
 10
302.7971234874477204
 20
151.4544822086496652
 30
0.0
 40
3.0
100
AcDbArc
 50
288.0
 51
108.0
  0
LINE
  5
D2
100
AcDbEntity
100
AcDbLine
  8
0
 62
256
370
-1
  6
BYLAYER
 10
301.8700725043228772
 20
154.3076517575351261
 30
0.0
 11
296.2459632066987751
 21
171.6168803541070247
 31
0.0
  0
LINE
  5
D3
100
AcDbEntity
100
AcDbLine
  8
0
 62
256
370
-1
  6
BYLAYER
 10
273.9606879157929029
 20
202.0183031038490924
 30
0.0
 11
285.1831548080755283
 21
205.6647036374734228
 31
0.0
  0
LINE
  5
D4
100
AcDbEntity
100
AcDbLine
  8
0
 62
256
370
-1
  6
BYLAYER
 10
475.0000000000000568
 20
266.8999999999999773
 30
0.0
 11
455.9107231529348496
 21
266.8999999999999773
 31
0.0
  0
LINE
  5
D5
100
AcDbEntity
100
AcDbLine
  8
0
 62
256
370
-1
  6
BYLAYER
 10
455.9107231529348496
 20
255.0999999999999943
 30
0.0
 11
475.0000000000000568
 21
255.0999999999999943
 31
0.0
  0
ARC
  5
D6
100
AcDbEntity
  8
0
 62
256
370
-1
  6
BYLAYER
100
AcDbCircle
 10
261.0
 20
261.0
 30
0.0
 40
195.0
100
AcDbArc
 50
1.7338292186538518
 51
70.2661707813460055
  0
LINE
  5
D7
100
AcDbEntity
100
AcDbLine
  8
0
 62
256
370
-1
  6
BYLAYER
 10
321.5184033500975147
 20
466.349294753975073
 30
0.0
 11
315.6194923940259969
 21
448.1943136172114919
 31
0.0
  0
LINE
  5
D8
100
AcDbEntity
100
AcDbLine
  8
0
 62
256
370
-1
  6
BYLAYER
 10
326.8419592863087928
 20
444.5479130835871047
 30
0.0
 11
332.7408702423802538
 21
462.7028942203506858
 31
0.0
  0
ARC
  5
D9
100
AcDbEntity
  8
0
 62
256
370
-1
  6
BYLAYER
100
AcDbCircle
 10
261.0
 20
261.0
 30
0.0
 40
195.0
100
AcDbArc
 50
73.7338292186539945
 51
142.2661707813460055
  0
LINE
  5
DA
100
AcDbEntity
100
AcDbLine
  8
0
 62
256
370
-1
  6
BYLAYER
 10
106.7818455718908268
 20
380.3388488497683966
 30
0.0
 11
91.338296192286947
 21
391.5592442574016445
 31
0.0
  0
LINE
  5
DB
100
AcDbEntity
100
AcDbLine
  8
0
 62
256
370
-1
  6
BYLAYER
 10
84.4024302152357677
 20
382.01284372377728
 30
0.0
 11
99.8459795948396618
 21
370.7924483161440889
 31
0.0
  0
LINE
  5
DC
100
AcDbEntity
100
AcDbLine
  8
0
 62
256
370
-1
  6
BYLAYER
 10
99.8459795948395765
 20
151.2075516838560816
 30
0.0
 11
84.4024302152355119
 21
139.9871562762231179
 31
0.0
  0
ARC
  5
DD
100
AcDbEntity
  8
0
 62
256
370
-1
  6
BYLAYER
100
AcDbCircle
 10
261.0
 20
261.0
 30
0.0
 40
195.0
100
AcDbArc
 50
145.7338292186539661
 51
214.266170781345977
  0
LINE
  5
DE
100
AcDbEntity
100
AcDbLine
  8
0
 62
256
370
-1
  6
BYLAYER
 10
91.338296192286677
 20
130.4407557425987534
 30
0.0
 11
106.7818455718907131
 21
141.6611511502317171
 31
0.0
  0
ARC
  5
DF
100
AcDbEntity
  8
0
 62
256
370
-1
  6
BYLAYER
100
AcDbCircle
 10
261.0
 20
261.0
 30
0.0
 40
195.0
100
AcDbArc
 50
217.7338292186539377
 51
286.266170781345977
  0
ARC
  5
E0
100
AcDbEntity
  8
0
 62
256
370
-1
  6
BYLAYER
100
AcDbCircle
 10
261.0
 20
261.0
 30
0.0
 40
195.0
100
AcDbArc
 50
289.7338292186539661
 51
358.2661707813461476
  0
LINE
  5
E1
100
AcDbEntity
100
AcDbLine
  8
0
 62
256
370
-1
  6
BYLAYER
 10
315.61949239402594
 20
73.8056863827884939
 30
0.0
 11
321.5184033500971168
 21
55.6507052460248701
 31
0.0
  0
LINE
  5
E2
100
AcDbEntity
100
AcDbLine
  8
0
 62
256
370
-1
  6
BYLAYER
 10
332.7408702423799696
 20
59.2971057796492573
 30
0.0
 11
326.8419592863086791
 21
77.4520869164128101
 31
0.0
  0
ENDSEC
  0
SECTION
  2
OBJECTS
  0
DICTIONARY
  5
C
100
AcDbDictionary
280
0
281
1
  3
ACAD_GROUP
350
D
  3
ACAD_LAYOUT
350
1A
  3
ACAD_MLINESTYLE
350
17
  3
ACAD_PLOTSETTINGS
350
19
  3
ACAD_PLOTSTYLENAME
350
E
  3
AcDbVariableDictionary
350
E3
  3
QCAD_OBJECTS
350
E4
  0
DICTIONARY
  5
D
100
AcDbDictionary
280
0
281
1
  0
ACDBDICTIONARYWDFLT
  5
E
100
AcDbDictionary
281
1
  3
Normal
350
F
100
AcDbDictionaryWithDefault
340
F
  0
ACDBPLACEHOLDER
  5
F
  0
DICTIONARY
  5
17
100
AcDbDictionary
280
0
281
1
  3
Standard
350
18
  0
MLINESTYLE
  5
18
100
AcDbMlineStyle
  2
STANDARD
 70
0
  3

 62
256
 51
90.0
 52
90.0
 71
2
 49
0.5
 62
256
  6
BYLAYER
 49
-0.5
 62
256
  6
BYLAYER
  0
DICTIONARY
  5
19
100
AcDbDictionary
280
0
281
1
  0
DICTIONARY
  5
1A
100
AcDbDictionary
281
1
  3
Layout1
350
1E
  3
Layout2
350
26
  3
Model
350
22
  0
LAYOUT
  5
1E
100
AcDbPlotSettings
  1

  2
C:\Program Files\AutoCAD 2002\plotters\DWF ePlot (optimized for plotting).pc3
  4

  6

 40
0.0
 41
0.0
 42
0.0
 43
0.0
 44
0.0
 45
0.0
 46
0.0
 47
0.0
 48
0.0
 49
0.0
140
0.0
141
0.0
142
1.0
143
1.0
 70
688
 72
0
 73
0
 74
5
  7

 75
16
147
1.0
148
0.0
149
0.0
100
AcDbLayout
  1
Layout1
 70
1
 71
1
 10
0.0
 20
0.0
 11
420.0
 21
297.0
 12
0.0
 22
0.0
 32
0.0
 14
100000000000000000000.0
 24
100000000000000000000.0
 34
100000000000000000000.0
 15
-100000000000000000000.0
 25
-100000000000000000000.0
 35
-100000000000000000000.0
146
0.0
 13
0.0
 23
0.0
 33
0.0
 16
1.0
 26
0.0
 36
0.0
 17
0.0
 27
1.0
 37
0.0
 76
0
330
1B
  0
LAYOUT
  5
22
100
AcDbPlotSettings
  1

  2
C:\Program Files\AutoCAD 2002\plotters\DWF ePlot (optimized for plotting).pc3
  4

  6

 40
0.0
 41
0.0
 42
0.0
 43
0.0
 44
0.0
 45
0.0
 46
0.0
 47
0.0
 48
0.0
 49
0.0
140
0.0
141
0.0
142
1.0
143
1.0
 70
1712
 72
0
 73
0
 74
0
  7

 75
0
147
1.0
148
0.0
149
0.0
100
AcDbLayout
  1
Model
 70
1
 71
0
 10
0.0
 20
0.0
 11
12.0
 21
9.0
 12
0.0
 22
0.0
 32
0.0
 14
0.0
 24
0.0
 34
0.0
 15
0.0
 25
0.0
 35
0.0
146
0.0
 13
0.0
 23
0.0
 33
0.0
 16
1.0
 26
0.0
 36
0.0
 17
0.0
 27
1.0
 37
0.0
 76
0
330
1F
  0
LAYOUT
  5
26
100
AcDbPlotSettings
  1

  2
C:\Program Files\AutoCAD 2002\plotters\DWF ePlot (optimized for plotting).pc3
  4

  6

 40
0.0
 41
0.0
 42
0.0
 43
0.0
 44
0.0
 45
0.0
 46
0.0
 47
0.0
 48
0.0
 49
0.0
140
0.0
141
0.0
142
1.0
143
1.0
 70
688
 72
0
 73
0
 74
5
  7

 75
16
147
1.0
148
0.0
149
0.0
100
AcDbLayout
  1
Layout2
 70
1
 71
2
 10
0.0
 20
0.0
 11
12.0
 21
9.0
 12
0.0
 22
0.0
 32
0.0
 14
0.0
 24
0.0
 34
0.0
 15
0.0
 25
0.0
 35
0.0
146
0.0
 13
0.0
 23
0.0
 33
0.0
 16
1.0
 26
0.0
 36
0.0
 17
0.0
 27
1.0
 37
0.0
 76
0
330
23
  0
DICTIONARY
  5
E3
100
AcDbDictionary
281
1
  3
DIMASSOC
350
E6
  3
HIDETEXT
350
E5
  0
DICTIONARYVAR
  5
E5
100
DictionaryVariables
280
0
  1
2
  0
DICTIONARYVAR
  5
E6
100
DictionaryVariables
280
0
  1
1
  0
DICTIONARY
  5
E4
100
AcDbDictionary
281
1
  3
Grid/DisplayGrid00
350
E7
  3
Grid/DisplayGrid01
350
E8
  3
Grid/DisplayGrid02
350
E9
  3
Grid/DisplayGrid03
350
EA
  3
Grid/GridSpacingX00
350
EB
  3
Grid/GridSpacingX01
350
EC
  3
Grid/GridSpacingX02
350
ED
  3
Grid/GridSpacingX03
350
EE
  3
Grid/GridSpacingY00
350
EF
  3
Grid/GridSpacingY01
350
F0
  3
Grid/GridSpacingY02
350
F1
  3
Grid/GridSpacingY03
350
F2
  3
Grid/IsometricGrid00
350
F3
  3
Grid/IsometricGrid01
350
F4
  3
Grid/IsometricGrid02
350
F5
  3
Grid/IsometricGrid03
350
F6
  3
Grid/IsometricProjection00
350
F7
  3
Grid/IsometricProjection01
350
F8
  3
Grid/IsometricProjection02
350
F9
  3
Grid/IsometricProjection03
350
FA
  3
Grid/MetaGridSpacingX00
350
FB
  3
Grid/MetaGridSpacingX01
350
FC
  3
Grid/MetaGridSpacingX02
350
FD
  3
Grid/MetaGridSpacingX03
350
FE
  3
Grid/MetaGridSpacingY00
350
FF
  3
Grid/MetaGridSpacingY01
350
100
  3
Grid/MetaGridSpacingY02
350
101
  3
Grid/MetaGridSpacingY03
350
102
  3
MultiPageSettings/Columns
350
103
  3
MultiPageSettings/GlueMarginsBottom
350
104
  3
MultiPageSettings/GlueMarginsLeft
350
105
  3
MultiPageSettings/GlueMarginsRight
350
106
  3
MultiPageSettings/GlueMarginsTop
350
107
  3
MultiPageSettings/PrintCropMarks
350
108
  3
MultiPageSettings/Rows
350
109
  3
PageSettings/OffsetX
350
10A
  3
PageSettings/OffsetY
350
10B
  3
PageSettings/PageOrientation
350
10C
  3
PageSettings/PaperHeight
350
10D
  3
PageSettings/PaperSizeName
350
10E
  3
PageSettings/PaperWidth
350
10F
  3
PageSettings/Scale
350
110
  3
PageSettings/ShowPaperBorders
350
111
  3
UnitSettings/PaperUnit
350
112
  0
XRECORD
  5
E7
330
E4
100
AcDbXrecord
280
1
290
1
  0
XRECORD
  5
E8
330
E4
100
AcDbXrecord
280
1
290
1
  0
XRECORD
  5
E9
330
E4
100
AcDbXrecord
280
1
290
1
  0
XRECORD
  5
EA
330
E4
100
AcDbXrecord
280
1
290
1
  0
XRECORD
  5
EB
330
E4
100
AcDbXrecord
280
1
1000
auto
  0
XRECORD
  5
EC
330
E4
100
AcDbXrecord
280
1
1000
auto
  0
XRECORD
  5
ED
330
E4
100
AcDbXrecord
280
1
1000
auto
  0
XRECORD
  5
EE
330
E4
100
AcDbXrecord
280
1
1000
auto
  0
XRECORD
  5
EF
330
E4
100
AcDbXrecord
280
1
1000
auto
  0
XRECORD
  5
F0
330
E4
100
AcDbXrecord
280
1
1000
auto
  0
XRECORD
  5
F1
330
E4
100
AcDbXrecord
280
1
1000
auto
  0
XRECORD
  5
F2
330
E4
100
AcDbXrecord
280
1
1000
auto
  0
XRECORD
  5
F3
330
E4
100
AcDbXrecord
280
1
290
0
  0
XRECORD
  5
F4
330
E4
100
AcDbXrecord
280
1
290
0
  0
XRECORD
  5
F5
330
E4
100
AcDbXrecord
280
1
290
0
  0
XRECORD
  5
F6
330
E4
100
AcDbXrecord
280
1
290
0
  0
XRECORD
  5
F7
330
E4
100
AcDbXrecord
280
1
 90
0
  0
XRECORD
  5
F8
330
E4
100
AcDbXrecord
280
1
 90
0
  0
XRECORD
  5
F9
330
E4
100
AcDbXrecord
280
1
 90
0
  0
XRECORD
  5
FA
330
E4
100
AcDbXrecord
280
1
 90
0
  0
XRECORD
  5
FB
330
E4
100
AcDbXrecord
280
1
1000
auto
  0
XRECORD
  5
FC
330
E4
100
AcDbXrecord
280
1
1000
auto
  0
XRECORD
  5
FD
330
E4
100
AcDbXrecord
280
1
1000
auto
  0
XRECORD
  5
FE
330
E4
100
AcDbXrecord
280
1
1000
auto
  0
XRECORD
  5
FF
330
E4
100
AcDbXrecord
280
1
1000
auto
  0
XRECORD
  5
100
330
E4
100
AcDbXrecord
280
1
1000
auto
  0
XRECORD
  5
101
330
E4
100
AcDbXrecord
280
1
1000
auto
  0
XRECORD
  5
102
330
E4
100
AcDbXrecord
280
1
1000
auto
  0
XRECORD
  5
103
330
E4
100
AcDbXrecord
280
1
 90
1
  0
XRECORD
  5
104
330
E4
100
AcDbXrecord
280
1
 40
10.0
  0
XRECORD
  5
105
330
E4
100
AcDbXrecord
280
1
 40
10.0
  0
XRECORD
  5
106
330
E4
100
AcDbXrecord
280
1
 40
10.0
  0
XRECORD
  5
107
330
E4
100
AcDbXrecord
280
1
 40
10.0
  0
XRECORD
  5
108
330
E4
100
AcDbXrecord
280
1
290
0
  0
XRECORD
  5
109
330
E4
100
AcDbXrecord
280
1
 90
1
  0
XRECORD
  5
10A
330
E4
100
AcDbXrecord
280
1
 40
0.0
  0
XRECORD
  5
10B
330
E4
100
AcDbXrecord
280
1
 40
0.0
  0
XRECORD
  5
10C
330
E4
100
AcDbXrecord
280
1
1000
Portrait
  0
XRECORD
  5
10D
330
E4
100
AcDbXrecord
280
1
 40
420.0
  0
XRECORD
  5
10E
330
E4
100
AcDbXrecord
280
1
1000
ISO A3
  0
XRECORD
  5
10F
330
E4
100
AcDbXrecord
280
1
 40
297.0
  0
XRECORD
  5
110
330
E4
100
AcDbXrecord
280
1
1000
1:1
  0
XRECORD
  5
111
330
E4
100
AcDbXrecord
280
1
290
1
  0
XRECORD
  5
112
330
E4
100
AcDbXrecord
280
1
 90
4
  0
ENDSEC
  0
EOF
