999
dxflib 3.1.5.0
  0
SECTION
  2
HEADER
  9
$ACADVER
  1
AC1015
  9
$HANDSEED
  5
FFFF
  9
$ANGBASE
 50
0.0
  9
$ATTMODE
 70
1
  9
$AUNITS
 70
0
  9
$AUPREC
 70
0
  9
$CELTSCALE
 40
1.0
  9
$CHAMFERA
 40
0.0
  9
$CHAMFERB
 40
0.0
  9
$CHAMFERC
 40
0.0
  9
$CHAMFERD
 40
0.0
  9
$CMLJUST
 70
0
  9
$CMLSCALE
 40
1.0
  9
$DIMADEC
 70
0
  9
$DIMALTD
 70
2
  9
$DIMALTF
 40
25.3999999999999986
  9
$DIMALTRND
 40
0.0
  9
$DIMALTTD
 70
2
  9
$DIMALTTZ
 70
0
  9
$DIMALTU
 70
2
  9
$DIMALTZ
 70
0
  9
$DIMAPOST
  1

  9
$DIMASZ
 40
2.5
  9
$DIMATFIT
 70
3
  9
$DIMAUNIT
 70
0
  9
$DIMAZIN
 70
2
  9
$DIMCEN
 40
0.09
  9
$DIMDEC
 70
4
  9
$DIMDLE
 40
0.0
  9
$DIMDLI
 40
0.38
  9
$DIMDSEP
 70
46
  9
$DIMEXE
 40
1.25
  9
$DIMEXO
 40
0.625
  9
$DIMFRAC
 70
0
  9
$DIMGAP
 40
0.625
  9
$DIMJUST
 70
0
  9
$DIMLFAC
 40
1.0
  9
$DIMLUNIT
 70
2
  9
$DIMLWD
 70
-2
  9
$DIMLWE
 70
-2
  9
$DIMPOST
  1

  9
$DIMRND
 40
0.0
  9
$DIMSCALE
 40
1.0
  9
$DIMTAD
 70
0
  9
$DIMTDEC
 70
4
  9
$DIMTFAC
 40
1.0
  9
$DIMTM
 40
0.0
  9
$DIMTOLJ
 70
1
  9
$DIMTP
 40
0.0
  9
$DIMTSZ
 40
0.0
  9
$DIMTVP
 40
0.0
  9
$DIMTXT
 40
2.5
  9
$DIMTZIN
 70
0
  9
$DIMZIN
 70
8
  9
$ELEVATION
 40
0.0
  9
$EXTMAX
 10
-100000000000000000000.0
 20
-100000000000000000000.0
 30
-100000000000000000000.0
  9
$EXTMIN
 10
100000000000000000000.0
 20
100000000000000000000.0
 30
100000000000000000000.0
  9
$FILLETRAD
 40
0.5
  9
$INSBASE
 10
0.0
 20
0.0
 30
0.0
  9
$INSUNITS
 70
4
  9
$LIMMAX
 10
12.0
 20
9.0
  9
$LIMMIN
 10
0.0
 20
0.0
  9
$LTSCALE
 40
1.0
  9
$LUNITS
 70
2
  9
$LUPREC
 70
4
  9
$MAXACTVP
 70
64
  9
$PDMODE
 70
0
  9
$PDSIZE
 40
0.0
  9
$PELEVATION
 40
0.0
  9
$PEXTMAX
 10
-100000000000000000000.0
 20
-100000000000000000000.0
 30
-100000000000000000000.0
  9
$PEXTMIN
 10
100000000000000000000.0
 20
100000000000000000000.0
 30
100000000000000000000.0
  9
$PINSBASE
 10
0.0
 20
0.0
 30
0.0
  9
$PLIMMAX
 10
12.0
 20
9.0
  9
$PLIMMIN
 10
0.0
 20
0.0
  9
$PLINEWID
 40
0.0
  9
$PROXYGRAPHICS
 70
1
  9
$PUCSORG
 10
0.0
 20
0.0
 30
0.0
  9
$PUCSXDIR
 10
1.0
 20
0.0
 30
0.0
  9
$PUCSYDIR
 10
0.0
 20
1.0
 30
0.0
  9
$SHADEDGE
 70
3
  9
$SHADEDIF
 70
70
  9
$SKETCHINC
 40
0.1
  9
$SPLINESEGS
 70
8
  9
$SPLINETYPE
 70
6
  9
$SURFTAB1
 70
6
  9
$SURFTAB2
 70
6
  9
$SURFTYPE
 70
6
  9
$SURFU
 70
6
  9
$SURFV
 70
6
  9
$TEXTSIZE
 40
0.2
  9
$THICKNESS
 40
0.0
  9
$TRACEWID
 40
0.05
  9
$TREEDEPTH
 70
3020
  9
$UCSORG
 10
0.0
 20
0.0
 30
0.0
  9
$UCSXDIR
 10
1.0
 20
0.0
 30
0.0
  9
$UCSYDIR
 10
0.0
 20
1.0
 30
0.0
  9
$UNITMODE
 70
0
  9
$USERI1
 70
0
  9
$USERI2
 70
0
  9
$USERI3
 70
0
  9
$USERI4
 70
0
  9
$USERI5
 70
0
  9
$USERR1
 40
0.0
  9
$USERR2
 40
0.0
  9
$USERR3
 40
0.0
  9
$USERR4
 40
0.0
  9
$USERR5
 40
0.0
  0
SECTION
  2
TABLES
  0
TABLE
  2
VPORT
  5
8
100
AcDbSymbolTable
 70
1
  0
VPORT
  5
30
100
AcDbSymbolTableRecord
100
AcDbViewportTableRecord
  2
*Active
 70
0
 10
0.0
 20
0.0
 11
1.0
 21
1.0
 12
286.3055555555554861
 22
148.5
 13
0.0
 23
0.0
 14
10.0
 24
10.0
 15
10.0
 25
10.0
 16
0.0
 26
0.0
 36
1.0
 17
0.0
 27
0.0
 37
0.0
 40
297.0
 41
1.92798353909465
 42
50.0
 43
0.0
 44
0.0
 50
0.0
 51
0.0
 71
0
 72
100
 73
1
 74
3
 75
1
 76
1
 77
0
 78
0
281
0
 65
1
110
0.0
120
0.0
130
0.0
111
1.0
121
0.0
131
0.0
112
0.0
122
1.0
132
0.0
 79
0
146
0.0
  0
ENDTAB
  0
TABLE
  2
LTYPE
  5
5
100
AcDbSymbolTable
 70
21
  0
LTYPE
  5
31
100
AcDbSymbolTableRecord
100
AcDbLinetypeTableRecord
  2
CENTER2
 70
0
  3
Center (.5x) ___ _ ___ _ ___ _ ___ _ ___ _ ___
 72
65
 73
4
 40
28.5749999999999993
 49
19.0500000000000007
 74
0
 49
-3.1749999999999998
 74
0
 49
3.1749999999999998
 74
0
 49
-3.1749999999999998
 74
0
  0
LTYPE
  5
32
100
AcDbSymbolTableRecord
100
AcDbLinetypeTableRecord
  2
DIVIDEX2
 70
0
  3
Divide (2x) ________  .  .  ________  .  .  _
 72
65
 73
6
 40
63.5
 49
25.3999999999999986
 74
0
 49
-12.6999999999999993
 74
0
 49
0.0
 74
0
 49
-12.6999999999999993
 74
0
 49
0.0
 74
0
 49
-12.6999999999999993
 74
0
  0
LTYPE
  5
33
100
AcDbSymbolTableRecord
100
AcDbLinetypeTableRecord
  2
DOT2
 70
0
  3
Dot (.5x) .....................................
 72
65
 73
2
 40
3.1749999999999998
 49
0.0
 74
0
 49
-3.1749999999999998
 74
0
  0
LTYPE
  5
34
100
AcDbSymbolTableRecord
100
AcDbLinetypeTableRecord
  2
DASHDOT2
 70
0
  3
Dash dot (.5x) _._._._._._._._._._._._._._._.
 72
65
 73
4
 40
12.6999999999999993
 49
6.3499999999999996
 74
0
 49
-3.1749999999999998
 74
0
 49
0.0
 74
0
 49
-3.1749999999999998
 74
0
  0
LTYPE
  5
35
100
AcDbSymbolTableRecord
100
AcDbLinetypeTableRecord
  2
DIVIDE
 70
0
  3
Divide ____ . . ____ . . ____ . . ____ . . ____
 72
65
 73
6
 40
31.75
 49
12.6999999999999993
 74
0
 49
-6.3499999999999996
 74
0
 49
0.0
 74
0
 49
-6.3499999999999996
 74
0
 49
0.0
 74
0
 49
-6.3499999999999996
 74
0
  0
LTYPE
  5
36
100
AcDbSymbolTableRecord
100
AcDbLinetypeTableRecord
  2
DASHDOT
 70
0
  3
Dash dot __ . __ . __ . __ . __ . __ . __ . __
 72
65
 73
4
 40
25.3999999999999986
 49
12.6999999999999993
 74
0
 49
-6.3499999999999996
 74
0
 49
0.0
 74
0
 49
-6.3499999999999996
 74
0
  0
LTYPE
  5
37
100
AcDbSymbolTableRecord
100
AcDbLinetypeTableRecord
  2
BORDER
 70
0
  3
Border __ __ . __ __ . __ __ . __ __ . __ __ .
 72
65
 73
6
 40
44.4500000000000028
 49
12.6999999999999993
 74
0
 49
-6.3499999999999996
 74
0
 49
12.6999999999999993
 74
0
 49
-6.3499999999999996
 74
0
 49
0.0
 74
0
 49
-6.3499999999999996
 74
0
  0
LTYPE
  5
38
100
AcDbSymbolTableRecord
100
AcDbLinetypeTableRecord
  2
DASHDOTX2
 70
0
  3
Dash dot (2x) ____  .  ____  .  ____  .  ___
 72
65
 73
4
 40
50.7999999999999972
 49
25.3999999999999986
 74
0
 49
-12.6999999999999993
 74
0
 49
0.0
 74
0
 49
-12.6999999999999993
 74
0
  0
LTYPE
  5
39
100
AcDbSymbolTableRecord
100
AcDbLinetypeTableRecord
  2
CENTERX2
 70
0
  3
Center (2x) ________  __  ________  __  _____
 72
65
 73
4
 40
101.5999999999999943
 49
63.5
 74
0
 49
-12.6999999999999993
 74
0
 49
12.6999999999999993
 74
0
 49
-12.6999999999999993
 74
0
  0
LTYPE
  5
3A
100
AcDbSymbolTableRecord
100
AcDbLinetypeTableRecord
  2
BORDER2
 70
0
  3
Border (.5x) __.__.__.__.__.__.__.__.__.__.__.
 72
65
 73
6
 40
22.2250000000000014
 49
6.3499999999999996
 74
0
 49
-3.1749999999999998
 74
0
 49
6.3499999999999996
 74
0
 49
-3.1749999999999998
 74
0
 49
0.0
 74
0
 49
-3.1749999999999998
 74
0
  0
LTYPE
  5
3B
100
AcDbSymbolTableRecord
100
AcDbLinetypeTableRecord
  2
BORDERX2
 70
0
  3
Border (2x) ____  ____  .  ____  ____  .  ___
 72
65
 73
6
 40
88.9000000000000057
 49
25.3999999999999986
 74
0
 49
-12.6999999999999993
 74
0
 49
25.3999999999999986
 74
0
 49
-12.6999999999999993
 74
0
 49
0.0
 74
0
 49
-12.6999999999999993
 74
0
  0
LTYPE
  5
16
100
AcDbSymbolTableRecord
100
AcDbLinetypeTableRecord
  2
CONTINUOUS
 70
0
  3
Solid line
 72
65
 73
0
 40
0.0
  0
LTYPE
  5
14
100
AcDbSymbolTableRecord
100
AcDbLinetypeTableRecord
  2
BYBLOCK
 70
0
  3

 72
65
 73
0
 40
0.0
  0
LTYPE
  5
15
100
AcDbSymbolTableRecord
100
AcDbLinetypeTableRecord
  2
BYLAYER
 70
0
  3

 72
65
 73
0
 40
0.0
  0
LTYPE
  5
3C
100
AcDbSymbolTableRecord
100
AcDbLinetypeTableRecord
  2
DASHED2
 70
0
  3
Dashed (.5x) _ _ _ _ _ _ _ _ _ _ _ _ _ _ _ _ _
 72
65
 73
2
 40
9.5250000000000004
 49
6.3499999999999996
 74
0
 49
-3.1749999999999998
 74
0
  0
LTYPE
  5
3D
100
AcDbSymbolTableRecord
100
AcDbLinetypeTableRecord
  2
CENTER
 70
0
  3
Center ____ _ ____ _ ____ _ ____ _ ____ _ ____
 72
65
 73
4
 40
50.7999999999999972
 49
31.75
 74
0
 49
-6.3499999999999996
 74
0
 49
6.3499999999999996
 74
0
 49
-6.3499999999999996
 74
0
  0
LTYPE
  5
3E
100
AcDbSymbolTableRecord
100
AcDbLinetypeTableRecord
  2
DIVIDE2
 70
0
  3
Divide (.5x) __..__..__..__..__..__..__..__.._
 72
65
 73
6
 40
15.875
 49
6.3499999999999996
 74
0
 49
-3.1749999999999998
 74
0
 49
0.0
 74
0
 49
-3.1749999999999998
 74
0
 49
0.0
 74
0
 49
-3.1749999999999998
 74
0
  0
LTYPE
  5
3F
100
AcDbSymbolTableRecord
100
AcDbLinetypeTableRecord
  2
DASHED
 70
0
  3
Dashed __ __ __ __ __ __ __ __ __ __ __ __ __ _
 72
65
 73
2
 40
19.0500000000000007
 49
12.6999999999999993
 74
0
 49
-6.3499999999999996
 74
0
  0
LTYPE
  5
40
100
AcDbSymbolTableRecord
100
AcDbLinetypeTableRecord
  2
DOTX2
 70
0
  3
Dot (2x) .  .  .  .  .  .  .  .  .  .  .  .  .
 72
65
 73
2
 40
12.6999999999999993
 49
0.0
 74
0
 49
-12.6999999999999993
 74
0
  0
LTYPE
  5
41
100
AcDbSymbolTableRecord
100
AcDbLinetypeTableRecord
  2
DASHEDX2
 70
0
  3
Dashed (2x) ____  ____  ____  ____  ____  ___
 72
65
 73
2
 40
38.1000000000000014
 49
25.3999999999999986
 74
0
 49
-12.6999999999999993
 74
0
  0
LTYPE
  5
42
100
AcDbSymbolTableRecord
100
AcDbLinetypeTableRecord
  2
DOT
 70
0
  3
Dot . . . . . . . . . . . . . . . . . . . . . .
 72
65
 73
2
 40
6.3499999999999996
 49
0.0
 74
0
 49
-6.3499999999999996
 74
0
  0
ENDTAB
  0
TABLE
  2
LAYER
  5
2
100
AcDbSymbolTable
 70
8
  0
LAYER
  5
43
100
AcDbSymbolTableRecord
100
AcDbLayerTableRecord
  2
front hinge barrel 8mm
 70
0
 62
4
420
65535
  6
CONTINUOUS
370
25
390
F
  0
LAYER
  5
44
100
AcDbSymbolTableRecord
100
AcDbLayerTableRecord
  2
front text 2mm
 70
0
 62
252
420
10526884
  6
CONTINUOUS
370
25
390
F
  0
LAYER
  5
45
100
AcDbSymbolTableRecord
100
AcDbLayerTableRecord
  2
rear seat sockets 17mm
 70
0
 62
6
420
16711935
  6
CONTINUOUS
370
25
390
F
  0
LAYER
  5
46
100
AcDbSymbolTableRecord
100
AcDbLayerTableRecord
  2
rear hinge plate 2mm
 70
0
 62
1
420
16711680
  6
CONTINUOUS
370
25
390
F
  0
LAYER
  5
47
100
AcDbSymbolTableRecord
100
AcDbLayerTableRecord
  2
rear hinge barrel 8mm
 70
0
 62
5
420
255
  6
CONTINUOUS
370
25
390
F
  0
LAYER
  5
48
100
AcDbSymbolTableRecord
100
AcDbLayerTableRecord
  2
rear hinge plate 3mm
 70
0
 62
2
420
16776960
  6
CONTINUOUS
370
25
390
F
  0
LAYER
  5
49
100
AcDbSymbolTableRecord
100
AcDbLayerTableRecord
  2
front hinge plate 3mm
 70
0
 62
3
420
65280
  6
CONTINUOUS
370
25
390
F
  0
LAYER
  5
10
100
AcDbSymbolTableRecord
100
AcDbLayerTableRecord
  2
0
 70
0
 62
7
420
0
  6
CONTINUOUS
370
25
390
F
  0
ENDTAB
  0
TABLE
  2
STYLE
  5
3
100
AcDbSymbolTable
 70
2
  0
STYLE
  5
4A
100
AcDbSymbolTableRecord
100
AcDbTextStyleTableRecord
  2
textstyle0
 70
0
 40
0.0
 41
1.0
 50
0.0
 71
0
 42
50.0
  3

  4

1001
ACAD
1000
FreeSans
1071
33554432
  0
STYLE
  5
4B
100
AcDbSymbolTableRecord
100
AcDbTextStyleTableRecord
  2
textstyle1
 70
0
 40
0.0
 41
1.0
 50
0.0
 71
0
 42
50.0
  3

  4

1001
ACAD
1000
FreeSans
1071
33554432
  0
ENDTAB
  0
TABLE
  2
VIEW
  5
6
100
AcDbSymbolTable
 70
0
  0
ENDTAB
  0
TABLE
  2
UCS
  5
7
100
AcDbSymbolTable
 70
0
  0
ENDTAB
  0
TABLE
  2
APPID
  5
9
100
AcDbSymbolTable
 70
1
  0
APPID
  5
4C
100
AcDbSymbolTableRecord
100
AcDbRegAppTableRecord
  2
QCAD
 70
0
  0
ENDTAB
  0
TABLE
  2
DIMSTYLE
  5
A
100
AcDbSymbolTable
 70
1
100
AcDbDimStyleTable
 71
0
  0
DIMSTYLE
105
27
100
AcDbSymbolTableRecord
100
AcDbDimStyleTableRecord
  2
Standard
 41
2.5
 42
0.625
 43
3.75
 44
1.25
 70
0
 73
0
 74
0
 77
1
 78
8
140
2.5
141
2.5
143
0.03937007874016
147
0.625
171
3
172
1
271
2
272
2
274
3
278
44
283
0
284
8
340
11
  0
ENDTAB
  0
TABLE
  2
BLOCK_RECORD
  5
1
100
AcDbSymbolTable
 70
1
  0
BLOCK_RECORD
  5
1F
100
AcDbSymbolTableRecord
100
AcDbBlockTableRecord
  2
*Model_Space
340
22
  0
BLOCK_RECORD
  5
1B
100
AcDbSymbolTableRecord
100
AcDbBlockTableRecord
  2
*Paper_Space
340
1E
  0
BLOCK_RECORD
  5
23
100
AcDbSymbolTableRecord
100
AcDbBlockTableRecord
  2
*Paper_Space0
340
26
  0
BLOCK_RECORD
  5
4D
100
AcDbSymbolTableRecord
100
AcDbBlockTableRecord
  2
*Model_Space
340
0
  0
BLOCK_RECORD
  5
4E
100
AcDbSymbolTableRecord
100
AcDbBlockTableRecord
  2
*Paper_Space
340
0
  0
BLOCK_RECORD
  5
4F
100
AcDbSymbolTableRecord
100
AcDbBlockTableRecord
  2
*Paper_Space0
340
0
  0
BLOCK_RECORD
  5
50
100
AcDbSymbolTableRecord
100
AcDbBlockTableRecord
  2
*Model_Space1
340
0
  0
ENDTAB
  0
ENDSEC
  0
SECTION
  2
BLOCKS
  0
BLOCK
  5
20
100
AcDbEntity
  8
0
100
AcDbBlockBegin
  2
*Model_Space
 70
0
 10
0.0
 20
0.0
 30
0.0
  3
*Model_Space
  1

  0
BLOCK
  5
1C
100
AcDbEntity
 67
1
  8
0
100
AcDbBlockBegin
  2
*Paper_Space
 70
0
 10
0.0
 20
0.0
 30
0.0
  3
*Paper_Space
  1

  0
ENDBLK
  5
1D
100
AcDbEntity
 67
1
  8
0
100
AcDbBlockEnd
  0
BLOCK
  5
24
100
AcDbEntity
  8
0
100
AcDbBlockBegin
  2
*Paper_Space0
 70
0
 10
0.0
 20
0.0
 30
0.0
  3
*Paper_Space0
  1

  0
ENDBLK
  5
25
100
AcDbEntity
  8
0
100
AcDbBlockEnd
  0
BLOCK
  5
51
100
AcDbEntity
  8
0
100
AcDbBlockBegin
  2
*Model_Space1
 70
0
 10
0.0
 20
0.0
 30
0.0
  3
*Model_Space1
  1

  0
ENDBLK
  5
52
100
AcDbEntity
  8
0
100
AcDbBlockEnd
  0
ENDSEC
  0
SECTION
  2
ENTITIES
  0
LINE
  5
53
100
AcDbEntity
100
AcDbLine
  8
0
 62
256
370
-1
  6
BYLAYER
 10
40.0000000000000284
 20
623.0
 30
0.0
 11
40.0000000000000497
 21
813.0
 31
0.0
  0
LINE
  5
54
100
AcDbEntity
100
AcDbLine
  8
0
 62
256
370
-1
  6
BYLAYER
 10
46.0000000000000284
 20
620.0
 30
0.0
 11
46.0000000000000497
 21
807.0
 31
0.0
  0
LINE
  5
55
100
AcDbEntity
100
AcDbLine
  8
0
 62
256
370
-1
  6
BYLAYER
 10
504.0000000000000568
 20
623.0
 30
0.0
 11
504.0000000000000568
 21
807.0
 31
0.0
  0
LINE
  5
56
100
AcDbEntity
100
AcDbLine
  8
0
 62
256
370
-1
  6
BYLAYER
 10
510.0000000000000568
 20
623.0
 30
0.0
 11
510.0000000000000568
 21
813.0
 31
0.0
  0
LINE
  5
57
100
AcDbEntity
100
AcDbLine
  8
0
 62
256
370
-1
  6
BYLAYER
 10
449.0
 20
450.0
 30
0.0
 11
455.8355466822193875
 21
450.0
 31
0.0
  0
LINE
  5
58
100
AcDbEntity
100
AcDbLine
  8
0
 62
256
370
-1
  6
BYLAYER
 10
390.2365328466668188
 20
54.0
 30
0.0
 11
159.7634671533331243
 21
54.0
 31
0.0
  0
LINE
  5
59
100
AcDbEntity
100
AcDbLine
  8
0
 62
256
370
-1
  6
BYLAYER
 10
118.0000000000000142
 20
450.0000000000000568
 30
0.0
 11
150.7954852598604134
 21
62.2415141673391261
 31
0.0
  0
LINE
  5
5A
100
AcDbEntity
100
AcDbLine
  8
0
 62
256
370
-1
  6
BYLAYER
 10
431.9999999999999432
 20
450.0
 30
0.0
 11
399.2045147401394161
 21
62.2415141673391901
 31
0.0
  0
ARC
  5
5B
100
AcDbEntity
  8
0
 62
256
370
-1
  6
BYLAYER
100
AcDbCircle
 10
390.2365328466668188
 20
62.9999999999999929
 30
0.0
 40
9.0
100
AcDbArc
 50
270.0
 51
355.1655949505874332
  0
ARC
  5
5C
100
AcDbEntity
  8
0
 62
256
370
-1
  6
BYLAYER
100
AcDbCircle
 10
159.7634671533331243
 20
62.9999999999999929
 30
0.0
 40
9.0
100
AcDbArc
 50
184.8344050494128226
 51
270.0
  0
LINE
  5
5D
100
AcDbEntity
100
AcDbLine
  8
0
 62
256
370
-1
  6
BYLAYER
 10
156.7735558638997304
 20
62.7541738799097075
 30
0.0
 11
123.9697338682998833
 21
461.7374783602708135
 31
0.0
  0
ARC
  5
5E
100
AcDbEntity
  8
0
 62
256
370
-1
  6
BYLAYER
100
AcDbCircle
 10
159.7634671533331243
 20
62.9999999999999929
 30
0.0
 40
3.0
100
AcDbArc
 50
184.7002030170160651
 51
270.0
  0
ARC
  5
5F
100
AcDbEntity
  8
0
 62
256
370
-1
  6
BYLAYER
100
AcDbCircle
 10
390.2365328466668188
 20
62.9999999999999929
 30
0.0
 40
3.0
100
AcDbArc
 50
270.0
 51
355.2997969829839349
  0
LINE
  5
60
100
AcDbEntity
100
AcDbLine
  8
0
 62
256
370
-1
  6
BYLAYER
 10
393.2264441361002127
 20
62.7541738799097075
 30
0.0
 11
426.0302661317001593
 21
461.7374783602708135
 31
0.0
  0
ARC
  5
61
100
AcDbEntity
  8
0
 62
256
370
-1
  6
BYLAYER
100
AcDbCircle
 10
232.0000000000000284
 20
63.0
 30
0.0
 40
3.0
100
AcDbArc
 50
270.0000000000005116
 51
0.0
  0
ARC
  5
62
100
AcDbEntity
  8
0
 62
256
370
-1
  6
BYLAYER
100
AcDbCircle
 10
238.0
 20
67.0
 30
0.0
 40
3.0
100
AcDbArc
 50
90.0
 51
180.0
  0
ARC
  5
63
100
AcDbEntity
  8
0
 62
256
370
-1
  6
BYLAYER
100
AcDbCircle
 10
312.0
 20
67.0
 30
0.0
 40
3.0
100
AcDbArc
 50
0.0
 51
90.0
  0
ARC
  5
64
100
AcDbEntity
  8
0
 62
256
370
-1
  6
BYLAYER
100
AcDbCircle
 10
318.0000000000000568
 20
63.0
 30
0.0
 40
3.0
100
AcDbArc
 50
180.0
 51
270.0
  0
LINE
  5
65
100
AcDbEntity
100
AcDbLine
  8
0
 62
256
370
-1
  6
BYLAYER
 10
159.7634671533331243
 20
60.0
 30
0.0
 11
232.0000000000000284
 21
60.0
 31
0.0
  0
LINE
  5
66
100
AcDbEntity
100
AcDbLine
  8
0
 62
256
370
-1
  6
BYLAYER
 10
235.0
 20
63.0
 30
0.0
 11
235.0
 21
67.0
 31
0.0
  0
LINE
  5
67
100
AcDbEntity
100
AcDbLine
  8
0
 62
256
370
-1
  6
BYLAYER
 10
238.0
 20
70.0
 30
0.0
 11
312.0
 21
70.0
 31
0.0
  0
LINE
  5
68
100
AcDbEntity
100
AcDbLine
  8
0
 62
256
370
-1
  6
BYLAYER
 10
315.0
 20
63.0
 30
0.0
 11
315.0
 21
67.0
 31
0.0
  0
LINE
  5
69
100
AcDbEntity
100
AcDbLine
  8
0
 62
256
370
-1
  6
BYLAYER
 10
318.0000000000000568
 20
60.0
 30
0.0
 11
390.2365328466668188
 21
60.0
 31
0.0
  0
LINE
  5
6A
100
AcDbEntity
100
AcDbLine
  8
front hinge plate 3mm
 62
256
370
-1
  6
BYLAYER
 10
326.0
 20
431.0
 30
0.0
 11
326.0
 21
462.0
 31
0.0
  0
LINE
  5
6B
100
AcDbEntity
100
AcDbLine
  8
rear hinge plate 3mm
 62
256
370
-1
  6
BYLAYER
 10
224.0
 20
503.0
 30
0.0
 11
224.0
 21
472.0
 31
0.0
  0
LINE
  5
6C
100
AcDbEntity
100
AcDbLine
  8
0
 62
256
370
-1
  6
BYLAYER
 10
59.0967114498910746
 20
574.5949925361293253
 30
0.0
 11
122.7721833015727242
 21
465.5379694497378864
 31
0.0
  0
LINE
  5
6D
100
AcDbEntity
100
AcDbLine
  8
0
 62
256
370
-1
  6
BYLAYER
 10
490.9032885501088685
 20
574.5949925361292117
 30
0.0
 11
427.2278166984273184
 21
465.5379694497378864
 31
0.0
  0
LINE
  5
6E
100
AcDbEntity
100
AcDbLine
  8
0
 62
256
370
-1
  6
BYLAYER
 10
205.0
 20
464.0
 30
0.0
 11
345.0
 21
464.0
 31
0.0
  0
LINE
  5
6F
100
AcDbEntity
100
AcDbLine
  8
0
 62
256
370
-1
  6
BYLAYER
 10
205.0
 20
470.0
 30
0.0
 11
345.0
 21
470.0
 31
0.0
  0
ARC
  5
70
100
AcDbEntity
  8
0
 62
256
370
-1
  6
BYLAYER
100
AcDbCircle
 10
115.0000000000000142
 20
461.0
 30
0.0
 40
9.0
100
AcDbArc
 50
4.7002030170166975
 51
30.2795101292391884
  0
ARC
  5
71
100
AcDbEntity
  8
0
 62
256
370
-1
  6
BYLAYER
100
AcDbCircle
 10
107.0000000000000142
 20
461.0
 30
0.0
 40
3.0
100
AcDbArc
 50
90.0
 51
180.0
  0
LINE
  5
72
100
AcDbEntity
100
AcDbLine
  8
0
 62
256
370
-1
  6
BYLAYER
 10
115.0000000000000142
 20
464.0
 30
0.0
 11
107.0000000000000142
 21
464.0
 31
0.0
  0
LINE
  5
73
100
AcDbEntity
100
AcDbLine
  8
0
 62
256
370
-1
  6
BYLAYER
 10
118.0000000000000142
 20
450.0000000000001137
 30
0.0
 11
118.0000000000000142
 21
461.0
 31
0.0
  0
ARC
  5
74
100
AcDbEntity
  8
0
 62
256
370
-1
  6
BYLAYER
100
AcDbCircle
 10
115.0000000000000142
 20
461.0
 30
0.0
 40
3.0
100
AcDbArc
 50
0.0
 51
90.0
  0
LINE
  5
75
100
AcDbEntity
100
AcDbLine
  8
0
 62
256
370
-1
  6
BYLAYER
 10
104.0000000000000142
 20
453.0
 30
0.0
 11
104.0000000000000142
 21
461.0
 31
0.0
  0
ARC
  5
76
100
AcDbEntity
  8
0
 62
256
370
-1
  6
BYLAYER
100
AcDbCircle
 10
101.0000000000000284
 20
453.0
 30
0.0
 40
3.0
100
AcDbArc
 50
270.0
 51
0.0
  0
LINE
  5
77
100
AcDbEntity
100
AcDbLine
  8
0
 62
256
370
-1
  6
BYLAYER
 10
94.1644533177806409
 20
450.0
 30
0.0
 11
101.0000000000000284
 21
450.0
 31
0.0
  0
LINE
  5
78
100
AcDbEntity
100
AcDbLine
  8
0
 62
256
370
-1
  6
BYLAYER
 10
91.3174994618672855
 20
452.0540329063333616
 30
0.0
 11
45.2035688989463722
 21
590.837118815333497
 31
0.0
  0
ARC
  5
79
100
AcDbEntity
  8
0
 62
256
370
-1
  6
BYLAYER
100
AcDbCircle
 10
94.1644533177806409
 20
453.0000000000000568
 30
0.0
 40
3.0
100
AcDbArc
 50
198.3802757390766374
 51
270.0
  0
LINE
  5
7A
100
AcDbEntity
100
AcDbLine
  8
0
 62
256
370
-1
  6
BYLAYER
 10
458.6825005381327287
 20
452.0540329063333616
 30
0.0
 11
504.7964311010535994
 21
590.837118815333497
 31
0.0
  0
ARC
  5
7B
100
AcDbEntity
  8
0
 62
256
370
-1
  6
BYLAYER
100
AcDbCircle
 10
455.8355466822193875
 20
453.0
 30
0.0
 40
3.0
100
AcDbArc
 50
270.0
 51
341.6197242609242153
  0
ARC
  5
7C
100
AcDbEntity
  8
0
 62
256
370
-1
  6
BYLAYER
100
AcDbCircle
 10
449.0
 20
453.0
 30
0.0
 40
3.0
100
AcDbArc
 50
180.0
 51
270.0
  0
LINE
  5
7D
100
AcDbEntity
100
AcDbLine
  8
0
 62
256
370
-1
  6
BYLAYER
 10
446.0
 20
453.0
 30
0.0
 11
446.0
 21
461.0
 31
0.0
  0
ARC
  5
7E
100
AcDbEntity
  8
0
 62
256
370
-1
  6
BYLAYER
100
AcDbCircle
 10
443.0
 20
461.0
 30
0.0
 40
3.0
100
AcDbArc
 50
0.0
 51
90.0
  0
LINE
  5
7F
100
AcDbEntity
100
AcDbLine
  8
0
 62
256
370
-1
  6
BYLAYER
 10
443.0
 20
464.0
 30
0.0
 11
435.0
 21
464.0
 31
0.0
  0
LINE
  5
80
100
AcDbEntity
100
AcDbLine
  8
0
 62
256
370
-1
  6
BYLAYER
 10
432.0
 20
449.9999999999987494
 30
0.0
 11
432.0
 21
461.0
 31
0.0
  0
ARC
  5
81
100
AcDbEntity
  8
0
 62
256
370
-1
  6
BYLAYER
100
AcDbCircle
 10
435.0
 20
461.0
 30
0.0
 40
3.0
100
AcDbArc
 50
90.0
 51
180.0
  0
ARC
  5
82
100
AcDbEntity
  8
0
 62
256
370
-1
  6
BYLAYER
100
AcDbCircle
 10
435.0
 20
461.0
 30
0.0
 40
9.0
100
AcDbArc
 50
149.7204898707606731
 51
175.299796982983338
  0
ARC
  5
83
100
AcDbEntity
  8
0
 62
256
370
-1
  6
BYLAYER
100
AcDbCircle
 10
142.0
 20
623.0
 30
0.0
 40
102.0
100
AcDbArc
 50
180.0
 51
198.3802757390762395
  0
ARC
  5
84
100
AcDbEntity
  8
0
 62
256
370
-1
  6
BYLAYER
100
AcDbCircle
 10
142.0
 20
623.0
 30
0.0
 40
96.0
100
AcDbArc
 50
180.0
 51
210.2795101292394975
  0
ARC
  5
85
100
AcDbEntity
  8
0
 62
256
370
-1
  6
BYLAYER
100
AcDbCircle
 10
408.0
 20
623.0
 30
0.0
 40
102.0
100
AcDbArc
 50
341.6197242609238174
 51
0.0
  0
ARC
  5
86
100
AcDbEntity
  8
0
 62
256
370
-1
  6
BYLAYER
100
AcDbCircle
 10
408.0
 20
623.0
 30
0.0
 40
96.0
100
AcDbArc
 50
329.7204898707605594
 51
0.0
  0
LINE
  5
87
100
AcDbEntity
100
AcDbLine
  8
0
 62
256
370
-1
  6
BYLAYER
 10
157.227685936881187
 20
490.7800409128496426
 30
0.0
 11
94.2276859368811728
 21
593.7800409128496995
 31
0.0
  0
LINE
  5
88
100
AcDbEntity
100
AcDbLine
  8
0
 62
256
370
-1
  6
BYLAYER
 10
162.3461481579296333
 20
493.9107508150443664
 30
0.0
 11
99.3461481579296191
 21
596.9107508150443664
 31
0.0
  0
LINE
  5
89
100
AcDbEntity
100
AcDbLine
  8
0
 62
256
370
-1
  6
BYLAYER
 10
392.772314063118813
 20
490.7800409128496426
 30
0.0
 11
455.772314063118813
 21
593.7800409128496995
 31
0.0
  0
LINE
  5
8A
100
AcDbEntity
100
AcDbLine
  8
0
 62
256
370
-1
  6
BYLAYER
 10
387.6538518420703667
 20
493.9107508150443095
 30
0.0
 11
450.6538518420703667
 21
596.9107508150443664
 31
0.0
  0
ARC
  5
8B
100
AcDbEntity
  8
0
 62
256
370
-1
  6
BYLAYER
100
AcDbCircle
 10
408.0
 20
623.0
 30
0.0
 40
56.0
100
AcDbArc
 50
328.5479389880005101
 51
0.0
  0
ARC
  5
8C
100
AcDbEntity
  8
0
 62
256
370
-1
  6
BYLAYER
100
AcDbCircle
 10
345.0
 20
520.0
 30
0.0
 40
56.0
100
AcDbArc
 50
270.0
 51
328.5479389880005101
  0
ARC
  5
8D
100
AcDbEntity
  8
0
 62
256
370
-1
  6
BYLAYER
100
AcDbCircle
 10
205.0
 20
520.0
 30
0.0
 40
56.0
100
AcDbArc
 50
211.4520610119995467
 51
270.0
  0
ARC
  5
8E
100
AcDbEntity
  8
0
 62
256
370
-1
  6
BYLAYER
100
AcDbCircle
 10
142.0
 20
623.0
 30
0.0
 40
56.0
100
AcDbArc
 50
180.0
 51
211.4520610119994615
  0
ARC
  5
8F
100
AcDbEntity
  8
0
 62
256
370
-1
  6
BYLAYER
100
AcDbCircle
 10
142.0
 20
623.0
 30
0.0
 40
50.0
100
AcDbArc
 50
180.0
 51
211.4520610119994615
  0
ARC
  5
90
100
AcDbEntity
  8
0
 62
256
370
-1
  6
BYLAYER
100
AcDbCircle
 10
408.0
 20
623.0
 30
0.0
 40
50.0
100
AcDbArc
 50
328.5479389880005101
 51
0.0
  0
ARC
  5
91
100
AcDbEntity
  8
0
 62
256
370
-1
  6
BYLAYER
100
AcDbCircle
 10
205.0
 20
520.0
 30
0.0
 40
50.0
100
AcDbArc
 50
211.4520610119994615
 51
270.0
  0
ARC
  5
92
100
AcDbEntity
  8
0
 62
256
370
-1
  6
BYLAYER
100
AcDbCircle
 10
345.0
 20
520.0
 30
0.0
 40
50.0
100
AcDbArc
 50
270.0
 51
328.5479389880005101
  0
LINE
  5
93
100
AcDbEntity
100
AcDbLine
  8
0
 62
256
370
-1
  6
BYLAYER
 10
46.0000000000000568
 20
807.0
 30
0.0
 11
86.0000000000000568
 21
807.0
 31
0.0
  0
LINE
  5
94
100
AcDbEntity
100
AcDbLine
  8
0
 62
256
370
-1
  6
BYLAYER
 10
40.0000000000000426
 20
813.0
 30
0.0
 11
86.0000000000000426
 21
813.0
 31
0.0
  0
LINE
  5
95
100
AcDbEntity
100
AcDbLine
  8
0
 62
256
370
-1
  6
BYLAYER
 10
464.0000000000000568
 20
807.0
 30
0.0
 11
504.0000000000000568
 21
807.0
 31
0.0
  0
LINE
  5
96
100
AcDbEntity
100
AcDbLine
  8
0
 62
256
370
-1
  6
BYLAYER
 10
464.0000000000000568
 20
813.0
 30
0.0
 11
510.0000000000000568
 21
813.0
 31
0.0
  0
ARC
  5
97
100
AcDbEntity
  8
0
 62
256
370
-1
  6
BYLAYER
100
AcDbCircle
 10
112.0
 20
842.4715135455155632
 30
0.0
 40
112.0
100
AcDbArc
 50
100.515035710393164
 51
181.2641456818011534
  0
ARC
  5
98
100
AcDbEntity
  8
0
 62
256
370
-1
  6
BYLAYER
100
AcDbCircle
 10
438.0
 20
842.4715135455156769
 30
0.0
 40
112.0
100
AcDbArc
 50
0.0
 51
79.7384403179017056
  0
ARC
  5
99
100
AcDbEntity
  8
0
 62
256
370
-1
  6
BYLAYER
100
AcDbCircle
 10
275.0000000000001137
 20
-57.8928571400417695
 30
0.0
 40
1027.0
100
AcDbArc
 50
79.738440317901734
 51
100.2892025746580629
  0
ARC
  5
9A
100
AcDbEntity
  8
0
 62
256
370
-1
  6
BYLAYER
100
AcDbCircle
 10
152.0000000000000568
 20
849.7032676644600997
 30
0.0
 40
66.0
100
AcDbArc
 50
97.7178657945483451
 51
180.0
  0
ARC
  5
9B
100
AcDbEntity
  8
0
 62
256
370
-1
  6
BYLAYER
100
AcDbCircle
 10
398.0000000000000568
 20
849.7032676644600997
 30
0.0
 40
66.0
100
AcDbArc
 50
0.0
 51
82.2821342054516549
  0
LINE
  5
9C
100
AcDbEntity
100
AcDbLine
  8
0
 62
256
370
-1
  6
BYLAYER
 10
86.0000000000000284
 20
623.0
 30
0.0
 11
86.0000000000000426
 21
807.0
 31
0.0
  0
ARC
  5
9D
100
AcDbEntity
  8
0
 62
256
370
-1
  6
BYLAYER
100
AcDbCircle
 10
275.0000000000001137
 20
-57.8928571400417695
 30
0.0
 40
981.8928571400417695
100
AcDbArc
 50
82.2821342054516549
 51
97.7178657945483735
  0
LINE
  5
9E
100
AcDbEntity
100
AcDbLine
  8
0
 62
256
370
-1
  6
BYLAYER
 10
464.0
 20
623.0
 30
0.0
 11
464.0000000000000568
 21
807.0
 31
0.0
  0
ARC
  5
9F
100
AcDbEntity
  8
0
 62
256
370
-1
  6
BYLAYER
100
AcDbCircle
 10
152.0000000000000568
 20
803.3684273963206124
 30
0.0
 40
60.0
100
AcDbArc
 50
98.1276564716253432
 51
180.0
  0
ARC
  5
A0
100
AcDbEntity
  8
0
 62
256
370
-1
  6
BYLAYER
100
AcDbCircle
 10
398.0000000000000568
 20
803.3684273963207261
 30
0.0
 40
60.0
100
AcDbArc
 50
0.0
 51
81.8723187689389533
  0
ARC
  5
A1
100
AcDbEntity
  8
0
 62
256
370
-1
  6
BYLAYER
100
AcDbCircle
 10
275.0
 20
-57.8928569999999993
 30
0.0
 40
930.0
100
AcDbArc
 50
81.8723314220701326
 51
98.1276680526517282
  0
LINE
  5
A2
100
AcDbEntity
100
AcDbLine
  8
0
 62
256
370
-1
  6
BYLAYER
 10
92.0000000000000284
 20
623.0
 30
0.0
 11
92.0000000000000426
 21
803.3684273963206124
 31
0.0
  0
LINE
  5
A3
100
AcDbEntity
100
AcDbLine
  8
0
 62
256
370
-1
  6
BYLAYER
 10
458.0
 20
623.0
 30
0.0
 11
458.0000000000000568
 21
803.3684273963207261
 31
0.0
  0
ARC
  5
A4
100
AcDbEntity
  8
0
 62
256
370
-1
  6
BYLAYER
100
AcDbCircle
 10
275.0
 20
-57.8928569999999993
 30
0.0
 40
1010.5
100
AcDbArc
 50
89.3296689459975397
 51
90.6985911087168262
  0
ARC
  5
A5
100
AcDbEntity
  8
0
 62
256
370
-1
  6
BYLAYER
100
AcDbCircle
 10
275.0
 20
-57.8928569999999993
 30
0.0
 40
998.5
100
AcDbArc
 50
89.3296689459975397
 51
90.6985911087168262
  0
ARC
  5
A6
100
AcDbEntity
  8
0
 62
256
370
-1
  6
BYLAYER
100
AcDbCircle
 10
262.7527212670557901
 20
946.5324782856237107
 30
0.0
 40
6.0000000000002371
100
AcDbArc
 50
90.6985911087170109
 51
270.6985911087164709
  0
ARC
  5
A7
100
AcDbEntity
  8
0
 62
256
370
-1
  6
BYLAYER
100
AcDbCircle
 10
286.7518635491771875
 20
946.538396846235969
 30
0.0
 40
6.0000000000000622
100
AcDbArc
 50
269.3296689459963886
 51
89.3296689459974687
  0
LINE
  5
A8
100
AcDbEntity
100
AcDbLine
  8
rear hinge barrel 8mm
 62
256
370
-1
  6
BYLAYER
 10
224.0
 20
472.0
 30
0.0
 11
326.0
 21
472.0
 31
0.0
  0
ARC
  5
A9
100
AcDbEntity
  8
rear hinge barrel 8mm
 62
256
370
-1
  6
BYLAYER
100
AcDbCircle
 10
224.0
 20
469.0
 30
0.0
 40
3.0
100
AcDbArc
 50
90.0
 51
180.0
  0
ARC
  5
AA
100
AcDbEntity
  8
rear hinge barrel 8mm
 62
256
370
-1
  6
BYLAYER
100
AcDbCircle
 10
326.0
 20
469.0
 30
0.0
 40
3.0
100
AcDbArc
 50
357.7478952296356738
 51
90.0
  0
ARC
  5
AB
100
AcDbEntity
  8
rear hinge barrel 8mm
 62
256
370
-1
  6
BYLAYER
100
AcDbCircle
 10
224.0
 20
467.0
 30
0.0
 40
3.0
100
AcDbArc
 50
180.0
 51
270.0
  0
LINE
  5
AC
100
AcDbEntity
100
AcDbLine
  8
rear hinge barrel 8mm
 62
256
370
-1
  6
BYLAYER
 10
221.0
 20
467.0
 30
0.0
 11
221.0
 21
469.0
 31
0.0
  0
ARC
  5
AD
100
AcDbEntity
  8
rear hinge barrel 8mm
 62
256
370
-1
  6
BYLAYER
100
AcDbCircle
 10
326.0
 20
467.0
 30
0.0
 40
3.0
100
AcDbArc
 50
270.0
 51
0.0
  0
LINE
  5
AE
100
AcDbEntity
100
AcDbLine
  8
rear hinge barrel 8mm
 62
256
370
-1
  6
BYLAYER
 10
224.0
 20
464.0
 30
0.0
 11
326.0
 21
464.0
 31
0.0
  0
LINE
  5
AF
100
AcDbEntity
100
AcDbLine
  8
rear hinge barrel 8mm
 62
256
370
-1
  6
BYLAYER
 10
329.0
 20
467.0
 30
0.0
 11
329.0
 21
469.0
 31
0.0
  0
LINE
  5
B0
100
AcDbEntity
100
AcDbLine
  8
front hinge barrel 8mm
 62
256
370
-1
  6
BYLAYER
 10
221.0
 20
465.0
 30
0.0
 11
221.0
 21
467.0
 31
0.0
  0
LINE
  5
B1
100
AcDbEntity
100
AcDbLine
  8
front hinge barrel 8mm
 62
256
370
-1
  6
BYLAYER
 10
224.0
 20
470.0
 30
0.0
 11
326.0
 21
470.0
 31
0.0
  0
ARC
  5
B2
100
AcDbEntity
  8
front hinge barrel 8mm
 62
256
370
-1
  6
BYLAYER
100
AcDbCircle
 10
326.0
 20
465.0
 30
0.0
 40
3.0
100
AcDbArc
 50
270.0
 51
0.0
  0
LINE
  5
B3
100
AcDbEntity
100
AcDbLine
  8
front hinge barrel 8mm
 62
256
370
-1
  6
BYLAYER
 10
224.0
 20
462.0
 30
0.0
 11
326.0
 21
462.0
 31
0.0
  0
LINE
  5
B4
100
AcDbEntity
100
AcDbLine
  8
front hinge barrel 8mm
 62
256
370
-1
  6
BYLAYER
 10
329.0
 20
465.0
 30
0.0
 11
329.0
 21
467.0
 31
0.0
  0
ARC
  5
B5
100
AcDbEntity
  8
front hinge barrel 8mm
 62
256
370
-1
  6
BYLAYER
100
AcDbCircle
 10
224.0
 20
467.0
 30
0.0
 40
3.0
100
AcDbArc
 50
90.0
 51
180.0
  0
ARC
  5
B6
100
AcDbEntity
  8
front hinge barrel 8mm
 62
256
370
-1
  6
BYLAYER
100
AcDbCircle
 10
326.0
 20
467.0
 30
0.0
 40
3.0
100
AcDbArc
 50
357.7478952296356738
 51
90.0
  0
ARC
  5
B7
100
AcDbEntity
  8
front hinge barrel 8mm
 62
256
370
-1
  6
BYLAYER
100
AcDbCircle
 10
224.0
 20
465.0
 30
0.0
 40
3.0
100
AcDbArc
 50
180.0
 51
270.0
  0
LINE
  5
B8
100
AcDbEntity
100
AcDbLine
  8
rear hinge plate 3mm
 62
256
370
-1
  6
BYLAYER
 10
326.0
 20
472.0
 30
0.0
 11
326.0
 21
503.0
 31
0.0
  0
LINE
  5
B9
100
AcDbEntity
100
AcDbLine
  8
front hinge plate 3mm
 62
256
370
-1
  6
BYLAYER
 10
224.0
 20
462.0
 30
0.0
 11
224.0
 21
431.0
 31
0.0
  0
ARC
  5
BA
100
AcDbEntity
  8
rear seat sockets 17mm
 62
256
370
-1
  6
BYLAYER
100
AcDbCircle
 10
435.0
 20
638.0
 30
0.0
 40
3.0
100
AcDbArc
 50
180.0
 51
270.0
  0
ARC
  5
BB
100
AcDbEntity
  8
rear seat sockets 17mm
 62
256
370
-1
  6
BYLAYER
100
AcDbCircle
 10
443.0000000000000568
 20
638.0
 30
0.0
 40
3.0
100
AcDbArc
 50
270.0
 51
0.0
  0
ARC
  5
BC
100
AcDbEntity
  8
rear seat sockets 17mm
 62
256
370
-1
  6
BYLAYER
100
AcDbCircle
 10
443.0
 20
662.0
 30
0.0
 40
3.0
100
AcDbArc
 50
0.0
 51
90.0
  0
ARC
  5
BD
100
AcDbEntity
  8
rear seat sockets 17mm
 62
256
370
-1
  6
BYLAYER
100
AcDbCircle
 10
435.0
 20
662.0
 30
0.0
 40
3.0
100
AcDbArc
 50
90.0
 51
180.0
  0
ARC
  5
BE
100
AcDbEntity
  8
rear seat sockets 17mm
 62
256
370
-1
  6
BYLAYER
100
AcDbCircle
 10
107.0000000000000284
 20
662.0
 30
0.0
 40
3.0
100
AcDbArc
 50
90.0
 51
180.0
  0
ARC
  5
BF
100
AcDbEntity
  8
rear seat sockets 17mm
 62
256
370
-1
  6
BYLAYER
100
AcDbCircle
 10
115.0000000000000284
 20
662.0
 30
0.0
 40
3.0
100
AcDbArc
 50
0.0
 51
90.0
  0
ARC
  5
C0
100
AcDbEntity
  8
rear seat sockets 17mm
 62
256
370
-1
  6
BYLAYER
100
AcDbCircle
 10
107.0000000000000284
 20
638.0
 30
0.0
 40
3.0
100
AcDbArc
 50
180.0
 51
270.0
  0
ARC
  5
C1
100
AcDbEntity
  8
rear seat sockets 17mm
 62
256
370
-1
  6
BYLAYER
100
AcDbCircle
 10
115.0000000000000284
 20
638.0
 30
0.0
 40
3.0
100
AcDbArc
 50
270.0
 51
0.0
  0
LINE
  5
C2
100
AcDbEntity
100
AcDbLine
  8
rear seat sockets 17mm
 62
256
370
-1
  6
BYLAYER
 10
107.0000000000000284
 20
665.0
 30
0.0
 11
115.0000000000000284
 21
665.0
 31
0.0
  0
LINE
  5
C3
100
AcDbEntity
100
AcDbLine
  8
rear seat sockets 17mm
 62
256
370
-1
  6
BYLAYER
 10
104.0000000000000284
 20
638.0
 30
0.0
 11
104.0000000000000284
 21
662.0
 31
0.0
  0
LINE
  5
C4
100
AcDbEntity
100
AcDbLine
  8
rear seat sockets 17mm
 62
256
370
-1
  6
BYLAYER
 10
107.0000000000000284
 20
635.0
 30
0.0
 11
115.0000000000000284
 21
635.0
 31
0.0
  0
LINE
  5
C5
100
AcDbEntity
100
AcDbLine
  8
rear seat sockets 17mm
 62
256
370
-1
  6
BYLAYER
 10
118.0000000000000426
 20
638.0
 30
0.0
 11
118.0000000000000426
 21
662.0
 31
0.0
  0
LINE
  5
C6
100
AcDbEntity
100
AcDbLine
  8
rear seat sockets 17mm
 62
256
370
-1
  6
BYLAYER
 10
435.0
 20
665.0
 30
0.0
 11
443.0
 21
665.0
 31
0.0
  0
LINE
  5
C7
100
AcDbEntity
100
AcDbLine
  8
rear seat sockets 17mm
 62
256
370
-1
  6
BYLAYER
 10
432.0
 20
638.0
 30
0.0
 11
432.0
 21
662.0
 31
0.0
  0
LINE
  5
C8
100
AcDbEntity
100
AcDbLine
  8
rear seat sockets 17mm
 62
256
370
-1
  6
BYLAYER
 10
435.0
 20
635.0
 30
0.0
 11
443.0000000000000568
 21
635.0
 31
0.0
  0
LINE
  5
C9
100
AcDbEntity
100
AcDbLine
  8
rear seat sockets 17mm
 62
256
370
-1
  6
BYLAYER
 10
446.0000000000000568
 20
638.0
 30
0.0
 11
446.0
 21
662.0
 31
0.0
  0
ARC
  5
CA
100
AcDbEntity
  8
rear hinge barrel 8mm
 62
256
370
-1
  6
BYLAYER
100
AcDbCircle
 10
46.5000000000000497
 20
812.0000000000001137
 30
0.0
 40
3.0
100
AcDbArc
 50
90.0
 51
180.0
  0
ARC
  5
CB
100
AcDbEntity
  8
rear hinge barrel 8mm
 62
256
370
-1
  6
BYLAYER
100
AcDbCircle
 10
85.5000000000000426
 20
812.0000000000001137
 30
0.0
 40
3.0
100
AcDbArc
 50
0.0
 51
90.0
  0
ARC
  5
CC
100
AcDbEntity
  8
rear hinge barrel 8mm
 62
256
370
-1
  6
BYLAYER
100
AcDbCircle
 10
46.5000000000000497
 20
808.0000000000001137
 30
0.0
 40
3.0
100
AcDbArc
 50
180.0
 51
270.0
  0
ARC
  5
CD
100
AcDbEntity
  8
rear hinge barrel 8mm
 62
256
370
-1
  6
BYLAYER
100
AcDbCircle
 10
85.5000000000000426
 20
808.0000000000001137
 30
0.0
 40
3.0
100
AcDbArc
 50
270.0
 51
0.0
  0
LINE
  5
CE
100
AcDbEntity
100
AcDbLine
  8
rear hinge barrel 8mm
 62
256
370
-1
  6
BYLAYER
 10
88.5000000000000426
 20
808.0000000000001137
 30
0.0
 11
88.5000000000000426
 21
812.0000000000001137
 31
0.0
  0
LINE
  5
CF
100
AcDbEntity
100
AcDbLine
  8
rear hinge barrel 8mm
 62
256
370
-1
  6
BYLAYER
 10
85.5000000000000426
 20
815.0000000000001137
 30
0.0
 11
46.5000000000000426
 21
815.0000000000001137
 31
0.0
  0
LINE
  5
D0
100
AcDbEntity
100
AcDbLine
  8
rear hinge barrel 8mm
 62
256
370
-1
  6
BYLAYER
 10
43.5000000000000426
 20
812.0000000000001137
 30
0.0
 11
43.5000000000000426
 21
808.0000000000001137
 31
0.0
  0
LINE
  5
D1
100
AcDbEntity
100
AcDbLine
  8
rear hinge barrel 8mm
 62
256
370
-1
  6
BYLAYER
 10
46.5000000000000497
 20
805.0000000000001137
 30
0.0
 11
85.5000000000000426
 21
805.0000000000001137
 31
0.0
  0
ARC
  5
D2
100
AcDbEntity
  8
rear hinge barrel 8mm
 62
256
370
-1
  6
BYLAYER
100
AcDbCircle
 10
464.5
 20
812.0
 30
0.0
 40
3.0
100
AcDbArc
 50
90.0
 51
180.0
  0
ARC
  5
D3
100
AcDbEntity
  8
rear hinge barrel 8mm
 62
256
370
-1
  6
BYLAYER
100
AcDbCircle
 10
503.5
 20
812.0
 30
0.0
 40
3.0
100
AcDbArc
 50
0.0
 51
90.0
  0
ARC
  5
D4
100
AcDbEntity
  8
rear hinge barrel 8mm
 62
256
370
-1
  6
BYLAYER
100
AcDbCircle
 10
464.5
 20
808.0
 30
0.0
 40
3.0
100
AcDbArc
 50
180.0
 51
270.0
  0
ARC
  5
D5
100
AcDbEntity
  8
rear hinge barrel 8mm
 62
256
370
-1
  6
BYLAYER
100
AcDbCircle
 10
503.5
 20
808.0
 30
0.0
 40
3.0
100
AcDbArc
 50
270.0
 51
0.0
  0
LINE
  5
D6
100
AcDbEntity
100
AcDbLine
  8
rear hinge barrel 8mm
 62
256
370
-1
  6
BYLAYER
 10
506.5
 20
808.0
 30
0.0
 11
506.5
 21
812.0
 31
0.0
  0
LINE
  5
D7
100
AcDbEntity
100
AcDbLine
  8
rear hinge barrel 8mm
 62
256
370
-1
  6
BYLAYER
 10
464.5
 20
805.0
 30
0.0
 11
503.5
 21
805.0
 31
0.0
  0
LINE
  5
D8
100
AcDbEntity
100
AcDbLine
  8
rear hinge barrel 8mm
 62
256
370
-1
  6
BYLAYER
 10
461.5
 20
812.0
 30
0.0
 11
461.5
 21
808.0
 31
0.0
  0
LINE
  5
D9
100
AcDbEntity
100
AcDbLine
  8
rear hinge barrel 8mm
 62
256
370
-1
  6
BYLAYER
 10
503.5
 20
815.0
 30
0.0
 11
464.5
 21
815.0
 31
0.0
  0
LINE
  5
DA
100
AcDbEntity
100
AcDbLine
  8
rear hinge plate 2mm
 62
256
370
-1
  6
BYLAYER
 10
46.5000000000000426
 20
855.6000000000000227
 30
0.0
 11
46.5000000000000426
 21
815.0000000000001137
 31
0.0
  0
LINE
  5
DB
100
AcDbEntity
100
AcDbLine
  8
rear hinge plate 2mm
 62
256
370
-1
  6
BYLAYER
 10
46.0000000000000426
 20
764.4000000000002046
 30
0.0
 11
86.0000000000000426
 21
764.4000000000002046
 31
0.0
  0
LINE
  5
DC
100
AcDbEntity
100
AcDbLine
  8
rear hinge plate 2mm
 62
256
370
-1
  6
BYLAYER
 10
464.0
 20
764.4000000000000909
 30
0.0
 11
504.0
 21
764.4000000000000909
 31
0.0
  0
LINE
  5
DD
100
AcDbEntity
100
AcDbLine
  8
rear hinge plate 2mm
 62
256
370
-1
  6
BYLAYER
 10
503.5
 20
815.0
 30
0.0
 11
503.5
 21
855.5999999999999091
 31
0.0
  0
LINE
  5
DE
100
AcDbEntity
100
AcDbLine
  8
rear hinge plate 2mm
 62
256
370
-1
  6
BYLAYER
 10
503.5
 20
855.5999999999999091
 30
0.0
 11
464.0
 21
855.5999999999999091
 31
0.0
  0
LINE
  5
DF
100
AcDbEntity
100
AcDbLine
  8
0
 62
256
370
-1
  6
BYLAYER
 10
464.0000000000000568
 20
813.0
 30
0.0
 11
464.0000000000000568
 21
849.7032676644600997
 31
0.0
  0
LINE
  5
E0
100
AcDbEntity
100
AcDbLine
  8
0
 62
256
370
-1
  6
BYLAYER
 10
86.0000000000000426
 20
813.0
 30
0.0
 11
86.0000000000000426
 21
849.7032676644600997
 31
0.0
  0
LINE
  5
E1
100
AcDbEntity
100
AcDbLine
  8
rear hinge plate 2mm
 62
256
370
-1
  6
BYLAYER
 10
46.0000000000000426
 20
805.0000000000001137
 30
0.0
 11
46.0000000000000426
 21
770.4000000000002046
 31
0.0
  0
ARC
  5
E2
100
AcDbEntity
  8
rear hinge plate 2mm
 62
256
370
-1
  6
BYLAYER
100
AcDbCircle
 10
46.0000000000000497
 20
767.4000000000002046
 30
0.0
 40
3.0
100
AcDbArc
 50
90.0000000000001421
 51
270.0
  0
ARC
  5
E3
100
AcDbEntity
  8
rear hinge plate 2mm
 62
256
370
-1
  6
BYLAYER
100
AcDbCircle
 10
86.0000000000000426
 20
767.4000000000002046
 30
0.0
 40
3.0
100
AcDbArc
 50
270.0
 51
90.0
  0
LINE
  5
E4
100
AcDbEntity
100
AcDbLine
  8
rear hinge plate 2mm
 62
256
370
-1
  6
BYLAYER
 10
86.0000000000000426
 20
770.4000000000002046
 30
0.0
 11
86.0000000000000426
 21
805.0000000000001137
 31
0.0
  0
ARC
  5
E5
100
AcDbEntity
  8
rear hinge plate 2mm
 62
256
370
-1
  6
BYLAYER
100
AcDbCircle
 10
49.0000000000000497
 20
805.0000000000001137
 30
0.0
 40
3.0
100
AcDbArc
 50
0.0
 51
180.0
  0
ARC
  5
E6
100
AcDbEntity
  8
rear hinge plate 2mm
 62
256
370
-1
  6
BYLAYER
100
AcDbCircle
 10
83.0000000000000426
 20
805.0000000000001137
 30
0.0
 40
3.0
100
AcDbArc
 50
0.0
 51
180.0
  0
LINE
  5
E7
100
AcDbEntity
100
AcDbLine
  8
rear hinge plate 2mm
 62
256
370
-1
  6
BYLAYER
 10
80.0000000000000426
 20
805.0000000000001137
 30
0.0
 11
52.0000000000000995
 21
805.0000000000001137
 31
0.0
  0
ARC
  5
E8
100
AcDbEntity
  8
rear hinge plate 2mm
 62
256
370
-1
  6
BYLAYER
100
AcDbCircle
 10
49.5000000000000426
 20
815.0000000000001137
 30
0.0
 40
3.0
100
AcDbArc
 50
180.0
 51
0.0
  0
LINE
  5
E9
100
AcDbEntity
100
AcDbLine
  8
rear hinge plate 2mm
 62
256
370
-1
  6
BYLAYER
 10
52.5000000000000426
 20
815.0000000000001137
 30
0.0
 11
86.0
 21
815.0000000000001137
 31
0.0
  0
ARC
  5
EA
100
AcDbEntity
  8
rear hinge plate 2mm
 62
256
370
-1
  6
BYLAYER
100
AcDbCircle
 10
49.5000000000000426
 20
855.6000000000000227
 30
0.0
 40
3.0
100
AcDbArc
 50
0.0
 51
180.0
  0
LINE
  5
EB
100
AcDbEntity
100
AcDbLine
  8
rear hinge plate 2mm
 62
256
370
-1
  6
BYLAYER
 10
86.0
 20
855.6000000000000227
 30
0.0
 11
52.5000000000000426
 21
855.6000000000000227
 31
0.0
  0
ARC
  5
EC
100
AcDbEntity
  8
rear hinge plate 2mm
 62
256
370
-1
  6
BYLAYER
100
AcDbCircle
 10
86.0
 20
852.6000000000001364
 30
0.0
 40
3.0
100
AcDbArc
 50
270.0
 51
90.0
  0
ARC
  5
ED
100
AcDbEntity
  8
rear hinge plate 2mm
 62
256
370
-1
  6
BYLAYER
100
AcDbCircle
 10
86.0
 20
818.0000000000002274
 30
0.0
 40
3.0
100
AcDbArc
 50
270.0
 51
90.0
  0
LINE
  5
EE
100
AcDbEntity
100
AcDbLine
  8
rear hinge plate 2mm
 62
256
370
-1
  6
BYLAYER
 10
86.0
 20
821.0000000000002274
 30
0.0
 11
86.0
 21
849.6000000000001364
 31
0.0
  0
ARC
  5
EF
100
AcDbEntity
  8
rear hinge plate 2mm
 62
256
370
-1
  6
BYLAYER
100
AcDbCircle
 10
464.0000000000000568
 20
767.4000000000000909
 30
0.0
 40
3.0
100
AcDbArc
 50
90.0000000000010942
 51
270.0
  0
ARC
  5
F0
100
AcDbEntity
  8
rear hinge plate 2mm
 62
256
370
-1
  6
BYLAYER
100
AcDbCircle
 10
504.0
 20
767.4000000000000909
 30
0.0
 40
3.0
100
AcDbArc
 50
270.0
 51
90.0
  0
ARC
  5
F1
100
AcDbEntity
  8
rear hinge plate 2mm
 62
256
370
-1
  6
BYLAYER
100
AcDbCircle
 10
501.0
 20
804.9999999999998863
 30
0.0
 40
3.0
100
AcDbArc
 50
0.0
 51
180.0
  0
ARC
  5
F2
100
AcDbEntity
  8
rear hinge plate 2mm
 62
256
370
-1
  6
BYLAYER
100
AcDbCircle
 10
467.0000000000000568
 20
804.9999999999998863
 30
0.0
 40
3.0
100
AcDbArc
 50
0.0
 51
180.0
  0
ARC
  5
F3
100
AcDbEntity
  8
rear hinge plate 2mm
 62
256
370
-1
  6
BYLAYER
100
AcDbCircle
 10
467.0
 20
814.9999999999998863
 30
0.0
 40
3.0
100
AcDbArc
 50
180.0
 51
0.0
  0
ARC
  5
F4
100
AcDbEntity
  8
rear hinge plate 2mm
 62
256
370
-1
  6
BYLAYER
100
AcDbCircle
 10
464.0
 20
852.5999999999999091
 30
0.0
 40
3.0
100
AcDbArc
 50
90.0
 51
270.0
  0
ARC
  5
F5
100
AcDbEntity
  8
rear hinge plate 2mm
 62
256
370
-1
  6
BYLAYER
100
AcDbCircle
 10
500.5
 20
855.5999999999999091
 30
0.0
 40
3.0
100
AcDbArc
 50
0.0
 51
180.0
  0
ARC
  5
F6
100
AcDbEntity
  8
rear hinge plate 2mm
 62
256
370
-1
  6
BYLAYER
100
AcDbCircle
 10
500.5
 20
814.9999999999998863
 30
0.0
 40
3.0
100
AcDbArc
 50
180.0
 51
0.0
  0
LINE
  5
F7
100
AcDbEntity
100
AcDbLine
  8
rear hinge plate 2mm
 62
256
370
-1
  6
BYLAYER
 10
470.0
 20
815.0
 30
0.0
 11
497.5
 21
815.0
 31
0.0
  0
LINE
  5
F8
100
AcDbEntity
100
AcDbLine
  8
rear hinge plate 2mm
 62
256
370
-1
  6
BYLAYER
 10
464.0
 20
849.5999999999999091
 30
0.0
 11
464.0
 21
815.0
 31
0.0
  0
LINE
  5
F9
100
AcDbEntity
100
AcDbLine
  8
rear hinge plate 2mm
 62
256
370
-1
  6
BYLAYER
 10
498.0
 20
805.0
 30
0.0
 11
470.0000000000000568
 21
805.0
 31
0.0
  0
LINE
  5
FA
100
AcDbEntity
100
AcDbLine
  8
rear hinge plate 2mm
 62
256
370
-1
  6
BYLAYER
 10
464.0
 20
805.0
 30
0.0
 11
464.0
 21
770.4000000000000909
 31
0.0
  0
LINE
  5
FB
100
AcDbEntity
100
AcDbLine
  8
rear hinge plate 2mm
 62
256
370
-1
  6
BYLAYER
 10
504.0
 20
770.4000000000000909
 30
0.0
 11
504.0
 21
805.0
 31
0.0
  0
ARC
  5
FC
100
AcDbEntity
  8
rear hinge plate 3mm
 62
256
370
-1
  6
BYLAYER
100
AcDbCircle
 10
227.0
 20
503.0
 30
0.0
 40
3.0
100
AcDbArc
 50
0.0
 51
180.0
  0
ARC
  5
FD
100
AcDbEntity
  8
rear hinge plate 3mm
 62
256
370
-1
  6
BYLAYER
100
AcDbCircle
 10
227.0
 20
472.0
 30
0.0
 40
3.0
100
AcDbArc
 50
180.0
 51
0.0
  0
ARC
  5
FE
100
AcDbEntity
  8
front hinge plate 3mm
 62
256
370
-1
  6
BYLAYER
100
AcDbCircle
 10
227.0
 20
462.0
 30
0.0
 40
3.0
100
AcDbArc
 50
0.0
 51
180.0
  0
ARC
  5
FF
100
AcDbEntity
  8
front hinge plate 3mm
 62
256
370
-1
  6
BYLAYER
100
AcDbCircle
 10
227.0
 20
431.0
 30
0.0
 40
3.0
100
AcDbArc
 50
180.0
 51
0.0
  0
ARC
  5
100
100
AcDbEntity
  8
front hinge plate 3mm
 62
256
370
-1
  6
BYLAYER
100
AcDbCircle
 10
323.0
 20
431.0
 30
0.0
 40
3.0
100
AcDbArc
 50
180.0
 51
0.0
  0
ARC
  5
101
100
AcDbEntity
  8
front hinge plate 3mm
 62
256
370
-1
  6
BYLAYER
100
AcDbCircle
 10
323.0
 20
462.0
 30
0.0
 40
3.0
100
AcDbArc
 50
0.0
 51
180.0
  0
ARC
  5
102
100
AcDbEntity
  8
rear hinge plate 3mm
 62
256
370
-1
  6
BYLAYER
100
AcDbCircle
 10
323.0
 20
472.0
 30
0.0
 40
3.0
100
AcDbArc
 50
180.0
 51
0.0
  0
ARC
  5
103
100
AcDbEntity
  8
rear hinge plate 3mm
 62
256
370
-1
  6
BYLAYER
100
AcDbCircle
 10
323.0
 20
503.0
 30
0.0
 40
3.0
100
AcDbArc
 50
0.0
 51
180.0
  0
LINE
  5
104
100
AcDbEntity
100
AcDbLine
  8
rear hinge plate 3mm
 62
256
370
-1
  6
BYLAYER
 10
320.0
 20
503.0
 30
0.0
 11
230.0
 21
503.0
 31
0.0
  0
LINE
  5
105
100
AcDbEntity
100
AcDbLine
  8
front hinge plate 3mm
 62
256
370
-1
  6
BYLAYER
 10
230.0
 20
431.0
 30
0.0
 11
320.0
 21
431.0
 31
0.0
  0
LINE
  5
106
100
AcDbEntity
100
AcDbLine
  8
front hinge plate 3mm
 62
256
370
-1
  6
BYLAYER
 10
230.0
 20
462.0
 30
0.0
 11
320.0
 21
462.0
 31
0.0
  0
LINE
  5
107
100
AcDbEntity
100
AcDbLine
  8
rear hinge plate 3mm
 62
256
370
-1
  6
BYLAYER
 10
230.0
 20
472.0
 30
0.0
 11
320.0
 21
472.0
 31
0.0
  0
LINE
  5
108
100
AcDbEntity
100
AcDbLine
  8
0
 62
256
370
-1
  6
BYLAYER
 10
15.0
 20
420.0
 30
0.0
 11
15.0
 21
500.0
 31
0.0
  0
LINE
  5
109
100
AcDbEntity
100
AcDbLine
  8
0
 62
256
370
-1
  6
BYLAYER
 10
535.0
 20
500.0
 30
0.0
 11
535.0
 21
420.0
 31
0.0
  0
ARC
  5
10A
100
AcDbEntity
  8
0
 62
256
370
-1
  6
BYLAYER
100
AcDbCircle
 10
-132.5000000000055707
 20
460.0
 30
0.0
 40
172.5000000000055707
100
AcDbArc
 50
345.7499673021968647
 51
14.2500326978031318
  0
ARC
  5
10B
100
AcDbEntity
  8
0
 62
256
370
-1
  6
BYLAYER
100
AcDbCircle
 10
682.5000000000775344
 20
460.0
 30
0.0
 40
172.5000000000774776
100
AcDbArc
 50
165.7499673022031459
 51
194.2500326977968541
  0
ARC
  5
10C
100
AcDbEntity
  8
0
 62
256
370
-1
  6
BYLAYER
100
AcDbCircle
 10
25.0
 20
420.0
 30
0.0
 40
10.0
100
AcDbArc
 50
180.0
 51
345.749967302196751
  0
ARC
  5
10D
100
AcDbEntity
  8
0
 62
256
370
-1
  6
BYLAYER
100
AcDbCircle
 10
25.0
 20
500.0
 30
0.0
 40
10.0
100
AcDbArc
 50
14.2500326978032863
 51
180.0
  0
ARC
  5
10E
100
AcDbEntity
  8
0
 62
256
370
-1
  6
BYLAYER
100
AcDbCircle
 10
525.0
 20
500.0
 30
0.0
 40
10.0
100
AcDbArc
 50
0.0
 51
165.7499673022031743
  0
ARC
  5
10F
100
AcDbEntity
  8
0
 62
256
370
-1
  6
BYLAYER
100
AcDbCircle
 10
525.0
 20
420.0
 30
0.0
 40
10.0
100
AcDbArc
 50
194.2500326977964562
 51
0.0
  0
LINE
  5
110
100
AcDbEntity
100
AcDbLine
  8
0
 62
256
370
-1
  6
BYLAYER
 10
82.6491106406735128
 20
10.0
 30
0.0
 11
467.3508893593266293
 21
10.0
 31
0.0
  0
ARC
  5
111
100
AcDbEntity
  8
0
 62
256
370
-1
  6
BYLAYER
100
AcDbCircle
 10
10.0
 20
10.0
 30
0.0
 40
10.0
100
AcDbArc
 50
180.0
 51
270.0
  0
ARC
  5
112
100
AcDbEntity
  8
0
 62
256
370
-1
  6
BYLAYER
100
AcDbCircle
 10
70.0
 20
10.0
 30
0.0
 40
10.0
100
AcDbArc
 50
269.9999999999998863
 51
346.6576362029117604
  0
ARC
  5
113
100
AcDbEntity
  8
0
 62
256
370
-1
  6
BYLAYER
100
AcDbCircle
 10
480.0
 20
10.0
 30
0.0
 40
10.0
100
AcDbArc
 50
193.3423637970882396
 51
270.0
  0
ARC
  5
114
100
AcDbEntity
  8
0
 62
256
370
-1
  6
BYLAYER
100
AcDbCircle
 10
540.0
 20
10.0
 30
0.0
 40
10.0
100
AcDbArc
 50
270.0
 51
0.0
  0
LINE
  5
115
100
AcDbEntity
100
AcDbLine
  8
0
 62
256
370
-1
  6
BYLAYER
 10
550.0
 20
10.0000000000000018
 30
0.0
 11
550.0
 21
842.4715135455156769
 31
0.0
  0
LINE
  5
116
100
AcDbEntity
100
AcDbLine
  8
0
 62
256
370
-1
  6
BYLAYER
 10
0.0
 20
842.4715135455155632
 30
0.0
 11
0.0
 21
10.0000000000001137
 31
0.0
  0
LINE
  5
117
100
AcDbEntity
100
AcDbLine
  8
0
 62
256
370
-1
  6
BYLAYER
 10
10.0
 20
0.0
 30
0.0
 11
70.0
 21
0.0
 31
0.0
  0
LINE
  5
118
100
AcDbEntity
100
AcDbLine
  8
0
 62
256
370
-1
  6
BYLAYER
 10
480.0
 20
0.0
 30
0.0
 11
540.0
 21
0.0
 31
0.0
  0
ARC
  5
119
100
AcDbEntity
  8
0
 62
256
370
-1
  6
BYLAYER
100
AcDbCircle
 10
82.6491106406735128
 20
7.0
 30
0.0
 40
3.0
100
AcDbArc
 50
90.0
 51
166.6576362029118172
  0
ARC
  5
11A
100
AcDbEntity
  8
0
 62
256
370
-1
  6
BYLAYER
100
AcDbCircle
 10
467.3508893593265157
 20
7.0
 30
0.0
 40
3.0
100
AcDbArc
 50
13.3423637970883497
 51
90.0
  0
TEXT
  5
11B
100
AcDbEntity
100
AcDbText
  8
front text 2mm
 62
256
370
-1
  6
BYLAYER
 10
5.3012052654294166
 20
-2.5579769073342504
 30
0.0
 40
50.0
  1
makespace
 50
90.0
 41
1.0
  7
textstyle0
 71
0
 72
0
 11
40.0
 21
28.7845935953960179
 31
0.0
 73
3
  0
TEXT
  5
11C
100
AcDbEntity
100
AcDbText
  8
front text 2mm
 62
256
370
-1
  6
BYLAYER
 10
0.0
 20
0.0
 30
0.0
 40
50.0
  1
V.Sanders
 50
270.0
 41
1.0
  7
textstyle1
 71
0
 72
0
 11
509.9266619939649559
 21
381.4410026543845333
 31
0.0
 73
3
  0
ENDSEC
  0
SECTION
  2
OBJECTS
  0
DICTIONARY
  5
C
100
AcDbDictionary
280
0
281
1
  3
ACAD_GROUP
350
D
  3
ACAD_LAYOUT
350
1A
  3
ACAD_MLINESTYLE
350
17
  3
ACAD_PLOTSETTINGS
350
19
  3
ACAD_PLOTSTYLENAME
350
E
  3
AcDbVariableDictionary
350
11D
  3
QCAD_OBJECTS
350
11E
  0
DICTIONARY
  5
D
100
AcDbDictionary
280
0
281
1
  0
ACDBDICTIONARYWDFLT
  5
E
100
AcDbDictionary
281
1
  3
Normal
350
F
100
AcDbDictionaryWithDefault
340
F
  0
ACDBPLACEHOLDER
  5
F
  0
DICTIONARY
  5
17
100
AcDbDictionary
280
0
281
1
  3
Standard
350
18
  0
MLINESTYLE
  5
18
100
AcDbMlineStyle
  2
STANDARD
 70
0
  3

 62
256
 51
90.0
 52
90.0
 71
2
 49
0.5
 62
256
  6
BYLAYER
 49
-0.5
 62
256
  6
BYLAYER
  0
DICTIONARY
  5
19
100
AcDbDictionary
280
0
281
1
  0
DICTIONARY
  5
1A
100
AcDbDictionary
281
1
  3
Layout1
350
1E
  3
Layout2
350
26
  3
Model
350
22
  0
LAYOUT
  5
1E
100
AcDbPlotSettings
  1

  2
C:\Program Files\AutoCAD 2002\plotters\DWF ePlot (optimized for plotting).pc3
  4

  6

 40
0.0
 41
0.0
 42
0.0
 43
0.0
 44
0.0
 45
0.0
 46
0.0
 47
0.0
 48
0.0
 49
0.0
140
0.0
141
0.0
142
1.0
143
1.0
 70
688
 72
0
 73
0
 74
5
  7

 75
16
147
1.0
148
0.0
149
0.0
100
AcDbLayout
  1
Layout1
 70
1
 71
1
 10
0.0
 20
0.0
 11
420.0
 21
297.0
 12
0.0
 22
0.0
 32
0.0
 14
100000000000000000000.0
 24
100000000000000000000.0
 34
100000000000000000000.0
 15
-100000000000000000000.0
 25
-100000000000000000000.0
 35
-100000000000000000000.0
146
0.0
 13
0.0
 23
0.0
 33
0.0
 16
1.0
 26
0.0
 36
0.0
 17
0.0
 27
1.0
 37
0.0
 76
0
330
1B
  0
LAYOUT
  5
22
100
AcDbPlotSettings
  1

  2
C:\Program Files\AutoCAD 2002\plotters\DWF ePlot (optimized for plotting).pc3
  4

  6

 40
0.0
 41
0.0
 42
0.0
 43
0.0
 44
0.0
 45
0.0
 46
0.0
 47
0.0
 48
0.0
 49
0.0
140
0.0
141
0.0
142
1.0
143
1.0
 70
1712
 72
0
 73
0
 74
0
  7

 75
0
147
1.0
148
0.0
149
0.0
100
AcDbLayout
  1
Model
 70
1
 71
0
 10
0.0
 20
0.0
 11
12.0
 21
9.0
 12
0.0
 22
0.0
 32
0.0
 14
0.0
 24
0.0
 34
0.0
 15
0.0
 25
0.0
 35
0.0
146
0.0
 13
0.0
 23
0.0
 33
0.0
 16
1.0
 26
0.0
 36
0.0
 17
0.0
 27
1.0
 37
0.0
 76
0
330
1F
  0
LAYOUT
  5
26
100
AcDbPlotSettings
  1

  2
C:\Program Files\AutoCAD 2002\plotters\DWF ePlot (optimized for plotting).pc3
  4

  6

 40
0.0
 41
0.0
 42
0.0
 43
0.0
 44
0.0
 45
0.0
 46
0.0
 47
0.0
 48
0.0
 49
0.0
140
0.0
141
0.0
142
1.0
143
1.0
 70
688
 72
0
 73
0
 74
5
  7

 75
16
147
1.0
148
0.0
149
0.0
100
AcDbLayout
  1
Layout2
 70
1
 71
2
 10
0.0
 20
0.0
 11
12.0
 21
9.0
 12
0.0
 22
0.0
 32
0.0
 14
0.0
 24
0.0
 34
0.0
 15
0.0
 25
0.0
 35
0.0
146
0.0
 13
0.0
 23
0.0
 33
0.0
 16
1.0
 26
0.0
 36
0.0
 17
0.0
 27
1.0
 37
0.0
 76
0
330
23
  0
DICTIONARY
  5
11D
100
AcDbDictionary
281
1
  3
DIMASSOC
350
120
  3
HIDETEXT
350
11F
  0
DICTIONARYVAR
  5
11F
100
DictionaryVariables
280
0
  1
2
  0
DICTIONARYVAR
  5
120
100
DictionaryVariables
280
0
  1
1
  0
DICTIONARY
  5
11E
100
AcDbDictionary
281
1
  3
Grid/DisplayGrid00
350
121
  3
Grid/DisplayGrid01
350
122
  3
Grid/DisplayGrid02
350
123
  3
Grid/DisplayGrid03
350
124
  3
Grid/GridSpacingX00
350
125
  3
Grid/GridSpacingX01
350
126
  3
Grid/GridSpacingX02
350
127
  3
Grid/GridSpacingX03
350
128
  3
Grid/GridSpacingY00
350
129
  3
Grid/GridSpacingY01
350
12A
  3
Grid/GridSpacingY02
350
12B
  3
Grid/GridSpacingY03
350
12C
  3
Grid/IsometricGrid00
350
12D
  3
Grid/IsometricGrid01
350
12E
  3
Grid/IsometricGrid02
350
12F
  3
Grid/IsometricGrid03
350
130
  3
Grid/IsometricProjection00
350
131
  3
Grid/IsometricProjection01
350
132
  3
Grid/IsometricProjection02
350
133
  3
Grid/IsometricProjection03
350
134
  3
Grid/MetaGridSpacingX00
350
135
  3
Grid/MetaGridSpacingX01
350
136
  3
Grid/MetaGridSpacingX02
350
137
  3
Grid/MetaGridSpacingX03
350
138
  3
Grid/MetaGridSpacingY00
350
139
  3
Grid/MetaGridSpacingY01
350
13A
  3
Grid/MetaGridSpacingY02
350
13B
  3
Grid/MetaGridSpacingY03
350
13C
  3
MultiPageSettings/Columns
350
13D
  3
MultiPageSettings/GlueMarginsBottom
350
13E
  3
MultiPageSettings/GlueMarginsLeft
350
13F
  3
MultiPageSettings/GlueMarginsRight
350
140
  3
MultiPageSettings/GlueMarginsTop
350
141
  3
MultiPageSettings/PrintCropMarks
350
142
  3
MultiPageSettings/Rows
350
143
  3
PageSettings/OffsetX
350
144
  3
PageSettings/OffsetY
350
145
  3
PageSettings/PageOrientation
350
146
  3
PageSettings/PaperHeight
350
147
  3
PageSettings/PaperWidth
350
148
  3
PageSettings/Scale
350
149
  3
PageSettings/ShowPaperBorders
350
14A
  3
UnitSettings/PaperUnit
350
14B
  0
XRECORD
  5
121
330
11E
100
AcDbXrecord
280
1
290
1
  0
XRECORD
  5
122
330
11E
100
AcDbXrecord
280
1
290
1
  0
XRECORD
  5
123
330
11E
100
AcDbXrecord
280
1
290
1
  0
XRECORD
  5
124
330
11E
100
AcDbXrecord
280
1
290
1
  0
XRECORD
  5
125
330
11E
100
AcDbXrecord
280
1
1000
auto
  0
XRECORD
  5
126
330
11E
100
AcDbXrecord
280
1
1000
auto
  0
XRECORD
  5
127
330
11E
100
AcDbXrecord
280
1
1000
auto
  0
XRECORD
  5
128
330
11E
100
AcDbXrecord
280
1
1000
auto
  0
XRECORD
  5
129
330
11E
100
AcDbXrecord
280
1
1000
auto
  0
XRECORD
  5
12A
330
11E
100
AcDbXrecord
280
1
1000
auto
  0
XRECORD
  5
12B
330
11E
100
AcDbXrecord
280
1
1000
auto
  0
XRECORD
  5
12C
330
11E
100
AcDbXrecord
280
1
1000
auto
  0
XRECORD
  5
12D
330
11E
100
AcDbXrecord
280
1
290
0
  0
XRECORD
  5
12E
330
11E
100
AcDbXrecord
280
1
290
0
  0
XRECORD
  5
12F
330
11E
100
AcDbXrecord
280
1
290
0
  0
XRECORD
  5
130
330
11E
100
AcDbXrecord
280
1
290
0
  0
XRECORD
  5
131
330
11E
100
AcDbXrecord
280
1
 90
0
  0
XRECORD
  5
132
330
11E
100
AcDbXrecord
280
1
 90
0
  0
XRECORD
  5
133
330
11E
100
AcDbXrecord
280
1
 90
0
  0
XRECORD
  5
134
330
11E
100
AcDbXrecord
280
1
 90
0
  0
XRECORD
  5
135
330
11E
100
AcDbXrecord
280
1
1000
auto
  0
XRECORD
  5
136
330
11E
100
AcDbXrecord
280
1
1000
auto
  0
XRECORD
  5
137
330
11E
100
AcDbXrecord
280
1
1000
auto
  0
XRECORD
  5
138
330
11E
100
AcDbXrecord
280
1
1000
auto
  0
XRECORD
  5
139
330
11E
100
AcDbXrecord
280
1
1000
auto
  0
XRECORD
  5
13A
330
11E
100
AcDbXrecord
280
1
1000
auto
  0
XRECORD
  5
13B
330
11E
100
AcDbXrecord
280
1
1000
auto
  0
XRECORD
  5
13C
330
11E
100
AcDbXrecord
280
1
1000
auto
  0
XRECORD
  5
13D
330
11E
100
AcDbXrecord
280
1
 90
1
  0
XRECORD
  5
13E
330
11E
100
AcDbXrecord
280
1
 40
10.0
  0
XRECORD
  5
13F
330
11E
100
AcDbXrecord
280
1
 40
10.0
  0
XRECORD
  5
140
330
11E
100
AcDbXrecord
280
1
 40
10.0
  0
XRECORD
  5
141
330
11E
100
AcDbXrecord
280
1
 40
10.0
  0
XRECORD
  5
142
330
11E
100
AcDbXrecord
280
1
290
0
  0
XRECORD
  5
143
330
11E
100
AcDbXrecord
280
1
 90
1
  0
XRECORD
  5
144
330
11E
100
AcDbXrecord
280
1
 40
0.0
  0
XRECORD
  5
145
330
11E
100
AcDbXrecord
280
1
 40
0.0
  0
XRECORD
  5
146
330
11E
100
AcDbXrecord
280
1
1000
Portrait
  0
XRECORD
  5
147
330
11E
100
AcDbXrecord
280
1
 40
420.0
  0
XRECORD
  5
148
330
11E
100
AcDbXrecord
280
1
 40
297.0
  0
XRECORD
  5
149
330
11E
100
AcDbXrecord
280
1
1000
1:1
  0
XRECORD
  5
14A
330
11E
100
AcDbXrecord
280
1
290
1
  0
XRECORD
  5
14B
330
11E
100
AcDbXrecord
280
1
 90
4
  0
ENDSEC
  0
EOF
