999
dxflib 3.1.5.0
  0
SECTION
  2
HEADER
  9
$ACADVER
  1
AC1015
  9
$HANDSEED
  5
FFFF
  9
$DIMADEC
 70
0
  9
$DIMASZ
 40
2.5
  9
$DIMAUNIT
 70
0
  9
$DIMAZIN
 70
2
  9
$DIMDEC
 70
4
  9
$DIMEXE
 40
1.25
  9
$DIMEXO
 40
0.625
  9
$DIMGAP
 40
0.625
  9
$DIMLUNIT
 70
2
  9
$DIMTSZ
 40
0.0
  9
$DIMTXT
 40
2.5
  9
$DIMZIN
 70
8
  9
$INSUNITS
 70
4
  9
$LTSCALE
 40
1.0
  0
SECTION
  2
TABLES
  0
TABLE
  2
VPORT
  5
8
100
AcDbSymbolTable
 70
1
  0
VPORT
  5
30
100
AcDbSymbolTableRecord
100
AcDbViewportTableRecord
  2
*Active
 70
0
 10
0.0
 20
0.0
 11
1.0
 21
1.0
 12
286.3055555555554861
 22
148.5
 13
0.0
 23
0.0
 14
10.0
 24
10.0
 15
10.0
 25
10.0
 16
0.0
 26
0.0
 36
1.0
 17
0.0
 27
0.0
 37
0.0
 40
297.0
 41
1.92798353909465
 42
50.0
 43
0.0
 44
0.0
 50
0.0
 51
0.0
 71
0
 72
100
 73
1
 74
3
 75
1
 76
1
 77
0
 78
0
281
0
 65
1
110
0.0
120
0.0
130
0.0
111
1.0
121
0.0
131
0.0
112
0.0
122
1.0
132
0.0
 79
0
146
0.0
  0
ENDTAB
  0
TABLE
  2
LTYPE
  5
5
100
AcDbSymbolTable
 70
21
  0
LTYPE
  5
31
100
AcDbSymbolTableRecord
100
AcDbLinetypeTableRecord
  2
CENTER2
 70
0
  3
Center (.5x) ___ _ ___ _ ___ _ ___ _ ___ _ ___
 72
65
 73
4
 40
28.5749999999999993
 49
19.0500000000000007
 74
0
 49
-3.1749999999999998
 74
0
 49
3.1749999999999998
 74
0
 49
-3.1749999999999998
 74
0
  0
LTYPE
  5
32
100
AcDbSymbolTableRecord
100
AcDbLinetypeTableRecord
  2
DIVIDEX2
 70
0
  3
Divide (2x) ________  .  .  ________  .  .  _
 72
65
 73
6
 40
63.5
 49
25.3999999999999986
 74
0
 49
-12.6999999999999993
 74
0
 49
0.0
 74
0
 49
-12.6999999999999993
 74
0
 49
0.0
 74
0
 49
-12.6999999999999993
 74
0
  0
LTYPE
  5
33
100
AcDbSymbolTableRecord
100
AcDbLinetypeTableRecord
  2
DOT2
 70
0
  3
Dot (.5x) .....................................
 72
65
 73
2
 40
3.1749999999999998
 49
0.0
 74
0
 49
-3.1749999999999998
 74
0
  0
LTYPE
  5
34
100
AcDbSymbolTableRecord
100
AcDbLinetypeTableRecord
  2
DASHDOT2
 70
0
  3
Dash dot (.5x) _._._._._._._._._._._._._._._.
 72
65
 73
4
 40
12.6999999999999993
 49
6.3499999999999996
 74
0
 49
-3.1749999999999998
 74
0
 49
0.0
 74
0
 49
-3.1749999999999998
 74
0
  0
LTYPE
  5
35
100
AcDbSymbolTableRecord
100
AcDbLinetypeTableRecord
  2
DIVIDE
 70
0
  3
Divide ____ . . ____ . . ____ . . ____ . . ____
 72
65
 73
6
 40
31.75
 49
12.6999999999999993
 74
0
 49
-6.3499999999999996
 74
0
 49
0.0
 74
0
 49
-6.3499999999999996
 74
0
 49
0.0
 74
0
 49
-6.3499999999999996
 74
0
  0
LTYPE
  5
36
100
AcDbSymbolTableRecord
100
AcDbLinetypeTableRecord
  2
DASHDOT
 70
0
  3
Dash dot __ . __ . __ . __ . __ . __ . __ . __
 72
65
 73
4
 40
25.3999999999999986
 49
12.6999999999999993
 74
0
 49
-6.3499999999999996
 74
0
 49
0.0
 74
0
 49
-6.3499999999999996
 74
0
  0
LTYPE
  5
37
100
AcDbSymbolTableRecord
100
AcDbLinetypeTableRecord
  2
BORDER
 70
0
  3
Border __ __ . __ __ . __ __ . __ __ . __ __ .
 72
65
 73
6
 40
44.4500000000000028
 49
12.6999999999999993
 74
0
 49
-6.3499999999999996
 74
0
 49
12.6999999999999993
 74
0
 49
-6.3499999999999996
 74
0
 49
0.0
 74
0
 49
-6.3499999999999996
 74
0
  0
LTYPE
  5
38
100
AcDbSymbolTableRecord
100
AcDbLinetypeTableRecord
  2
DASHDOTX2
 70
0
  3
Dash dot (2x) ____  .  ____  .  ____  .  ___
 72
65
 73
4
 40
50.7999999999999972
 49
25.3999999999999986
 74
0
 49
-12.6999999999999993
 74
0
 49
0.0
 74
0
 49
-12.6999999999999993
 74
0
  0
LTYPE
  5
39
100
AcDbSymbolTableRecord
100
AcDbLinetypeTableRecord
  2
CENTERX2
 70
0
  3
Center (2x) ________  __  ________  __  _____
 72
65
 73
4
 40
101.5999999999999943
 49
63.5
 74
0
 49
-12.6999999999999993
 74
0
 49
12.6999999999999993
 74
0
 49
-12.6999999999999993
 74
0
  0
LTYPE
  5
3A
100
AcDbSymbolTableRecord
100
AcDbLinetypeTableRecord
  2
BORDER2
 70
0
  3
Border (.5x) __.__.__.__.__.__.__.__.__.__.__.
 72
65
 73
6
 40
22.2250000000000014
 49
6.3499999999999996
 74
0
 49
-3.1749999999999998
 74
0
 49
6.3499999999999996
 74
0
 49
-3.1749999999999998
 74
0
 49
0.0
 74
0
 49
-3.1749999999999998
 74
0
  0
LTYPE
  5
3B
100
AcDbSymbolTableRecord
100
AcDbLinetypeTableRecord
  2
BORDERX2
 70
0
  3
Border (2x) ____  ____  .  ____  ____  .  ___
 72
65
 73
6
 40
88.9000000000000057
 49
25.3999999999999986
 74
0
 49
-12.6999999999999993
 74
0
 49
25.3999999999999986
 74
0
 49
-12.6999999999999993
 74
0
 49
0.0
 74
0
 49
-12.6999999999999993
 74
0
  0
LTYPE
  5
16
100
AcDbSymbolTableRecord
100
AcDbLinetypeTableRecord
  2
CONTINUOUS
 70
0
  3
Solid line
 72
65
 73
0
 40
0.0
  0
LTYPE
  5
14
100
AcDbSymbolTableRecord
100
AcDbLinetypeTableRecord
  2
BYBLOCK
 70
0
  3

 72
65
 73
0
 40
0.0
  0
LTYPE
  5
15
100
AcDbSymbolTableRecord
100
AcDbLinetypeTableRecord
  2
BYLAYER
 70
0
  3

 72
65
 73
0
 40
0.0
  0
LTYPE
  5
3C
100
AcDbSymbolTableRecord
100
AcDbLinetypeTableRecord
  2
DASHED2
 70
0
  3
Dashed (.5x) _ _ _ _ _ _ _ _ _ _ _ _ _ _ _ _ _
 72
65
 73
2
 40
9.5250000000000004
 49
6.3499999999999996
 74
0
 49
-3.1749999999999998
 74
0
  0
LTYPE
  5
3D
100
AcDbSymbolTableRecord
100
AcDbLinetypeTableRecord
  2
CENTER
 70
0
  3
Center ____ _ ____ _ ____ _ ____ _ ____ _ ____
 72
65
 73
4
 40
50.7999999999999972
 49
31.75
 74
0
 49
-6.3499999999999996
 74
0
 49
6.3499999999999996
 74
0
 49
-6.3499999999999996
 74
0
  0
LTYPE
  5
3E
100
AcDbSymbolTableRecord
100
AcDbLinetypeTableRecord
  2
DIVIDE2
 70
0
  3
Divide (.5x) __..__..__..__..__..__..__..__.._
 72
65
 73
6
 40
15.875
 49
6.3499999999999996
 74
0
 49
-3.1749999999999998
 74
0
 49
0.0
 74
0
 49
-3.1749999999999998
 74
0
 49
0.0
 74
0
 49
-3.1749999999999998
 74
0
  0
LTYPE
  5
3F
100
AcDbSymbolTableRecord
100
AcDbLinetypeTableRecord
  2
DASHED
 70
0
  3
Dashed __ __ __ __ __ __ __ __ __ __ __ __ __ _
 72
65
 73
2
 40
19.0500000000000007
 49
12.6999999999999993
 74
0
 49
-6.3499999999999996
 74
0
  0
LTYPE
  5
40
100
AcDbSymbolTableRecord
100
AcDbLinetypeTableRecord
  2
DOTX2
 70
0
  3
Dot (2x) .  .  .  .  .  .  .  .  .  .  .  .  .
 72
65
 73
2
 40
12.6999999999999993
 49
0.0
 74
0
 49
-12.6999999999999993
 74
0
  0
LTYPE
  5
41
100
AcDbSymbolTableRecord
100
AcDbLinetypeTableRecord
  2
DASHEDX2
 70
0
  3
Dashed (2x) ____  ____  ____  ____  ____  ___
 72
65
 73
2
 40
38.1000000000000014
 49
25.3999999999999986
 74
0
 49
-12.6999999999999993
 74
0
  0
LTYPE
  5
42
100
AcDbSymbolTableRecord
100
AcDbLinetypeTableRecord
  2
DOT
 70
0
  3
Dot . . . . . . . . . . . . . . . . . . . . . .
 72
65
 73
2
 40
6.3499999999999996
 49
0.0
 74
0
 49
-6.3499999999999996
 74
0
  0
ENDTAB
  0
TABLE
  2
LAYER
  5
2
100
AcDbSymbolTable
 70
2
  0
LAYER
  5
43
100
AcDbSymbolTableRecord
100
AcDbLayerTableRecord
  2
hinge
 70
0
 62
1
420
16711680
  6
CONTINUOUS
370
25
390
F
  0
LAYER
  5
10
100
AcDbSymbolTableRecord
100
AcDbLayerTableRecord
  2
0
 70
0
 62
7
420
0
  6
CONTINUOUS
370
25
390
F
  0
ENDTAB
  0
TABLE
  2
STYLE
  5
3
100
AcDbSymbolTable
 70
0
  0
ENDTAB
  0
TABLE
  2
VIEW
  5
6
100
AcDbSymbolTable
 70
0
  0
ENDTAB
  0
TABLE
  2
UCS
  5
7
100
AcDbSymbolTable
 70
0
  0
ENDTAB
  0
TABLE
  2
APPID
  5
9
100
AcDbSymbolTable
 70
1
  0
APPID
  5
44
100
AcDbSymbolTableRecord
100
AcDbRegAppTableRecord
  2
QCAD
 70
0
  0
ENDTAB
  0
TABLE
  2
DIMSTYLE
  5
A
100
AcDbSymbolTable
 70
1
100
AcDbDimStyleTable
 71
0
  0
DIMSTYLE
105
27
100
AcDbSymbolTableRecord
100
AcDbDimStyleTableRecord
  2
Standard
 41
2.5
 42
0.625
 43
3.75
 44
1.25
 70
0
 73
0
 74
0
 77
1
 78
8
140
2.5
141
2.5
143
0.03937007874016
147
0.625
171
3
172
1
271
2
272
2
274
3
278
44
283
0
284
8
340
11
  0
ENDTAB
  0
TABLE
  2
BLOCK_RECORD
  5
1
100
AcDbSymbolTable
 70
1
  0
BLOCK_RECORD
  5
1F
100
AcDbSymbolTableRecord
100
AcDbBlockTableRecord
  2
*Model_Space
340
22
  0
BLOCK_RECORD
  5
1B
100
AcDbSymbolTableRecord
100
AcDbBlockTableRecord
  2
*Paper_Space
340
1E
  0
BLOCK_RECORD
  5
23
100
AcDbSymbolTableRecord
100
AcDbBlockTableRecord
  2
*Paper_Space0
340
26
  0
BLOCK_RECORD
  5
45
100
AcDbSymbolTableRecord
100
AcDbBlockTableRecord
  2
*Model_Space
340
0
  0
ENDTAB
  0
ENDSEC
  0
SECTION
  2
BLOCKS
  0
BLOCK
  5
20
100
AcDbEntity
  8
0
100
AcDbBlockBegin
  2
*Model_Space
 70
0
 10
0.0
 20
0.0
 30
0.0
  3
*Model_Space
  1

  0
ENDSEC
  0
SECTION
  2
ENTITIES
  0
LINE
  5
46
100
AcDbEntity
100
AcDbLine
  8
0
 62
256
370
-1
  6
BYLAYER
 10
10.0
 20
0.0
 30
0.0
 11
76.0
 21
0.0
 31
0.0
  0
ARC
  5
47
100
AcDbEntity
  8
0
 62
256
370
-1
  6
BYLAYER
100
AcDbCircle
 10
10.0
 20
10.0
 30
0.0
 40
10.0
100
AcDbArc
 50
180.0
 51
270.0
  0
ARC
  5
48
100
AcDbEntity
  8
0
 62
256
370
-1
  6
BYLAYER
100
AcDbCircle
 10
88.6491106406735128
 20
7.0
 30
0.0
 40
3.0
100
AcDbArc
 50
90.0
 51
166.6576362029118172
  0
ARC
  5
49
100
AcDbEntity
  8
0
 62
256
370
-1
  6
BYLAYER
100
AcDbCircle
 10
76.0
 20
10.0
 30
0.0
 40
10.0
100
AcDbArc
 50
270.0
 51
346.6576362029117604
  0
ARC
  5
4A
100
AcDbEntity
  8
0
 62
256
370
-1
  6
BYLAYER
100
AcDbCircle
 10
532.0
 20
10.0
 30
0.0
 40
10.0
100
AcDbArc
 50
270.0
 51
0.0
  0
LINE
  5
4B
100
AcDbEntity
100
AcDbLine
  8
0
 62
256
370
-1
  6
BYLAYER
 10
466.0
 20
0.0
 30
0.0
 11
532.0
 21
0.0
 31
0.0
  0
ARC
  5
4C
100
AcDbEntity
  8
0
 62
256
370
-1
  6
BYLAYER
100
AcDbCircle
 10
453.3508893593261746
 20
7.0
 30
0.0
 40
3.0
100
AcDbArc
 50
13.3423637970878826
 51
90.0
  0
ARC
  5
4D
100
AcDbEntity
  8
0
 62
256
370
-1
  6
BYLAYER
100
AcDbCircle
 10
466.0
 20
10.0
 30
0.0
 40
10.0
100
AcDbArc
 50
193.342363797087927
 51
270.0
  0
LINE
  5
4E
100
AcDbEntity
100
AcDbLine
  8
0
 62
256
370
-1
  6
BYLAYER
 10
88.6491106406735128
 20
10.0
 30
0.0
 11
453.3508893593261746
 21
10.0
 31
0.0
  0
ARC
  5
4F
100
AcDbEntity
  8
0
 62
256
370
-1
  6
BYLAYER
100
AcDbCircle
 10
394.3427546892250461
 20
70.0
 30
0.0
 40
10.0
100
AcDbArc
 50
270.0000000000003411
 51
0.0
  0
ARC
  5
50
100
AcDbEntity
  8
0
 62
256
370
-1
  6
BYLAYER
100
AcDbCircle
 10
147.6572453107748686
 20
70.0
 30
0.0
 40
10.0
100
AcDbArc
 50
180.0
 51
270.0
  0
LINE
  5
51
100
AcDbEntity
100
AcDbLine
  8
0
 62
256
370
-1
  6
BYLAYER
 10
137.6511627906976969
 20
70.0
 30
0.0
 11
137.6572453107748686
 21
70.0
 31
0.0
  0
LINE
  5
52
100
AcDbEntity
100
AcDbLine
  8
0
 62
256
370
-1
  6
BYLAYER
 10
404.3427546892252167
 20
70.0
 30
0.0
 11
404.3488372093023031
 21
70.0
 31
0.0
  0
LINE
  5
53
100
AcDbEntity
100
AcDbLine
  8
0
 62
256
370
-1
  6
BYLAYER
 10
419.0000000000000568
 20
489.9999999999999432
 30
0.0
 11
404.3366758666040823
 21
69.6513748426496022
 31
0.0
  0
LINE
  5
54
100
AcDbEntity
100
AcDbLine
  8
0
 62
256
370
-1
  6
BYLAYER
 10
123.0000000000000568
 20
489.9999999999999432
 30
0.0
 11
137.6633241333959745
 21
69.6513748426496022
 31
0.0
  0
ARC
  5
55
100
AcDbEntity
  8
0
 62
256
370
-1
  6
BYLAYER
100
AcDbCircle
 10
226.6491106406735412
 20
67.0
 30
0.0
 40
3.0
100
AcDbArc
 50
90.0
 51
166.6576362029119878
  0
ARC
  5
56
100
AcDbEntity
  8
0
 62
256
370
-1
  6
BYLAYER
100
AcDbCircle
 10
315.3508893593269704
 20
67.0
 30
0.0
 40
3.0
100
AcDbArc
 50
13.3423637970888453
 51
90.0
  0
ARC
  5
57
100
AcDbEntity
  8
0
 62
256
370
-1
  6
BYLAYER
100
AcDbCircle
 10
214.0000000000000284
 20
70.0
 30
0.0
 40
10.0
100
AcDbArc
 50
270.0
 51
346.6576362029117604
  0
LINE
  5
58
100
AcDbEntity
100
AcDbLine
  8
0
 62
256
370
-1
  6
BYLAYER
 10
147.6572453107748686
 20
60.0
 30
0.0
 11
214.0000000000000284
 21
60.0
 31
0.0
  0
LINE
  5
59
100
AcDbEntity
100
AcDbLine
  8
0
 62
256
370
-1
  6
BYLAYER
 10
328.0
 20
60.0
 30
0.0
 11
394.342754689225103
 21
60.0
 31
0.0
  0
LINE
  5
5A
100
AcDbEntity
100
AcDbLine
  8
0
 62
256
370
-1
  6
BYLAYER
 10
226.6491106406735412
 20
70.0
 30
0.0
 11
315.3508893593269704
 21
70.0
 31
0.0
  0
ARC
  5
5B
100
AcDbEntity
  8
0
 62
256
370
-1
  6
BYLAYER
100
AcDbCircle
 10
328.0
 20
70.0
 30
0.0
 40
10.0
100
AcDbArc
 50
193.3423637970886944
 51
270.0
  0
ARC
  5
5C
100
AcDbEntity
  8
0
 62
256
370
-1
  6
BYLAYER
100
AcDbCircle
 10
400.1425487689920715
 20
64.0
 30
0.0
 40
10.0
100
AcDbArc
 50
270.0
 51
358.0033410990395737
  0
LINE
  5
5D
100
AcDbEntity
100
AcDbLine
  8
0
 62
256
370
-1
  6
BYLAYER
 10
410.1364773731971809
 20
63.6515878101286319
 30
0.0
 11
425.0
 21
490.0
 31
0.0
  0
ARC
  5
5E
100
AcDbEntity
  8
0
 62
256
370
-1
  6
BYLAYER
100
AcDbCircle
 10
141.8574512310079569
 20
63.9999999999999929
 30
0.0
 40
10.0
100
AcDbArc
 50
181.9966589009603979
 51
270.0
  0
LINE
  5
5F
100
AcDbEntity
100
AcDbLine
  8
0
 62
256
370
-1
  6
BYLAYER
 10
141.8574512310079569
 20
53.9999999999999929
 30
0.0
 11
400.1425487689920715
 21
54.0
 31
0.0
  0
LINE
  5
60
100
AcDbEntity
100
AcDbLine
  8
0
 62
256
370
-1
  6
BYLAYER
 10
131.8635226268028475
 20
63.6515878101286248
 30
0.0
 11
117.0000000000000426
 21
489.9999999999999432
 31
0.0
  0
ARC
  5
61
100
AcDbEntity
  8
0
 62
256
370
-1
  6
BYLAYER
100
AcDbCircle
 10
106.0000000000000426
 20
511.0
 30
0.0
 40
3.0
100
AcDbArc
 50
90.0
 51
180.0
  0
ARC
  5
62
100
AcDbEntity
  8
0
 62
256
370
-1
  6
BYLAYER
100
AcDbCircle
 10
114.0000000000000426
 20
511.0
 30
0.0
 40
3.0
100
AcDbArc
 50
0.0
 51
90.0
  0
ARC
  5
63
100
AcDbEntity
  8
0
 62
256
370
-1
  6
BYLAYER
100
AcDbCircle
 10
428.0
 20
511.0
 30
0.0
 40
3.0
100
AcDbArc
 50
90.0
 51
180.0
  0
ARC
  5
64
100
AcDbEntity
  8
0
 62
256
370
-1
  6
BYLAYER
100
AcDbCircle
 10
436.0
 20
511.0
 30
0.0
 40
3.0
100
AcDbArc
 50
0.0
 51
90.0
  0
LINE
  5
65
100
AcDbEntity
100
AcDbLine
  8
0
 62
256
370
-1
  6
BYLAYER
 10
103.0000000000000426
 20
490.0
 30
0.0
 11
103.0000000000000426
 21
511.0
 31
0.0
  0
LINE
  5
66
100
AcDbEntity
100
AcDbLine
  8
0
 62
256
370
-1
  6
BYLAYER
 10
106.0000000000000426
 20
514.0
 30
0.0
 11
114.0000000000000426
 21
514.0
 31
0.0
  0
LINE
  5
67
100
AcDbEntity
100
AcDbLine
  8
0
 62
256
370
-1
  6
BYLAYER
 10
428.0
 20
514.0
 30
0.0
 11
436.0
 21
514.0
 31
0.0
  0
LINE
  5
68
100
AcDbEntity
100
AcDbLine
  8
0
 62
256
370
-1
  6
BYLAYER
 10
439.0
 20
490.0
 30
0.0
 11
439.0
 21
511.0
 31
0.0
  0
LINE
  5
69
100
AcDbEntity
100
AcDbLine
  8
0
 62
256
370
-1
  6
BYLAYER
 10
117.0000000000000426
 20
489.9999999999999432
 30
0.0
 11
117.0000000000000426
 21
511.0
 31
0.0
  0
LINE
  5
6A
100
AcDbEntity
100
AcDbLine
  8
0
 62
256
370
-1
  6
BYLAYER
 10
425.0
 20
490.0
 30
0.0
 11
425.0
 21
511.0
 31
0.0
  0
LINE
  5
6B
100
AcDbEntity
100
AcDbLine
  8
0
 62
256
370
-1
  6
BYLAYER
 10
92.0000000000000284
 20
690.0
 30
0.0
 11
92.0000000000000284
 21
690.0
 31
0.0
  0
ARC
  5
6C
100
AcDbEntity
  8
0
 62
256
370
-1
  6
BYLAYER
100
AcDbCircle
 10
114.0000000000000426
 20
511.0
 30
0.0
 40
9.0
100
AcDbArc
 50
0.0
 51
36.2395544985494595
  0
ARC
  5
6D
100
AcDbEntity
  8
0
 62
256
370
-1
  6
BYLAYER
100
AcDbCircle
 10
428.0
 20
511.0
 30
0.0
 40
9.0
100
AcDbArc
 50
143.760445501450107
 51
180.0
  0
LINE
  5
6E
100
AcDbEntity
100
AcDbLine
  8
0
 62
256
370
-1
  6
BYLAYER
 10
419.0000000000000568
 20
489.9999999999994884
 30
0.0
 11
419.0000000000000568
 21
511.0
 31
0.0
  0
LINE
  5
6F
100
AcDbEntity
100
AcDbLine
  8
0
 62
256
370
-1
  6
BYLAYER
 10
123.0000000000000568
 20
489.9999999999994884
 30
0.0
 11
123.0000000000000568
 21
511.0
 31
0.0
  0
LINE
  5
70
100
AcDbEntity
100
AcDbLine
  8
0
 62
256
370
-1
  6
BYLAYER
 10
90.8921029455318177
 20
656.3383843739318309
 30
0.0
 11
198.5701718647776772
 21
508.7451692173769402
 31
0.0
  0
LINE
  5
71
100
AcDbEntity
100
AcDbLine
  8
0
 62
256
370
-1
  6
BYLAYER
 10
451.1078970544682534
 20
656.3383843739295571
 30
0.0
 11
343.4298281352218964
 21
508.7451692173767128
 31
0.0
  0
LINE
  5
72
100
AcDbEntity
100
AcDbLine
  8
0
 62
256
370
-1
  6
BYLAYER
 10
92.0000000000000284
 20
671.3443692465873482
 30
0.0
 11
92.0000000000000284
 21
690.0
 31
0.0
  0
LINE
  5
73
100
AcDbEntity
100
AcDbLine
  8
0
 62
256
370
-1
  6
BYLAYER
 10
92.0000000000000284
 20
690.0
 30
0.0
 11
92.0000000000000284
 21
671.3443692465873482
 31
0.0
  0
ARC
  5
74
100
AcDbEntity
  8
0
 62
256
370
-1
  6
BYLAYER
100
AcDbCircle
 10
111.4606511761548404
 20
671.3443692465873482
 30
0.0
 40
25.4606511761547978
100
AcDbArc
 50
180.0
 51
220.1514896943571102
  0
ARC
  5
75
100
AcDbEntity
  8
0
 62
256
370
-1
  6
BYLAYER
100
AcDbCircle
 10
111.4606511761548404
 20
671.3443692465873482
 30
0.0
 40
19.4606511761529859
100
AcDbArc
 50
180.0
 51
216.1129852444572919
  0
LINE
  5
76
100
AcDbEntity
100
AcDbLine
  8
0
 62
256
370
-1
  6
BYLAYER
 10
92.0000000000000284
 20
654.9270669677762271
 30
0.0
 11
92.0000000000000284
 21
654.819801342376195
 31
0.0
  0
LINE
  5
77
100
AcDbEntity
100
AcDbLine
  8
0
 62
256
370
-1
  6
BYLAYER
 10
92.0000000000000284
 20
654.819801342376195
 30
0.0
 11
92.0000000000000284
 21
654.9270669677762271
 31
0.0
  0
LINE
  5
78
100
AcDbEntity
100
AcDbLine
  8
0
 62
256
370
-1
  6
BYLAYER
 10
95.73924092837035
 20
659.8746611412854008
 30
0.0
 11
203.4173098476172754
 21
512.2814459847314765
 31
0.0
  0
ARC
  5
79
100
AcDbEntity
  8
0
 62
256
370
-1
  6
BYLAYER
100
AcDbCircle
 10
215.7754493562622429
 20
521.2974471356925505
 30
0.0
 40
21.2974471356925505
100
AcDbArc
 50
216.1129852444568371
 51
270.0
  0
ARC
  5
7A
100
AcDbEntity
  8
0
 62
256
370
-1
  6
BYLAYER
100
AcDbCircle
 10
215.7754493562622429
 20
521.2974471356925505
 30
0.0
 40
15.297447135691046
100
AcDbArc
 50
216.1129852444570929
 51
270.0
  0
LINE
  5
7B
100
AcDbEntity
100
AcDbLine
  8
0
 62
256
370
-1
  6
BYLAYER
 10
450.0
 20
690.0
 30
0.0
 11
450.0
 21
671.3443692465848471
 31
0.0
  0
ARC
  5
7C
100
AcDbEntity
  8
0
 62
256
370
-1
  6
BYLAYER
100
AcDbCircle
 10
430.5393488238459554
 20
671.3443692465848471
 30
0.0
 40
25.4606511761540446
100
AcDbArc
 50
319.8485103056421508
 51
0.0
  0
LINE
  5
7D
100
AcDbEntity
100
AcDbLine
  8
0
 62
256
370
-1
  6
BYLAYER
 10
450.0
 20
654.9270669677739534
 30
0.0
 11
450.0
 21
654.8198013423740349
 31
0.0
  0
ARC
  5
7E
100
AcDbEntity
  8
0
 62
256
370
-1
  6
BYLAYER
100
AcDbCircle
 10
430.5393488238459554
 20
671.3443692465848471
 30
0.0
 40
19.4606511761557108
100
AcDbArc
 50
323.8870147555429639
 51
0.0
  0
LINE
  5
7F
100
AcDbEntity
100
AcDbLine
  8
0
 62
256
370
-1
  6
BYLAYER
 10
338.5826901523827246
 20
512.2814459847311355
 30
0.0
 11
446.2607590716286836
 21
659.8746611412841503
 31
0.0
  0
ARC
  5
80
100
AcDbEntity
  8
0
 62
256
370
-1
  6
BYLAYER
100
AcDbCircle
 10
326.2245506437376434
 20
521.2974471356923232
 30
0.0
 40
21.2974471356923232
100
AcDbArc
 50
270.0
 51
323.8870147555427934
  0
LINE
  5
81
100
AcDbEntity
100
AcDbLine
  8
0
 62
256
370
-1
  6
BYLAYER
 10
215.7754493562622429
 20
500.0
 30
0.0
 11
326.2245506437376434
 21
500.0
 31
0.0
  0
ARC
  5
82
100
AcDbEntity
  8
0
 62
256
370
-1
  6
BYLAYER
100
AcDbCircle
 10
326.2245506437376434
 20
521.2974471356923232
 30
0.0
 40
15.2974471356911756
100
AcDbArc
 50
270.0
 51
323.8870147555427934
  0
LINE
  5
83
100
AcDbEntity
100
AcDbLine
  8
0
 62
256
370
-1
  6
BYLAYER
 10
486.3276195788303653
 20
605.8034930868990386
 30
0.0
 11
420.7410284758105377
 21
516.3204635522674835
 31
0.0
  0
ARC
  5
84
100
AcDbEntity
  8
0
 62
256
370
-1
  6
BYLAYER
100
AcDbCircle
 10
452.0
 20
622.0437166428501996
 30
0.0
 40
50.0
100
AcDbArc
 50
339.4950205240369314
 51
0.0
  0
ARC
  5
85
100
AcDbEntity
  8
0
 62
256
370
-1
  6
BYLAYER
100
AcDbCircle
 10
445.9999999999999432
 20
635.3616239328293887
 30
0.0
 40
50.0
100
AcDbArc
 50
323.7604455014500218
 51
0.0
  0
LINE
  5
86
100
AcDbEntity
100
AcDbLine
  8
0
 62
256
370
-1
  6
BYLAYER
 10
55.6723804211696276
 20
605.8034930868991523
 30
0.0
 11
121.2589715241894623
 21
516.3204635522674835
 31
0.0
  0
ARC
  5
87
100
AcDbEntity
  8
0
 62
256
370
-1
  6
BYLAYER
100
AcDbCircle
 10
96.0000000000000568
 20
635.3616239328295023
 30
0.0
 40
50.0
100
AcDbArc
 50
180.0
 51
216.2395544985499498
  0
ARC
  5
88
100
AcDbEntity
  8
0
 62
256
370
-1
  6
BYLAYER
100
AcDbCircle
 10
90.0000000000000426
 20
622.0437166428499722
 30
0.0
 40
50.0
100
AcDbArc
 50
180.0
 51
200.5049794759630117
  0
LINE
  5
89
100
AcDbEntity
100
AcDbLine
  8
0
 62
256
370
-1
  6
BYLAYER
 10
46.0000000000000426
 20
635.3616239328295023
 30
0.0
 11
46.0000000000000568
 21
857.0
 31
0.0
  0
LINE
  5
8A
100
AcDbEntity
100
AcDbLine
  8
0
 62
256
370
-1
  6
BYLAYER
 10
86.0000000000000426
 20
671.3443692465873482
 30
0.0
 11
86.0000000000000568
 21
857.0000000000001137
 31
0.0
  0
LINE
  5
8B
100
AcDbEntity
100
AcDbLine
  8
0
 62
256
370
-1
  6
BYLAYER
 10
46.0000000000000639
 20
857.0
 30
0.0
 11
86.0000000000000568
 21
857.0
 31
0.0
  0
LINE
  5
8C
100
AcDbEntity
100
AcDbLine
  8
0
 62
256
370
-1
  6
BYLAYER
 10
456.0
 20
671.3443692465848471
 30
0.0
 11
456.0000000000000568
 21
857.0
 31
0.0
  0
LINE
  5
8D
100
AcDbEntity
100
AcDbLine
  8
0
 62
256
370
-1
  6
BYLAYER
 10
496.0
 20
635.3616239328293887
 30
0.0
 11
496.0000000000000568
 21
857.0
 31
0.0
  0
LINE
  5
8E
100
AcDbEntity
100
AcDbLine
  8
0
 62
256
370
-1
  6
BYLAYER
 10
456.0000000000000568
 20
857.0
 30
0.0
 11
496.0000000000000568
 21
857.0
 31
0.0
  0
LINE
  5
8F
100
AcDbEntity
100
AcDbLine
  8
0
 62
256
370
-1
  6
BYLAYER
 10
40.0000000000000426
 20
622.0437166428499722
 30
0.0
 11
40.0000000000000568
 21
863.0000000000001137
 31
0.0
  0
LINE
  5
90
100
AcDbEntity
100
AcDbLine
  8
0
 62
256
370
-1
  6
BYLAYER
 10
502.0
 20
622.0437166428501996
 30
0.0
 11
502.0000000000000568
 21
863.0
 31
0.0
  0
LINE
  5
91
100
AcDbEntity
100
AcDbLine
  8
0
 62
256
370
-1
  6
BYLAYER
 10
220.0000000000000853
 20
506.0
 30
0.0
 11
322.0000000000001137
 21
506.0
 31
0.0
  0
LINE
  5
92
100
AcDbEntity
100
AcDbLine
  8
hinge
 62
256
370
-1
  6
BYLAYER
 10
322.0000000000001137
 20
506.0
 30
0.0
 11
322.0000000000001137
 21
537.0
 31
0.0
  0
LINE
  5
93
100
AcDbEntity
100
AcDbLine
  8
hinge
 62
256
370
-1
  6
BYLAYER
 10
220.0000000000000853
 20
537.0
 30
0.0
 11
220.0000000000000853
 21
506.0
 31
0.0
  0
ARC
  5
94
100
AcDbEntity
  8
0
 62
256
370
-1
  6
BYLAYER
100
AcDbCircle
 10
410.0000000000000568
 20
850.0
 30
0.0
 40
40.0
100
AcDbArc
 50
0.0
 51
79.4561220278061171
  0
LINE
  5
95
100
AcDbEntity
100
AcDbLine
  8
0
 62
256
370
-1
  6
BYLAYER
 10
40.0000000000000568
 20
863.0
 30
0.0
 11
87.3233841926227115
 21
863.0
 31
0.0
  0
LINE
  5
96
100
AcDbEntity
100
AcDbLine
  8
0
 62
256
370
-1
  6
BYLAYER
 10
92.0000000000000426
 20
690.0
 30
0.0
 11
92.0000000000000568
 21
850.0
 31
0.0
  0
LINE
  5
97
100
AcDbEntity
100
AcDbLine
  8
0
 62
256
370
-1
  6
BYLAYER
 10
450.0
 20
690.0
 30
0.0
 11
450.0000000000000568
 21
850.0
 31
0.0
  0
LINE
  5
98
100
AcDbEntity
100
AcDbLine
  8
0
 62
256
370
-1
  6
BYLAYER
 10
454.6766158073773454
 20
863.0
 30
0.0
 11
502.0000000000001137
 21
863.0
 31
0.0
  0
LINE
  5
99
100
AcDbEntity
100
AcDbLine
  8
0
 62
256
370
-1
  6
BYLAYER
 10
268.0000000024823521
 20
900.0
 30
0.0
 11
273.9999999999938041
 21
900.0
 31
0.0
  0
ARC
  5
9A
100
AcDbEntity
  8
0
 62
256
370
-1
  6
BYLAYER
100
AcDbCircle
 10
410.0000000000000568
 20
850.0
 30
0.0
 40
46.52956049652731
100
AcDbArc
 50
16.2239374449924405
 51
81.7115042815701997
  0
ARC
  5
9B
100
AcDbEntity
  8
0
 62
256
370
-1
  6
BYLAYER
100
AcDbCircle
 10
271.0000000012574901
 20
-110.6178108487831651
 30
0.0
 40
1010.6222635608119162
100
AcDbArc
 50
81.6750382479994101
 51
89.8299190537305492
  0
ARC
  5
9C
100
AcDbEntity
  8
0
 62
256
370
-1
  6
BYLAYER
100
AcDbCircle
 10
271.0000000012574901
 20
-110.6178108487831651
 30
0.0
 40
1010.6222635608119162
100
AcDbArc
 50
90.170080946269465
 51
98.2334770591664324
  0
ARC
  5
9D
100
AcDbEntity
  8
0
 62
256
370
-1
  6
BYLAYER
100
AcDbCircle
 10
132.0000000000000568
 20
850.0
 30
0.0
 40
40.0
100
AcDbArc
 50
98.2332960429460229
 51
180.0
  0
LINE
  5
9E
100
AcDbEntity
100
AcDbLine
  8
0
 62
256
370
-1
  6
BYLAYER
 10
268.0000000024823521
 20
906.0
 30
0.0
 11
273.9999999999938041
 21
906.0
 31
0.0
  0
ARC
  5
9F
100
AcDbEntity
  8
0
 62
256
370
-1
  6
BYLAYER
100
AcDbCircle
 10
271.0000000012380497
 20
-165.333595072491562
 30
0.0
 40
1071.333595072491562
100
AcDbArc
 50
82.1832032902035081
 51
97.7953804445701564
  0
ARC
  5
A0
100
AcDbEntity
  8
0
 62
256
370
-1
  6
BYLAYER
100
AcDbCircle
 10
132.0000000000000568
 20
850.0
 30
0.0
 40
46.5295604965273668
100
AcDbArc
 50
97.7953852800168733
 51
163.776062555007627
  0
ARC
  5
A1
100
AcDbEntity
  8
0
 62
256
370
-1
  6
BYLAYER
100
AcDbCircle
 10
428.0
 20
693.0
 30
0.0
 40
3.0
100
AcDbArc
 50
180.0
 51
270.0
  0
ARC
  5
A2
100
AcDbEntity
  8
0
 62
256
370
-1
  6
BYLAYER
100
AcDbCircle
 10
436.0
 20
693.0
 30
0.0
 40
3.0
100
AcDbArc
 50
270.0
 51
0.0
  0
ARC
  5
A3
100
AcDbEntity
  8
0
 62
256
370
-1
  6
BYLAYER
100
AcDbCircle
 10
436.0
 20
722.0
 30
0.0
 40
3.0
100
AcDbArc
 50
0.0
 51
90.0
  0
ARC
  5
A4
100
AcDbEntity
  8
0
 62
256
370
-1
  6
BYLAYER
100
AcDbCircle
 10
428.0
 20
722.0
 30
0.0
 40
3.0
100
AcDbArc
 50
90.0
 51
180.0
  0
ARC
  5
A5
100
AcDbEntity
  8
0
 62
256
370
-1
  6
BYLAYER
100
AcDbCircle
 10
106.0000000000000426
 20
722.0
 30
0.0
 40
3.0
100
AcDbArc
 50
90.0
 51
180.0
  0
ARC
  5
A6
100
AcDbEntity
  8
0
 62
256
370
-1
  6
BYLAYER
100
AcDbCircle
 10
114.0000000000000426
 20
722.0
 30
0.0
 40
3.0
100
AcDbArc
 50
0.0
 51
90.0
  0
ARC
  5
A7
100
AcDbEntity
  8
0
 62
256
370
-1
  6
BYLAYER
100
AcDbCircle
 10
106.0000000000000426
 20
693.0
 30
0.0
 40
3.0
100
AcDbArc
 50
180.0
 51
270.0
  0
ARC
  5
A8
100
AcDbEntity
  8
0
 62
256
370
-1
  6
BYLAYER
100
AcDbCircle
 10
114.0000000000000426
 20
693.0
 30
0.0
 40
3.0
100
AcDbArc
 50
270.0
 51
0.0
  0
ARC
  5
A9
100
AcDbEntity
  8
0
 62
256
370
-1
  6
BYLAYER
100
AcDbCircle
 10
88.0809809588151609
 20
493.0
 30
0.0
 40
3.0
100
AcDbArc
 50
200.5049794759632391
 51
270.0
  0
ARC
  5
AA
100
AcDbEntity
  8
0
 62
256
370
-1
  6
BYLAYER
100
AcDbCircle
 10
453.9190190411847539
 20
493.0
 30
0.0
 40
3.0
100
AcDbArc
 50
270.0
 51
339.4950205240369314
  0
LINE
  5
AB
100
AcDbEntity
100
AcDbLine
  8
0
 62
256
370
-1
  6
BYLAYER
 10
498.8320874900114177
 20
604.5292774189434795
 30
0.0
 11
456.7289442905854457
 21
491.9491336465655991
 31
0.0
  0
LINE
  5
AC
100
AcDbEntity
100
AcDbLine
  8
0
 62
256
370
-1
  6
BYLAYER
 10
43.1679125099887031
 20
604.5292774189433658
 30
0.0
 11
85.2710557094144974
 21
491.9491336465655991
 31
0.0
  0
LINE
  5
AD
100
AcDbEntity
100
AcDbLine
  8
0
 62
256
370
-1
  6
BYLAYER
 10
106.0000000000000426
 20
725.0
 30
0.0
 11
114.0000000000000426
 21
725.0
 31
0.0
  0
LINE
  5
AE
100
AcDbEntity
100
AcDbLine
  8
0
 62
256
370
-1
  6
BYLAYER
 10
103.0000000000000426
 20
693.0
 30
0.0
 11
103.0000000000000426
 21
722.0
 31
0.0
  0
LINE
  5
AF
100
AcDbEntity
100
AcDbLine
  8
0
 62
256
370
-1
  6
BYLAYER
 10
106.0000000000000426
 20
690.0
 30
0.0
 11
114.0000000000000426
 21
690.0
 31
0.0
  0
LINE
  5
B0
100
AcDbEntity
100
AcDbLine
  8
0
 62
256
370
-1
  6
BYLAYER
 10
117.0000000000000426
 20
693.0
 30
0.0
 11
117.0000000000000426
 21
722.0
 31
0.0
  0
LINE
  5
B1
100
AcDbEntity
100
AcDbLine
  8
0
 62
256
370
-1
  6
BYLAYER
 10
428.0
 20
725.0
 30
0.0
 11
436.0
 21
725.0
 31
0.0
  0
LINE
  5
B2
100
AcDbEntity
100
AcDbLine
  8
0
 62
256
370
-1
  6
BYLAYER
 10
439.0
 20
693.0
 30
0.0
 11
439.0
 21
722.0
 31
0.0
  0
LINE
  5
B3
100
AcDbEntity
100
AcDbLine
  8
0
 62
256
370
-1
  6
BYLAYER
 10
428.0
 20
690.0
 30
0.0
 11
436.0
 21
690.0
 31
0.0
  0
LINE
  5
B4
100
AcDbEntity
100
AcDbLine
  8
0
 62
256
370
-1
  6
BYLAYER
 10
425.0
 20
693.0
 30
0.0
 11
425.0
 21
722.0
 31
0.0
  0
ARC
  5
B5
100
AcDbEntity
  8
0
 62
256
370
-1
  6
BYLAYER
100
AcDbCircle
 10
442.0
 20
490.0
 30
0.0
 40
3.0
100
AcDbArc
 50
180.0
 51
0.0
  0
LINE
  5
B6
100
AcDbEntity
100
AcDbLine
  8
0
 62
256
370
-1
  6
BYLAYER
 10
445.0
 20
490.0
 30
0.0
 11
453.9190190411847539
 21
490.0
 31
0.0
  0
ARC
  5
B7
100
AcDbEntity
  8
0
 62
256
370
-1
  6
BYLAYER
100
AcDbCircle
 10
100.0000000000000568
 20
490.0
 30
0.0
 40
3.0
100
AcDbArc
 50
180.0
 51
0.0
  0
LINE
  5
B8
100
AcDbEntity
100
AcDbLine
  8
0
 62
256
370
-1
  6
BYLAYER
 10
88.0809809588151609
 20
490.0
 30
0.0
 11
97.0000000000000568
 21
490.0
 31
0.0
  0
ARC
  5
B9
100
AcDbEntity
  8
hinge
 62
256
370
-1
  6
BYLAYER
100
AcDbCircle
 10
319.0000000000001137
 20
537.0
 30
0.0
 40
3.0
100
AcDbArc
 50
0.0
 51
180.0
  0
ARC
  5
BA
100
AcDbEntity
  8
hinge
 62
256
370
-1
  6
BYLAYER
100
AcDbCircle
 10
319.0000000000001705
 20
505.9999999999999432
 30
0.0
 40
3.0
100
AcDbArc
 50
180.0
 51
0.0
  0
LINE
  5
BB
100
AcDbEntity
100
AcDbLine
  8
0
 62
256
370
-1
  6
BYLAYER
 10
215.7754493562622429
 20
505.9999999999999432
 30
0.0
 11
226.0000000000000853
 21
505.9999999999999432
 31
0.0
  0
LINE
  5
BC
100
AcDbEntity
100
AcDbLine
  8
0
 62
256
370
-1
  6
BYLAYER
 10
321.9999999999999432
 20
505.9999999999999432
 30
0.0
 11
326.2245506437376434
 21
505.9999999999999432
 31
0.0
  0
ARC
  5
BD
100
AcDbEntity
  8
hinge
 62
256
370
-1
  6
BYLAYER
100
AcDbCircle
 10
223.0000000000000853
 20
537.0
 30
0.0
 40
3.0
100
AcDbArc
 50
0.0
 51
180.0
  0
ARC
  5
BE
100
AcDbEntity
  8
hinge
 62
256
370
-1
  6
BYLAYER
100
AcDbCircle
 10
223.0000000000000853
 20
505.9999999999999432
 30
0.0
 40
3.0
100
AcDbArc
 50
180.0
 51
0.0
  0
LINE
  5
BF
100
AcDbEntity
100
AcDbLine
  8
hinge
 62
256
370
-1
  6
BYLAYER
 10
316.0000000000001137
 20
537.0
 30
0.0
 11
226.0000000000000853
 21
537.0
 31
0.0
  0
LINE
  5
C0
100
AcDbEntity
100
AcDbLine
  8
hinge
 62
256
370
-1
  6
BYLAYER
 10
226.0000000000000853
 20
505.9999999999999432
 30
0.0
 11
316.0000000000003411
 21
505.9999999999999432
 31
0.0
  0
LINE
  5
C1
100
AcDbEntity
100
AcDbLine
  8
0
 62
256
370
-1
  6
BYLAYER
 10
0.0
 20
893.2608571640625996
 30
0.0
 11
0.0
 21
10.0
 31
0.0
  0
ARC
  5
C2
100
AcDbEntity
  8
0
 62
256
370
-1
  6
BYLAYER
100
AcDbCircle
 10
50.0
 20
893.2608571640625996
 30
0.0
 40
50.0
100
AcDbArc
 50
93.4933182794762985
 51
180.0
  0
ARC
  5
C3
100
AcDbEntity
  8
0
 62
256
370
-1
  6
BYLAYER
100
AcDbCircle
 10
271.0
 20
-2727.0499999993317033
 30
0.0
 40
3677.0499999993317033
100
AcDbArc
 50
86.5067428119533872
 51
93.4932571880465986
  0
LINE
  5
C4
100
AcDbEntity
100
AcDbLine
  8
0
 62
256
370
-1
  6
BYLAYER
 10
542.0
 20
10.0
 30
0.0
 11
542.0
 21
893.2608571640625996
 31
0.0
  0
ARC
  5
C5
100
AcDbEntity
  8
0
 62
256
370
-1
  6
BYLAYER
100
AcDbCircle
 10
492.0
 20
893.2608571640625996
 30
0.0
 40
50.0
100
AcDbArc
 50
0.0
 51
86.5068055877116251
  0
ENDSEC
  0
SECTION
  2
OBJECTS
  0
DICTIONARY
  5
C
100
AcDbDictionary
280
0
281
1
  3
ACAD_GROUP
350
D
  3
ACAD_LAYOUT
350
1A
  3
ACAD_MLINESTYLE
350
17
  3
ACAD_PLOTSETTINGS
350
19
  3
ACAD_PLOTSTYLENAME
350
E
  3
AcDbVariableDictionary
350
C6
  3
QCAD_OBJECTS
350
C7
  0
DICTIONARY
  5
D
100
AcDbDictionary
280
0
281
1
  0
ACDBDICTIONARYWDFLT
  5
E
100
AcDbDictionary
281
1
  3
Normal
350
F
100
AcDbDictionaryWithDefault
340
F
  0
ACDBPLACEHOLDER
  5
F
  0
DICTIONARY
  5
17
100
AcDbDictionary
280
0
281
1
  3
Standard
350
18
  0
MLINESTYLE
  5
18
100
AcDbMlineStyle
  2
STANDARD
 70
0
  3

 62
256
 51
90.0
 52
90.0
 71
2
 49
0.5
 62
256
  6
BYLAYER
 49
-0.5
 62
256
  6
BYLAYER
  0
DICTIONARY
  5
19
100
AcDbDictionary
280
0
281
1
  0
DICTIONARY
  5
1A
100
AcDbDictionary
281
1
  3
Layout1
350
1E
  3
Layout2
350
26
  3
Model
350
22
  0
LAYOUT
  5
1E
100
AcDbPlotSettings
  1

  2
C:\Program Files\AutoCAD 2002\plotters\DWF ePlot (optimized for plotting).pc3
  4

  6

 40
0.0
 41
0.0
 42
0.0
 43
0.0
 44
0.0
 45
0.0
 46
0.0
 47
0.0
 48
0.0
 49
0.0
140
0.0
141
0.0
142
1.0
143
1.0
 70
688
 72
0
 73
0
 74
5
  7

 75
16
147
1.0
148
0.0
149
0.0
100
AcDbLayout
  1
Layout1
 70
1
 71
1
 10
0.0
 20
0.0
 11
420.0
 21
297.0
 12
0.0
 22
0.0
 32
0.0
 14
100000000000000000000.0
 24
100000000000000000000.0
 34
100000000000000000000.0
 15
-100000000000000000000.0
 25
-100000000000000000000.0
 35
-100000000000000000000.0
146
0.0
 13
0.0
 23
0.0
 33
0.0
 16
1.0
 26
0.0
 36
0.0
 17
0.0
 27
1.0
 37
0.0
 76
0
330
1B
  0
LAYOUT
  5
22
100
AcDbPlotSettings
  1

  2
C:\Program Files\AutoCAD 2002\plotters\DWF ePlot (optimized for plotting).pc3
  4

  6

 40
0.0
 41
0.0
 42
0.0
 43
0.0
 44
0.0
 45
0.0
 46
0.0
 47
0.0
 48
0.0
 49
0.0
140
0.0
141
0.0
142
1.0
143
1.0
 70
1712
 72
0
 73
0
 74
0
  7

 75
0
147
1.0
148
0.0
149
0.0
100
AcDbLayout
  1
Model
 70
1
 71
0
 10
0.0
 20
0.0
 11
12.0
 21
9.0
 12
0.0
 22
0.0
 32
0.0
 14
0.0
 24
0.0
 34
0.0
 15
0.0
 25
0.0
 35
0.0
146
0.0
 13
0.0
 23
0.0
 33
0.0
 16
1.0
 26
0.0
 36
0.0
 17
0.0
 27
1.0
 37
0.0
 76
0
330
1F
  0
LAYOUT
  5
26
100
AcDbPlotSettings
  1

  2
C:\Program Files\AutoCAD 2002\plotters\DWF ePlot (optimized for plotting).pc3
  4

  6

 40
0.0
 41
0.0
 42
0.0
 43
0.0
 44
0.0
 45
0.0
 46
0.0
 47
0.0
 48
0.0
 49
0.0
140
0.0
141
0.0
142
1.0
143
1.0
 70
688
 72
0
 73
0
 74
5
  7

 75
16
147
1.0
148
0.0
149
0.0
100
AcDbLayout
  1
Layout2
 70
1
 71
2
 10
0.0
 20
0.0
 11
12.0
 21
9.0
 12
0.0
 22
0.0
 32
0.0
 14
0.0
 24
0.0
 34
0.0
 15
0.0
 25
0.0
 35
0.0
146
0.0
 13
0.0
 23
0.0
 33
0.0
 16
1.0
 26
0.0
 36
0.0
 17
0.0
 27
1.0
 37
0.0
 76
0
330
23
  0
DICTIONARY
  5
C6
100
AcDbDictionary
281
1
  3
DIMASSOC
350
C9
  3
HIDETEXT
350
C8
  0
DICTIONARYVAR
  5
C8
100
DictionaryVariables
280
0
  1
2
  0
DICTIONARYVAR
  5
C9
100
DictionaryVariables
280
0
  1
1
  0
DICTIONARY
  5
C7
100
AcDbDictionary
281
1
  3
Grid/DisplayGrid00
350
CA
  3
Grid/DisplayGrid01
350
CB
  3
Grid/DisplayGrid02
350
CC
  3
Grid/DisplayGrid03
350
CD
  3
Grid/GridSpacingX00
350
CE
  3
Grid/GridSpacingX01
350
CF
  3
Grid/GridSpacingX02
350
D0
  3
Grid/GridSpacingX03
350
D1
  3
Grid/GridSpacingY00
350
D2
  3
Grid/GridSpacingY01
350
D3
  3
Grid/GridSpacingY02
350
D4
  3
Grid/GridSpacingY03
350
D5
  3
Grid/IsometricGrid00
350
D6
  3
Grid/IsometricGrid01
350
D7
  3
Grid/IsometricGrid02
350
D8
  3
Grid/IsometricGrid03
350
D9
  3
Grid/IsometricProjection00
350
DA
  3
Grid/IsometricProjection01
350
DB
  3
Grid/IsometricProjection02
350
DC
  3
Grid/IsometricProjection03
350
DD
  3
Grid/MetaGridSpacingX00
350
DE
  3
Grid/MetaGridSpacingX01
350
DF
  3
Grid/MetaGridSpacingX02
350
E0
  3
Grid/MetaGridSpacingX03
350
E1
  3
Grid/MetaGridSpacingY00
350
E2
  3
Grid/MetaGridSpacingY01
350
E3
  3
Grid/MetaGridSpacingY02
350
E4
  3
Grid/MetaGridSpacingY03
350
E5
  3
MultiPageSettings/Columns
350
E6
  3
MultiPageSettings/GlueMarginsBottom
350
E7
  3
MultiPageSettings/GlueMarginsLeft
350
E8
  3
MultiPageSettings/GlueMarginsRight
350
E9
  3
MultiPageSettings/GlueMarginsTop
350
EA
  3
MultiPageSettings/PrintCropMarks
350
EB
  3
MultiPageSettings/Rows
350
EC
  3
PageSettings/OffsetX
350
ED
  3
PageSettings/OffsetY
350
EE
  3
PageSettings/PageOrientation
350
EF
  3
PageSettings/PaperHeight
350
F0
  3
PageSettings/PaperWidth
350
F1
  3
PageSettings/Scale
350
F2
  3
PageSettings/ShowPaperBorders
350
F3
  3
UnitSettings/PaperUnit
350
F4
  0
XRECORD
  5
CA
330
C7
100
AcDbXrecord
280
1
290
1
  0
XRECORD
  5
CB
330
C7
100
AcDbXrecord
280
1
290
1
  0
XRECORD
  5
CC
330
C7
100
AcDbXrecord
280
1
290
1
  0
XRECORD
  5
CD
330
C7
100
AcDbXrecord
280
1
290
1
  0
XRECORD
  5
CE
330
C7
100
AcDbXrecord
280
1
1000
auto
  0
XRECORD
  5
CF
330
C7
100
AcDbXrecord
280
1
1000
auto
  0
XRECORD
  5
D0
330
C7
100
AcDbXrecord
280
1
1000
auto
  0
XRECORD
  5
D1
330
C7
100
AcDbXrecord
280
1
1000
auto
  0
XRECORD
  5
D2
330
C7
100
AcDbXrecord
280
1
1000
auto
  0
XRECORD
  5
D3
330
C7
100
AcDbXrecord
280
1
1000
auto
  0
XRECORD
  5
D4
330
C7
100
AcDbXrecord
280
1
1000
auto
  0
XRECORD
  5
D5
330
C7
100
AcDbXrecord
280
1
1000
auto
  0
XRECORD
  5
D6
330
C7
100
AcDbXrecord
280
1
290
0
  0
XRECORD
  5
D7
330
C7
100
AcDbXrecord
280
1
290
0
  0
XRECORD
  5
D8
330
C7
100
AcDbXrecord
280
1
290
0
  0
XRECORD
  5
D9
330
C7
100
AcDbXrecord
280
1
290
0
  0
XRECORD
  5
DA
330
C7
100
AcDbXrecord
280
1
 90
0
  0
XRECORD
  5
DB
330
C7
100
AcDbXrecord
280
1
 90
0
  0
XRECORD
  5
DC
330
C7
100
AcDbXrecord
280
1
 90
0
  0
XRECORD
  5
DD
330
C7
100
AcDbXrecord
280
1
 90
0
  0
XRECORD
  5
DE
330
C7
100
AcDbXrecord
280
1
1000
auto
  0
XRECORD
  5
DF
330
C7
100
AcDbXrecord
280
1
1000
auto
  0
XRECORD
  5
E0
330
C7
100
AcDbXrecord
280
1
1000
auto
  0
XRECORD
  5
E1
330
C7
100
AcDbXrecord
280
1
1000
auto
  0
XRECORD
  5
E2
330
C7
100
AcDbXrecord
280
1
1000
auto
  0
XRECORD
  5
E3
330
C7
100
AcDbXrecord
280
1
1000
auto
  0
XRECORD
  5
E4
330
C7
100
AcDbXrecord
280
1
1000
auto
  0
XRECORD
  5
E5
330
C7
100
AcDbXrecord
280
1
1000
auto
  0
XRECORD
  5
E6
330
C7
100
AcDbXrecord
280
1
 90
1
  0
XRECORD
  5
E7
330
C7
100
AcDbXrecord
280
1
 40
10.0
  0
XRECORD
  5
E8
330
C7
100
AcDbXrecord
280
1
 40
10.0
  0
XRECORD
  5
E9
330
C7
100
AcDbXrecord
280
1
 40
10.0
  0
XRECORD
  5
EA
330
C7
100
AcDbXrecord
280
1
 40
10.0
  0
XRECORD
  5
EB
330
C7
100
AcDbXrecord
280
1
290
0
  0
XRECORD
  5
EC
330
C7
100
AcDbXrecord
280
1
 90
1
  0
XRECORD
  5
ED
330
C7
100
AcDbXrecord
280
1
 40
0.0
  0
XRECORD
  5
EE
330
C7
100
AcDbXrecord
280
1
 40
0.0
  0
XRECORD
  5
EF
330
C7
100
AcDbXrecord
280
1
1000
Portrait
  0
XRECORD
  5
F0
330
C7
100
AcDbXrecord
280
1
 40
420.0
  0
XRECORD
  5
F1
330
C7
100
AcDbXrecord
280
1
 40
297.0
  0
XRECORD
  5
F2
330
C7
100
AcDbXrecord
280
1
1000
1:1
  0
XRECORD
  5
F3
330
C7
100
AcDbXrecord
280
1
290
1
  0
XRECORD
  5
F4
330
C7
100
AcDbXrecord
280
1
 90
4
  0
ENDSEC
  0
EOF
