  0
SECTION
  2
HEADER
  9
$ACADVER
  1
AC1009
  9
$DWGCODEPAGE
  3
ansi_1252
  9
$INSBASE
 10
0.0
 20
0.0
 30
0.0
  9
$EXTMIN
 10
5.446815187740579
 20
-0.0000000000001137
 30
0.0
  9
$EXTMAX
 10
974.5531848122594
 20
550.0
 30
0.0
  9
$LIMMIN
 10
0.0
 20
0.0
  9
$LIMMAX
 10
12.0
 20
9.0
  9
$ORTHOMODE
 70
     0
  9
$REGENMODE
 70
     1
  9
$FILLMODE
 70
     1
  9
$QTEXTMODE
 70
     0
  9
$MIRRTEXT
 70
     1
  9
$DRAGMODE
 70
     2
  9
$LTSCALE
 40
1.0
  9
$OSMODE
 70
    37
  9
$ATTMODE
 70
     1
  9
$TEXTSIZE
 40
0.2
  9
$TRACEWID
 40
0.05
  9
$TEXTSTYLE
  7
STANDARD
  9
$CLAYER
  8
0
  9
$CELTYPE
  6
BYLAYER
  9
$CECOLOR
 62
   256
  9
$DIMSCALE
 40
1.0
  9
$DIMASZ
 40
0.18
  9
$DIMEXO
 40
0.0625
  9
$DIMDLI
 40
0.38
  9
$DIMRND
 40
0.0
  9
$DIMDLE
 40
0.0
  9
$DIMEXE
 40
0.18
  9
$DIMTP
 40
0.0
  9
$DIMTM
 40
0.0
  9
$DIMTXT
 40
0.18
  9
$DIMCEN
 40
0.09
  9
$DIMTSZ
 40
0.0
  9
$DIMTOL
 70
     0
  9
$DIMLIM
 70
     0
  9
$DIMTIH
 70
     1
  9
$DIMTOH
 70
     1
  9
$DIMSE1
 70
     0
  9
$DIMSE2
 70
     0
  9
$DIMTAD
 70
     0
  9
$DIMZIN
 70
     0
  9
$DIMBLK
  1

  9
$DIMASO
 70
     1
  9
$DIMSHO
 70
     1
  9
$DIMPOST
  1

  9
$DIMAPOST
  1

  9
$DIMALT
 70
     0
  9
$DIMALTD
 70
     2
  9
$DIMALTF
 40
25.4
  9
$DIMLFAC
 40
1.0
  9
$DIMTOFL
 70
     0
  9
$DIMTVP
 40
0.0
  9
$DIMTIX
 70
     0
  9
$DIMSOXD
 70
     0
  9
$DIMSAH
 70
     0
  9
$DIMBLK1
  1

  9
$DIMBLK2
  1

  9
$DIMSTYLE
  2
STANDARD
  9
$DIMCLRD
 70
     0
  9
$DIMCLRE
 70
     0
  9
$DIMCLRT
 70
     0
  9
$DIMTFAC
 40
1.0
  9
$DIMGAP
 40
0.09
  9
$LUNITS
 70
     2
  9
$LUPREC
 70
     4
  9
$SKETCHINC
 40
0.1
  9
$FILLETRAD
 40
0.5
  9
$AUNITS
 70
     0
  9
$AUPREC
 70
     0
  9
$MENU
  1
.
  9
$ELEVATION
 40
0.0
  9
$PELEVATION
 40
0.0
  9
$THICKNESS
 40
0.0
  9
$LIMCHECK
 70
     0
  9
$CHAMFERA
 40
0.0
  9
$CHAMFERB
 40
0.0
  9
$SKPOLY
 70
     0
  9
$TDCREATE
 40
2454910.5
  9
$TDUPDATE
 40
2456555.581816991
  9
$TDINDWG
 40
0.0000000116
  9
$TDUSRTIMER
 40
0.0000000116
  9
$USRTIMER
 70
     1
  9
$ANGBASE
 50
0.0
  9
$ANGDIR
 70
     0
  9
$PDMODE
 70
     0
  9
$PDSIZE
 40
0.0
  9
$PLINEWID
 40
0.0
  9
$COORDS
 70
     1
  9
$SPLFRAME
 70
     0
  9
$SPLINETYPE
 70
     6
  9
$SPLINESEGS
 70
     8
  9
$ATTDIA
 70
     0
  9
$ATTREQ
 70
     1
  9
$HANDLING
 70
     1
  9
$HANDSEED
  5
168
  9
$SURFTAB1
 70
     6
  9
$SURFTAB2
 70
     6
  9
$SURFTYPE
 70
     6
  9
$SURFU
 70
     6
  9
$SURFV
 70
     6
  9
$UCSNAME
  2

  9
$UCSORG
 10
0.0
 20
0.0
 30
0.0
  9
$UCSXDIR
 10
1.0
 20
0.0
 30
0.0
  9
$UCSYDIR
 10
0.0
 20
1.0
 30
0.0
  9
$PUCSNAME
  2

  9
$PUCSORG
 10
0.0
 20
0.0
 30
0.0
  9
$PUCSXDIR
 10
1.0
 20
0.0
 30
0.0
  9
$PUCSYDIR
 10
0.0
 20
1.0
 30
0.0
  9
$USERI1
 70
     0
  9
$USERI2
 70
     0
  9
$USERI3
 70
     0
  9
$USERI4
 70
     0
  9
$USERI5
 70
     0
  9
$USERR1
 40
0.0
  9
$USERR2
 40
0.0
  9
$USERR3
 40
0.0
  9
$USERR4
 40
0.0
  9
$USERR5
 40
0.0
  9
$WORLDVIEW
 70
     1
  9
$SHADEDGE
 70
     3
  9
$SHADEDIF
 70
    70
  9
$TILEMODE
 70
     1
  9
$MAXACTVP
 70
    64
  9
$PLIMCHECK
 70
     0
  9
$PEXTMIN
 10
1.000000000000000E+20
 20
1.000000000000000E+20
 30
1.000000000000000E+20
  9
$PEXTMAX
 10
-1.000000000000000E+20
 20
-1.000000000000000E+20
 30
-1.000000000000000E+20
  9
$PLIMMIN
 10
0.0
 20
0.0
  9
$PLIMMAX
 10
12.0
 20
9.0
  9
$UNITMODE
 70
     0
  9
$VISRETAIN
 70
     1
  9
$PLINEGEN
 70
     0
  9
$PSLTSCALE
 70
     1
  0
ENDSEC
  0
SECTION
  2
TABLES
  0
TABLE
  2
VPORT
 70
     1
  0
VPORT
  2
*ACTIVE
 70
     0
 10
0.0
 20
0.0
 11
1.0
 21
1.0
 12
10.42990654205607
 22
4.5
 13
0.0
 23
0.0
 14
0.5
 24
0.5
 15
0.5
 25
0.5
 16
0.0
 26
0.0
 36
1.0
 17
0.0
 27
0.0
 37
0.0
 40
9.0
 41
1.972972972850329
 42
50.0
 43
0.0
 44
0.0
 50
0.0
 51
0.0
 71
     0
 72
   100
 73
     1
 74
     3
 75
     0
 76
     0
 77
     0
 78
     0
  0
ENDTAB
  0
TABLE
  2
LTYPE
 70
     2
  0
LTYPE
  2
CONTINUOUS
 70
     0
  3
Solid line
 72
    65
 73
     0
 40
0.0
  0
LTYPE
  2
CONTINUOUS2
 70
     0
  3
Solid Line
 72
    65
 73
     0
 40
0.0
  0
ENDTAB
  0
TABLE
  2
LAYER
 70
     7
  0
LAYER
  2
0
 70
     0
 62
     7
  6
CONTINUOUS
  0
LAYER
  2
FRONT_HINGE_BARREL_8MM
 70
     0
 62
     4
  6
CONTINUOUS
  0
LAYER
  2
REAR_SEAT_SOCKETS_17MM
 70
     0
 62
     6
  6
CONTINUOUS
  0
LAYER
  2
REAR_HINGE_PLATE_2MM
 70
     0
 62
     1
  6
CONTINUOUS
  0
LAYER
  2
REAR_HINGE_BARREL_8MM
 70
     0
 62
     5
  6
CONTINUOUS
  0
LAYER
  2
REAR_HINGE_PLATE_3MM
 70
     0
 62
     2
  6
CONTINUOUS
  0
LAYER
  2
FRONT_HINGE_PLATE_3MM
 70
     0
 62
     3
  6
CONTINUOUS
  0
ENDTAB
  0
TABLE
  2
STYLE
 70
     1
  0
STYLE
  2
STANDARD
 70
     0
 40
0.0
 41
1.0
 50
0.0
 71
     0
 42
0.2
  3
txt
  4

  0
ENDTAB
  0
TABLE
  2
VIEW
 70
     0
  0
ENDTAB
  0
TABLE
  2
UCS
 70
     0
  0
ENDTAB
  0
TABLE
  2
APPID
 70
     1
  0
APPID
  2
ACAD
 70
     0
  0
ENDTAB
  0
TABLE
  2
DIMSTYLE
 70
     1
  0
DIMSTYLE
  2
STANDARD
 70
     0
  3

  4

  5

  6

  7

 40
1.0
 41
0.18
 42
0.0625
 43
0.38
 44
0.18
 45
0.0
 46
0.0
 47
0.0
 48
0.0
140
0.18
141
0.09
142
0.0
143
25.4
144
1.0
145
0.0
146
1.0
147
0.09
 71
     0
 72
     0
 73
     1
 74
     1
 75
     0
 76
     0
 77
     0
 78
     0
170
     0
171
     2
172
     0
173
     0
174
     0
175
     0
176
     0
177
     0
178
     0
  0
ENDTAB
  0
ENDSEC
  0
SECTION
  2
BLOCKS
  0
BLOCK
  8
0
  2
$MODEL_SPACE
 70
     0
 10
0.0
 20
0.0
 30
0.0
  3
$MODEL_SPACE
  1

  0
ENDBLK
  5
21
  8
0
  0
BLOCK
 67
     1
  8
0
  2
$PAPER_SPACE
 70
     0
 10
0.0
 20
0.0
 30
0.0
  3
$PAPER_SPACE
  1

  0
ENDBLK
  5
1D
 67
     1
  8
0
  0
ENDSEC
  0
SECTION
  2
ENTITIES
  0
POLYLINE
  5
6C
  8
FRONT_HINGE_BARREL_8MM
 66
     1
 10
0.0
 20
0.0
 30
0.0
 70
     1
  0
VERTEX
  5
8B
  8
FRONT_HINGE_BARREL_8MM
 10
507.5531848122594
 20
221.0
 30
0.0
 42
-0.414213562373097
  0
VERTEX
  5
8C
  8
FRONT_HINGE_BARREL_8MM
 10
504.5531848122594
 20
224.0
 30
0.0
  0
VERTEX
  5
8D
  8
FRONT_HINGE_BARREL_8MM
 10
504.5531848122594
 20
326.0
 30
0.0
 42
-0.4257736371484619
  0
VERTEX
  5
8E
  8
FRONT_HINGE_BARREL_8MM
 10
507.6710743800112
 20
328.997682780051
 30
0.0
  0
VERTEX
  5
8F
  8
FRONT_HINGE_BARREL_8MM
 10
509.5531848122594
 20
329.0
 30
0.0
 42
-0.4142135623731065
  0
VERTEX
  5
90
  8
FRONT_HINGE_BARREL_8MM
 10
512.5531848122594
 20
326.0
 30
0.0
  0
VERTEX
  5
91
  8
FRONT_HINGE_BARREL_8MM
 10
512.5531848122594
 20
224.0
 30
0.0
 42
-0.414213562373097
  0
VERTEX
  5
92
  8
FRONT_HINGE_BARREL_8MM
 10
509.5531848122594
 20
221.0
 30
0.0
  0
SEQEND
  5
155
  8
FRONT_HINGE_BARREL_8MM
  0
POLYLINE
  5
6E
  8
REAR_SEAT_SOCKETS_17MM
 66
     1
 10
0.0
 20
0.0
 30
0.0
 70
     1
  0
VERTEX
  5
93
  8
REAR_SEAT_SOCKETS_17MM
 10
312.5531848122594
 20
446.0
 30
0.0
 42
0.4142135623731065
  0
VERTEX
  5
94
  8
REAR_SEAT_SOCKETS_17MM
 10
309.5531848122594
 20
443.0
 30
0.0
  0
VERTEX
  5
95
  8
REAR_SEAT_SOCKETS_17MM
 10
309.5531848122594
 20
435.0
 30
0.0
 42
0.4142135623731065
  0
VERTEX
  5
96
  8
REAR_SEAT_SOCKETS_17MM
 10
312.5531848122594
 20
432.0
 30
0.0
  0
VERTEX
  5
97
  8
REAR_SEAT_SOCKETS_17MM
 10
336.5531848122594
 20
432.0
 30
0.0
 42
0.4142135623731065
  0
VERTEX
  5
98
  8
REAR_SEAT_SOCKETS_17MM
 10
339.5531848122594
 20
435.0
 30
0.0
  0
VERTEX
  5
99
  8
REAR_SEAT_SOCKETS_17MM
 10
339.5531848122594
 20
443.0
 30
0.0
 42
0.4142135623731065
  0
VERTEX
  5
9A
  8
REAR_SEAT_SOCKETS_17MM
 10
336.5531848122594
 20
446.0
 30
0.0
  0
SEQEND
  5
156
  8
REAR_SEAT_SOCKETS_17MM
  0
POLYLINE
  5
6F
  8
REAR_SEAT_SOCKETS_17MM
 66
     1
 10
0.0
 20
0.0
 30
0.0
 70
     1
  0
VERTEX
  5
9B
  8
REAR_SEAT_SOCKETS_17MM
 10
312.5531848122594
 20
104.0
 30
0.0
 42
-0.4142135623731018
  0
VERTEX
  5
9C
  8
REAR_SEAT_SOCKETS_17MM
 10
309.5531848122594
 20
107.0
 30
0.0
  0
VERTEX
  5
9D
  8
REAR_SEAT_SOCKETS_17MM
 10
309.5531848122594
 20
115.0
 30
0.0
 42
-0.4142135623731018
  0
VERTEX
  5
9E
  8
REAR_SEAT_SOCKETS_17MM
 10
312.5531848122594
 20
118.0
 30
0.0
  0
VERTEX
  5
9F
  8
REAR_SEAT_SOCKETS_17MM
 10
336.5531848122594
 20
118.0
 30
0.0
 42
-0.4142135623731018
  0
VERTEX
  5
A0
  8
REAR_SEAT_SOCKETS_17MM
 10
339.5531848122594
 20
115.0
 30
0.0
  0
VERTEX
  5
A1
  8
REAR_SEAT_SOCKETS_17MM
 10
339.5531848122594
 20
107.0
 30
0.0
 42
-0.4142135623731018
  0
VERTEX
  5
A2
  8
REAR_SEAT_SOCKETS_17MM
 10
336.5531848122594
 20
104.0
 30
0.0
  0
SEQEND
  5
157
  8
REAR_SEAT_SOCKETS_17MM
  0
POLYLINE
  5
71
  8
REAR_HINGE_PLATE_2MM
 66
     1
 10
0.0
 20
0.0
 30
0.0
 70
     1
  0
VERTEX
  5
A3
  8
REAR_HINGE_PLATE_2MM
 10
169.5531848122596
 20
504.0
 30
0.0
 42
1.0
  0
VERTEX
  5
A4
  8
REAR_HINGE_PLATE_2MM
 10
169.5531848122595
 20
498.0
 30
0.0
  0
VERTEX
  5
A5
  8
REAR_HINGE_PLATE_2MM
 10
169.5531848122595
 20
470.0
 30
0.0
 42
1.0
  0
VERTEX
  5
A6
  8
REAR_HINGE_PLATE_2MM
 10
169.5531848122595
 20
464.0
 30
0.0
  0
VERTEX
  5
A7
  8
REAR_HINGE_PLATE_2MM
 10
204.1531848122593
 20
464.0
 30
0.0
 42
0.9999999999999906
  0
VERTEX
  5
A8
  8
REAR_HINGE_PLATE_2MM
 10
210.1531848122593
 20
464.0
 30
0.0
  0
VERTEX
  5
A9
  8
REAR_HINGE_PLATE_2MM
 10
210.1531848122593
 20
504.0
 30
0.0
 42
1.0
  0
VERTEX
  5
AA
  8
REAR_HINGE_PLATE_2MM
 10
204.1531848122593
 20
504.0
 30
0.0
  0
SEQEND
  5
158
  8
REAR_HINGE_PLATE_2MM
  0
POLYLINE
  5
72
  8
REAR_HINGE_PLATE_2MM
 66
     1
 10
0.0
 20
0.0
 30
0.0
 70
     1
  0
VERTEX
  5
AB
  8
REAR_HINGE_PLATE_2MM
 10
159.5531848122594
 20
503.5
 30
0.0
  0
VERTEX
  5
AC
  8
REAR_HINGE_PLATE_2MM
 10
118.9531848122595
 20
503.5
 30
0.0
 42
1.0
  0
VERTEX
  5
AD
  8
REAR_HINGE_PLATE_2MM
 10
118.9531848122595
 20
497.5000000000038
 30
0.0
  0
VERTEX
  5
AE
  8
REAR_HINGE_PLATE_2MM
 10
118.9531848122595
 20
464.0
 30
0.0
 42
1.0
  0
VERTEX
  5
AF
  8
REAR_HINGE_PLATE_2MM
 10
124.9531848122595
 20
464.0
 30
0.0
  0
VERTEX
  5
B0
  8
REAR_HINGE_PLATE_2MM
 10
159.5531848122595
 20
464.0
 30
0.0
 42
1.0
  0
VERTEX
  5
B1
  8
REAR_HINGE_PLATE_2MM
 10
159.5531848122595
 20
470.0
 30
0.0
  0
VERTEX
  5
B2
  8
REAR_HINGE_PLATE_2MM
 10
159.5531848122595
 20
497.5
 30
0.0
 42
1.0
  0
SEQEND
  5
159
  8
REAR_HINGE_PLATE_2MM
  0
POLYLINE
  5
73
  8
REAR_HINGE_PLATE_2MM
 66
     1
 10
0.0
 20
0.0
 30
0.0
 70
     1
  0
VERTEX
  5
B3
  8
REAR_HINGE_PLATE_2MM
 10
169.5531848122591
 20
46.0
 30
0.0
  0
VERTEX
  5
B4
  8
REAR_HINGE_PLATE_2MM
 10
204.153184812259
 20
46.0
 30
0.0
 42
0.9999999999999988
  0
VERTEX
  5
B5
  8
REAR_HINGE_PLATE_2MM
 10
210.153184812259
 20
46.0
 30
0.0
  0
VERTEX
  5
B6
  8
REAR_HINGE_PLATE_2MM
 10
210.153184812259
 20
86.0
 30
0.0
 42
1.0
  0
VERTEX
  5
B7
  8
REAR_HINGE_PLATE_2MM
 10
204.153184812259
 20
86.0
 30
0.0
  0
VERTEX
  5
B8
  8
REAR_HINGE_PLATE_2MM
 10
169.5531848122591
 20
86.0
 30
0.0
 42
1.0
  0
VERTEX
  5
B9
  8
REAR_HINGE_PLATE_2MM
 10
169.5531848122591
 20
80.0
 30
0.0
  0
VERTEX
  5
BA
  8
REAR_HINGE_PLATE_2MM
 10
169.5531848122591
 20
52.0
 30
0.0
 42
1.0
  0
SEQEND
  5
15A
  8
REAR_HINGE_PLATE_2MM
  0
POLYLINE
  5
74
  8
REAR_HINGE_PLATE_2MM
 66
     1
 10
0.0
 20
0.0
 30
0.0
 70
     1
  0
VERTEX
  5
BB
  8
REAR_HINGE_PLATE_2MM
 10
118.9531848122592
 20
46.5
 30
0.0
  0
VERTEX
  5
BC
  8
REAR_HINGE_PLATE_2MM
 10
159.5531848122591
 20
46.5
 30
0.0
 42
1.0
  0
VERTEX
  5
BD
  8
REAR_HINGE_PLATE_2MM
 10
159.5531848122591
 20
52.5
 30
0.0
  0
VERTEX
  5
BE
  8
REAR_HINGE_PLATE_2MM
 10
159.5531848122591
 20
86.0
 30
0.0
 42
1.0
  0
VERTEX
  5
BF
  8
REAR_HINGE_PLATE_2MM
 10
153.5531848122591
 20
86.0
 30
0.0
  0
VERTEX
  5
C0
  8
REAR_HINGE_PLATE_2MM
 10
124.9531848122592
 20
86.0
 30
0.0
 42
1.0
  0
VERTEX
  5
C1
  8
REAR_HINGE_PLATE_2MM
 10
118.9531848122592
 20
86.0
 30
0.0
  0
VERTEX
  5
C2
  8
REAR_HINGE_PLATE_2MM
 10
118.9531848122592
 20
52.5
 30
0.0
 42
1.0
  0
SEQEND
  5
15B
  8
REAR_HINGE_PLATE_2MM
  0
POLYLINE
  5
76
  8
REAR_HINGE_BARREL_8MM
 66
     1
 10
0.0
 20
0.0
 30
0.0
 70
     1
  0
VERTEX
  5
C3
  8
REAR_HINGE_BARREL_8MM
 10
505.5531848122594
 20
221.0
 30
0.0
  0
VERTEX
  5
C4
  8
REAR_HINGE_BARREL_8MM
 10
507.5531848122594
 20
221.0
 30
0.0
 42
0.414213562373097
  0
VERTEX
  5
C5
  8
REAR_HINGE_BARREL_8MM
 10
510.5531848122594
 20
224.0
 30
0.0
  0
VERTEX
  5
C6
  8
REAR_HINGE_BARREL_8MM
 10
510.5531848122594
 20
326.0
 30
0.0
 42
0.4142135623731065
  0
VERTEX
  5
C7
  8
REAR_HINGE_BARREL_8MM
 10
507.5531848122594
 20
329.0
 30
0.0
  0
VERTEX
  5
C8
  8
REAR_HINGE_BARREL_8MM
 10
505.6710743800112
 20
328.997682780051
 30
0.0
 42
0.4257736371484619
  0
VERTEX
  5
C9
  8
REAR_HINGE_BARREL_8MM
 10
502.5531848122594
 20
326.0
 30
0.0
  0
VERTEX
  5
CA
  8
REAR_HINGE_BARREL_8MM
 10
502.5531848122594
 20
224.0
 30
0.0
 42
0.414213562373097
  0
SEQEND
  5
15C
  8
REAR_HINGE_BARREL_8MM
  0
POLYLINE
  5
77
  8
REAR_HINGE_BARREL_8MM
 66
     1
 10
0.0
 20
0.0
 30
0.0
 70
     1
  0
VERTEX
  5
CB
  8
REAR_HINGE_BARREL_8MM
 10
159.5531848122594
 20
464.5
 30
0.0
 42
0.4142135623731065
  0
VERTEX
  5
CC
  8
REAR_HINGE_BARREL_8MM
 10
162.5531848122594
 20
461.5
 30
0.0
  0
VERTEX
  5
CD
  8
REAR_HINGE_BARREL_8MM
 10
166.5531848122594
 20
461.5
 30
0.0
 42
0.4142135623731065
  0
VERTEX
  5
CE
  8
REAR_HINGE_BARREL_8MM
 10
169.5531848122594
 20
464.5
 30
0.0
  0
VERTEX
  5
CF
  8
REAR_HINGE_BARREL_8MM
 10
169.5531848122594
 20
503.5
 30
0.0
 42
0.4142135623731065
  0
VERTEX
  5
D0
  8
REAR_HINGE_BARREL_8MM
 10
166.5531848122594
 20
506.5
 30
0.0
  0
VERTEX
  5
D1
  8
REAR_HINGE_BARREL_8MM
 10
162.5531848122594
 20
506.5
 30
0.0
 42
0.4142135623731065
  0
VERTEX
  5
D2
  8
REAR_HINGE_BARREL_8MM
 10
159.5531848122594
 20
503.5
 30
0.0
  0
SEQEND
  5
15D
  8
REAR_HINGE_BARREL_8MM
  0
POLYLINE
  5
78
  8
REAR_HINGE_BARREL_8MM
 66
     1
 10
0.0
 20
0.0
 30
0.0
 70
     1
  0
VERTEX
  5
D3
  8
REAR_HINGE_BARREL_8MM
 10
162.5531848122591
 20
43.5
 30
0.0
  0
VERTEX
  5
D4
  8
REAR_HINGE_BARREL_8MM
 10
166.5531848122591
 20
43.5
 30
0.0
 42
0.4142135623731018
  0
VERTEX
  5
D5
  8
REAR_HINGE_BARREL_8MM
 10
169.5531848122591
 20
46.5
 30
0.0
  0
VERTEX
  5
D6
  8
REAR_HINGE_BARREL_8MM
 10
169.5531848122591
 20
85.5
 30
0.0
 42
0.4142135623731018
  0
VERTEX
  5
D7
  8
REAR_HINGE_BARREL_8MM
 10
166.5531848122591
 20
88.5
 30
0.0
  0
VERTEX
  5
D8
  8
REAR_HINGE_BARREL_8MM
 10
162.5531848122591
 20
88.5
 30
0.0
 42
0.4142135623731018
  0
VERTEX
  5
D9
  8
REAR_HINGE_BARREL_8MM
 10
159.5531848122591
 20
85.5
 30
0.0
  0
VERTEX
  5
DA
  8
REAR_HINGE_BARREL_8MM
 10
159.5531848122591
 20
46.5
 30
0.0
 42
0.4142135623731018
  0
SEQEND
  5
15E
  8
REAR_HINGE_BARREL_8MM
  0
POLYLINE
  5
7A
  8
REAR_HINGE_PLATE_3MM
 66
     1
 10
0.0
 20
0.0
 30
0.0
 70
     1
  0
VERTEX
  5
DB
  8
REAR_HINGE_PLATE_3MM
 10
471.5531848122594
 20
224.0
 30
0.0
  0
VERTEX
  5
DC
  8
REAR_HINGE_PLATE_3MM
 10
502.5531848122594
 20
224.0
 30
0.0
 42
1.0
  0
VERTEX
  5
DD
  8
REAR_HINGE_PLATE_3MM
 10
502.5531848122594
 20
230.0
 30
0.0
  0
VERTEX
  5
DE
  8
REAR_HINGE_PLATE_3MM
 10
502.5531848122594
 20
320.0
 30
0.0
 42
1.0
  0
VERTEX
  5
DF
  8
REAR_HINGE_PLATE_3MM
 10
502.5531848122594
 20
326.0
 30
0.0
  0
VERTEX
  5
E0
  8
REAR_HINGE_PLATE_3MM
 10
471.5531848122594
 20
326.0
 30
0.0
 42
1.0
  0
VERTEX
  5
E1
  8
REAR_HINGE_PLATE_3MM
 10
471.5531848122594
 20
320.0
 30
0.0
  0
VERTEX
  5
E2
  8
REAR_HINGE_PLATE_3MM
 10
471.5531848122594
 20
230.0
 30
0.0
 42
1.0
  0
SEQEND
  5
15F
  8
REAR_HINGE_PLATE_3MM
  0
POLYLINE
  5
7C
  8
FRONT_HINGE_PLATE_3MM
 66
     1
 10
0.0
 20
0.0
 30
0.0
 70
     1
  0
VERTEX
  5
E3
  8
FRONT_HINGE_PLATE_3MM
 10
512.5531848122594
 20
224.0
 30
0.0
  0
VERTEX
  5
E4
  8
FRONT_HINGE_PLATE_3MM
 10
543.5531848122594
 20
224.0
 30
0.0
 42
1.0
  0
VERTEX
  5
E5
  8
FRONT_HINGE_PLATE_3MM
 10
543.5531848122594
 20
230.0
 30
0.0
  0
VERTEX
  5
E6
  8
FRONT_HINGE_PLATE_3MM
 10
543.5531848122594
 20
320.0
 30
0.0
 42
1.0
  0
VERTEX
  5
E7
  8
FRONT_HINGE_PLATE_3MM
 10
543.5531848122594
 20
326.0
 30
0.0
  0
VERTEX
  5
E8
  8
FRONT_HINGE_PLATE_3MM
 10
512.5531848122594
 20
326.0
 30
0.0
 42
1.0
  0
VERTEX
  5
E9
  8
FRONT_HINGE_PLATE_3MM
 10
512.5531848122594
 20
320.0
 30
0.0
  0
VERTEX
  5
EA
  8
FRONT_HINGE_PLATE_3MM
 10
512.5531848122594
 20
230.0
 30
0.0
 42
1.0
  0
SEQEND
  5
160
  8
FRONT_HINGE_PLATE_3MM
  0
POLYLINE
  5
7D
  8
0
 66
     1
 10
0.0
 20
0.0
 30
0.0
 70
     1
  0
VERTEX
  5
EB
  8
0
 10
21.9609329765758
 20
91.56906760746551
 30
0.0
 42
0.3614487575089238
  0
VERTEX
  5
EC
  8
0
 10
132.0816712667438
 20
0.0
 30
0.0
  0
VERTEX
  5
ED
  8
0
 10
964.5531848122594
 20
-0.0000000000001137
 30
0.0
 42
0.4142135623730953
  0
VERTEX
  5
EE
  8
0
 10
974.5531848122594
 20
9.999999999999886
 30
0.0
  0
VERTEX
  5
EF
  8
0
 10
974.5531848122594
 20
69.99999999999989
 30
0.0
 42
0.3475404855923577
  0
VERTEX
  5
F0
  8
0
 10
966.8608771199517
 20
79.73008510821035
 30
0.0
 42
-0.3475404855923578
  0
VERTEX
  5
F1
  8
0
 10
964.5531848122594
 20
82.64911064067337
 30
0.0
  0
VERTEX
  5
F2
  8
0
 10
964.5531848122594
 20
467.3508893593265
 30
0.0
 42
-0.3475404855923585
  0
VERTEX
  5
F3
  8
0
 10
966.8608771199517
 20
470.2699148917895
 30
0.0
 42
0.3475404855923587
  0
VERTEX
  5
F4
  8
0
 10
974.5531848122594
 20
480.0
 30
0.0
  0
VERTEX
  5
F5
  8
0
 10
974.5531848122594
 20
540.0
 30
0.0
 42
0.4142135623730895
  0
VERTEX
  5
F6
  8
0
 10
964.5531848122594
 20
550.0
 30
0.0
  0
VERTEX
  5
F7
  8
0
 10
132.0816712667438
 20
550.0
 30
0.0
 42
0.3626783380091526
  0
VERTEX
  5
F8
  8
0
 10
21.87313444421352
 20
457.9519024515707
 30
0.0
 42
0.0899107254961383
  0
SEQEND
  5
161
  8
0
  0
POLYLINE
  5
7E
  8
0
 66
     1
 10
0.0
 20
0.0
 30
0.0
 70
     1
  0
VERTEX
  5
F9
  8
0
 10
472.091646350722
 20
515.3076923076919
 30
0.0
 42
-0.8827822185373742
  0
VERTEX
  5
FA
  8
0
 10
474.5531848122594
 20
535.0
 30
0.0
  0
VERTEX
  5
FB
  8
0
 10
554.5531848122594
 20
535.0
 30
0.0
 42
-0.8827822185373773
  0
VERTEX
  5
FC
  8
0
 10
557.0147232737969
 20
515.3076923076908
 30
0.0
 42
-0.1249999999999406
  0
SEQEND
  5
162
  8
0
  0
POLYLINE
  5
7F
  8
0
 66
     1
 10
0.0
 20
0.0
 30
0.0
 70
     1
  0
VERTEX
  5
FD
  8
0
 10
474.5531848122594
 20
14.99999999999989
 30
0.0
 42
-0.88278221853732
  0
VERTEX
  5
FE
  8
0
 10
472.091646350721
 20
34.69230769230774
 30
0.0
 42
-0.1249999999999962
  0
VERTEX
  5
FF
  8
0
 10
557.0147232737978
 20
34.69230769230768
 30
0.0
 42
-0.88278221853732
  0
VERTEX
  5
100
  8
0
 10
554.5531848122594
 20
14.99999999999989
 30
0.0
  0
SEQEND
  5
163
  8
0
  0
POLYLINE
  5
80
  8
0
 66
     1
 10
0.0
 20
0.0
 30
0.0
 70
     1
  0
VERTEX
  5
101
  8
0
 10
22.01519859511518
 20
286.8220588516114
 30
0.0
 42
0.0059731207708949
  0
VERTEX
  5
102
  8
0
 10
22.02115250800557
 20
262.6795667898058
 30
0.0
 42
0.9999999999999858
  0
VERTEX
  5
103
  8
0
 10
34.02026054526573
 20
262.8258757443058
 30
0.0
 42
-0.0059731207708918
  0
VERTEX
  5
104
  8
0
 10
34.01437733693183
 20
286.681668246743
 30
0.0
 42
0.9999999999999998
  0
SEQEND
  5
164
  8
0
  0
POLYLINE
  5
81
  8
0
 66
     1
 10
0.0
 20
0.0
 30
0.0
 70
     1
  0
VERTEX
  5
105
  8
0
 10
161.5531848122594
 20
40.0
 30
0.0
  0
VERTEX
  5
106
  8
0
 10
351.5531848122594
 20
40.0
 30
0.0
 42
0.0803714697590732
  0
VERTEX
  5
107
  8
0
 10
383.7160659969259
 20
45.20356889894629
 30
0.0
  0
VERTEX
  5
108
  8
0
 10
522.499151905926
 20
91.31749946186721
 30
0.0
 42
0.3230862437232424
  0
VERTEX
  5
109
  8
0
 10
524.5531848122594
 20
94.16445331778061
 30
0.0
  0
VERTEX
  5
10A
  8
0
 10
524.5531848122594
 20
101.0
 30
0.0
 42
0.4142135623731018
  0
VERTEX
  5
10B
  8
0
 10
521.5531848122594
 20
104.0
 30
0.0
  0
VERTEX
  5
10C
  8
0
 10
513.5531848122594
 20
104.0
 30
0.0
 42
-0.4142135623731018
  0
VERTEX
  5
10D
  8
0
 10
510.5531848122594
 20
107.0
 30
0.0
  0
VERTEX
  5
10E
  8
0
 10
510.5531848122594
 20
115.0
 30
0.0
 42
-0.4142135623731018
  0
VERTEX
  5
10F
  8
0
 10
513.5531848122594
 20
118.0
 30
0.0
  0
VERTEX
  5
110
  8
0
 10
524.5531848122594
 20
118.0
 30
0.0
  0
VERTEX
  5
111
  8
0
 10
912.3116706449202
 20
150.7954852598604
 30
0.0
 42
0.3897107780297
  0
VERTEX
  5
112
  8
0
 10
920.5531848122594
 20
159.7634671533331
 30
0.0
  0
VERTEX
  5
113
  8
0
 10
920.5531848122594
 20
390.2365328466667
 30
0.0
 42
0.3897107780296954
  0
VERTEX
  5
114
  8
0
 10
912.3116706449201
 20
399.2045147401393
 30
0.0
  0
VERTEX
  5
115
  8
0
 10
524.55318481226
 20
431.9999999999999
 30
0.0
  0
VERTEX
  5
116
  8
0
 10
513.5531848122594
 20
432.0
 30
0.0
 42
-0.4142135623731065
  0
VERTEX
  5
117
  8
0
 10
510.5531848122594
 20
435.0
 30
0.0
  0
VERTEX
  5
118
  8
0
 10
510.5531848122594
 20
443.0
 30
0.0
 42
-0.4142135623731065
  0
VERTEX
  5
119
  8
0
 10
513.5531848122594
 20
446.0
 30
0.0
  0
VERTEX
  5
11A
  8
0
 10
521.5531848122594
 20
446.0
 30
0.0
 42
0.4142135623731065
  0
VERTEX
  5
11B
  8
0
 10
524.5531848122594
 20
449.0
 30
0.0
  0
VERTEX
  5
11C
  8
0
 10
524.5531848122594
 20
455.8355466822193
 30
0.0
 42
0.3230862437232262
  0
VERTEX
  5
11D
  8
0
 10
522.499151905926
 20
458.6825005381327
 30
0.0
  0
VERTEX
  5
11E
  8
0
 10
383.7160659969258
 20
504.7964311010537
 30
0.0
 42
0.0803714697590698
  0
VERTEX
  5
11F
  8
0
 10
351.5531848122594
 20
510.0
 30
0.0
  0
VERTEX
  5
120
  8
0
 10
161.5531848122594
 20
510.0
 30
0.0
  0
VERTEX
  5
121
  8
0
 10
161.5531848122594
 20
464.0
 30
0.0
  0
VERTEX
  5
122
  8
0
 10
124.8499171477993
 20
464.0
 30
0.0
 42
0.3752884561680967
  0
VERTEX
  5
123
  8
0
 10
59.44778657092752
 20
406.8634821602923
 30
0.0
 42
0.0674531084190238
  0
VERTEX
  5
124
  8
0
 10
59.44778657092763
 20
143.1365178397076
 30
0.0
 42
0.3752884561680971
  0
VERTEX
  5
125
  8
0
 10
124.8499171477993
 20
86.0
 30
0.0
  0
VERTEX
  5
126
  8
0
 10
161.5531848122594
 20
86.0
 30
0.0
  0
SEQEND
  5
165
  8
0
  0
POLYLINE
  5
82
  8
0
 66
     1
 10
0.0
 20
0.0
 30
0.0
 70
     1
  0
VERTEX
  5
127
  8
0
 10
111.7874256247305
 20
143.5172542131038
 30
0.0
 42
0.3732499413796316
  0
VERTEX
  5
128
  8
0
 10
171.1847574159387
 20
92.0
 30
0.0
  0
VERTEX
  5
129
  8
0
 10
351.5531848122594
 20
92.0
 30
0.0
 42
0.1381035910208695
  0
VERTEX
  5
12A
  8
0
 10
377.642433997215
 20
99.34614815792952
 30
0.0
  0
VERTEX
  5
12B
  8
0
 10
480.642433997215
 20
162.3461481579295
 30
0.0
 42
0.2611699085509763
  0
VERTEX
  5
12C
  8
0
 10
504.5531848122594
 20
205.0
 30
0.0
  0
VERTEX
  5
12D
  8
0
 10
504.5531848122594
 20
345.0
 30
0.0
 42
0.2611699085509782
  0
VERTEX
  5
12E
  8
0
 10
480.642433997215
 20
387.6538518420703
 30
0.0
  0
VERTEX
  5
12F
  8
0
 10
377.642433997215
 20
450.6538518420703
 30
0.0
 42
0.1381035910208704
  0
VERTEX
  5
130
  8
0
 10
351.5531848122594
 20
458.0
 30
0.0
  0
VERTEX
  5
131
  8
0
 10
171.1847574159387
 20
458.0
 30
0.0
 42
0.3732498182954865
  0
VERTEX
  5
132
  8
0
 10
111.787429290416
 20
406.4827714544826
 30
0.0
 42
0.071046463621044
  0
SEQEND
  5
166
  8
0
  0
POLYLINE
  5
83
  8
0
 66
     1
 10
0.0
 20
0.0
 30
0.0
 70
     1
  0
VERTEX
  5
133
  8
0
 10
167.5531848122594
 20
46.0
 30
0.0
  0
VERTEX
  5
134
  8
0
 10
351.5531848122594
 20
46.0
 30
0.0
 42
0.1328934289112988
  0
VERTEX
  5
135
  8
0
 10
399.95819227613
 20
59.09671144989102
 30
0.0
  0
VERTEX
  5
136
  8
0
 10
509.0152153625215
 20
122.7721833015727
 30
0.0
 42
-0.1120765472512285
  0
VERTEX
  5
137
  8
0
 10
512.8157064519885
 20
123.9697338683
 30
0.0
  0
VERTEX
  5
138
  8
0
 10
911.7990109323496
 20
156.7735558638997
 30
0.0
 42
0.3903854315602215
  0
VERTEX
  5
139
  8
0
 10
914.5531848122594
 20
159.7634671533331
 30
0.0
  0
VERTEX
  5
13A
  8
0
 10
914.5531848122594
 20
231.9999999999999
 30
0.0
 42
0.4142135623730942
  0
VERTEX
  5
13B
  8
0
 10
911.5531848122594
 20
234.9999999999999
 30
0.0
  0
VERTEX
  5
13C
  8
0
 10
907.5531848122594
 20
234.9999999999999
 30
0.0
 42
-0.4142135623730923
  0
VERTEX
  5
13D
  8
0
 10
904.5531848122594
 20
237.9999999999999
 30
0.0
  0
VERTEX
  5
13E
  8
0
 10
904.5531848122594
 20
311.9999999999999
 30
0.0
 42
-0.4142135623731018
  0
VERTEX
  5
13F
  8
0
 10
907.5531848122594
 20
314.9999999999999
 30
0.0
  0
VERTEX
  5
140
  8
0
 10
911.5531848122594
 20
314.9999999999999
 30
0.0
 42
0.4142135623731018
  0
VERTEX
  5
141
  8
0
 10
914.5531848122594
 20
318.0
 30
0.0
  0
VERTEX
  5
142
  8
0
 10
914.5531848122594
 20
390.2365328466667
 30
0.0
 42
0.3903854315602187
  0
VERTEX
  5
143
  8
0
 10
911.7990109323496
 20
393.2264441361001
 30
0.0
  0
VERTEX
  5
144
  8
0
 10
512.8157064519885
 20
426.0302661316999
 30
0.0
 42
-0.1120765472512142
  0
VERTEX
  5
145
  8
0
 10
509.0152153625215
 20
427.2278166984272
 30
0.0
  0
VERTEX
  5
146
  8
0
 10
399.95819227613
 20
490.9032885501089
 30
0.0
 42
0.1328934289112989
  0
VERTEX
  5
147
  8
0
 10
351.5531848122594
 20
504.0
 30
0.0
  0
VERTEX
  5
148
  8
0
 10
167.5531848122594
 20
504.0
 30
0.0
  0
VERTEX
  5
149
  8
0
 10
167.5531848122594
 20
464.0
 30
0.0
  0
VERTEX
  5
14A
  8
0
 10
351.5531848122594
 20
464.0
 30
0.0
 42
-0.1381035910208696
  0
VERTEX
  5
14B
  8
0
 10
380.7731438994097
 20
455.7723140631188
 30
0.0
  0
VERTEX
  5
14C
  8
0
 10
483.7731438994097
 20
392.7723140631188
 30
0.0
 42
-0.2611699085509763
  0
VERTEX
  5
14D
  8
0
 10
510.5531848122594
 20
345.0
 30
0.0
  0
VERTEX
  5
14E
  8
0
 10
510.5531848122594
 20
205.0
 30
0.0
 42
-0.261169908550976
  0
VERTEX
  5
14F
  8
0
 10
483.7731438994097
 20
157.2276859368811
 30
0.0
  0
VERTEX
  5
150
  8
0
 10
380.7731438994097
 20
94.22768593688113
 30
0.0
 42
-0.1381035910208687
  0
VERTEX
  5
151
  8
0
 10
351.5531848122594
 20
86.0
 30
0.0
  0
VERTEX
  5
152
  8
0
 10
167.5531848122594
 20
86.0
 30
0.0
  0
SEQEND
  5
167
  8
0
  0
ENDSEC
  0
EOF
